<svg xmlns="http://www.w3.org/2000/svg" xmlns:xlink="http://www.w3.org/1999/xlink" viewBox="0 0 763.77 378.26"><defs><style>.cls-1{fill:url(#linear-gradient);}.cls-2{fill:#f26522;}.cls-3{fill:#fff;}.cls-4{fill:none;stroke:#f26522;stroke-width:1.35px;}.cls-5{fill:#194896;}.cls-6{fill:#ffcb27;}</style><linearGradient id="linear-gradient" x1="609.91" y1="153.55" x2="707.2" y2="153.55" gradientUnits="userSpaceOnUse"><stop offset="0" stop-color="#f26522"/><stop offset="1" stop-color="#fff"/></linearGradient></defs><title>READCHINA logos</title><g id="Layer_15" data-name="Layer 15"><path id="SVGID" class="cls-1" d="M623,126.81a6,6,0,1,0-8.46.71,6,6,0,0,0,8.46-.71M631.8,139a6,6,0,1,0-8-3A6,6,0,0,0,631.8,139Zm3,2.83a6,6,0,1,0,5.94,6.05A6,6,0,0,0,634.75,141.82ZM631,168.09a6,6,0,1,0-2.88-8A6,6,0,0,0,631,168.09Zm.09,11.22a6,6,0,1,0-8.48-.44A6,6,0,0,0,631.11,179.31Zm-17.33-1a6,6,0,1,0,7.57,3.87A6,6,0,0,0,613.78,178.27Zm20.51,17.79a5.15,5.15,0,1,0-7.24-.85A5.14,5.14,0,0,0,634.29,196.06ZM655.12,154a5.15,5.15,0,1,0-5.26,5A5.15,5.15,0,0,0,655.12,154ZM646,173.12a5.14,5.14,0,1,0-3.3-6.48A5.15,5.15,0,0,0,646,173.12Zm.22,9.86a5.15,5.15,0,1,0-7.13,1.48A5.13,5.13,0,0,0,646.2,183Zm2.56-40.34a5.15,5.15,0,1,0-6.48-3.31A5.14,5.14,0,0,0,648.76,142.64Zm-5.62-23.27a5.15,5.15,0,1,0-.91,7.22A5.16,5.16,0,0,0,643.14,119.37Zm-18.72-3.46a5.15,5.15,0,1,0-1.42-7.13A5.16,5.16,0,0,0,624.42,115.91Zm8.35-11.35a4.49,4.49,0,1,0-1.21-6.22A4.49,4.49,0,0,0,632.77,104.56Zm14.92,7.06a4.48,4.48,0,1,0-6.34,0A4.47,4.47,0,0,0,647.69,111.62Zm1.08,8.94a4.49,4.49,0,1,0,1.32-6.2A4.5,4.5,0,0,0,648.77,120.56Zm7.32,3.51a4.48,4.48,0,1,0,5.91,2.34A4.47,4.47,0,0,0,656.09,124.07ZM657,141.2a4.49,4.49,0,1,0,3.36-5.38A4.5,4.5,0,0,0,657,141.2Zm10.46,12.4a4.49,4.49,0,1,0-4.53,4.45A4.49,4.49,0,0,0,667.44,153.6ZM666,166.78a4.49,4.49,0,1,0-5.31,3.48A4.49,4.49,0,0,0,666,166.78Zm-9.59,14.44a4.48,4.48,0,1,0-2.44-5.85A4.49,4.49,0,0,0,656.41,181.22Zm-.87,9.92a4.49,4.49,0,1,0-6.24,1.16A4.48,4.48,0,0,0,655.54,191.14ZM647.29,201a4.48,4.48,0,1,0-6.34,0A4.47,4.47,0,0,0,647.29,201Zm-15.31,1a4.48,4.48,0,1,0,6.21,1.36A4.47,4.47,0,0,0,632,201.92ZM649.14,98.36a3.82,3.82,0,1,0-5.4,0A3.81,3.81,0,0,0,649.14,98.36Zm9.76,10.76a3.82,3.82,0,1,0-5.3-1.08A3.81,3.81,0,0,0,658.9,109.12Zm2.43,10.28a3.82,3.82,0,1,0,2.1-5A3.81,3.81,0,0,0,661.33,119.4Zm9.72,15.22a3.82,3.82,0,1,0-4.5-3A3.83,3.83,0,0,0,671.05,134.62Zm2.29,7.22a3.82,3.82,0,1,0,3.8,3.85A3.83,3.83,0,0,0,673.34,141.84Zm3.54,20.72a3.83,3.83,0,1,0-4.58,2.87A3.82,3.82,0,0,0,676.88,162.56Zm-8.13,16a3.82,3.82,0,1,0-2-5A3.83,3.83,0,0,0,668.75,178.58Zm-.65,11.34a3.82,3.82,0,1,0-5.31,1A3.81,3.81,0,0,0,668.1,189.92Zm-9.05,13.23a3.82,3.82,0,1,0-5.41-.09A3.82,3.82,0,0,0,659.05,203.15Zm-14.91,4a3.82,3.82,0,1,0,5.29,1.12A3.82,3.82,0,0,0,644.14,207.19Zm1.28-122.48a3.62,3.62,0,1,0-1-5A3.63,3.63,0,0,0,645.42,84.71Zm17.74,10.34A3.63,3.63,0,1,0,658,95,3.63,3.63,0,0,0,663.16,95.05Zm10.73,14.49a3.63,3.63,0,1,0-5-1.09A3.62,3.62,0,0,0,673.89,109.54Zm1.71,11.63a3.64,3.64,0,1,0,2-4.74A3.64,3.64,0,0,0,675.6,121.17Zm8.92,17.47a3.63,3.63,0,1,0-4.31-2.81A3.63,3.63,0,0,0,684.52,138.64Zm1.1,9.76a3.63,3.63,0,1,0,3.66,3.61A3.63,3.63,0,0,0,685.62,148.4Zm-2.49,25.39a3.63,3.63,0,1,0-2.81-4.3A3.65,3.65,0,0,0,683.13,173.79Zm-2.82,9.12a3.63,3.63,0,1,0,1.92,4.76A3.64,3.64,0,0,0,680.31,182.91Zm-6.1,19.6a3.63,3.63,0,1,0-5,1A3.62,3.62,0,0,0,674.21,202.51Zm-16.89,9a3.63,3.63,0,1,0,5.14.08A3.63,3.63,0,0,0,657.32,211.51ZM644.4,221.8a3.63,3.63,0,1,0,5,1.1A3.65,3.65,0,0,0,644.4,221.8ZM661.32,67.35a1.86,1.86,0,1,0-2.6.48A1.86,1.86,0,0,0,661.32,67.35Zm15.17,13.22a1.86,1.86,0,1,0-2.64,0A1.86,1.86,0,0,0,676.49,80.57Zm12.15,15.48a1.86,1.86,0,1,0-2.58-.52A1.86,1.86,0,0,0,688.64,96.05Zm7.88,14.66a1.86,1.86,0,1,0,2.43,1A1.86,1.86,0,0,0,696.52,110.71Zm6.87,22a1.86,1.86,0,1,0-2.2-1.43A1.86,1.86,0,0,0,703.39,132.69Zm1.93,17a1.86,1.86,0,1,0,0,3.72,1.86,1.86,0,1,0,0-3.72ZM703.8,171a1.86,1.86,0,1,0,1.47,2.18A1.88,1.88,0,0,0,703.8,171Zm-6.61,22.57a1.86,1.86,0,1,0,.94,2.46A1.87,1.87,0,0,0,697.19,193.58Zm-13,19.4a1.86,1.86,0,1,0,3,2.18,1.85,1.85,0,0,0-.42-2.59A1.87,1.87,0,0,0,684.22,213ZM672.88,226.3a1.86,1.86,0,1,0,2.64,0A1.85,1.85,0,0,0,672.88,226.3Zm-16,12.94a1.86,1.86,0,1,0,2.58.54A1.87,1.87,0,0,0,656.92,239.24ZM659.58,78a2.32,2.32,0,1,0,3.29,0A2.31,2.31,0,0,0,659.58,78ZM675.2,94.43a2.33,2.33,0,1,0-3.22-.66A2.32,2.32,0,0,0,675.2,94.43Zm10.42,16.66a2.32,2.32,0,1,0-3-1.3A2.35,2.35,0,0,0,685.62,111.09ZM689,125.23a2.33,2.33,0,1,0,1.82-2.74A2.33,2.33,0,0,0,689,125.23ZM694.77,139a2.33,2.33,0,1,0,2.38,2.28A2.33,2.33,0,0,0,694.77,139Zm-1.9,21.93a2.33,2.33,0,1,0,2.72-1.84A2.31,2.31,0,0,0,692.87,160.93Zm-.45,17.14a2.33,2.33,0,1,0,1.27,3A2.32,2.32,0,0,0,692.42,178.07Zm-6.63,21.84a2.33,2.33,0,1,0-3.24.6A2.33,2.33,0,0,0,685.79,199.91Zm-10.6,15.55a2.33,2.33,0,1,0-3.3,0A2.35,2.35,0,0,0,675.19,215.46Zm-16.55,9.83a2.33,2.33,0,1,0,3.22.69A2.32,2.32,0,0,0,658.64,225.29Z"/><path class="cls-2" d="M610.08,119.63a6,6,0,1,1-4.17-7.39,6,6,0,0,1,4.17,7.39"/><path class="cls-2" d="M596.14,187.05a6,6,0,1,1,5.44,6.51,6,6,0,0,1-5.44-6.51"/><path class="cls-2" d="M583.18,182.9a6,6,0,1,1,2.51,8.1,6,6,0,0,1-2.51-8.1"/><path class="cls-2" d="M572.46,173.63a6,6,0,1,1-1,8.42,6,6,0,0,1,1-8.42"/><path class="cls-2" d="M566.39,160.92a6,6,0,1,1-4.25,7.34,6,6,0,0,1,4.25-7.34"/><path class="cls-2" d="M565.8,147.42a6,6,0,1,1-6.74,5.15,6,6,0,0,1,6.74-5.15"/><path class="cls-2" d="M570.72,134.27a6,6,0,1,1-8.24,2.06,6,6,0,0,1,8.24-2.06"/><path class="cls-2" d="M580.47,124.17a6,6,0,1,1-8.38-1.38,6,6,0,0,1,8.38,1.38"/><path class="cls-2" d="M595,118.49a6,6,0,1,1-6.92-4.91,6,6,0,0,1,6.92,4.91"/><path class="cls-2" d="M605.26,202.89a5.16,5.16,0,1,1-5.16-5.14,5.15,5.15,0,0,1,5.16,5.14"/><path class="cls-2" d="M620.82,198.64a5.15,5.15,0,1,1-6.52-3.25,5.14,5.14,0,0,1,6.52,3.25"/><path class="cls-2" d="M594.64,103.15a5.15,5.15,0,1,1,5,5.3,5.14,5.14,0,0,1-5-5.3"/><path class="cls-2" d="M609.89,103.58a5.15,5.15,0,1,1,3.24,6.52,5.15,5.15,0,0,1-3.24-6.52"/><path class="cls-2" d="M579.44,107.43a5.15,5.15,0,1,1,6.44,3.39,5.15,5.15,0,0,1-6.44-3.39"/><path class="cls-2" d="M565.53,116.92a5.15,5.15,0,1,1,7.21,1,5.12,5.12,0,0,1-7.21-1"/><path class="cls-2" d="M550.94,143.11A5.14,5.14,0,1,1,557.5,140a5.14,5.14,0,0,1-6.56,3.16"/><path class="cls-2" d="M555.92,128.65a5.15,5.15,0,1,1,7.17-1.33,5.15,5.15,0,0,1-7.17,1.33"/><path class="cls-2" d="M550.06,158.56a5.14,5.14,0,1,1,5.34-5,5.14,5.14,0,0,1-5.34,5"/><path class="cls-2" d="M554.14,173.85a5.15,5.15,0,1,1,3.49-6.39,5.16,5.16,0,0,1-3.49,6.39"/><path class="cls-2" d="M563.06,187.1a5.15,5.15,0,1,1,1.11-7.2,5.17,5.17,0,0,1-1.11,7.2"/><path class="cls-2" d="M588.07,202a5.15,5.15,0,1,1-3.07-6.59,5.16,5.16,0,0,1,3.07,6.59"/><path class="cls-2" d="M575.05,196.73a5.15,5.15,0,1,1-1.23-7.17,5.17,5.17,0,0,1,1.23,7.17"/><path class="cls-2" d="M604.59,90a4.49,4.49,0,1,1-4.49-4.49A4.48,4.48,0,0,1,604.59,90"/><path class="cls-2" d="M616.84,92.14a4.49,4.49,0,1,1-3.52-5.27,4.49,4.49,0,0,1,3.52,5.27"/><path class="cls-2" d="M627.86,96.34a4.49,4.49,0,1,1-2.49-5.84,4.5,4.5,0,0,1,2.49,5.84"/><path class="cls-2" d="M536.89,148.75a4.48,4.48,0,1,1-4.46,4.52,4.48,4.48,0,0,1,4.46-4.52"/><path class="cls-2" d="M538.93,136.51a4.48,4.48,0,1,1-5.25,3.55,4.48,4.48,0,0,1,5.25-3.55"/><path class="cls-2" d="M543.05,125.48a4.48,4.48,0,1,1-5.83,2.52,4.48,4.48,0,0,1,5.83-2.52"/><path class="cls-2" d="M550,114.3a4.48,4.48,0,1,1-6.22,1.26A4.47,4.47,0,0,1,550,114.3"/><path class="cls-2" d="M558.21,105.56a4.49,4.49,0,1,1-6.35.06,4.48,4.48,0,0,1,6.35-.06"/><path class="cls-2" d="M568.42,98.21a4.49,4.49,0,1,1-6.22-1.27,4.47,4.47,0,0,1,6.22,1.27"/><path class="cls-2" d="M578.83,93.47a4.49,4.49,0,1,1-5.92-2.3,4.48,4.48,0,0,1,5.92,2.3"/><path class="cls-2" d="M591.08,90.66a4.48,4.48,0,1,1-5.41-3.31,4.47,4.47,0,0,1,5.41,3.31"/><path class="cls-2" d="M595.72,215.87a4.49,4.49,0,1,1,4.52,4.45,4.47,4.47,0,0,1-4.52-4.45"/><path class="cls-2" d="M583.46,213.82a4.49,4.49,0,1,1,3.56,5.25,4.51,4.51,0,0,1-3.56-5.25"/><path class="cls-2" d="M572.41,209.71a4.49,4.49,0,1,1,2.53,5.82,4.5,4.5,0,0,1-2.53-5.82"/><path class="cls-2" d="M561.22,202.78a4.49,4.49,0,1,1,1.26,6.21,4.5,4.5,0,0,1-1.26-6.21"/><path class="cls-2" d="M552.47,194.57a4.48,4.48,0,1,1,.06,6.34,4.49,4.49,0,0,1-.06-6.34"/><path class="cls-2" d="M545.12,184.36a4.49,4.49,0,1,1-1.28,6.21,4.5,4.5,0,0,1,1.28-6.21"/><path class="cls-2" d="M540.37,174a4.48,4.48,0,1,1-2.3,5.91,4.49,4.49,0,0,1,2.3-5.91"/><path class="cls-2" d="M537.56,161.74a4.48,4.48,0,1,1-3.31,5.4,4.48,4.48,0,0,1,3.31-5.4"/><path class="cls-2" d="M620.15,212.69a4.48,4.48,0,1,1,5.88,2.39,4.47,4.47,0,0,1-5.88-2.39"/><path class="cls-2" d="M607.85,215.32a4.49,4.49,0,1,1,5.36,3.39,4.48,4.48,0,0,1-5.36-3.39"/><path class="cls-2" d="M595.61,79.39a3.82,3.82,0,1,1-3.82-3.82,3.81,3.81,0,0,1,3.82,3.82"/><path class="cls-2" d="M612.72,80.46a3.83,3.83,0,0,1-7.45-1.76,3.83,3.83,0,0,1,7.45,1.76"/><path class="cls-2" d="M626,84.17a3.82,3.82,0,1,1-1.93-5,3.82,3.82,0,0,1,1.93,5"/><path class="cls-2" d="M637.79,89.92a3.82,3.82,0,1,1-1-5.3,3.82,3.82,0,0,1,1,5.3"/><path class="cls-2" d="M631.07,219.53a3.83,3.83,0,1,1,5,2.1,3.82,3.82,0,0,1-5-2.1"/><path class="cls-2" d="M617.73,224.31a3.83,3.83,0,1,1,4.5,3,3.84,3.84,0,0,1-4.5-3"/><path class="cls-2" d="M604,226.43a3.83,3.83,0,1,1,3.85,3.8,3.84,3.84,0,0,1-3.85-3.8"/><path class="cls-2" d="M587.62,225.59a3.83,3.83,0,1,1,2.91,4.55,3.85,3.85,0,0,1-2.91-4.55"/><path class="cls-2" d="M575.6,222.56a3.82,3.82,0,1,1,2.1,5,3.81,3.81,0,0,1-2.1-5"/><path class="cls-2" d="M559.85,215a3.82,3.82,0,1,1,.87,5.33,3.82,3.82,0,0,1-.87-5.33"/><path class="cls-2" d="M549.73,207.19a3.82,3.82,0,1,1-.06,5.4,3.84,3.84,0,0,1,.06-5.4"/><path class="cls-2" d="M540.17,196.54a3.82,3.82,0,1,1-1.1,5.29,3.82,3.82,0,0,1,1.1-5.29"/><path class="cls-2" d="M533.37,185.34a3.82,3.82,0,1,1-2,5,3.82,3.82,0,0,1,2-5"/><path class="cls-2" d="M528.81,173.62a3.82,3.82,0,1,1-2.85,4.59,3.83,3.83,0,0,1,2.85-4.59"/><path class="cls-2" d="M526,157.86a3.82,3.82,0,1,1-3.78,3.87,3.82,3.82,0,0,1,3.78-3.87"/><path class="cls-2" d="M526.59,142.47a3.82,3.82,0,1,1-4.5,3,3.81,3.81,0,0,1,4.5-3"/><path class="cls-2" d="M530.13,128.19a3.82,3.82,0,1,1-5,2.05,3.83,3.83,0,0,1,5-2.05"/><path class="cls-2" d="M536.54,114.73a3.82,3.82,0,1,1-5.32,1,3.83,3.83,0,0,1,5.32-1"/><path class="cls-2" d="M545.82,102.52a3.82,3.82,0,1,1-5.4-.12,3.8,3.8,0,0,1,5.4.12"/><path class="cls-2" d="M556,93.56a3.82,3.82,0,1,1-5.29-1.11A3.8,3.8,0,0,1,556,93.56"/><path class="cls-2" d="M567.51,86.62a3.83,3.83,0,1,1-5-2.05,3.82,3.82,0,0,1,5,2.05"/><path class="cls-2" d="M581.17,81.62a3.83,3.83,0,1,1-4.5-3,3.81,3.81,0,0,1,4.5,3"/><path class="cls-2" d="M586.31,68.38A3.64,3.64,0,1,1,582,65.54a3.63,3.63,0,0,1,4.28,2.84"/><path class="cls-2" d="M603.83,67.38a3.64,3.64,0,1,1-3.62-3.65,3.63,3.63,0,0,1,3.62,3.65"/><path class="cls-2" d="M623.7,70.65a3.63,3.63,0,1,1-2.65-4.39,3.63,3.63,0,0,1,2.65,4.39"/><path class="cls-2" d="M637.28,75.83a3.64,3.64,0,1,1-1.88-4.77,3.65,3.65,0,0,1,1.88,4.77"/><path class="cls-2" d="M628.73,233.59a3.63,3.63,0,1,1,4.72,2,3.62,3.62,0,0,1-4.72-2"/><path class="cls-2" d="M613.12,237.55a3.63,3.63,0,1,1,4.26,2.86,3.63,3.63,0,0,1-4.26-2.86"/><path class="cls-2" d="M594.82,238.41a3.63,3.63,0,1,1,3.56,3.7,3.62,3.62,0,0,1-3.56-3.7"/><path class="cls-2" d="M578.45,235.83a3.64,3.64,0,1,1,2.79,4.32,3.64,3.64,0,0,1-2.79-4.32"/><path class="cls-2" d="M562.31,229.89a3.64,3.64,0,1,1,1.86,4.78,3.64,3.64,0,0,1-1.86-4.78"/><path class="cls-2" d="M546,219.47a3.63,3.63,0,1,1,.73,5.08,3.65,3.65,0,0,1-.73-5.08"/><path class="cls-2" d="M536.12,210.16a3.63,3.63,0,1,1,5.08,5.2,3.63,3.63,0,0,1-5.08-5.2"/><path class="cls-2" d="M526.4,197a3.63,3.63,0,1,1-1,5,3.64,3.64,0,0,1,1-5"/><path class="cls-2" d="M520.15,184.37a3.63,3.63,0,1,1-1.86,4.78,3.63,3.63,0,0,1,1.86-4.78"/><path class="cls-2" d="M515.49,168a3.63,3.63,0,1,1-2.77,4.31,3.64,3.64,0,0,1,2.77-4.31"/><path class="cls-2" d="M514.2,150.23a3.63,3.63,0,1,1-3.6,3.65,3.64,3.64,0,0,1,3.6-3.65"/><path class="cls-2" d="M516.54,132.91a3.63,3.63,0,1,1-4.28,2.84,3.62,3.62,0,0,1,4.28-2.84"/><path class="cls-2" d="M521.93,117.3a3.62,3.62,0,1,1-4.74,2,3.63,3.63,0,0,1,4.74-2"/><path class="cls-2" d="M530.35,102.85a3.62,3.62,0,1,1-5,1,3.63,3.63,0,0,1,5-1"/><path class="cls-2" d="M543.1,88.79a3.62,3.62,0,1,1-5.13-.12,3.62,3.62,0,0,1,5.13.12"/><path class="cls-2" d="M555.34,79.78a3.63,3.63,0,1,1-5-1,3.64,3.64,0,0,1,5,1"/><path class="cls-2" d="M570.18,72.61a3.63,3.63,0,1,1-4.74-2,3.61,3.61,0,0,1,4.74,2"/><path class="cls-2" d="M592.63,58a2.33,2.33,0,1,1-2.33-2.32A2.33,2.33,0,0,1,592.63,58"/><path class="cls-2" d="M601.46,47.69a1.86,1.86,0,1,1-1.85-1.86,1.85,1.85,0,0,1,1.85,1.86"/><path class="cls-2" d="M626.35,51a1.87,1.87,0,0,1-2.25,1.37A1.86,1.86,0,1,1,626.35,51"/><path class="cls-2" d="M645.48,58a1.86,1.86,0,1,1-3.38-1.56A1.86,1.86,0,0,1,645.48,58"/><path class="cls-2" d="M636.81,251.52a1.86,1.86,0,1,1,2.41,1.06,1.86,1.86,0,0,1-2.41-1.06"/><path class="cls-2" d="M617.56,256.69a1.86,1.86,0,0,1,3.66-.68,1.86,1.86,0,1,1-3.66.68"/><path class="cls-2" d="M595.66,258.09a1.86,1.86,0,1,1,3.72.1,1.83,1.83,0,0,1-1.9,1.8,1.86,1.86,0,0,1-1.82-1.9"/><path class="cls-2" d="M573.64,254.85a1.86,1.86,0,1,1,1.37,2.24,1.85,1.85,0,0,1-1.37-2.24"/><path class="cls-2" d="M554.16,247.73a1.86,1.86,0,1,1,.9,2.47,1.85,1.85,0,0,1-.9-2.47"/><path class="cls-2" d="M535.37,236.12a1.84,1.84,0,0,1,2.6-.37,1.86,1.86,0,1,1-2.24,3,1.84,1.84,0,0,1-.36-2.6"/><path class="cls-2" d="M521.67,223.43a1.86,1.86,0,1,1-.1,2.63,1.85,1.85,0,0,1,.1-2.63"/><path class="cls-2" d="M510.68,208.93a1.86,1.86,0,0,1,2.57.55,1.84,1.84,0,0,1-.55,2.56,1.85,1.85,0,1,1-2-3.11"/><path class="cls-2" d="M503.07,194.45a1.86,1.86,0,1,1-.95,2.46,1.86,1.86,0,0,1,.95-2.46"/><path class="cls-2" d="M497,175.64a1.86,1.86,0,1,1-1.38,2.23,1.86,1.86,0,0,1,1.38-2.23"/><path class="cls-2" d="M494.51,152.43a1.86,1.86,0,1,1-1.84,1.88,1.86,1.86,0,0,1,1.84-1.88"/><path class="cls-2" d="M496.45,132.84a1.85,1.85,0,1,1-2.16,1.5,1.85,1.85,0,0,1,2.16-1.5"/><path class="cls-2" d="M502.88,111.83a1.86,1.86,0,1,1-2.43,1,1.86,1.86,0,0,1,2.43-1"/><path class="cls-2" d="M513.34,92.9a1.86,1.86,0,1,1-2.58.5,1.86,1.86,0,0,1,2.58-.5"/><path class="cls-2" d="M527.47,76.48a1.85,1.85,0,1,1-2.62,0,1.84,1.84,0,0,1,2.62,0"/><path class="cls-2" d="M543.73,63.89a1.85,1.85,0,1,1-2.57-.55,1.86,1.86,0,0,1,2.57.55"/><path class="cls-2" d="M562.85,54.41a1.86,1.86,0,1,1-2.41-1.06,1.86,1.86,0,0,1,2.41,1.06"/><path class="cls-2" d="M580.47,49.49A1.86,1.86,0,1,1,578.29,48a1.84,1.84,0,0,1,2.18,1.45"/><path class="cls-2" d="M614.06,58.75a2.32,2.32,0,1,1-4.53-1,2.32,2.32,0,0,1,4.53,1"/><path class="cls-2" d="M633.24,63.7a2.33,2.33,0,1,1-1.13-3.09,2.33,2.33,0,0,1,1.13,3.09"/><path class="cls-2" d="M648.14,70.76a2.33,2.33,0,1,1-.59-3.24,2.33,2.33,0,0,1,.59,3.24"/><path class="cls-2" d="M642.83,238a2.33,2.33,0,1,1,3,1.27,2.35,2.35,0,0,1-3-1.27"/><path class="cls-2" d="M625.6,244.64a2.32,2.32,0,1,1,2.74,1.83,2.31,2.31,0,0,1-2.74-1.83"/><path class="cls-2" d="M605.84,248a2.33,2.33,0,1,1,2.29,2.35,2.32,2.32,0,0,1-2.29-2.35"/><path class="cls-2" d="M585,247a2.33,2.33,0,1,1,1.72,2.8A2.33,2.33,0,0,1,585,247"/><path class="cls-2" d="M568.31,242.77a2.33,2.33,0,1,1,4.26,1.87,2.33,2.33,0,0,1-4.26-1.87"/><path class="cls-2" d="M549.5,233.75A2.32,2.32,0,1,1,550,237a2.33,2.33,0,0,1-.5-3.25"/><path class="cls-2" d="M535,222.67a2.33,2.33,0,1,1-.13,3.28,2.33,2.33,0,0,1,.13-3.28"/><path class="cls-2" d="M523.9,210.41a2.32,2.32,0,1,1,2.51,3.91,2.32,2.32,0,1,1-2.51-3.91"/><path class="cls-2" d="M515.28,196.82a2.32,2.32,0,1,1-1.22,3.05,2.32,2.32,0,0,1,1.22-3.05"/><path class="cls-2" d="M508.7,180.7a2.32,2.32,0,1,1-1.77,2.77,2.34,2.34,0,0,1,1.77-2.77"/><path class="cls-2" d="M504.84,160.28a2.32,2.32,0,1,1-2.33,2.32,2.32,2.32,0,0,1,2.33-2.32"/><path class="cls-2" d="M505.16,142.26a2.32,2.32,0,1,1-2.73,1.84,2.33,2.33,0,0,1,2.73-1.84"/><path class="cls-2" d="M509.18,123.62a2.33,2.33,0,1,1-3,1.27,2.32,2.32,0,0,1,3-1.27"/><path class="cls-2" d="M516.82,106.22a2.32,2.32,0,1,1-3.23.64,2.33,2.33,0,0,1,3.23-.64"/><path class="cls-2" d="M528.69,89.61a2.32,2.32,0,1,1-3.29-.06,2.32,2.32,0,0,1,3.29.06"/><path class="cls-2" d="M542.58,76.84a2.32,2.32,0,1,1-3.21-.7,2.32,2.32,0,0,1,3.21.7"/><path class="cls-2" d="M557.74,67.53a2.31,2.31,0,0,1-1.28,3,2.35,2.35,0,0,1-3-1.3,2.32,2.32,0,1,1,4.31-1.72"/><path class="cls-2" d="M575.26,60.94a2.33,2.33,0,1,1-2.72-1.85,2.32,2.32,0,0,1,2.72,1.85"/><path class="cls-3" d="M624.11,165.35c-5.89,7.86-13.47,12-23.14,12-12.43,0-24.38-7.86-24.38-25.28,0-15.91,10.24-24.9,23.62-24.9,12.52,0,17.73,7.48,18.68,8.9,3.89,5.49,4.74,13.72,4.84,18.46H588.64c1.32,7.48,6,11.74,13.46,11.74a13.83,13.83,0,0,0,12.33-6.53Zm-12.9-19.12c-1.05-7.39-5.6-9.95-10.62-9.95-6.07,0-10.25,3.51-11.57,9.95Z"/><path class="cls-3" d="M643.74,128.62v6.72c1.42-2.46,4.55-8,15.17-7.77v11.65c-2.46.1-6.73.19-10.24,2.84-4.83,3.69-4.93,8.52-4.93,16.38V176h-11V128.62Z"/><path class="cls-3" d="M695,145.37a11,11,0,0,0-10.71-8c-6.55,0-11.77,5.2-11.77,14.67,0,8.52,4.46,14.77,11.95,14.77,7.21,0,10-5.49,11.38-9.28l9.77,5.12a22.4,22.4,0,0,1-21.33,14.77c-13.19,0-23.52-10.13-23.52-25.09,0-14.49,10.42-25.09,23.9-25.09,11.94,0,18,8,20.48,13.44Z"/><polyline class="cls-3" points="450.93 283.46 450.93 287.45 459.13 287.45 459.13 290.2 450.93 290.2 450.93 294.75 460.51 294.75 460.51 297.62 447.79 297.62 447.79 280.62 459.91 280.62 459.91 283.46 450.93 283.46"/><path class="cls-3" d="M473.47,285.58v12h-2.9v-1.23a5.37,5.37,0,0,1-3.91,1.52,3.93,3.93,0,0,1-3.35-1.4c-.82-1-.82-2.17-.82-4v-7h2.92v6.91a4.81,4.81,0,0,0,.09,1.21,2.15,2.15,0,0,0,2.25,1.51,2.67,2.67,0,0,0,2.34-1.28,6.54,6.54,0,0,0,.48-3.24v-5.11h2.9"/><path class="cls-3" d="M479.4,285.58v1.71c.37-.63,1.16-2.05,3.86-2v3a4.44,4.44,0,0,0-2.6.73c-1.23.94-1.26,2.17-1.26,4.16v4.46h-2.8v-12h2.8"/><path class="cls-3" d="M490.24,298a6.09,6.09,0,0,1-6.27-6.43,6.2,6.2,0,1,1,12.4,0c0,3.76-2.48,6.43-6.13,6.43m-.14-10.16c-1.81,0-3.12,1.45-3.12,3.66,0,2.48,1.53,3.85,3.26,3.85,2.1,0,3.16-1.83,3.09-3.83S492.12,287.82,490.1,287.82Z"/><path class="cls-3" d="M498.76,285.58h2.87v1.11a4.26,4.26,0,0,1,3.31-1.47c3.54,0,5.47,3.18,5.47,6.5,0,3.59-2.24,6.26-5.47,6.26a4.72,4.72,0,0,1-3.31-1.35v4.91h-2.87v-16m5.79,9.68c1.4,0,2.92-1,2.92-3.68,0-3-2.1-3.59-3-3.59-1.32,0-2.84,1-2.89,3.54S502.93,295.26,504.55,295.26Z"/><path class="cls-3" d="M524.17,294.92a7,7,0,0,1-5.89,3.06c-3.16,0-6.2-2-6.2-6.43,0-4.05,2.6-6.33,6-6.33a5.45,5.45,0,0,1,4.75,2.26,9,9,0,0,1,1.23,4.7h-8.93a3.26,3.26,0,0,0,3.43,3,3.51,3.51,0,0,0,3.14-1.66l2.46,1.42m-3.28-4.86a2.59,2.59,0,0,0-2.71-2.53,2.85,2.85,0,0,0-2.94,2.53Z"/><path class="cls-3" d="M526,289.12a4,4,0,0,1,.48-1.81c1.17-2.09,4-2.09,4.81-2.09a7.29,7.29,0,0,1,3.62.77c1.42.87,1.45,2,1.45,3.3v6.38a2.53,2.53,0,0,0,.53,1.95h-3.43c0-.29-.07-.77-.07-.94a5.7,5.7,0,0,1-3.57,1.23c-2.73,0-4.37-1.69-4.37-3.76a3.7,3.7,0,0,1,.38-1.64c.87-1.73,2.73-2.11,3.89-2.33a27.46,27.46,0,0,0,3.74-.89c0-.6-.05-1.83-2.05-1.83a2.56,2.56,0,0,0-2.15.77,1.44,1.44,0,0,0-.29,1.06l-3-.17m7.46,2.51a8.77,8.77,0,0,1-2.53.72c-1,.14-2.42.38-2.42,1.66,0,.94.8,1.42,2,1.42a3,3,0,0,0,2.82-1.4,2.4,2.4,0,0,0,.17-1.08Z"/><path class="cls-3" d="M539.42,285.58h2.92V287a3.24,3.24,0,0,1,.94-.94,5,5,0,0,1,2.77-.84,4,4,0,0,1,3.17,1.44c.74,1,.74,2.32.74,3.88v7.08h-2.87v-6.14a9.12,9.12,0,0,0-.09-1.83,2,2,0,0,0-2-1.61,2.54,2.54,0,0,0-2.22,1.34,6.9,6.9,0,0,0-.46,3v5.23h-2.92v-12"/><path class="cls-3" d="M560,280.61h5.43c2.27,0,3.79,0,5.28,1.23a5.17,5.17,0,0,1,1.89,4.2,4.66,4.66,0,0,1-3.36,4.67l3.79,6.91h-3.64L566,291.31h-2.85v6.31H560v-17m3.16,2.75v5.33h1.11c1.09,0,1.5,0,2.1-.05s3-.15,3-2.63a2.43,2.43,0,0,0-1.35-2.29c-.67-.33-1.49-.36-3.37-.36Z"/><path class="cls-3" d="M586.5,294.92a7,7,0,0,1-5.89,3.06c-3.16,0-6.2-2-6.2-6.43,0-4.05,2.6-6.33,6-6.33a5.46,5.46,0,0,1,4.76,2.26,9,9,0,0,1,1.23,4.7h-8.93a3.25,3.25,0,0,0,3.42,3A3.54,3.54,0,0,0,584,293.5l2.46,1.42m-3.29-4.86a2.57,2.57,0,0,0-2.7-2.53,2.85,2.85,0,0,0-2.94,2.53Z"/><path class="cls-3" d="M589.82,294.06a4.25,4.25,0,0,0,3.48,1.54c1.67,0,2.39-.82,2.39-1.42,0-.77-.87-1-1.26-1s-2.38-.46-2.82-.58c-2.87-.67-3.4-2.33-3.4-3.42,0-2,1.86-3.92,5.16-3.92a6.79,6.79,0,0,1,4,1.16,5,5,0,0,1,1.23,1.08l-2,1.9a3.38,3.38,0,0,0-3.29-1.83c-1.37,0-2,.6-2,1.23,0,.87.9,1.11,2.44,1.37,2.51.46,3.2.58,4,1.18a3.26,3.26,0,0,1,1.23,2.56c0,1.87-1.69,4.11-5.43,4.11a8.3,8.3,0,0,1-5.79-2.14l2.14-1.78"/><path class="cls-3" d="M612.63,294.92a7,7,0,0,1-5.89,3.06c-3.16,0-6.2-2-6.2-6.43,0-4.05,2.61-6.33,6-6.33a5.45,5.45,0,0,1,4.75,2.26,9,9,0,0,1,1.23,4.7H603.6a3.25,3.25,0,0,0,3.43,3,3.51,3.51,0,0,0,3.14-1.66l2.46,1.42m-3.28-4.86a2.59,2.59,0,0,0-2.71-2.53,2.85,2.85,0,0,0-2.94,2.53Z"/><path class="cls-3" d="M614.46,289.12a3.89,3.89,0,0,1,.49-1.81c1.16-2.09,4-2.09,4.8-2.09a7.31,7.31,0,0,1,3.62.77c1.42.87,1.44,2,1.44,3.3v6.38a2.5,2.5,0,0,0,.54,1.95h-3.43c0-.29-.08-.77-.08-.94a5.65,5.65,0,0,1-3.56,1.23c-2.73,0-4.37-1.69-4.37-3.76a3.7,3.7,0,0,1,.38-1.64c.87-1.73,2.73-2.11,3.89-2.33a27.46,27.46,0,0,0,3.74-.89c0-.6,0-1.83-2-1.83a2.56,2.56,0,0,0-2.15.77,1.44,1.44,0,0,0-.29,1.06l-3-.17m7.46,2.51a8.76,8.76,0,0,1-2.54.72c-1,.14-2.41.38-2.41,1.66,0,.94.8,1.42,2,1.42a3,3,0,0,0,2.82-1.4,2.4,2.4,0,0,0,.17-1.08Z"/><path class="cls-3" d="M630.7,285.58v1.71c.36-.63,1.16-2.05,3.86-2v3A4.49,4.49,0,0,0,632,289c-1.22.94-1.25,2.17-1.25,4.16v4.46h-2.8v-12h2.8"/><path class="cls-3" d="M643.71,289.84a2.8,2.8,0,0,0-2.72-2c-1.67,0-3,1.32-3,3.73,0,2.17,1.14,3.75,3,3.75a3.05,3.05,0,0,0,2.89-2.36l2.48,1.3A5.69,5.69,0,0,1,641,298c-3.36,0-6-2.58-6-6.38a6.09,6.09,0,0,1,6.08-6.38,5.55,5.55,0,0,1,5.21,3.42l-2.58,1.2"/><path class="cls-3" d="M650.4,280.61v6.2a5.26,5.26,0,0,1,3.84-1.59,4.42,4.42,0,0,1,3.3,1.3c1,1.06,1,2.28,1,3.66v7.44h-2.84V291a5.28,5.28,0,0,0-.19-1.71,2.05,2.05,0,0,0-2.1-1.33,3.06,3.06,0,0,0-2.92,2.2,7.08,7.08,0,0,0-.1,1.92v5.54h-2.9v-17h2.9"/><path class="cls-3" d="M682.83,292.87a9,9,0,0,1-1.47,2.56,7.55,7.55,0,0,1-5.89,2.62c-4.51,0-8-3.3-8-9s3.74-8.89,8.08-8.89a6.81,6.81,0,0,1,6.95,5.25l-3.18.85a4.24,4.24,0,0,0-.63-1.69,3.59,3.59,0,0,0-3.06-1.49c-2.78,0-4.71,2.29-4.71,5.92,0,3.88,2,6,4.73,6a3.93,3.93,0,0,0,3.26-1.66,5.66,5.66,0,0,0,.89-1.75l3,1.24"/><path class="cls-3" d="M690.33,298a6.09,6.09,0,0,1-6.27-6.43,6.2,6.2,0,1,1,12.4,0c0,3.76-2.48,6.43-6.13,6.43m-.14-10.16c-1.81,0-3.11,1.45-3.11,3.66,0,2.48,1.52,3.85,3.25,3.85,2.11,0,3.17-1.83,3.1-3.83S692.22,287.82,690.19,287.82Z"/><path class="cls-3" d="M709.76,285.58v12h-2.89v-1.23a5.37,5.37,0,0,1-3.91,1.52,4,4,0,0,1-3.36-1.4c-.82-1-.82-2.17-.82-4v-7h2.92v6.91a4.34,4.34,0,0,0,.1,1.21,2.13,2.13,0,0,0,2.25,1.51,2.64,2.64,0,0,0,2.33-1.28c.44-.79.46-1.56.49-3.24v-5.11h2.89"/><path class="cls-3" d="M712.87,285.58h2.92V287a3.53,3.53,0,0,1,.94-.94,5.05,5.05,0,0,1,2.78-.84,4,4,0,0,1,3.16,1.44c.75,1,.75,2.32.75,3.88v7.08h-2.87v-6.14a8.22,8.22,0,0,0-.1-1.83,2,2,0,0,0-2-1.61,2.54,2.54,0,0,0-2.22,1.34,6.9,6.9,0,0,0-.46,3v5.23h-2.92v-12"/><path class="cls-3" d="M734.21,289.84a2.82,2.82,0,0,0-2.73-2c-1.66,0-3,1.32-3,3.73,0,2.17,1.14,3.75,3,3.75a3.05,3.05,0,0,0,2.89-2.36l2.49,1.3a5.71,5.71,0,0,1-5.43,3.76c-3.36,0-6-2.58-6-6.38a6.09,6.09,0,0,1,6.08-6.38,5.55,5.55,0,0,1,5.21,3.42l-2.57,1.2"/><path class="cls-3" d="M741.42,280.79v2.91h-2.87v-2.91h2.87m-2.87,4.79h2.87v12h-2.87Z"/><rect class="cls-3" x="744.58" y="280.61" width="2.92" height="17"/><path class="cls-3" d="M447.91,331.37V319.61h7.32v1.12h-6.06v4.15h5.17V326h-5.17v4.25h6.06v1.12Z"/><path class="cls-3" d="M460.19,331.47a4.48,4.48,0,0,1-3.34-1.17l.79-.8a3.33,3.33,0,0,0,2.53.95c1.34,0,2.17-.48,2.17-1.44,0-.71-.41-1.11-1.36-1.19l-1.34-.12c-1.58-.13-2.43-.84-2.43-2.18s1.26-2.38,3-2.38a4.6,4.6,0,0,1,2.93.88l-.78.78a3.47,3.47,0,0,0-2.17-.65c-1.19,0-1.82.51-1.82,1.34s.4,1.11,1.42,1.19l1.31.11c1.42.14,2.4.68,2.4,2.2S462.16,331.47,460.19,331.47Z"/><path class="cls-3" d="M468,331.37a2,2,0,0,1-2.09-2.18v-5h-1v-.91h1v-2.54h1.19v2.54h1.74v.91h-1.74v5c0,.74.35,1.19,1.11,1.19h.63v1Z"/><path class="cls-3" d="M475.64,331.37v-.77a2.89,2.89,0,0,1-2.35.87,2.92,2.92,0,0,1-2.3-.74,2.34,2.34,0,0,1-.61-1.66c0-1.42,1-2.34,2.81-2.34h2.45V326c0-1.19-.6-1.78-2.09-1.78a2.15,2.15,0,0,0-2.05.92l-.81-.74a3.17,3.17,0,0,1,2.88-1.21c2.19,0,3.26.95,3.26,2.71v5.52Zm0-3.75h-2.28c-1.23,0-1.82.5-1.82,1.44s.57,1.39,1.87,1.39a2.38,2.38,0,0,0,1.82-.55,1.87,1.87,0,0,0,.41-1.4Z"/><path class="cls-3" d="M485.2,330.76a2.84,2.84,0,0,1-2,.71,2.64,2.64,0,0,1-2.3-1.07v1h-1.19V319.61h1.19v4.57a2.64,2.64,0,0,1,2.3-1,2.84,2.84,0,0,1,2,.71,6.52,6.52,0,0,1,0,6.91ZM483,324.2c-1.77,0-2.06,1.52-2.06,3.11s.29,3.1,2.06,3.1,2-1.52,2-3.1S484.74,324.2,483,324.2Z"/><path class="cls-3" d="M490.77,331.37a1.93,1.93,0,0,1-2.06-2.16v-9.6h1.19v9.55c0,.79.26,1.19,1.09,1.19h.64v1Z"/><path class="cls-3" d="M493.58,320.93v-1.34h1.34v1.34Zm.07,10.44v-8.13h1.19v8.13Z"/><path class="cls-3" d="M500.4,331.47a4.48,4.48,0,0,1-3.34-1.17l.79-.8a3.33,3.33,0,0,0,2.53.95c1.34,0,2.17-.48,2.17-1.44,0-.71-.41-1.11-1.36-1.19l-1.34-.12c-1.58-.13-2.43-.84-2.43-2.18s1.26-2.38,3-2.38a4.58,4.58,0,0,1,2.93.88l-.78.78a3.47,3.47,0,0,0-2.17-.65c-1.19,0-1.82.51-1.82,1.34s.4,1.11,1.42,1.19l1.31.11c1.42.14,2.4.68,2.4,2.2S502.37,331.47,500.4,331.47Z"/><path class="cls-3" d="M511.25,331.37v-5a1.88,1.88,0,0,0-2-2.15,1.92,1.92,0,0,0-2,2.15v5H506V319.61h1.19v4.52a3,3,0,0,1,2.29-1,2.75,2.75,0,0,1,2.92,3v5.22Z"/><path class="cls-3" d="M516.08,327.62c0,1.79.85,2.81,2.4,2.81a2.68,2.68,0,0,0,2.14-.93l.81.71a3.73,3.73,0,0,1-3,1.26c-2.15,0-3.56-1.29-3.56-4.16,0-2.63,1.27-4.17,3.34-4.17s3.35,1.52,3.35,3.94v.54Zm4.06-2.25a2,2,0,0,0-1.91-1.22,2,2,0,0,0-1.9,1.22,3.44,3.44,0,0,0-.25,1.36h4.3A3.45,3.45,0,0,0,520.14,325.37Z"/><path class="cls-3" d="M529,331.37v-1a2.65,2.65,0,0,1-2.32,1.07,2.82,2.82,0,0,1-2-.71,6.47,6.47,0,0,1,0-6.91,2.82,2.82,0,0,1,2-.71,2.62,2.62,0,0,1,2.3,1v-4.57h1.19v11.76Zm-2.05-7.17c-1.77,0-2,1.52-2,3.11s.28,3.1,2,3.1,2-1.52,2-3.1S528.69,324.2,526.92,324.2Z"/><path class="cls-3" d="M542.71,330.76a2.82,2.82,0,0,1-2,.71,2.63,2.63,0,0,1-2.3-1.07v1h-1.19V319.61h1.19v4.57a2.63,2.63,0,0,1,2.3-1,2.82,2.82,0,0,1,2,.71,6.47,6.47,0,0,1,0,6.91Zm-2.23-6.56c-1.77,0-2.05,1.52-2.05,3.11s.28,3.1,2.05,3.1,2-1.52,2-3.1S542.25,324.2,540.48,324.2Z"/><path class="cls-3" d="M548.27,333.34a2.42,2.42,0,0,1-.58,1,2.25,2.25,0,0,1-1.59.56h-.51V333.8H546c.83,0,1.08-.26,1.35-1l.57-1.58-2.93-8h1.3l2.23,6.53,2.22-6.53H552Z"/><path class="cls-3" d="M560.05,331.37a2,2,0,0,1-2.09-2.18v-5h-1v-.91h1v-2.54h1.2v2.54h1.73v.91h-1.73v5c0,.74.34,1.19,1.1,1.19h.63v1Z"/><path class="cls-3" d="M568.47,331.37v-5a1.88,1.88,0,0,0-2-2.15,1.92,1.92,0,0,0-2,2.15v5h-1.19V319.61h1.19v4.52a2.91,2.91,0,0,1,2.28-1,2.75,2.75,0,0,1,2.93,3v5.22Z"/><path class="cls-3" d="M573.3,327.62c0,1.79.84,2.81,2.4,2.81a2.65,2.65,0,0,0,2.13-.93l.81.71a3.73,3.73,0,0,1-3,1.26c-2.15,0-3.55-1.29-3.55-4.16,0-2.63,1.27-4.17,3.34-4.17s3.34,1.52,3.34,3.94v.54Zm4.05-2.25a2.09,2.09,0,0,0-3.8,0,3.27,3.27,0,0,0-.25,1.36h4.3A3.44,3.44,0,0,0,577.35,325.37Z"/><path class="cls-3" d="M585.65,331.37V319.61H593v1.12h-6.06v4.15h5.17V326h-5.17v4.25H593v1.12Z"/><path class="cls-3" d="M600.51,331.37v-.91a3,3,0,0,1-2.3,1,2.86,2.86,0,0,1-2.1-.76,3,3,0,0,1-.83-2.28v-5.19h1.19v5c0,1.44.76,2.16,2,2.16a1.92,1.92,0,0,0,2-2.16v-5h1.2v8.13Z"/><path class="cls-3" d="M609.21,324.8a1.71,1.71,0,0,0-1.41-.6,2,2,0,0,0-1.95,2.18v5h-1.19v-8.13h1.19v1a2.76,2.76,0,0,1,2.28-1.09,2.52,2.52,0,0,1,2,.76Z"/><path class="cls-3" d="M616.29,330.54a3.4,3.4,0,0,1-4.67,0,5.78,5.78,0,0,1,0-6.47,3.4,3.4,0,0,1,4.67,0,5.78,5.78,0,0,1,0,6.47Zm-.85-5.74a2.09,2.09,0,0,0-1.49-.6,2,2,0,0,0-1.47.6,5.1,5.1,0,0,0,0,5,2,2,0,0,0,1.47.59,2.08,2.08,0,0,0,1.49-.59,5.17,5.17,0,0,0,0-5Z"/><path class="cls-3" d="M625.3,330.76a2.82,2.82,0,0,1-2,.71,2.63,2.63,0,0,1-2.3-1.06V335h-1.2V323.24H621v1a2.59,2.59,0,0,1,2.3-1.06,2.82,2.82,0,0,1,2,.71,6.47,6.47,0,0,1,0,6.91Zm-2.23-6.56c-1.77,0-2.05,1.52-2.05,3.11s.28,3.1,2.05,3.1,2-1.52,2-3.1S624.84,324.2,623.07,324.2Z"/><path class="cls-3" d="M629.58,327.62c0,1.79.85,2.81,2.4,2.81a2.67,2.67,0,0,0,2.14-.93l.81.71a3.73,3.73,0,0,1-3,1.26c-2.15,0-3.56-1.29-3.56-4.16,0-2.63,1.28-4.17,3.35-4.17s3.34,1.52,3.34,3.94v.54Zm4.06-2.25a2,2,0,0,0-1.9-1.22,2,2,0,0,0-1.91,1.22,3.63,3.63,0,0,0-.25,1.36h4.31A3.63,3.63,0,0,0,633.64,325.37Z"/><path class="cls-3" d="M642.23,331.37v-.77a2.91,2.91,0,0,1-2.36.87,3,3,0,0,1-2.3-.74,2.39,2.39,0,0,1-.61-1.66c0-1.42,1-2.34,2.82-2.34h2.45V326c0-1.19-.6-1.78-2.09-1.78a2.15,2.15,0,0,0-2,.92l-.81-.74a3.15,3.15,0,0,1,2.88-1.21c2.18,0,3.26.95,3.26,2.71v5.52Zm0-3.75h-2.29c-1.22,0-1.82.5-1.82,1.44s.58,1.39,1.87,1.39a2.36,2.36,0,0,0,1.82-.55,1.87,1.87,0,0,0,.42-1.4Z"/><path class="cls-3" d="M651.52,331.37v-5a2,2,0,1,0-4,0v5h-1.19v-8.13h1.19v.89a2.93,2.93,0,0,1,2.28-1,2.89,2.89,0,0,1,2.09.76,3,3,0,0,1,.84,2.27v5.2Z"/><path class="cls-3" d="M663.61,331.47a4.2,4.2,0,0,1-3-1.22c-1.11-1.11-1.11-2.27-1.11-4.76s0-3.65,1.11-4.76a4.2,4.2,0,0,1,3-1.22,4,4,0,0,1,4.09,3.5h-1.29a2.78,2.78,0,0,0-2.8-2.38,2.82,2.82,0,0,0-2,.83c-.75.76-.83,1.57-.83,4s.08,3.27.83,4a2.88,2.88,0,0,0,4.86-1.55h1.26A4,4,0,0,1,663.61,331.47Z"/><path class="cls-3" d="M675.49,330.54a3.4,3.4,0,0,1-4.67,0,5.78,5.78,0,0,1,0-6.47,3.4,3.4,0,0,1,4.67,0,5.78,5.78,0,0,1,0,6.47Zm-.84-5.74a2.12,2.12,0,0,0-1.5-.6,2.06,2.06,0,0,0-1.47.6,5.1,5.1,0,0,0,0,5,2.05,2.05,0,0,0,1.47.59,2.11,2.11,0,0,0,1.5-.59,5.24,5.24,0,0,0,0-5Z"/><path class="cls-3" d="M689.48,331.37v-5a2,2,0,1,0-4-.14v5.14h-1.19v-5a1.9,1.9,0,0,0-2-2.17,1.92,1.92,0,0,0-2,2.17v5H679v-8.13h1.19v.89a3,3,0,0,1,2.3-1,2.7,2.7,0,0,1,2.5,1.36,3.13,3.13,0,0,1,2.68-1.36,3,3,0,0,1,2.1.76,3,3,0,0,1,.88,2.27v5.2Z"/><path class="cls-3" d="M704,331.37v-5a2,2,0,1,0-4-.14v5.14H698.8v-5a1.9,1.9,0,0,0-2-2.17,1.92,1.92,0,0,0-2,2.17v5h-1.19v-8.13h1.19v.89a3,3,0,0,1,2.3-1,2.7,2.7,0,0,1,2.5,1.36,3.12,3.12,0,0,1,2.68-1.36,3,3,0,0,1,2.1.76,3,3,0,0,1,.88,2.27v5.2Z"/><path class="cls-3" d="M708,320.93v-1.34h1.34v1.34Zm.06,10.44v-8.13h1.2v8.13Z"/><path class="cls-3" d="M714.86,331.47a4.5,4.5,0,0,1-3.35-1.17l.8-.8a3.32,3.32,0,0,0,2.53.95c1.34,0,2.17-.48,2.17-1.44,0-.71-.42-1.11-1.36-1.19l-1.34-.12c-1.59-.13-2.43-.84-2.43-2.18s1.25-2.38,3-2.38a4.58,4.58,0,0,1,2.93.88l-.78.78a3.44,3.44,0,0,0-2.16-.65c-1.2,0-1.82.51-1.82,1.34s.39,1.11,1.42,1.19l1.31.11c1.42.14,2.4.68,2.4,2.2S716.82,331.47,714.86,331.47Z"/><path class="cls-3" d="M722.79,331.47a4.48,4.48,0,0,1-3.34-1.17l.8-.8a3.32,3.32,0,0,0,2.53.95c1.34,0,2.16-.48,2.16-1.44,0-.71-.41-1.11-1.35-1.19l-1.34-.12c-1.59-.13-2.44-.84-2.44-2.18s1.26-2.38,3-2.38a4.58,4.58,0,0,1,2.93.88l-.78.78a3.45,3.45,0,0,0-2.17-.65c-1.19,0-1.82.51-1.82,1.34s.4,1.11,1.43,1.19l1.3.11c1.43.14,2.4.68,2.4,2.2S724.76,331.47,722.79,331.47Z"/><path class="cls-3" d="M728.37,320.93v-1.34h1.34v1.34Zm.06,10.44v-8.13h1.19v8.13Z"/><path class="cls-3" d="M737.85,330.54a3.4,3.4,0,0,1-4.67,0,5.78,5.78,0,0,1,0-6.47,3.4,3.4,0,0,1,4.67,0,5.78,5.78,0,0,1,0,6.47ZM737,324.8a2.09,2.09,0,0,0-1.49-.6,2.06,2.06,0,0,0-1.47.6,5.1,5.1,0,0,0,0,5,2.05,2.05,0,0,0,1.47.59,2.08,2.08,0,0,0,1.49-.59,5.17,5.17,0,0,0,0-5Z"/><path class="cls-3" d="M746.6,331.37v-5a1.9,1.9,0,0,0-2-2.17,1.92,1.92,0,0,0-2,2.17v5h-1.19v-8.13h1.19v.89a3,3,0,0,1,2.29-1,2.85,2.85,0,0,1,2.08.76,3,3,0,0,1,.85,2.27v5.2Z"/><line class="cls-4" x1="411.67" y1="49.31" x2="411.67" y2="338.62"/><rect class="cls-5" x="36.03" y="79.64" width="340.62" height="227.59"/><polygon class="cls-6" points="272.47 218.72 275.31 227.46 284.5 227.46 277.07 232.86 279.91 241.6 272.47 236.2 265.04 241.6 267.88 232.86 260.45 227.46 269.63 227.46 272.47 218.72"/><polygon class="cls-6" points="140.98 218.72 143.81 227.46 153 227.46 145.57 232.86 148.41 241.6 140.98 236.2 133.54 241.6 136.38 232.86 128.95 227.46 138.14 227.46 140.98 218.72"/><polygon class="cls-6" points="140.98 142.85 143.81 151.59 153 151.59 145.57 157 148.41 165.73 140.98 160.33 133.54 165.73 136.38 157 128.95 151.59 138.14 151.59 140.98 142.85"/><polygon class="cls-6" points="272.47 142.85 275.31 151.59 284.5 151.59 277.07 157 279.91 165.73 272.47 160.33 265.04 165.73 267.88 157 260.45 151.59 269.63 151.59 272.47 142.85"/><polygon class="cls-6" points="168.79 246.54 171.63 255.27 180.82 255.27 173.39 260.68 176.22 269.41 168.79 264.01 161.36 269.41 164.2 260.68 156.77 255.27 165.96 255.27 168.79 246.54"/><polygon class="cls-6" points="244.66 246.54 247.49 255.27 256.68 255.27 249.25 260.68 252.09 269.41 244.66 264.01 237.23 269.41 240.06 260.68 232.63 255.27 241.82 255.27 244.66 246.54"/><polygon class="cls-6" points="168.79 115.04 171.63 123.78 180.82 123.78 173.39 129.18 176.22 137.91 168.79 132.51 161.36 137.91 164.2 129.18 156.77 123.78 165.96 123.78 168.79 115.04"/><polygon class="cls-6" points="244.66 115.04 247.49 123.78 256.68 123.78 249.25 129.18 252.09 137.91 244.66 132.51 237.23 137.91 240.06 129.18 232.63 123.78 241.82 123.78 244.66 115.04"/><polygon class="cls-6" points="282.59 180.79 285.43 189.53 294.62 189.53 287.18 194.93 290.02 203.66 282.59 198.26 275.16 203.66 278 194.93 270.56 189.53 279.75 189.53 282.59 180.79"/><polygon class="cls-6" points="130.86 180.79 133.7 189.53 142.88 189.53 135.46 194.93 138.29 203.66 130.86 198.26 123.43 203.66 126.27 194.93 118.83 189.53 128.02 189.53 130.86 180.79"/><polygon class="cls-6" points="206.72 256.65 209.56 265.39 218.75 265.39 211.32 270.79 214.16 279.53 206.72 274.13 199.29 279.53 202.13 270.79 194.7 265.39 203.89 265.39 206.72 256.65"/><polygon class="cls-6" points="206.72 104.92 209.56 113.66 218.75 113.66 211.32 119.06 214.16 127.8 206.72 122.4 199.29 127.8 202.13 119.06 194.7 113.66 203.89 113.66 206.72 104.92"/></g></svg>