<svg xmlns="http://www.w3.org/2000/svg" xmlns:xlink="http://www.w3.org/1999/xlink" viewBox="0 0 511.01 509.78"><defs><style>.cls-1{fill:url(#linear-gradient);}.cls-2{fill:#f26522;}.cls-3{fill:#231f20;}.cls-4{fill:none;}</style><linearGradient id="linear-gradient" x1="276.84" y1="255.11" x2="492.26" y2="255.11" gradientUnits="userSpaceOnUse"><stop offset="0" stop-color="#f26522"/><stop offset="1" stop-color="#fff"/></linearGradient></defs><title>READCHINA logos</title><g id="Layer_15" data-name="Layer 15"><path id="SVGID" class="cls-1" d="M305.74,192.81a14.46,14.46,0,0,0-1.55-19.69,12.85,12.85,0,0,0-18.74,1.64A14.45,14.45,0,0,0,287,194.45a12.84,12.84,0,0,0,18.73-1.64m19.58,28.38a14.26,14.26,0,0,0,6.53-18.52,13,13,0,0,0-17.62-6.89,14.29,14.29,0,0,0-6.55,18.52A13,13,0,0,0,325.32,221.19Zm6.51,6.59c-7.36-.09-13.37,6.1-13.44,13.82s5.82,14,13.16,14.12,13.37-6.11,13.44-13.83S339.17,227.84,331.83,227.78ZM323.57,289a13,13,0,0,0,17.7-6.71,14.29,14.29,0,0,0-6.38-18.59,13,13,0,0,0-17.68,6.7A14.3,14.3,0,0,0,323.57,289Zm.22,26.14a14.46,14.46,0,0,0,1-19.73,12.87,12.87,0,0,0-18.79-1,14.48,14.48,0,0,0-1,19.74A12.84,12.84,0,0,0,323.79,315.14Zm-38.37-2.41c-7,2.37-10.83,10.25-8.57,17.6s9.74,11.37,16.72,9,10.84-10.25,8.59-17.59S292.42,310.37,285.42,312.73Zm45.41,41.45a12.4,12.4,0,0,0,1.87-16.84,11,11,0,0,0-16-2,12.4,12.4,0,0,0-1.88,16.84A11.07,11.07,0,0,0,330.83,354.18ZM377,256.13a11.75,11.75,0,0,0-11.15-12.26c-6.3-.15-11.52,5.11-11.66,11.72S359,267.7,365.3,267.85,376.81,262.75,377,256.13Zm-20.24,44.6a11.3,11.3,0,0,0,14.38-7.68,12.13,12.13,0,0,0-7.32-15.12,11.3,11.3,0,0,0-14.38,7.69A12.11,12.11,0,0,0,356.71,300.73Zm.49,23a12.34,12.34,0,0,0-3.29-16.59,11.08,11.08,0,0,0-15.8,3.45,12.39,12.39,0,0,0,3.29,16.61A11.09,11.09,0,0,0,357.2,323.69Zm5.66-94a12.15,12.15,0,0,0,7.37-15.09,11.33,11.33,0,0,0-14.38-7.73A12.12,12.12,0,0,0,348.51,222,11.28,11.28,0,0,0,362.86,229.7Zm-12.45-54.22a11,11,0,0,0-16-2.13,12.38,12.38,0,0,0-2,16.81,11,11,0,0,0,16,2.13A12.39,12.39,0,0,0,350.41,175.48ZM309,167.4a11.08,11.08,0,0,0,15.83-3.3,12.38,12.38,0,0,0-3.14-16.64,11.07,11.07,0,0,0-15.83,3.32A12.34,12.34,0,0,0,309,167.4ZM327.45,141a9.66,9.66,0,0,0,13.81-2.83,10.78,10.78,0,0,0-2.7-14.5,9.63,9.63,0,0,0-13.78,2.83A10.77,10.77,0,0,0,327.45,141Zm33,16.46a10.81,10.81,0,0,0,0-14.77,9.61,9.61,0,0,0-14.06,0,10.82,10.82,0,0,0,0,14.77A9.59,9.59,0,0,0,360.49,157.41Zm2.39,20.84a9.65,9.65,0,0,0,13.74,3.06,10.8,10.8,0,0,0,2.94-14.45,9.67,9.67,0,0,0-13.76-3.07A10.78,10.78,0,0,0,362.88,178.25Zm16.22,8.16a10.65,10.65,0,0,0-5.19,13.72A9.78,9.78,0,0,0,387,205.6a10.67,10.67,0,0,0,5.19-13.73A9.77,9.77,0,0,0,379.1,186.41Zm2,39.93A9.93,9.93,0,0,0,393,234.15a10.47,10.47,0,0,0,7.41-12.53,9.91,9.91,0,0,0-11.91-7.81A10.46,10.46,0,0,0,381.07,226.34Zm23.15,28.91a10,10,0,1,0-10,10.36A10.21,10.21,0,0,0,404.22,255.25ZM401,286a10.47,10.47,0,0,0-7.72-12.35,10,10,0,0,0-11.75,8.11,10.43,10.43,0,0,0,7.71,12.35A10,10,0,0,0,401,286ZM379.8,319.61a9.78,9.78,0,0,0,13-5.67,10.68,10.68,0,0,0-5.4-13.64,9.79,9.79,0,0,0-13,5.67A10.61,10.61,0,0,0,379.8,319.61Zm-1.92,23.09a10.76,10.76,0,0,0-2.59-14.52,9.63,9.63,0,0,0-13.81,2.72,10.78,10.78,0,0,0,2.57,14.52A9.66,9.66,0,0,0,377.88,342.7Zm-18.27,22.88a10.8,10.8,0,0,0,.09-14.77,9.61,9.61,0,0,0-14.06-.08,10.81,10.81,0,0,0-.07,14.77A9.59,9.59,0,0,0,359.61,365.58Zm-33.89,2.26a10.74,10.74,0,0,0-3,14.42,9.66,9.66,0,0,0,13.73,3.18,10.79,10.79,0,0,0,3-14.44A9.67,9.67,0,0,0,325.72,367.84Zm38-241.33a9.22,9.22,0,0,0,.06-12.57,8.17,8.17,0,0,0-12-.07,9.21,9.21,0,0,0-.06,12.58A8.17,8.17,0,0,0,363.71,126.51Zm21.6,25.08a9.18,9.18,0,0,0,2.4-12.33A8.22,8.22,0,0,0,376,136.73a9.19,9.19,0,0,0-2.41,12.33A8.22,8.22,0,0,0,385.31,151.59Zm5.38,23.95a8.31,8.31,0,0,0,11,4.87,9,9,0,0,0,4.64-11.58,8.31,8.31,0,0,0-11-4.89A9.05,9.05,0,0,0,390.69,175.54ZM412.21,211a8.89,8.89,0,0,0,6.65-10.47,8.51,8.51,0,0,0-10-7A8.9,8.9,0,0,0,402.25,204,8.48,8.48,0,0,0,412.21,211Zm5.07,16.84a8.91,8.91,0,1,0,8.42,9A8.7,8.7,0,0,0,417.28,227.83Zm7.83,48.29a8.9,8.9,0,0,0-6.36-10.65,8.45,8.45,0,0,0-10.14,6.69A8.9,8.9,0,0,0,415,282.81,8.45,8.45,0,0,0,425.11,276.12Zm-18,37.32a8.32,8.32,0,0,0,11.13-4.62,9.07,9.07,0,0,0-4.39-11.7,8.31,8.31,0,0,0-11.14,4.61A9.08,9.08,0,0,0,407.13,313.44Zm-1.45,26.42a9.19,9.19,0,0,0-2.25-12.35,8.22,8.22,0,0,0-11.76,2.36,9.18,9.18,0,0,0,2.25,12.36A8.22,8.22,0,0,0,405.68,339.86ZM385.63,370.7a9.21,9.21,0,0,0,.21-12.58,8.17,8.17,0,0,0-12-.22,9.22,9.22,0,0,0-.22,12.59A8.18,8.18,0,0,0,385.63,370.7Zm-33,9.41a9.18,9.18,0,0,0-2.51,12.31A8.22,8.22,0,0,0,361.84,395a9.17,9.17,0,0,0,2.51-12.3A8.23,8.23,0,0,0,352.64,380.11ZM355.45,94.7a7.81,7.81,0,0,0,11.16-2.3,8.72,8.72,0,0,0-2.19-11.73A7.81,7.81,0,0,0,353.25,83,8.71,8.71,0,0,0,355.45,94.7Zm39.29,24.09a8.78,8.78,0,0,0,0-12,7.78,7.78,0,0,0-11.38,0,8.75,8.75,0,0,0-.06,11.94A7.79,7.79,0,0,0,394.74,118.79Zm23.77,33.78A8.73,8.73,0,0,0,421,140.91a7.86,7.86,0,0,0-11.14-2.57A8.71,8.71,0,0,0,407.39,150,7.81,7.81,0,0,0,418.51,152.57Zm3.78,27.09a7.92,7.92,0,0,0,10.53,4.57,8.64,8.64,0,0,0,4.34-11,7.93,7.93,0,0,0-10.52-4.56A8.61,8.61,0,0,0,422.29,179.66ZM442,220.37a8.47,8.47,0,0,0,6.21-10,8.07,8.07,0,0,0-9.53-6.55,8.47,8.47,0,0,0-6.22,10A8.07,8.07,0,0,0,442,220.37Zm2.44,22.76a8.46,8.46,0,1,0,8.11,8.39A8.25,8.25,0,0,0,444.47,243.13ZM439,302.28a8.07,8.07,0,0,0,9.52-6.53,8.46,8.46,0,0,0-6.22-10,8,8,0,0,0-9.53,6.53A8.45,8.45,0,0,0,439,302.28Zm-6.26,21.26A7.88,7.88,0,0,0,422.16,328a8.62,8.62,0,0,0,4.25,11.09A7.91,7.91,0,0,0,437,334.64,8.62,8.62,0,0,0,432.71,323.54Zm-13.5,45.67A8.73,8.73,0,0,0,417,357.48a7.78,7.78,0,0,0-11.16,2.28A8.73,8.73,0,0,0,408,371.5,7.83,7.83,0,0,0,419.21,369.21Zm-37.4,21a8.78,8.78,0,0,0-.17,12,7.8,7.8,0,0,0,11.38.18,8.76,8.76,0,0,0,.17-12A7.78,7.78,0,0,0,381.81,390.19Zm-28.6,24a8.74,8.74,0,0,0-2.43,11.69,7.82,7.82,0,0,0,11.1,2.56,8.69,8.69,0,0,0,2.44-11.68A7.81,7.81,0,0,0,353.21,414.16ZM390.66,54.25a4.46,4.46,0,0,0-1-6,4,4,0,0,0-5.74,1.09,4.46,4.46,0,0,0,1,6A4,4,0,0,0,390.66,54.25ZM424.26,85a4.5,4.5,0,0,0,.08-6.13,4,4,0,0,0-5.85-.08,4.51,4.51,0,0,0-.07,6.13A4,4,0,0,0,424.26,85Zm26.91,36.08a4.49,4.49,0,0,0,1.16-6,4,4,0,0,0-5.73-1.22,4.46,4.46,0,0,0-1.15,6A4,4,0,0,0,451.17,121.12Zm17.43,34.16a4.44,4.44,0,0,0-2.24,5.66,4.06,4.06,0,0,0,5.39,2.35,4.41,4.41,0,0,0,2.23-5.66A4,4,0,0,0,468.6,155.28Zm15.22,51.22a4.33,4.33,0,0,0,3.18-5.13,4.12,4.12,0,0,0-4.88-3.34,4.31,4.31,0,0,0-3.18,5.14A4.11,4.11,0,0,0,483.82,206.5ZM488.09,246a4.34,4.34,0,1,0,4.17,4.29A4.25,4.25,0,0,0,488.09,246Zm-3.36,49.78a4.17,4.17,0,0,0-4.86,3.42,4.35,4.35,0,0,0,3.27,5.08,4.13,4.13,0,0,0,4.84-3.42A4.32,4.32,0,0,0,484.73,295.81Zm-14.65,52.6a4,4,0,0,0-5.44,2.2,4.43,4.43,0,0,0,2.11,5.71,4,4,0,0,0,5.43-2.19A4.42,4.42,0,0,0,470.08,348.41Zm-28.72,45.21a4.51,4.51,0,0,0,.94,6.06,4,4,0,0,0,5.77-1,4.47,4.47,0,0,0-.95-6A4,4,0,0,0,441.36,393.62Zm-25.09,31a4.47,4.47,0,0,0,0,6.12,4,4,0,0,0,5.83.05,4.49,4.49,0,0,0,0-6.13A4,4,0,0,0,416.27,424.64ZM380.93,454.8a4.46,4.46,0,0,0-1.18,6,4,4,0,0,0,5.69,1.26,4.45,4.45,0,0,0,1.19-6A4,4,0,0,0,380.93,454.8Zm5.88-375.7a5.62,5.62,0,0,0-.09,7.65,5,5,0,0,0,7.29.09,5.62,5.62,0,0,0,.08-7.66A5,5,0,0,0,386.81,79.1Zm34.6,38.25a5.58,5.58,0,0,0,1.45-7.5,5,5,0,0,0-7.15-1.53,5.59,5.59,0,0,0-1.45,7.5A5,5,0,0,0,421.41,117.35Zm23.07,38.81a5.5,5.5,0,0,0,2.88-7,5.07,5.07,0,0,0-6.69-3,5.53,5.53,0,0,0-2.9,7A5.08,5.08,0,0,0,444.48,156.16Zm7.46,33a5.16,5.16,0,0,0,6.07,4.24,5.39,5.39,0,0,0,4-6.37,5.17,5.17,0,0,0-6.08-4.24A5.39,5.39,0,0,0,451.94,189.11Zm12.79,32.11a5.42,5.42,0,1,0,5.27,5.3A5.29,5.29,0,0,0,464.73,221.22Zm-4.21,51.1a5.39,5.39,0,0,0,4.1,6.34,5.17,5.17,0,0,0,6-4.3,5.4,5.4,0,0,0-4.09-6.34A5.17,5.17,0,0,0,460.52,272.32Zm-1,39.94a5.06,5.06,0,0,0-6.72,2.94,5.51,5.51,0,0,0,2.8,7.07,5.07,5.07,0,0,0,6.73-2.95A5.51,5.51,0,0,0,459.53,312.26Zm-14.67,50.89a5.58,5.58,0,0,0-1.35-7.53,5,5,0,0,0-7.16,1.4,5.6,5.6,0,0,0,1.33,7.54A5,5,0,0,0,444.86,363.15Zm-23.48,36.23a5.59,5.59,0,0,0,0-7.65,5,5,0,0,0-7.27-.07,5.62,5.62,0,0,0-.07,7.66A5,5,0,0,0,421.38,399.38ZM384.74,422.3a5.59,5.59,0,0,0-1.51,7.5,5,5,0,0,0,7.13,1.58,5.58,5.58,0,0,0,1.5-7.49A5,5,0,0,0,384.74,422.3Z"/><path class="cls-2" d="M277.22,176.07c-2,7.43-9.32,11.78-16.39,9.7s-11.2-9.79-9.22-17.23A13.21,13.21,0,0,1,268,158.85c7.07,2.07,11.2,9.79,9.23,17.22"/><path class="cls-2" d="M246.35,333.18c.67-7.69,7.14-13.36,14.45-12.67s12.71,7.49,12.05,15.19-7.12,13.34-14.44,12.65-12.71-7.5-12.06-15.17"/><path class="cls-2" d="M217.67,323.52a13,13,0,0,1,18-5.84,14.34,14.34,0,0,1,5.55,18.88,13,13,0,0,1-18,5.84,14.34,14.34,0,0,1-5.55-18.88"/><path class="cls-2" d="M193.93,301.9a12.86,12.86,0,0,1,18.68,2.22,14.47,14.47,0,0,1-2.11,19.64,12.88,12.88,0,0,1-18.7-2.23,14.44,14.44,0,0,1,2.13-19.63"/><path class="cls-2" d="M180.48,272.29c7.09-2,14.39,2.41,16.3,9.86s-2.31,15.12-9.42,17.12-14.38-2.42-16.29-9.88,2.32-15.11,9.41-17.1"/><path class="cls-2" d="M179.18,240.82c7.29,1,12.41,8,11.45,15.68s-7.65,13-14.93,12-12.41-8-11.44-15.67,7.65-13,14.92-12"/><path class="cls-2" d="M190.07,210.2a14.36,14.36,0,0,1,4.58,19.17,12.92,12.92,0,0,1-18.24,4.78A14.38,14.38,0,0,1,171.83,215a13,13,0,0,1,18.24-4.79"/><path class="cls-2" d="M211.66,186.65a14.42,14.42,0,0,1-3,19.49,12.88,12.88,0,0,1-18.56-3.21,14.41,14.41,0,0,1,3-19.49,12.89,12.89,0,0,1,18.56,3.21"/><path class="cls-2" d="M243.86,173.42c1.23,7.62-3.64,14.83-10.89,16.12s-14.1-3.85-15.33-11.46,3.66-14.82,10.91-16.1,14.09,3.84,15.31,11.44"/><path class="cls-2" d="M266.54,370.09a11.72,11.72,0,0,1-11.43,12c-6.28,0-11.38-5.37-11.38-12s5.1-12,11.38-12a11.71,11.71,0,0,1,11.43,12"/><path class="cls-2" d="M301,360.2a12.14,12.14,0,0,1-7.21,15.17,11.29,11.29,0,0,1-14.43-7.59,12.12,12.12,0,0,1,7.21-15.16A11.29,11.29,0,0,1,301,360.2"/><path class="cls-2" d="M243,137.67c.2-6.62,5.46-11.81,11.76-11.6s11.25,5.74,11,12.36-5.49,11.82-11.77,11.6-11.24-5.75-11-12.36"/><path class="cls-2" d="M276.79,138.68a11.29,11.29,0,0,1,14.45-7.55,12.13,12.13,0,0,1,7.17,15.19A11.27,11.27,0,0,1,284,153.86a12.13,12.13,0,0,1-7.18-15.18"/><path class="cls-2" d="M209.37,147.64a12.12,12.12,0,0,1,7.53-15,11.33,11.33,0,0,1,14.27,7.91,12.11,12.11,0,0,1-7.53,15,11.3,11.3,0,0,1-14.27-7.91"/><path class="cls-2" d="M178.57,169.76A12.38,12.38,0,0,1,180.81,153a11,11,0,0,1,16,2.34,12.37,12.37,0,0,1-2.24,16.79,11,11,0,0,1-16-2.34"/><path class="cls-2" d="M146.27,230.79a12.15,12.15,0,0,1-7-15.27,11.3,11.3,0,0,1,14.55-7.37,12.15,12.15,0,0,1,7,15.28,11.28,11.28,0,0,1-14.53,7.36"/><path class="cls-2" d="M157.31,197.09a12.39,12.39,0,0,1-2.95-16.68,11.08,11.08,0,0,1,15.87-3.09A12.37,12.37,0,0,1,173.17,194a11.06,11.06,0,0,1-15.86,3.09"/><path class="cls-2" d="M144.33,266.8c-6.3-.25-11.22-5.8-11-12.42s5.53-11.79,11.82-11.55,11.21,5.8,11,12.42a11.68,11.68,0,0,1-11.83,11.55"/><path class="cls-2" d="M153.36,302.42a11.31,11.31,0,0,1-14.16-8.12,12.11,12.11,0,0,1,7.72-14.89,11.34,11.34,0,0,1,14.16,8.13,12.08,12.08,0,0,1-7.72,14.88"/><path class="cls-2" d="M173.11,333.3a11.08,11.08,0,0,1-16-2.59A12.41,12.41,0,0,1,159.61,314a11,11,0,0,1,15.95,2.58,12.41,12.41,0,0,1-2.45,16.77"/><path class="cls-2" d="M228.48,368.06a11.27,11.27,0,0,1-14.64,7.14,12.17,12.17,0,0,1-6.79-15.38,11.26,11.26,0,0,1,14.64-7.14,12.18,12.18,0,0,1,6.79,15.38"/><path class="cls-2" d="M199.66,355.75a11.08,11.08,0,0,1-15.91,2.86A12.4,12.4,0,0,1,181,341.89,11.07,11.07,0,0,1,196.94,339a12.4,12.4,0,0,1,2.72,16.71"/><path class="cls-2" d="M265.07,107.06a10,10,0,1,1-10-10.44,10.21,10.21,0,0,1,10,10.44"/><path class="cls-2" d="M292.18,112a10,10,0,0,1-11.69,8.2,10.44,10.44,0,0,1-7.8-12.29,10,10,0,0,1,11.7-8.2A10.44,10.44,0,0,1,292.18,112"/><path class="cls-2" d="M316.58,121.79a9.79,9.79,0,0,1-12.95,5.77A10.63,10.63,0,0,1,298.14,114a9.77,9.77,0,0,1,12.93-5.78,10.65,10.65,0,0,1,5.51,13.6"/><path class="cls-2" d="M115.17,243.93a10.46,10.46,0,1,1-9.86,10.53,10.19,10.19,0,0,1,9.86-10.53"/><path class="cls-2" d="M119.68,215.4a10.46,10.46,0,0,1,7.9,12.23,10,10,0,0,1-11.64,8.28,10.41,10.41,0,0,1-7.89-12.22,10,10,0,0,1,11.63-8.29"/><path class="cls-2" d="M128.8,189.7a10.63,10.63,0,0,1,5.58,13.55,9.79,9.79,0,0,1-12.89,5.88,10.62,10.62,0,0,1-5.59-13.55,9.8,9.8,0,0,1,12.9-5.88"/><path class="cls-2" d="M144.16,163.65A10.78,10.78,0,0,1,147,178.12a9.64,9.64,0,0,1-13.78,2.93,10.75,10.75,0,0,1-2.79-14.46,9.66,9.66,0,0,1,13.78-2.94"/><path class="cls-2" d="M162.37,143.29a10.82,10.82,0,0,1,.13,14.76,9.6,9.6,0,0,1-14.05.15,10.81,10.81,0,0,1-.14-14.77,9.6,9.6,0,0,1,14.06-.14"/><path class="cls-2" d="M185,126.16a10.77,10.77,0,0,1-2.82,14.47,9.65,9.65,0,0,1-13.77-3,10.77,10.77,0,0,1,2.82-14.47,9.66,9.66,0,0,1,13.77,3"/><path class="cls-2" d="M208,115.11a10.66,10.66,0,0,1-5.11,13.76,9.74,9.74,0,0,1-13.09-5.35,10.67,10.67,0,0,1,5.08-13.76A9.78,9.78,0,0,1,208,115.11"/><path class="cls-2" d="M235.15,108.56a10.47,10.47,0,0,1-7.34,12.59,9.89,9.89,0,0,1-12-7.71,10.45,10.45,0,0,1,7.33-12.59,9.9,9.9,0,0,1,12,7.71"/><path class="cls-2" d="M245.43,400.34a10,10,0,1,1,10,10.37,10.19,10.19,0,0,1-10-10.37"/><path class="cls-2" d="M218.27,395.58a10,10,0,0,1,11.65-8.28,10.42,10.42,0,0,1,7.88,12.23,10,10,0,0,1-11.64,8.28,10.45,10.45,0,0,1-7.89-12.23"/><path class="cls-2" d="M193.82,386a9.81,9.81,0,0,1,12.91-5.87,10.65,10.65,0,0,1,5.59,13.57,9.79,9.79,0,0,1-12.9,5.85,10.62,10.62,0,0,1-5.6-13.55"/><path class="cls-2" d="M169,369.85a9.66,9.66,0,0,1,13.79-2.94,10.78,10.78,0,0,1,2.78,14.48,9.63,9.63,0,0,1-13.77,2.93,10.78,10.78,0,0,1-2.8-14.47"/><path class="cls-2" d="M149.67,350.7a9.6,9.6,0,0,1,14.05-.14,10.83,10.83,0,0,1,.13,14.77,9.59,9.59,0,0,1-14,.14,10.82,10.82,0,0,1-.13-14.77"/><path class="cls-2" d="M133.38,326.93a9.65,9.65,0,0,1,13.78,2.95,10.8,10.8,0,0,1-2.83,14.48,9.65,9.65,0,0,1-13.77-3,10.74,10.74,0,0,1,2.82-14.45"/><path class="cls-2" d="M122.87,302.71A9.76,9.76,0,0,1,136,308.08a10.62,10.62,0,0,1-5.1,13.76,9.74,9.74,0,0,1-13.07-5.37,10.63,10.63,0,0,1,5.08-13.76"/><path class="cls-2" d="M116.66,274.2a9.92,9.92,0,0,1,12,7.71,10.49,10.49,0,0,1-7.36,12.6,9.9,9.9,0,0,1-12-7.73,10.46,10.46,0,0,1,7.34-12.58"/><path class="cls-2" d="M299.51,392.94a10.63,10.63,0,0,1,5.3-13.68,9.76,9.76,0,0,1,13,5.56,10.64,10.64,0,0,1-5.28,13.69,9.79,9.79,0,0,1-13-5.57"/><path class="cls-2" d="M272.29,399.06a10.44,10.44,0,0,1,7.52-12.47,9.92,9.92,0,0,1,11.86,7.91A10.44,10.44,0,0,1,284.15,407a9.94,9.94,0,0,1-11.86-7.91"/><path class="cls-2" d="M245.19,82.31a8.48,8.48,0,1,1-8.47-8.9,8.69,8.69,0,0,1,8.47,8.9"/><path class="cls-2" d="M283.06,84.79a8.43,8.43,0,0,1-10.18,6.6,8.91,8.91,0,0,1-6.3-10.7,8.48,8.48,0,0,1,10.21-6.61,8.93,8.93,0,0,1,6.27,10.71"/><path class="cls-2" d="M312.46,93.43a8.29,8.29,0,0,1-11.17,4.49A9.09,9.09,0,0,1,297,86.17a8.31,8.31,0,0,1,11.19-4.49,9.05,9.05,0,0,1,4.26,11.75"/><path class="cls-2" d="M338.57,106.85a8.21,8.21,0,0,1-11.76,2.35,9.19,9.19,0,0,1-2.21-12.37,8.19,8.19,0,0,1,11.75-2.34,9.16,9.16,0,0,1,2.22,12.36"/><path class="cls-2" d="M323.7,408.88a9.07,9.07,0,0,1,4.64-11.61,8.35,8.35,0,0,1,11,4.89,9.07,9.07,0,0,1-4.64,11.61,8.37,8.37,0,0,1-11-4.89"/><path class="cls-2" d="M294.17,420a8.89,8.89,0,0,1,6.68-10.45,8.49,8.49,0,0,1,9.94,7A8.89,8.89,0,0,1,304.11,427a8.48,8.48,0,0,1-9.94-7"/><path class="cls-2" d="M263.81,425a8.48,8.48,0,1,1,8.51,8.85,8.72,8.72,0,0,1-8.51-8.85"/><path class="cls-2" d="M227.49,423a8.49,8.49,0,0,1,10.11-6.77,8.89,8.89,0,0,1,6.43,10.6,8.48,8.48,0,0,1-10.1,6.77,8.93,8.93,0,0,1-6.44-10.6"/><path class="cls-2" d="M200.87,415.94a8.33,8.33,0,0,1,11-4.9,9.05,9.05,0,0,1,4.66,11.58,8.34,8.34,0,0,1-11,4.9,9.07,9.07,0,0,1-4.66-11.58"/><path class="cls-2" d="M166,398.22a8.2,8.2,0,0,1,11.81-2,9.18,9.18,0,0,1,1.94,12.42,8.21,8.21,0,0,1-11.82,2A9.18,9.18,0,0,1,166,398.22"/><path class="cls-2" d="M143.6,380.11a8.2,8.2,0,0,1,12,.14,9.23,9.23,0,0,1-.15,12.58,8.18,8.18,0,0,1-12-.14,9.23,9.23,0,0,1,.13-12.58"/><path class="cls-2" d="M122.43,355.3a8.21,8.21,0,0,1,11.71,2.58,9.12,9.12,0,0,1-2.43,12.3A8.21,8.21,0,0,1,120,367.62a9.16,9.16,0,0,1,2.44-12.32"/><path class="cls-2" d="M107.36,329.19a8.32,8.32,0,0,1,11.11,4.71A9,9,0,0,1,114,345.57a8.33,8.33,0,0,1-11.1-4.71,9.09,9.09,0,0,1,4.47-11.67"/><path class="cls-2" d="M97.29,301.88a8.46,8.46,0,0,1,10.17,6.63,8.89,8.89,0,0,1-6.31,10.69A8.45,8.45,0,0,1,91,312.58a8.93,8.93,0,0,1,6.31-10.7"/><path class="cls-2" d="M91.06,265.16a8.91,8.91,0,1,1-8.36,9,8.66,8.66,0,0,1,8.36-9"/><path class="cls-2" d="M92.36,229.3A8.89,8.89,0,0,1,99,239.77a8.5,8.5,0,0,1-10,7,8.9,8.9,0,0,1-6.65-10.46,8.51,8.51,0,0,1,10-7"/><path class="cls-2" d="M100.2,196a9.07,9.07,0,0,1,4.53,11.64,8.32,8.32,0,0,1-11.08,4.77,9.07,9.07,0,0,1-4.54-11.65A8.34,8.34,0,0,1,100.2,196"/><path class="cls-2" d="M114.39,164.66A9.19,9.19,0,0,1,116.6,177a8.21,8.21,0,0,1-11.77,2.33A9.22,9.22,0,0,1,102.61,167a8.25,8.25,0,0,1,11.78-2.32"/><path class="cls-2" d="M134.94,136.21a9.19,9.19,0,0,1-.26,12.58,8.18,8.18,0,0,1-12-.28,9.24,9.24,0,0,1,.27-12.59,8.18,8.18,0,0,1,12,.29"/><path class="cls-2" d="M157.4,115.31a9.19,9.19,0,0,1-2.47,12.32,8.23,8.23,0,0,1-11.71-2.57,9.23,9.23,0,0,1,2.46-12.34,8.24,8.24,0,0,1,11.72,2.59"/><path class="cls-2" d="M183,99.15a9.05,9.05,0,0,1-4.56,11.64A8.31,8.31,0,0,1,167.34,106a9.05,9.05,0,0,1,4.54-11.64A8.34,8.34,0,0,1,183,99.15"/><path class="cls-2" d="M213.21,87.5A8.87,8.87,0,0,1,206.57,98a8.47,8.47,0,0,1-10-7,8.92,8.92,0,0,1,6.64-10.48,8.49,8.49,0,0,1,10,7"/><path class="cls-2" d="M224.59,56.64a8.45,8.45,0,0,1-6.32,10A8.09,8.09,0,0,1,208.8,60a8.47,8.47,0,0,1,6.32-10,8.09,8.09,0,0,1,9.47,6.62"/><path class="cls-2" d="M263.37,54.31a8.06,8.06,0,1,1-8-8.51,8.25,8.25,0,0,1,8,8.51"/><path class="cls-2" d="M307.38,61.92a8,8,0,0,1-9.74,6.19,8.48,8.48,0,0,1-5.88-10.23,8,8,0,0,1,9.74-6.19,8.5,8.5,0,0,1,5.88,10.23"/><path class="cls-2" d="M337.44,74a7.9,7.9,0,0,1-10.6,4.38,8.63,8.63,0,0,1-4.16-11.13,7.89,7.89,0,0,1,10.59-4.37A8.63,8.63,0,0,1,337.44,74"/><path class="cls-2" d="M318.5,441.65a8.61,8.61,0,0,1,4.46-11,7.92,7.92,0,0,1,10.47,4.71,8.6,8.6,0,0,1-4.47,11,8,8,0,0,1-10.46-4.7"/><path class="cls-2" d="M283.94,450.86a8.47,8.47,0,0,1,6.36-9.94,8.09,8.09,0,0,1,9.44,6.67,8.46,8.46,0,0,1-6.36,9.93,8.09,8.09,0,0,1-9.44-6.66"/><path class="cls-2" d="M243.44,452.87a8,8,0,1,1,7.87,8.62,8.23,8.23,0,0,1-7.87-8.62"/><path class="cls-2" d="M207.19,446.87a8.07,8.07,0,0,1,9.58-6.47,8.45,8.45,0,0,1,6.15,10.05,8.06,8.06,0,0,1-9.57,6.47,8.49,8.49,0,0,1-6.16-10.05"/><path class="cls-2" d="M171.45,433a7.92,7.92,0,0,1,10.62-4.34,8.65,8.65,0,0,1,4.12,11.15,7.91,7.91,0,0,1-10.61,4.33A8.64,8.64,0,0,1,171.45,433"/><path class="cls-2" d="M135.24,408.74A7.79,7.79,0,0,1,146.5,407a8.72,8.72,0,0,1,1.6,11.83,7.78,7.78,0,0,1-11.25,1.72,8.73,8.73,0,0,1-1.61-11.83"/><path class="cls-2" d="M113.47,387.05a7.8,7.8,0,0,1,11.4.16,8.77,8.77,0,0,1-.17,12,7.77,7.77,0,0,1-11.38-.18,8.74,8.74,0,0,1,.15-11.93"/><path class="cls-2" d="M91.94,356.39a7.83,7.83,0,0,1,11.14,2.43,8.73,8.73,0,0,1-2.33,11.71,7.81,7.81,0,0,1-11.14-2.45,8.72,8.72,0,0,1,2.33-11.69"/><path class="cls-2" d="M78.1,326.94a7.91,7.91,0,0,1,10.62,4.33,8.62,8.62,0,0,1-4.13,11.14A7.91,7.91,0,0,1,74,338.08a8.63,8.63,0,0,1,4.12-11.14"/><path class="cls-2" d="M67.8,288.79a8.07,8.07,0,0,1,9.6,6.44,8.48,8.48,0,0,1-6.14,10.07,8.06,8.06,0,0,1-9.6-6.46,8.49,8.49,0,0,1,6.14-10"/><path class="cls-2" d="M64.93,247.38a8.46,8.46,0,1,1-8,8.51,8.28,8.28,0,0,1,8-8.51"/><path class="cls-2" d="M70.1,207a8.47,8.47,0,0,1,6.33,10A8.07,8.07,0,0,1,67,223.58a8.42,8.42,0,0,1-6.31-9.94A8.08,8.08,0,0,1,70.1,207"/><path class="cls-2" d="M82.06,170.64a8.6,8.6,0,0,1,4.39,11A7.92,7.92,0,0,1,76,186.27a8.63,8.63,0,0,1-4.4-11,7.92,7.92,0,0,1,10.51-4.59"/><path class="cls-2" d="M100.7,137A8.75,8.75,0,0,1,103,148.69a7.81,7.81,0,0,1-11.15,2.36,8.71,8.71,0,0,1-2.26-11.72A7.83,7.83,0,0,1,100.7,137"/><path class="cls-2" d="M128.91,104.2a8.76,8.76,0,0,1-.23,12,7.76,7.76,0,0,1-11.37-.26,8.75,8.75,0,0,1,.25-12,7.75,7.75,0,0,1,11.35.27"/><path class="cls-2" d="M156,83.2a8.76,8.76,0,0,1-2.25,11.73,7.82,7.82,0,0,1-11.16-2.38,8.72,8.72,0,0,1,2.25-11.72A7.83,7.83,0,0,1,156,83.2"/><path class="cls-2" d="M188.88,66.5a8.61,8.61,0,0,1-4.33,11A7.94,7.94,0,0,1,174,73a8.6,8.6,0,0,1,4.36-11.06,7.92,7.92,0,0,1,10.49,4.58"/><path class="cls-2" d="M238.57,32.41A5.17,5.17,0,1,1,233.42,27a5.29,5.29,0,0,1,5.15,5.42"/><path class="cls-2" d="M258.14,8.43a4.13,4.13,0,1,1-8.25,0,4.13,4.13,0,1,1,8.25,0"/><path class="cls-2" d="M313.24,16.22a4.12,4.12,0,0,1-5,3.19,4.33,4.33,0,0,1-3-5.23,4.12,4.12,0,0,1,5-3.19,4.36,4.36,0,0,1,3,5.23"/><path class="cls-2" d="M355.6,32.47a4,4,0,0,1-5.48,2.12,4.42,4.42,0,0,1-2-5.75,4,4,0,0,1,5.46-2.12,4.44,4.44,0,0,1,2,5.75"/><path class="cls-2" d="M336.41,483.43a4.42,4.42,0,0,1,2.33-5.61,4.06,4.06,0,0,1,5.34,2.47,4.39,4.39,0,0,1-2.34,5.6,4,4,0,0,1-5.33-2.46"/><path class="cls-2" d="M293.78,495.47a4.31,4.31,0,0,1,3.29-5,4.14,4.14,0,0,1,4.81,3.46,4.33,4.33,0,0,1-3.3,5.07,4.16,4.16,0,0,1-4.8-3.49"/><path class="cls-2" d="M245.3,498.73a4.12,4.12,0,1,1,4,4.44,4.22,4.22,0,0,1-4-4.44"/><path class="cls-2" d="M196.53,491.17a4.12,4.12,0,0,1,5-3.19,4.36,4.36,0,0,1,3,5.23,4.12,4.12,0,0,1-5,3.2,4.37,4.37,0,0,1-3-5.24"/><path class="cls-2" d="M153.4,474.6a4,4,0,0,1,5.46-2.11,4.4,4.4,0,0,1,2,5.74,4,4,0,0,1-5.47,2.12,4.43,4.43,0,0,1-2-5.75"/><path class="cls-2" d="M111.79,447.53a4,4,0,0,1,5.77-.86,4.49,4.49,0,0,1,.81,6.07,4,4,0,0,1-5.77.86,4.48,4.48,0,0,1-.81-6.07"/><path class="cls-2" d="M81.46,418a4,4,0,0,1,5.83.23,4.48,4.48,0,0,1-.22,6.11,4,4,0,0,1-5.82-.22,4.46,4.46,0,0,1,.21-6.12"/><path class="cls-2" d="M57.13,384.16a4,4,0,0,1,5.7,1.29,4.43,4.43,0,0,1-1.21,6,4,4,0,0,1-5.7-1.26,4.46,4.46,0,0,1,1.21-6"/><path class="cls-2" d="M40.28,350.44a4,4,0,0,1,5.45,2.18,4.41,4.41,0,0,1-2.08,5.72,4,4,0,0,1-5.46-2.18,4.44,4.44,0,0,1,2.09-5.72"/><path class="cls-2" d="M26.85,306.59a4.12,4.12,0,0,1,5,3.21A4.35,4.35,0,0,1,28.74,315a4.09,4.09,0,0,1-4.95-3.22,4.33,4.33,0,0,1,3.06-5.21"/><path class="cls-2" d="M21.35,252.52a4.18,4.18,0,0,1,4.16,4.28,4.24,4.24,0,0,1-4.08,4.37,4.33,4.33,0,0,1-.08-8.65"/><path class="cls-2" d="M25.63,206.85a4.31,4.31,0,0,1,3.34,5,4.14,4.14,0,0,1-4.78,3.5,4.28,4.28,0,0,1-3.33-5,4.12,4.12,0,0,1,4.77-3.5"/><path class="cls-2" d="M39.87,157.91a4.38,4.38,0,0,1,2.27,5.63,4,4,0,0,1-5.37,2.37,4.4,4.4,0,0,1-2.27-5.64,4,4,0,0,1,5.37-2.36"/><path class="cls-2" d="M63,113.79a4.45,4.45,0,0,1,1.12,6A4,4,0,0,1,58.44,121a4.43,4.43,0,0,1-1.13-6A4,4,0,0,1,63,113.79"/><path class="cls-2" d="M94.32,75.51a4.47,4.47,0,0,1-.06,6.13,4,4,0,0,1-5.82-.09,4.47,4.47,0,0,1,.06-6.12,4,4,0,0,1,5.82.08"/><path class="cls-2" d="M130.31,46.17a4.45,4.45,0,0,1-1.2,6,4,4,0,0,1-5.69-1.27,4.45,4.45,0,0,1,1.19-6,4,4,0,0,1,5.7,1.27"/><path class="cls-2" d="M172.64,24.08a4.38,4.38,0,0,1-2.32,5.61A4,4,0,0,1,165,27.24a4.39,4.39,0,0,1,2.32-5.62,4.06,4.06,0,0,1,5.33,2.46"/><path class="cls-2" d="M211.67,12.62a4.32,4.32,0,0,1-3.21,5.11,4.14,4.14,0,0,1-4.87-3.38,4.34,4.34,0,0,1,3.24-5.12,4.12,4.12,0,0,1,4.84,3.39"/><path class="cls-2" d="M286,34.21a5.16,5.16,0,0,1-6.19,4.06A5.42,5.42,0,0,1,276,31.79a5.16,5.16,0,0,1,6.18-4.08,5.45,5.45,0,0,1,3.87,6.5"/><path class="cls-2" d="M328.5,45.73a5.05,5.05,0,0,1-6.84,2.64,5.53,5.53,0,0,1-2.51-7.19A5,5,0,0,1,326,38.54a5.54,5.54,0,0,1,2.51,7.19"/><path class="cls-2" d="M361.49,62.18a5,5,0,0,1-7.18,1.36A5.61,5.61,0,0,1,353,56a5,5,0,0,1,7.19-1.36,5.57,5.57,0,0,1,1.3,7.53"/><path class="cls-2" d="M349.74,451.86a5.49,5.49,0,0,1,2.83-7.06,5.05,5.05,0,0,1,6.7,3,5.53,5.53,0,0,1-2.8,7.06,5.08,5.08,0,0,1-6.73-3"/><path class="cls-2" d="M311.58,467.39a5.39,5.39,0,0,1,4.05-6.37,5.17,5.17,0,0,1,6.05,4.27,5.38,5.38,0,0,1-4,6.36,5.17,5.17,0,0,1-6.06-4.26"/><path class="cls-2" d="M267.83,475.15a5.15,5.15,0,1,1,5.07,5.49,5.27,5.27,0,0,1-5.07-5.49"/><path class="cls-2" d="M221.72,472.84a5.16,5.16,0,0,1,6.21-4,5.43,5.43,0,0,1,3.8,6.53,5.14,5.14,0,0,1-6.21,4,5.43,5.43,0,0,1-3.8-6.52"/><path class="cls-2" d="M184.73,463a5.1,5.1,0,0,1,6.82-2.78,5.53,5.53,0,0,1,2.62,7.14,5,5,0,0,1-6.78,2.78,5.54,5.54,0,0,1-2.66-7.14"/><path class="cls-2" d="M143.08,442a5,5,0,0,1,7.21-1.16,5.58,5.58,0,0,1,1.09,7.57,5,5,0,0,1-7.19,1.16,5.6,5.6,0,0,1-1.11-7.57"/><path class="cls-2" d="M111,416.19a5,5,0,0,1,7.29.31,5.6,5.6,0,0,1-.3,7.65,5,5,0,0,1-7.27-.3,5.61,5.61,0,0,1,.28-7.66"/><path class="cls-2" d="M86.4,387.63a5,5,0,0,1,7.13,1.63A5.56,5.56,0,0,1,92,396.73a5,5,0,0,1-7.11-1.61,5.58,5.58,0,0,1,1.55-7.49"/><path class="cls-2" d="M67.33,356a5.06,5.06,0,0,1,6.77,2.86,5.49,5.49,0,0,1-2.73,7.1,5.08,5.08,0,0,1-6.76-2.85A5.54,5.54,0,0,1,67.33,356"/><path class="cls-2" d="M52.74,318.38a5.17,5.17,0,0,1,6.16,4.1A5.41,5.41,0,0,1,55,328.94a5.15,5.15,0,0,1-6.14-4.11,5.42,5.42,0,0,1,3.9-6.45"/><path class="cls-2" d="M44.2,270.8a5.42,5.42,0,1,1-5.15,5.41,5.28,5.28,0,0,1,5.15-5.41"/><path class="cls-2" d="M44.91,228.8A5.4,5.4,0,0,1,49,235.13a5.17,5.17,0,0,1-6,4.3,5.4,5.4,0,0,1-4.09-6.33,5.17,5.17,0,0,1,6-4.3"/><path class="cls-2" d="M53.82,185.38a5.49,5.49,0,0,1,2.81,7.06,5.07,5.07,0,0,1-6.73,2.95,5.51,5.51,0,0,1-2.81-7.06,5.08,5.08,0,0,1,6.73-3"/><path class="cls-2" d="M70.73,144.81a5.62,5.62,0,0,1,1.42,7.52A5,5,0,0,1,65,153.81a5.57,5.57,0,0,1-1.43-7.51,5,5,0,0,1,7.15-1.49"/><path class="cls-2" d="M97,106.12a5.62,5.62,0,0,1-.14,7.67,5,5,0,0,1-7.28-.16,5.61,5.61,0,0,1,.13-7.65,5,5,0,0,1,7.29.14"/><path class="cls-2" d="M127.77,76.37a5.57,5.57,0,0,1-1.57,7.47,5,5,0,0,1-7.1-1.65,5.56,5.56,0,0,1,1.55-7.47,5,5,0,0,1,7.12,1.65"/><path class="cls-2" d="M161.34,54.65a5.49,5.49,0,0,1-2.85,7,5.08,5.08,0,0,1-6.7-3,5.5,5.5,0,0,1,2.87-7,5.06,5.06,0,0,1,6.68,3"/><path class="cls-2" d="M200.13,39.32A5.41,5.41,0,0,1,196,45.64a5.17,5.17,0,0,1-6-4.33,5.38,5.38,0,0,1,4.1-6.32,5.18,5.18,0,0,1,6,4.33"/><path class="cls-3" d="M308.27,282.62c-13,18.32-29.81,28-51.23,28-27.51,0-54-18.32-54-58.92,0-37.07,22.68-58,52.29-58,27.72,0,39.26,17.43,41.37,20.74,8.61,12.79,10.5,32,10.7,43H229.74c2.94,17.43,13.23,27.36,29.82,27.36,17.21,0,24.14-10.59,27.3-15.22Zm-28.55-44.57c-2.32-17.21-12.4-23.17-23.52-23.17-13.44,0-22.69,8.17-25.61,23.17Z"/><path class="cls-3" d="M351.74,197v15.66c3.15-5.74,10.08-18.76,33.6-18.09v27.14c-5.46.22-14.91.44-22.68,6.62-10.7,8.6-10.92,19.85-10.92,38.17v40.82H327.38V197Z"/><path class="cls-3" d="M465.13,236.07c-1.89-7.28-9.24-18.76-23.72-18.76s-26.05,12.14-26.05,34.2c0,19.86,9.88,34.42,26.46,34.42,16,0,22.05-12.79,25.2-21.62l21.63,11.91c-8.19,23.83-29,34.43-47.24,34.43-29.2,0-52.08-23.61-52.08-58.48,0-33.76,23.09-58.46,52.92-58.46,26.45,0,39.89,18.53,45.35,31.33Z"/><rect class="cls-4" width="511.01" height="509.78"/></g></svg>