<svg xmlns="http://www.w3.org/2000/svg" xmlns:xlink="http://www.w3.org/1999/xlink" viewBox="0 0 513.56 512.7"><defs><style>.cls-1{fill:url(#linear-gradient);}.cls-2{fill:#f26522;}.cls-3{fill:#fff;}</style><linearGradient id="linear-gradient" x1="270.23" y1="200.49" x2="406.35" y2="200.49" gradientUnits="userSpaceOnUse"><stop offset="0" stop-color="#f26522"/><stop offset="1" stop-color="#fff"/></linearGradient></defs><title>READCHINA logos</title><g id="Layer_15" data-name="Layer 15"><path id="SVGID" class="cls-1" d="M288.49,163.08a8.39,8.39,0,1,0-11.84,1,8.38,8.38,0,0,0,11.84-1m12.37,17A8.39,8.39,0,1,0,289.71,176,8.37,8.37,0,0,0,300.86,180.12Zm4.11,4a8.39,8.39,0,1,0,8.32,8.47A8.38,8.38,0,0,0,305,184.08Zm-5.22,36.75a8.39,8.39,0,1,0-4-11.16A8.41,8.41,0,0,0,299.75,220.83Zm.14,15.7a8.4,8.4,0,1,0-11.87-.61A8.37,8.37,0,0,0,299.89,236.53Zm-24.24-1.45a8.39,8.39,0,1,0,10.58,5.42A8.4,8.4,0,0,0,275.65,235.08ZM304.34,260a7.2,7.2,0,1,0-10.13-1.18A7.2,7.2,0,0,0,304.34,260Zm29.14-58.87a7.21,7.21,0,1,0-7.36,7A7.2,7.2,0,0,0,333.48,201.1ZM320.7,227.88a7.2,7.2,0,1,0-4.63-9.07A7.21,7.21,0,0,0,320.7,227.88Zm.31,13.78a7.21,7.21,0,1,0-10,2.09A7.19,7.19,0,0,0,321,241.66Zm3.57-56.43a7.2,7.2,0,1,0-9.06-4.64A7.21,7.21,0,0,0,324.58,185.23Zm-7.87-32.55a7.2,7.2,0,1,0-1.27,10.09A7.21,7.21,0,0,0,316.71,152.68Zm-26.18-4.85a7.2,7.2,0,1,0-2-10A7.22,7.22,0,0,0,290.53,147.83ZM302.21,132a6.28,6.28,0,1,0-1.69-8.71A6.3,6.3,0,0,0,302.21,132Zm20.88,9.88a6.28,6.28,0,1,0-8.88,0A6.26,6.26,0,0,0,323.09,141.83Zm1.5,12.51a6.28,6.28,0,1,0,1.85-8.68A6.3,6.3,0,0,0,324.59,154.34Zm10.25,4.9a6.28,6.28,0,1,0,8.26,3.28A6.25,6.25,0,0,0,334.84,159.24Zm1.25,24a6.28,6.28,0,1,0,4.7-7.53A6.29,6.29,0,0,0,336.09,183.22Zm14.63,17.35a6.29,6.29,0,1,0-6.34,6.22A6.29,6.29,0,0,0,350.72,200.57Zm-2,18.44a6.29,6.29,0,1,0-7.43,4.86A6.29,6.29,0,0,0,348.71,219Zm-13.42,20.2a6.27,6.27,0,1,0-3.42-8.18A6.28,6.28,0,0,0,335.29,239.21Zm-1.22,13.87a6.28,6.28,0,1,0-8.74,1.63A6.26,6.26,0,0,0,334.07,253.08Zm-11.54,13.73a6.27,6.27,0,1,0-8.88,0A6.24,6.24,0,0,0,322.53,266.81Zm-21.42,1.36a6.28,6.28,0,1,0,8.68,1.9A6.26,6.26,0,0,0,301.11,268.17Zm24-144.89a5.35,5.35,0,1,0-7.57,0A5.33,5.33,0,0,0,325.12,123.28Zm13.65,15.05a5.34,5.34,0,1,0-7.42-1.52A5.34,5.34,0,0,0,338.77,138.33Zm3.4,14.39a5.34,5.34,0,1,0,2.93-7A5.34,5.34,0,0,0,342.17,152.72ZM355.77,174a5.34,5.34,0,1,0-6.3-4.19A5.35,5.35,0,0,0,355.77,174Zm3.2,10.11a5.35,5.35,0,1,0,5.32,5.39A5.35,5.35,0,0,0,359,184.11Zm4.95,29a5.35,5.35,0,1,0-6.4,4A5.33,5.33,0,0,0,363.92,213.1Zm-11.36,22.41a5.34,5.34,0,1,0-2.78-7A5.36,5.36,0,0,0,352.56,235.51Zm-.92,15.87a5.35,5.35,0,1,0-7.43,1.42A5.35,5.35,0,0,0,351.64,251.38ZM339,269.89a5.34,5.34,0,1,0-7.56-.13A5.32,5.32,0,0,0,339,269.89Zm-20.85,5.65a5.34,5.34,0,1,0,7.4,1.58A5.34,5.34,0,0,0,318.12,275.54Zm1.78-171.36a5.08,5.08,0,1,0-1.39-7A5.09,5.09,0,0,0,319.9,104.18Zm24.83,14.46a5.08,5.08,0,1,0-7.21,0A5.08,5.08,0,0,0,344.73,118.64Zm15,20.28a5.08,5.08,0,1,0-7-1.53A5.07,5.07,0,0,0,359.75,138.92Zm2.39,16.27a5.08,5.08,0,1,0,2.74-6.63A5.08,5.08,0,0,0,362.14,155.19Zm12.47,24.44a5.07,5.07,0,1,0-6-3.93A5.09,5.09,0,0,0,374.61,179.63Zm1.54,13.66a5.08,5.08,0,1,0,5.13,5A5.07,5.07,0,0,0,376.15,193.29Zm-3.48,35.52a5.07,5.07,0,1,0-3.93-6A5.09,5.09,0,0,0,372.67,228.81Zm-3.95,12.76a5.08,5.08,0,1,0,2.69,6.67A5.08,5.08,0,0,0,368.72,241.57ZM360.19,269a5.09,5.09,0,1,0-7.06,1.37A5.09,5.09,0,0,0,360.19,269Zm-23.64,12.59a5.08,5.08,0,1,0,7.2.11A5.08,5.08,0,0,0,336.55,281.59ZM318.48,296a5.08,5.08,0,1,0,7,1.55A5.08,5.08,0,0,0,318.48,296ZM342.15,79.89a2.61,2.61,0,1,0-3.63.66A2.59,2.59,0,0,0,342.15,79.89Zm21.23,18.49a2.61,2.61,0,1,0-3.69,0A2.6,2.6,0,0,0,363.38,98.38Zm17,21.66a2.6,2.6,0,1,0-3.61-.72A2.61,2.61,0,0,0,380.38,120Zm11,20.51a2.6,2.6,0,1,0,3.4,1.41A2.61,2.61,0,0,0,391.4,140.55ZM401,171.3a2.6,2.6,0,1,0-3.08-2A2.6,2.6,0,0,0,401,171.3Zm2.7,23.74a2.6,2.6,0,1,0,2.63,2.57A2.61,2.61,0,0,0,403.72,195Zm-2.13,29.89a2.6,2.6,0,1,0,2.06,3A2.61,2.61,0,0,0,401.59,224.93Zm-9.25,31.58a2.6,2.6,0,1,0,1.32,3.43A2.6,2.6,0,0,0,392.34,256.51Zm-18.15,27.14a2.6,2.6,0,1,0,4.23,3,2.58,2.58,0,0,0-.59-3.62A2.62,2.62,0,0,0,374.19,283.65Zm-15.86,18.63a2.58,2.58,0,0,0,0,3.67,2.6,2.6,0,1,0,0-3.67ZM336,320.38a2.6,2.6,0,1,0,3.6.76A2.6,2.6,0,0,0,336,320.38Zm3.72-225.57a3.25,3.25,0,1,0,4.6,0A3.24,3.24,0,0,0,339.72,94.81Zm21.86,23a3.26,3.26,0,1,0-4.52-.92A3.26,3.26,0,0,0,361.58,117.78Zm14.58,23.3a3.25,3.25,0,1,0-4.24-1.81A3.25,3.25,0,0,0,376.16,141.08Zm4.71,19.79a3.25,3.25,0,1,0,2.54-3.83A3.26,3.26,0,0,0,380.87,160.87ZM389,180.14a3.25,3.25,0,1,0,3.33,3.19A3.25,3.25,0,0,0,389,180.14Zm-2.67,30.68a3.26,3.26,0,1,0,3.81-2.58A3.25,3.25,0,0,0,386.29,210.82Zm-.62,24a3.25,3.25,0,1,0,1.77,4.24A3.26,3.26,0,0,0,385.67,234.8Zm-9.27,30.55a3.26,3.26,0,1,0-4.54.85A3.24,3.24,0,0,0,376.4,265.35Zm-14.84,21.76a3.26,3.26,0,1,0-4.61,0A3.24,3.24,0,0,0,361.56,287.11Zm-23.15,13.76a3.25,3.25,0,1,0,4.5,1A3.25,3.25,0,0,0,338.41,300.87Z"/><path class="cls-2" d="M270.46,153a8.4,8.4,0,1,1-5.83-10.33A8.4,8.4,0,0,1,270.46,153"/><path class="cls-2" d="M251,247.36a8.4,8.4,0,1,1,7.61,9.11,8.42,8.42,0,0,1-7.61-9.11"/><path class="cls-2" d="M232.83,241.56a8.4,8.4,0,1,1,3.51,11.34,8.43,8.43,0,0,1-3.51-11.34"/><path class="cls-2" d="M217.83,228.58a8.4,8.4,0,1,1-1.34,11.79,8.42,8.42,0,0,1,1.34-11.79"/><path class="cls-2" d="M209.33,210.8a8.39,8.39,0,1,1-6,10.27,8.41,8.41,0,0,1,6-10.27"/><path class="cls-2" d="M208.51,191.91a8.39,8.39,0,1,1-9.43,7.21,8.38,8.38,0,0,1,9.43-7.21"/><path class="cls-2" d="M215.39,173.52a8.39,8.39,0,1,1-11.53,2.88,8.38,8.38,0,0,1,11.53-2.88"/><path class="cls-2" d="M229,159.38a8.4,8.4,0,1,1-11.73-1.92A8.4,8.4,0,0,1,229,159.38"/><path class="cls-2" d="M249.39,151.44a8.41,8.41,0,1,1-9.68-6.87,8.4,8.4,0,0,1,9.68,6.87"/><path class="cls-2" d="M263.71,269.52a7.21,7.21,0,1,1-7.22-7.19,7.2,7.2,0,0,1,7.22,7.19"/><path class="cls-2" d="M285.48,263.59a7.2,7.2,0,1,1-9.12-4.56,7.18,7.18,0,0,1,9.12,4.56"/><path class="cls-2" d="M248.86,130a7.21,7.21,0,1,1,7,7.42,7.2,7.2,0,0,1-7-7.42"/><path class="cls-2" d="M270.19,130.58a7.21,7.21,0,1,1,4.54,9.12,7.22,7.22,0,0,1-4.54-9.12"/><path class="cls-2" d="M227.59,136a7.21,7.21,0,1,1,9,4.75,7.19,7.19,0,0,1-9-4.75"/><path class="cls-2" d="M208.12,149.25a7.21,7.21,0,1,1,10.1,1.4,7.19,7.19,0,0,1-10.1-1.4"/><path class="cls-2" d="M187.71,185.89a7.2,7.2,0,1,1,9.19-4.42,7.21,7.21,0,0,1-9.19,4.42"/><path class="cls-2" d="M194.69,165.65a7.2,7.2,0,1,1,10-1.85,7.19,7.19,0,0,1-10,1.85"/><path class="cls-2" d="M186.49,207.51a7.2,7.2,0,1,1,7.47-6.94,7.22,7.22,0,0,1-7.47,6.94"/><path class="cls-2" d="M192.19,228.9a7.2,7.2,0,1,1,4.88-8.94,7.2,7.2,0,0,1-4.88,8.94"/><path class="cls-2" d="M204.67,247.43a7.2,7.2,0,1,1,1.55-10.06,7.23,7.23,0,0,1-1.55,10.06"/><path class="cls-2" d="M239.67,268.3a7.21,7.21,0,1,1-4.3-9.23,7.23,7.23,0,0,1,4.3,9.23"/><path class="cls-2" d="M221.45,260.91a7.21,7.21,0,1,1-1.72-10,7.22,7.22,0,0,1,1.72,10"/><path class="cls-2" d="M262.78,111.6a6.28,6.28,0,1,1-6.29-6.27,6.27,6.27,0,0,1,6.29,6.27"/><path class="cls-2" d="M279.92,114.58A6.28,6.28,0,1,1,275,107.2a6.28,6.28,0,0,1,4.92,7.38"/><path class="cls-2" d="M295.33,120.44a6.28,6.28,0,1,1-3.47-8.16,6.29,6.29,0,0,1,3.47,8.16"/><path class="cls-2" d="M168.06,193.78a6.27,6.27,0,1,1-6.23,6.32,6.28,6.28,0,0,1,6.23-6.32"/><path class="cls-2" d="M170.91,176.65a6.27,6.27,0,1,1-7.35,5,6.28,6.28,0,0,1,7.35-5"/><path class="cls-2" d="M176.67,161.22a6.27,6.27,0,1,1-8.15,3.53,6.26,6.26,0,0,1,8.15-3.53"/><path class="cls-2" d="M186.38,145.58a6.27,6.27,0,1,1-8.71,1.76,6.27,6.27,0,0,1,8.71-1.76"/><path class="cls-2" d="M197.89,133.35a6.28,6.28,0,1,1-8.89.08,6.27,6.27,0,0,1,8.89-.08"/><path class="cls-2" d="M212.18,123.07a6.28,6.28,0,1,1-8.7-1.78,6.26,6.26,0,0,1,8.7,1.78"/><path class="cls-2" d="M226.74,116.43a6.28,6.28,0,1,1-8.29-3.21,6.28,6.28,0,0,1,8.29,3.21"/><path class="cls-2" d="M243.88,112.5a6.28,6.28,0,1,1-7.58-4.63,6.27,6.27,0,0,1,7.58,4.63"/><path class="cls-2" d="M250.37,287.69a6.29,6.29,0,1,1,6.33,6.22,6.28,6.28,0,0,1-6.33-6.22"/><path class="cls-2" d="M233.21,284.83a6.28,6.28,0,1,1,5,7.34,6.29,6.29,0,0,1-5-7.34"/><path class="cls-2" d="M217.76,279.07a6.28,6.28,0,1,1,3.54,8.14,6.29,6.29,0,0,1-3.54-8.14"/><path class="cls-2" d="M202.1,269.38a6.28,6.28,0,1,1,1.76,8.68,6.28,6.28,0,0,1-1.76-8.68"/><path class="cls-2" d="M189.86,257.88a6.27,6.27,0,1,1,.09,8.87,6.28,6.28,0,0,1-.09-8.87"/><path class="cls-2" d="M179.57,243.61a6.27,6.27,0,1,1-1.78,8.68,6.28,6.28,0,0,1,1.78-8.68"/><path class="cls-2" d="M172.93,229.07a6.27,6.27,0,1,1-3.22,8.26,6.28,6.28,0,0,1,3.22-8.26"/><path class="cls-2" d="M169,212a6.27,6.27,0,1,1-4.64,7.56A6.28,6.28,0,0,1,169,212"/><path class="cls-2" d="M284.55,283.25a6.28,6.28,0,1,1,8.23,3.34,6.26,6.26,0,0,1-8.23-3.34"/><path class="cls-2" d="M267.35,286.92a6.28,6.28,0,1,1,7.49,4.74,6.26,6.26,0,0,1-7.49-4.74"/><path class="cls-2" d="M250.22,96.74a5.35,5.35,0,1,1-5.35-5.35,5.34,5.34,0,0,1,5.35,5.35"/><path class="cls-2" d="M274.15,98.23a5.35,5.35,0,1,1-4-6.43,5.32,5.32,0,0,1,4,6.43"/><path class="cls-2" d="M292.73,103.41a5.34,5.34,0,1,1-2.69-7,5.32,5.32,0,0,1,2.69,7"/><path class="cls-2" d="M309.23,111.47a5.34,5.34,0,1,1-1.4-7.42,5.35,5.35,0,0,1,1.4,7.42"/><path class="cls-2" d="M299.83,292.81a5.35,5.35,0,1,1,7,2.94,5.35,5.35,0,0,1-7-2.94"/><path class="cls-2" d="M281.17,299.5a5.36,5.36,0,1,1,6.29,4.2,5.35,5.35,0,0,1-6.29-4.2"/><path class="cls-2" d="M262,302.47a5.35,5.35,0,1,1,5.38,5.31,5.35,5.35,0,0,1-5.38-5.31"/><path class="cls-2" d="M239,301.29a5.35,5.35,0,1,1,4.07,6.36,5.37,5.37,0,0,1-4.07-6.36"/><path class="cls-2" d="M222.21,297.05a5.35,5.35,0,1,1,2.95,7,5.36,5.36,0,0,1-2.95-7"/><path class="cls-2" d="M200.18,286.41a5.35,5.35,0,1,1,1.22,7.46,5.35,5.35,0,0,1-1.22-7.46"/><path class="cls-2" d="M186,275.54a5.34,5.34,0,1,1-.09,7.55,5.36,5.36,0,0,1,.09-7.55"/><path class="cls-2" d="M172.65,260.64a5.34,5.34,0,1,1-1.54,7.4,5.35,5.35,0,0,1,1.54-7.4"/><path class="cls-2" d="M163.13,245a5.34,5.34,0,1,1-2.83,7,5.34,5.34,0,0,1,2.83-7"/><path class="cls-2" d="M156.76,228.57a5.34,5.34,0,1,1-4,6.43,5.35,5.35,0,0,1,4-6.43"/><path class="cls-2" d="M152.82,206.52a5.34,5.34,0,1,1-5.28,5.41,5.34,5.34,0,0,1,5.28-5.41"/><path class="cls-2" d="M153.65,185a5.34,5.34,0,1,1-6.3,4.2,5.35,5.35,0,0,1,6.3-4.2"/><path class="cls-2" d="M158.6,165a5.34,5.34,0,1,1-7,2.85,5.33,5.33,0,0,1,7-2.85"/><path class="cls-2" d="M167.57,146.18a5.35,5.35,0,1,1-7.45,1.4,5.34,5.34,0,0,1,7.45-1.4"/><path class="cls-2" d="M180.55,129.1a5.34,5.34,0,1,1-7.55-.17,5.31,5.31,0,0,1,7.55.17"/><path class="cls-2" d="M194.74,116.55a5.35,5.35,0,1,1-7.4-1.55,5.33,5.33,0,0,1,7.4,1.55"/><path class="cls-2" d="M210.9,106.85a5.35,5.35,0,1,1-7-2.87,5.33,5.33,0,0,1,7,2.87"/><path class="cls-2" d="M230,99.85a5.35,5.35,0,1,1-6.3-4.18,5.35,5.35,0,0,1,6.3,4.18"/><path class="cls-2" d="M237.2,81.33a5.08,5.08,0,1,1-6-4,5.08,5.08,0,0,1,6,4"/><path class="cls-2" d="M261.71,79.93a5.09,5.09,0,1,1-5.06-5.11,5.07,5.07,0,0,1,5.06,5.11"/><path class="cls-2" d="M289.52,84.5a5.08,5.08,0,1,1-3.71-6.14,5.08,5.08,0,0,1,3.71,6.14"/><path class="cls-2" d="M308.51,91.75a5.08,5.08,0,1,1-2.63-6.68,5.08,5.08,0,0,1,2.63,6.68"/><path class="cls-2" d="M296.55,312.49a5.08,5.08,0,1,1,6.61,2.82,5.09,5.09,0,0,1-6.61-2.82"/><path class="cls-2" d="M274.71,318a5.09,5.09,0,1,1,6,4,5.09,5.09,0,0,1-6-4"/><path class="cls-2" d="M249.12,319.22a5.08,5.08,0,1,1,5,5.18,5.07,5.07,0,0,1-5-5.18"/><path class="cls-2" d="M226.21,315.62a5.08,5.08,0,1,1,3.9,6,5.1,5.1,0,0,1-3.9-6"/><path class="cls-2" d="M203.63,307.3a5.08,5.08,0,1,1,2.6,6.69,5.09,5.09,0,0,1-2.6-6.69"/><path class="cls-2" d="M180.74,292.73a5.07,5.07,0,1,1,1,7.1,5.09,5.09,0,0,1-1-7.1"/><path class="cls-2" d="M167,279.7a5.09,5.09,0,1,1-.09,7.17,5.13,5.13,0,0,1,.09-7.17"/><path class="cls-2" d="M153.38,261.3a5.08,5.08,0,1,1-1.47,7,5.09,5.09,0,0,1,1.47-7"/><path class="cls-2" d="M144.63,243.62a5.07,5.07,0,1,1-2.6,6.68,5.09,5.09,0,0,1,2.6-6.68"/><path class="cls-2" d="M138.12,220.71a5.07,5.07,0,1,1-3.87,6,5.1,5.1,0,0,1,3.87-6"/><path class="cls-2" d="M136.31,195.85a5.08,5.08,0,1,1-5,5.11,5.09,5.09,0,0,1,5-5.11"/><path class="cls-2" d="M139.58,171.61a5.07,5.07,0,1,1-6,4,5.08,5.08,0,0,1,6-4"/><path class="cls-2" d="M147.14,149.77a5.07,5.07,0,1,1-6.64,2.76,5.07,5.07,0,0,1,6.64-2.76"/><path class="cls-2" d="M158.91,129.55a5.08,5.08,0,1,1-7,1.43,5.08,5.08,0,0,1,7-1.43"/><path class="cls-2" d="M176.75,109.88a5.08,5.08,0,1,1-7.18-.16,5.08,5.08,0,0,1,7.18.16"/><path class="cls-2" d="M193.87,97.27a5.08,5.08,0,1,1-7-1.42,5.08,5.08,0,0,1,7,1.42"/><path class="cls-2" d="M214.64,87.24A5.08,5.08,0,1,1,208,84.5a5.07,5.07,0,0,1,6.63,2.74"/><path class="cls-2" d="M246,66.78a3.26,3.26,0,1,1-3.26-3.25A3.25,3.25,0,0,1,246,66.78"/><path class="cls-2" d="M258.41,52.38a2.61,2.61,0,1,1-2.6-2.6,2.6,2.6,0,0,1,2.6,2.6"/><path class="cls-2" d="M293.23,57.06A2.62,2.62,0,0,1,290.08,59a2.6,2.6,0,1,1,3.15-1.92"/><path class="cls-2" d="M320,66.81a2.6,2.6,0,1,1-1.28-3.45A2.61,2.61,0,0,1,320,66.81"/><path class="cls-2" d="M307.87,337.57a2.6,2.6,0,1,1,3.37,1.48,2.6,2.6,0,0,1-3.37-1.48"/><path class="cls-2" d="M280.93,344.8a2.6,2.6,0,1,1,3,2.09,2.59,2.59,0,0,1-3-2.09"/><path class="cls-2" d="M250.29,346.76a2.6,2.6,0,1,1,2.54,2.67,2.6,2.6,0,0,1-2.54-2.67"/><path class="cls-2" d="M219.47,342.22a2.61,2.61,0,1,1,1.92,3.15,2.6,2.6,0,0,1-1.92-3.15"/><path class="cls-2" d="M192.22,332.27a2.6,2.6,0,1,1,1.26,3.45,2.6,2.6,0,0,1-1.26-3.45"/><path class="cls-2" d="M165.93,316a2.6,2.6,0,1,1,.51,3.64,2.59,2.59,0,0,1-.51-3.64"/><path class="cls-2" d="M146.76,298.26a2.6,2.6,0,1,1-.14,3.68,2.61,2.61,0,0,1,.14-3.68"/><path class="cls-2" d="M131.39,278a2.6,2.6,0,1,1-.77,3.6,2.61,2.61,0,0,1,.77-3.6"/><path class="cls-2" d="M120.73,257.73a2.6,2.6,0,1,1,2.14,4.74,2.6,2.6,0,1,1-2.14-4.74"/><path class="cls-2" d="M112.25,231.4a2.6,2.6,0,1,1-1.94,3.12,2.6,2.6,0,0,1,1.94-3.12"/><path class="cls-2" d="M108.77,198.93a2.6,2.6,0,1,1-2.58,2.63,2.58,2.58,0,0,1,2.58-2.63"/><path class="cls-2" d="M111.48,171.52a2.6,2.6,0,1,1-3,2.09,2.59,2.59,0,0,1,3-2.09"/><path class="cls-2" d="M120.48,142.13a2.6,2.6,0,1,1-3.4,1.42,2.58,2.58,0,0,1,3.4-1.42"/><path class="cls-2" d="M135.11,115.64a2.6,2.6,0,1,1-3.62.7,2.6,2.6,0,0,1,3.62-.7"/><path class="cls-2" d="M154.89,92.66a2.6,2.6,0,1,1-3.68,0,2.58,2.58,0,0,1,3.68,0"/><path class="cls-2" d="M177.63,75a2.6,2.6,0,1,1-3.6-.76,2.59,2.59,0,0,1,3.6.76"/><path class="cls-2" d="M204.38,61.78A2.6,2.6,0,1,1,201,60.3a2.59,2.59,0,0,1,3.37,1.48"/><path class="cls-2" d="M229,54.9a2.6,2.6,0,1,1-3.06-2,2.58,2.58,0,0,1,3.06,2"/><path class="cls-2" d="M276,67.86a3.25,3.25,0,1,1-2.44-3.9,3.25,3.25,0,0,1,2.44,3.9"/><path class="cls-2" d="M302.87,74.77a3.25,3.25,0,1,1-1.59-4.31,3.26,3.26,0,0,1,1.59,4.31"/><path class="cls-2" d="M323.71,84.65a3.26,3.26,0,1,1-.82-4.52,3.25,3.25,0,0,1,.82,4.52"/><path class="cls-2" d="M316.29,318.62a3.25,3.25,0,1,1,4.25,1.78,3.27,3.27,0,0,1-4.25-1.78"/><path class="cls-2" d="M292.18,327.94A3.25,3.25,0,1,1,296,330.5a3.23,3.23,0,0,1-3.83-2.56"/><path class="cls-2" d="M264.53,332.6a3.25,3.25,0,1,1,3.2,3.3,3.25,3.25,0,0,1-3.2-3.3"/><path class="cls-2" d="M235.39,331.21a3.25,3.25,0,1,1,2.4,3.92,3.27,3.27,0,0,1-2.4-3.92"/><path class="cls-2" d="M212,325.32a3.26,3.26,0,1,1,1.67,4.28,3.28,3.28,0,0,1-1.67-4.28"/><path class="cls-2" d="M185.7,312.7a3.27,3.27,0,0,1,4.55-.69,3.25,3.25,0,1,1-4.55.69"/><path class="cls-2" d="M165.4,297.2a3.26,3.26,0,1,1-.18,4.6,3.28,3.28,0,0,1,.18-4.6"/><path class="cls-2" d="M149.88,280.05a3.27,3.27,0,0,1,4.5,1,3.26,3.26,0,1,1-4.5-1"/><path class="cls-2" d="M137.83,261a3.27,3.27,0,0,1,4.28,1.72,3.26,3.26,0,1,1-4.28-1.72"/><path class="cls-2" d="M128.61,238.47a3.25,3.25,0,1,1-2.47,3.88,3.26,3.26,0,0,1,2.47-3.88"/><path class="cls-2" d="M123.21,209.91a3.25,3.25,0,1,1-3.25,3.25,3.25,3.25,0,0,1,3.25-3.25"/><path class="cls-2" d="M123.66,184.69a3.25,3.25,0,1,1-3.81,2.58,3.26,3.26,0,0,1,3.81-2.58"/><path class="cls-2" d="M129.29,158.62a3.25,3.25,0,1,1-4.25,1.77,3.25,3.25,0,0,1,4.25-1.77"/><path class="cls-2" d="M140,134.27a3.25,3.25,0,1,1-4.51.89,3.25,3.25,0,0,1,4.51-.89"/><path class="cls-2" d="M156.59,111A3.25,3.25,0,1,1,152,111a3.24,3.24,0,0,1,4.61.09"/><path class="cls-2" d="M176,93.17a3.25,3.25,0,1,1-4.5-1,3.24,3.24,0,0,1,4.5,1"/><path class="cls-2" d="M197.24,80.13A3.25,3.25,0,1,1,193,78.32a3.25,3.25,0,0,1,4.23,1.81"/><path class="cls-2" d="M221.75,70.93a3.25,3.25,0,1,1-3.81-2.6,3.25,3.25,0,0,1,3.81,2.6"/><path class="cls-3" d="M290.09,217c-8.23,11-18.84,16.82-32.38,16.82-17.38,0-34.1-11-34.1-35.37,0-22.25,14.33-34.84,33-34.84,17.51,0,24.81,10.47,26.14,12.45,5.44,7.69,6.64,19.21,6.77,25.84h-49.1c1.86,10.46,8.36,16.42,18.84,16.42,10.88,0,15.26-6.35,17.25-9.14Zm-18-26.76c-1.46-10.34-7.83-13.91-14.86-13.91-8.49,0-14.34,4.9-16.19,13.91Z"/><path class="cls-3" d="M317.55,165.61V175c2-3.44,6.37-11.26,21.24-10.86v16.3c-3.45.13-9.42.26-14.33,4-6.77,5.17-6.91,11.92-6.91,22.92v24.51H302.16V165.61Z"/><path class="cls-3" d="M389.21,189.06a15.46,15.46,0,0,0-15-11.26c-9.16,0-16.46,7.28-16.46,20.53,0,11.92,6.24,20.67,16.72,20.67,10.09,0,13.93-7.69,15.92-13l13.67,7.16c-5.17,14.3-18.31,20.66-29.85,20.66-18.45,0-32.91-14.17-32.91-35.1,0-20.27,14.59-35.11,33.44-35.11,16.71,0,25.21,11.13,28.66,18.81Z"/><polyline class="cls-3" points="47.79 382.26 47.79 387.85 59.26 387.85 59.26 391.69 47.79 391.69 47.79 398.06 61.19 398.06 61.19 402.06 43.4 402.06 43.4 378.27 60.35 378.27 60.35 382.26 47.79 382.26"/><path class="cls-3" d="M79.32,385.22v16.84h-4v-1.71a7.51,7.51,0,0,1-5.47,2.12,5.56,5.56,0,0,1-4.69-2C64,399.07,64,397.48,64,395v-9.74h4.09v9.67a6.43,6.43,0,0,0,.13,1.69,3,3,0,0,0,3.14,2.12,3.69,3.69,0,0,0,3.27-1.79c.61-1.11.64-2.18.68-4.54v-7.15h4"/><path class="cls-3" d="M87.62,385.22v2.39c.51-.87,1.63-2.86,5.41-2.76V389a6.23,6.23,0,0,0-3.65,1c-1.72,1.31-1.76,3-1.76,5.82v6.23H83.71V385.22h3.91"/><path class="cls-3" d="M102.79,402.57c-5.26,0-8.77-3.84-8.77-9s3.57-8.86,8.61-8.86a8.48,8.48,0,0,1,8.74,8.86c0,5.25-3.48,9-8.58,9m-.2-14.22c-2.53,0-4.36,2-4.36,5.13,0,3.47,2.13,5.39,4.56,5.39,2.94,0,4.43-2.56,4.33-5.36S105.42,388.35,102.59,388.35Z"/><path class="cls-3" d="M114.71,385.22h4v1.55a6,6,0,0,1,4.63-2c5,0,7.66,4.45,7.66,9.09,0,5-3.13,8.76-7.66,8.76a6.63,6.63,0,0,1-4.63-1.89v6.87h-4V385.22m8.1,13.55c2,0,4.09-1.35,4.09-5.16,0-4.21-2.94-5-4.15-5-1.86,0-4,1.35-4,5S120.55,398.77,122.81,398.77Z"/><path class="cls-3" d="M150.26,398.3a9.83,9.83,0,0,1-8.24,4.27c-4.42,0-8.67-2.8-8.67-9,0-5.67,3.64-8.86,8.4-8.86,4.46,0,6.32,2.66,6.65,3.16,1.39,2,1.69,4.89,1.72,6.57H137.63c.48,2.66,2.13,4.18,4.8,4.18a5,5,0,0,0,4.39-2.32l3.44,2m-4.59-6.81c-.37-2.63-2-3.54-3.78-3.54a4,4,0,0,0-4.12,3.54Z"/><path class="cls-3" d="M152.83,390.17a5.38,5.38,0,0,1,.67-2.53c1.62-2.92,5.64-2.92,6.72-2.92a10.19,10.19,0,0,1,5.06,1.07c2,1.22,2,2.8,2,4.62v8.93a3.48,3.48,0,0,0,.75,2.72h-4.8c0-.4-.1-1.07-.1-1.31a8,8,0,0,1-5,1.72c-3.81,0-6.11-2.36-6.11-5.26a5.08,5.08,0,0,1,.54-2.29c1.22-2.42,3.82-3,5.44-3.26a38.86,38.86,0,0,0,5.23-1.25c0-.84-.06-2.56-2.87-2.56a3.61,3.61,0,0,0-3,1.08,2,2,0,0,0-.4,1.48l-4.15-.24m10.43,3.51a11.73,11.73,0,0,1-3.54,1c-1.46.2-3.39.54-3.39,2.32,0,1.32,1.12,2,2.75,2,2,0,3.5-.94,3.94-1.95a3.37,3.37,0,0,0,.24-1.52Z"/><path class="cls-3" d="M171.59,385.22h4.09v2A4.57,4.57,0,0,1,177,385.9a7,7,0,0,1,3.88-1.18,5.55,5.55,0,0,1,4.43,2c1,1.41,1,3.23,1,5.42v9.9h-4v-8.58a12.3,12.3,0,0,0-.13-2.56,2.76,2.76,0,0,0-2.77-2.26,3.54,3.54,0,0,0-3.11,1.89,9.65,9.65,0,0,0-.64,4.21v7.3h-4.09V385.22"/><path class="cls-3" d="M200.33,378.28h7.59c3.17,0,5.3,0,7.39,1.71a7.26,7.26,0,0,1,2.64,5.87,6.54,6.54,0,0,1-4.69,6.54l5.3,9.66h-5.1l-4.73-8.82h-4v8.82h-4.42V378.28m4.42,3.84v7.45h1.55c1.52,0,2.1,0,2.94-.07s4.19-.2,4.19-3.67a3.43,3.43,0,0,0-1.89-3.21c-.95-.47-2.1-.5-4.73-.5Z"/><path class="cls-3" d="M237.47,398.3a9.86,9.86,0,0,1-8.24,4.27c-4.43,0-8.68-2.8-8.68-9,0-5.67,3.65-8.86,8.4-8.86a7.66,7.66,0,0,1,6.66,3.16c1.38,2,1.69,4.89,1.72,6.57H224.84c.47,2.66,2.13,4.18,4.79,4.18a4.93,4.93,0,0,0,4.39-2.32l3.45,2m-4.6-6.81c-.37-2.63-2-3.54-3.78-3.54a4,4,0,0,0-4.12,3.54Z"/><path class="cls-3" d="M242.12,397.08a5.91,5.91,0,0,0,4.86,2.16c2.34,0,3.35-1.15,3.35-2,0-1.08-1.22-1.35-1.76-1.45s-3.34-.64-3.95-.81c-4-.94-4.76-3.26-4.76-4.78,0-2.87,2.6-5.49,7.23-5.49a9.53,9.53,0,0,1,5.57,1.62,7.17,7.17,0,0,1,1.72,1.51l-2.87,2.66a4.72,4.72,0,0,0-4.59-2.56c-1.93,0-2.8.84-2.8,1.72,0,1.21,1.25,1.55,3.41,1.92,3.51.64,4.48.81,5.57,1.65a4.6,4.6,0,0,1,1.72,3.57c0,2.63-2.37,5.76-7.6,5.76a11.53,11.53,0,0,1-8.1-3l3-2.49"/><path class="cls-3" d="M274,398.3a9.86,9.86,0,0,1-8.24,4.27c-4.43,0-8.67-2.8-8.67-9,0-5.67,3.64-8.86,8.4-8.86a7.63,7.63,0,0,1,6.65,3.16c1.38,2,1.69,4.89,1.72,6.57H261.4c.48,2.66,2.13,4.18,4.8,4.18a4.93,4.93,0,0,0,4.38-2.32l3.45,2m-4.59-6.81c-.37-2.63-2-3.54-3.79-3.54a4,4,0,0,0-4.12,3.54Z"/><path class="cls-3" d="M276.6,390.17a5.38,5.38,0,0,1,.67-2.53c1.62-2.92,5.64-2.92,6.72-2.92a10.19,10.19,0,0,1,5.06,1.07c2,1.22,2,2.8,2,4.62v8.93a3.51,3.51,0,0,0,.74,2.72H287c0-.4-.11-1.07-.11-1.31a7.93,7.93,0,0,1-5,1.72c-3.82,0-6.11-2.36-6.11-5.26a5.08,5.08,0,0,1,.54-2.29c1.21-2.42,3.81-3,5.43-3.26a39.16,39.16,0,0,0,5.24-1.25c0-.84-.07-2.56-2.87-2.56a3.6,3.6,0,0,0-3,1.08,2,2,0,0,0-.4,1.48l-4.15-.24M287,393.68a11.81,11.81,0,0,1-3.55,1c-1.45.2-3.37.54-3.37,2.32,0,1.32,1.11,2,2.73,2,2.06,0,3.51-.94,4-1.95a3.37,3.37,0,0,0,.24-1.52Z"/><path class="cls-3" d="M299.31,385.22v2.39c.51-.87,1.62-2.86,5.41-2.76V389a6.24,6.24,0,0,0-3.65,1c-1.72,1.31-1.76,3-1.76,5.82v6.23H295.4V385.22h3.91"/><path class="cls-3" d="M317.52,391.19a3.94,3.94,0,0,0-3.82-2.87c-2.32,0-4.18,1.85-4.18,5.22,0,3,1.59,5.26,4.25,5.26s3.55-1.95,4.05-3.3l3.48,1.82a8,8,0,0,1-7.6,5.25c-4.69,0-8.37-3.6-8.37-8.92,0-5.16,3.72-8.93,8.51-8.93a7.79,7.79,0,0,1,7.29,4.78l-3.61,1.69"/><path class="cls-3" d="M326.88,378.28v8.66a7.38,7.38,0,0,1,5.37-2.22,6.18,6.18,0,0,1,4.62,1.81c1.39,1.48,1.42,3.2,1.42,5.13v10.4h-4V392.8a7.12,7.12,0,0,0-.26-2.39,2.87,2.87,0,0,0-2.94-1.85,4.29,4.29,0,0,0-4.09,3.07,10.66,10.66,0,0,0-.13,2.69v7.74h-4.05V378.28h4.05"/><path class="cls-3" d="M372.25,395.43A12.26,12.26,0,0,1,370.2,399a10.57,10.57,0,0,1-8.24,3.67c-6.32,0-11.15-4.61-11.15-12.56s5.24-12.44,11.31-12.44c7.43,0,9.19,5.7,9.73,7.35l-4.46,1.18a6.15,6.15,0,0,0-.87-2.36,5.06,5.06,0,0,0-4.29-2.09c-3.88,0-6.59,3.2-6.59,8.29,0,5.43,2.87,8.42,6.62,8.42a5.48,5.48,0,0,0,4.56-2.32,8,8,0,0,0,1.25-2.46l4.18,1.75"/><path class="cls-3" d="M382.75,402.57c-5.26,0-8.78-3.84-8.78-9s3.58-8.86,8.61-8.86a8.48,8.48,0,0,1,8.75,8.86c0,5.25-3.48,9-8.58,9m-.2-14.22c-2.53,0-4.36,2-4.36,5.13,0,3.47,2.13,5.39,4.56,5.39,2.94,0,4.42-2.56,4.33-5.36S385.38,388.35,382.55,388.35Z"/><path class="cls-3" d="M409.93,385.22v16.84h-4.05v-1.71a7.51,7.51,0,0,1-5.47,2.12,5.56,5.56,0,0,1-4.69-2c-1.15-1.45-1.15-3-1.15-5.56v-9.74h4.09v9.67a6.43,6.43,0,0,0,.13,1.69,3,3,0,0,0,3.15,2.12,3.69,3.69,0,0,0,3.26-1.79c.61-1.11.64-2.18.68-4.54v-7.15h4.05"/><path class="cls-3" d="M414.28,385.22h4.09v2a4.64,4.64,0,0,1,1.31-1.31,7,7,0,0,1,3.89-1.18,5.52,5.52,0,0,1,4.42,2C429,388.15,429,390,429,392.16v9.9h-4v-8.58a11.44,11.44,0,0,0-.14-2.56,2.75,2.75,0,0,0-2.76-2.26,3.53,3.53,0,0,0-3.11,1.89,9.65,9.65,0,0,0-.64,4.21v7.3h-4.09V385.22"/><path class="cls-3" d="M444.13,391.19a3.92,3.92,0,0,0-3.81-2.87c-2.33,0-4.19,1.85-4.19,5.22,0,3,1.58,5.26,4.25,5.26s3.55-1.95,4.05-3.3l3.48,1.82a8,8,0,0,1-7.59,5.25c-4.7,0-8.38-3.6-8.38-8.92,0-5.16,3.72-8.93,8.51-8.93a7.79,7.79,0,0,1,7.29,4.78l-3.61,1.69"/><path class="cls-3" d="M454.23,378.52v4.07h-4v-4.07h4m-4,6.7h4v16.84h-4Z"/><rect class="cls-3" x="458.65" y="378.28" width="4.09" height="23.79"/><path class="cls-3" d="M43.57,449.29V432.83H53.81v1.57H45.33v5.81h7.23v1.57H45.33v5.94h8.48v1.57Z"/><path class="cls-3" d="M60.75,449.43a6.29,6.29,0,0,1-4.68-1.64l1.11-1.11A4.65,4.65,0,0,0,60.72,448c1.88,0,3-.67,3-2,0-1-.57-1.55-1.89-1.67L60,444.16c-2.22-.19-3.4-1.18-3.4-3.05,0-2.08,1.76-3.33,4.19-3.33a6.47,6.47,0,0,1,4.1,1.22l-1.09,1.09a4.88,4.88,0,0,0-3-.9c-1.67,0-2.55.72-2.55,1.87,0,1,.55,1.55,2,1.66l1.83.17c2,.18,3.36.95,3.36,3.07S63.5,449.43,60.75,449.43Z"/><path class="cls-3" d="M71.6,449.29a2.79,2.79,0,0,1-2.92-3.05v-7H67.25V438h1.43v-3.56h1.67V438h2.43v1.27H70.35v6.93c0,1,.49,1.67,1.55,1.67h.88v1.43Z"/><path class="cls-3" d="M82.36,449.29v-1.08a4,4,0,0,1-3.29,1.22,4,4,0,0,1-3.21-1,3.26,3.26,0,0,1-.86-2.31c0-2,1.39-3.28,3.93-3.28h3.43v-1.09c0-1.67-.83-2.5-2.92-2.5a3,3,0,0,0-2.87,1.3l-1.13-1c1-1.32,2.17-1.69,4-1.69,3,0,4.56,1.32,4.56,3.79v7.72Zm0-5.25H79.17c-1.72,0-2.55.7-2.55,2s.81,1.94,2.62,1.94a3.3,3.3,0,0,0,2.54-.77,2.58,2.58,0,0,0,.58-2Z"/><path class="cls-3" d="M95.74,448.44a4,4,0,0,1-2.78,1,3.66,3.66,0,0,1-3.22-1.5v1.36H88.07V432.83h1.67v6.4A3.66,3.66,0,0,1,93,437.78a4,4,0,0,1,2.78,1c1.16,1.16,1.39,3.06,1.39,4.83S96.9,447.28,95.74,448.44Zm-3.13-9.18c-2.47,0-2.87,2.13-2.87,4.34s.4,4.35,2.87,4.35,2.85-2.13,2.85-4.35S95.09,439.26,92.61,439.26Z"/><path class="cls-3" d="M103.54,449.29a2.71,2.71,0,0,1-2.9-3V432.83h1.67v13.36c0,1.11.37,1.67,1.53,1.67h.9v1.43Z"/><path class="cls-3" d="M107.47,434.68v-1.87h1.87v1.87Zm.09,14.61V437.92h1.67v11.37Z"/><path class="cls-3" d="M117,449.43a6.29,6.29,0,0,1-4.68-1.64l1.11-1.11A4.65,4.65,0,0,0,117,448c1.88,0,3-.67,3-2,0-1-.58-1.55-1.9-1.67l-1.88-.16c-2.22-.19-3.4-1.18-3.4-3.05,0-2.08,1.76-3.33,4.19-3.33a6.47,6.47,0,0,1,4.1,1.22L120,440.09a4.88,4.88,0,0,0-3-.9c-1.67,0-2.55.72-2.55,1.87,0,1,.55,1.55,2,1.66l1.83.17c2,.18,3.36.95,3.36,3.07S119.76,449.43,117,449.43Z"/><path class="cls-3" d="M132.19,449.29v-7c0-2-1.07-3-2.78-3a2.69,2.69,0,0,0-2.85,3v7H124.9V432.83h1.66v6.34a4.07,4.07,0,0,1,3.2-1.39,3.85,3.85,0,0,1,4.1,4.21v7.3Z"/><path class="cls-3" d="M138.94,444c0,2.5,1.19,3.93,3.36,3.93a3.75,3.75,0,0,0,3-1.29l1.13,1a5.19,5.19,0,0,1-4.16,1.76c-3,0-5-1.8-5-5.83,0-3.67,1.78-5.82,4.68-5.82s4.67,2.13,4.67,5.5V444Zm5.68-3.14a2.93,2.93,0,0,0-5.33,0,4.92,4.92,0,0,0-.35,1.9h6A4.92,4.92,0,0,0,144.62,440.9Z"/><path class="cls-3" d="M157,449.29v-1.36a3.7,3.7,0,0,1-3.24,1.5,4,4,0,0,1-2.78-1c-1.16-1.16-1.39-3.06-1.39-4.84s.23-3.67,1.39-4.83a4,4,0,0,1,2.78-1,3.64,3.64,0,0,1,3.21,1.45v-6.4h1.67v16.46Zm-2.87-10c-2.48,0-2.88,2.13-2.88,4.34s.4,4.35,2.88,4.35,2.84-2.13,2.84-4.35S156.58,439.26,154.11,439.26Z"/><path class="cls-3" d="M176.21,448.44a4,4,0,0,1-2.78,1,3.66,3.66,0,0,1-3.22-1.5v1.36h-1.66V432.83h1.66v6.4a3.66,3.66,0,0,1,3.22-1.45,4,4,0,0,1,2.78,1c1.16,1.16,1.39,3.06,1.39,4.83S177.37,447.28,176.21,448.44Zm-3.13-9.18c-2.47,0-2.87,2.13-2.87,4.34s.4,4.35,2.87,4.35,2.85-2.13,2.85-4.35S175.56,439.26,173.08,439.26Z"/><path class="cls-3" d="M184,452a3.2,3.2,0,0,1-.81,1.34,3.12,3.12,0,0,1-2.22.79h-.72v-1.48h.51c1.16,0,1.51-.37,1.88-1.41l.81-2.22-4.1-11.14h1.81l3.12,9.13,3.1-9.13h1.81Z"/><path class="cls-3" d="M200.46,449.29a2.79,2.79,0,0,1-2.92-3.05v-7h-1.43V438h1.43v-3.56h1.67V438h2.43v1.27h-2.43v6.93c0,1,.49,1.67,1.55,1.67h.88v1.43Z"/><path class="cls-3" d="M212.24,449.29v-7c0-2-1.06-3-2.78-3a2.68,2.68,0,0,0-2.84,3v7H205V432.83h1.67v6.34a4.05,4.05,0,0,1,3.19-1.39,3.85,3.85,0,0,1,4.1,4.21v7.3Z"/><path class="cls-3" d="M219,444c0,2.5,1.18,3.93,3.35,3.93a3.73,3.73,0,0,0,3-1.29l1.14,1a5.23,5.23,0,0,1-4.17,1.76c-3,0-5-1.8-5-5.83,0-3.67,1.78-5.82,4.68-5.82s4.68,2.13,4.68,5.5V444Zm5.67-3.14a2.92,2.92,0,0,0-5.32,0,4.57,4.57,0,0,0-.35,1.9h6A4.74,4.74,0,0,0,224.67,440.9Z"/><path class="cls-3" d="M236.29,449.29V432.83h10.23v1.57h-8.47v5.81h7.22v1.57h-7.22v5.94h8.47v1.57Z"/><path class="cls-3" d="M257.07,449.29V448a4.15,4.15,0,0,1-3.22,1.41,4.09,4.09,0,0,1-2.94-1.06,4.25,4.25,0,0,1-1.15-3.19v-7.26h1.66v7c0,2,1.07,3,2.78,3a2.69,2.69,0,0,0,2.85-3v-7h1.67v11.37Z"/><path class="cls-3" d="M269.25,440.09a2.4,2.4,0,0,0-2-.83,2.78,2.78,0,0,0-2.73,3.05v7h-1.67V437.92h1.67v1.39a3.81,3.81,0,0,1,3.19-1.53,3.5,3.5,0,0,1,2.73,1.06Z"/><path class="cls-3" d="M279.15,448.13a4.75,4.75,0,0,1-6.53,0c-1.16-1.17-1.39-2.77-1.39-4.53s.23-3.35,1.39-4.53a4.78,4.78,0,0,1,6.53,0c1.16,1.18,1.38,2.78,1.38,4.53S280.31,447,279.15,448.13Zm-1.18-8a3,3,0,0,0-2.09-.83,2.89,2.89,0,0,0-2.06.83c-.83.83-.92,2.24-.92,3.51s.09,2.69.92,3.52a2.89,2.89,0,0,0,2.06.83,3,3,0,0,0,2.09-.83c.83-.83.9-2.24.9-3.52S278.8,440.92,278,440.09Z"/><path class="cls-3" d="M291.76,448.44a4,4,0,0,1-2.78,1,3.69,3.69,0,0,1-3.22-1.48v6.43H284.1V437.92h1.66v1.34a3.62,3.62,0,0,1,3.22-1.48,4,4,0,0,1,2.78,1c1.16,1.16,1.39,3.06,1.39,4.83S292.92,447.28,291.76,448.44Zm-3.12-9.18c-2.48,0-2.88,2.13-2.88,4.34s.4,4.35,2.88,4.35,2.84-2.13,2.84-4.35S291.11,439.26,288.64,439.26Z"/><path class="cls-3" d="M297.75,444c0,2.5,1.18,3.93,3.36,3.93a3.76,3.76,0,0,0,3-1.29l1.13,1a5.21,5.21,0,0,1-4.17,1.76c-3,0-5-1.8-5-5.83,0-3.67,1.78-5.82,4.67-5.82s4.68,2.13,4.68,5.5V444Zm5.68-3.14a2.93,2.93,0,0,0-5.33,0,4.74,4.74,0,0,0-.35,1.9h6A4.75,4.75,0,0,0,303.43,440.9Z"/><path class="cls-3" d="M315.44,449.29v-1.08a5.26,5.26,0,0,1-6.51.18,3.26,3.26,0,0,1-.86-2.31c0-2,1.39-3.28,3.94-3.28h3.43v-1.09c0-1.67-.84-2.5-2.92-2.5a3,3,0,0,0-2.87,1.3l-1.14-1c1-1.32,2.18-1.69,4-1.69,3.06,0,4.56,1.32,4.56,3.79v7.72Zm0-5.25h-3.2c-1.71,0-2.55.7-2.55,2s.82,1.94,2.62,1.94a3.32,3.32,0,0,0,2.55-.77,2.62,2.62,0,0,0,.58-2Z"/><path class="cls-3" d="M328.44,449.29v-7c0-2-1.08-3-2.8-3s-2.82,1-2.82,3v7h-1.67V437.92h1.67v1.25a4.09,4.09,0,0,1,3.19-1.39,4,4,0,0,1,2.92,1.06,4.21,4.21,0,0,1,1.18,3.17v7.28Z"/><path class="cls-3" d="M345.36,449.43a5.87,5.87,0,0,1-4.21-1.71c-1.55-1.55-1.55-3.17-1.55-6.66s0-5.11,1.55-6.66a5.87,5.87,0,0,1,4.21-1.71,5.57,5.57,0,0,1,5.72,4.91h-1.81a3.89,3.89,0,0,0-3.91-3.34,4,4,0,0,0-2.85,1.16c-1,1.06-1.15,2.2-1.15,5.64s.11,4.58,1.15,5.64a4,4,0,0,0,6.81-2.17h1.76A5.56,5.56,0,0,1,345.36,449.43Z"/><path class="cls-3" d="M362,448.13a4.75,4.75,0,0,1-6.53,0c-1.16-1.17-1.39-2.77-1.39-4.53s.23-3.35,1.39-4.53a4.78,4.78,0,0,1,6.53,0c1.16,1.18,1.39,2.78,1.39,4.53S363.14,447,362,448.13Zm-1.18-8a2.94,2.94,0,0,0-2.09-.83,2.87,2.87,0,0,0-2.06.83c-.83.83-.92,2.24-.92,3.51s.09,2.69.92,3.52a2.87,2.87,0,0,0,2.06.83,2.94,2.94,0,0,0,2.09-.83c.83-.83.9-2.24.9-3.52S361.63,440.92,360.8,440.09Z"/><path class="cls-3" d="M381.56,449.29v-7c0-2-1.09-3-2.8-3a2.66,2.66,0,0,0-2.85,2.84v7.19h-1.67v-7c0-2-1.09-3-2.8-3a2.7,2.7,0,0,0-2.85,3v7h-1.66V437.92h1.66v1.25a4.17,4.17,0,0,1,3.22-1.39,3.77,3.77,0,0,1,3.5,1.89,4.37,4.37,0,0,1,3.75-1.89,4.14,4.14,0,0,1,2.94,1.06,4.24,4.24,0,0,1,1.23,3.17v7.28Z"/><path class="cls-3" d="M401.9,449.29v-7c0-2-1.08-3-2.8-3a2.66,2.66,0,0,0-2.85,2.84v7.19h-1.66v-7c0-2-1.09-3-2.8-3a2.69,2.69,0,0,0-2.85,3v7h-1.67V437.92h1.67v1.25a4.14,4.14,0,0,1,3.22-1.39,3.76,3.76,0,0,1,3.49,1.89,4.39,4.39,0,0,1,3.75-1.89,4.14,4.14,0,0,1,2.94,1.06,4.24,4.24,0,0,1,1.23,3.17v7.28Z"/><path class="cls-3" d="M407.52,434.68v-1.87h1.88v1.87Zm.09,14.61V437.92h1.67v11.37Z"/><path class="cls-3" d="M417.06,449.43a6.3,6.3,0,0,1-4.68-1.64l1.11-1.11A4.67,4.67,0,0,0,417,448c1.87,0,3-.67,3-2,0-1-.58-1.55-1.9-1.67l-1.88-.16c-2.22-.19-3.4-1.18-3.4-3.05,0-2.08,1.76-3.33,4.19-3.33a6.47,6.47,0,0,1,4.1,1.22l-1.09,1.09a4.88,4.88,0,0,0-3-.9c-1.67,0-2.55.72-2.55,1.87,0,1,.56,1.55,2,1.66l1.83.17c2,.18,3.36.95,3.36,3.07S419.81,449.43,417.06,449.43Z"/><path class="cls-3" d="M428.16,449.43a6.28,6.28,0,0,1-4.67-1.64l1.11-1.11a4.65,4.65,0,0,0,3.54,1.32c1.88,0,3-.67,3-2,0-1-.57-1.55-1.9-1.67l-1.87-.16c-2.22-.19-3.4-1.18-3.4-3.05,0-2.08,1.76-3.33,4.19-3.33a6.47,6.47,0,0,1,4.1,1.22l-1.09,1.09a4.89,4.89,0,0,0-3-.9c-1.66,0-2.54.72-2.54,1.87,0,1,.55,1.55,2,1.66l1.83.17c2,.18,3.36.95,3.36,3.07S430.92,449.43,428.16,449.43Z"/><path class="cls-3" d="M436,434.68v-1.87h1.88v1.87Zm.09,14.61V437.92h1.67v11.37Z"/><path class="cls-3" d="M449.23,448.13a4.75,4.75,0,0,1-6.53,0c-1.16-1.17-1.39-2.77-1.39-4.53s.23-3.35,1.39-4.53a4.78,4.78,0,0,1,6.53,0c1.16,1.18,1.39,2.78,1.39,4.53S450.39,447,449.23,448.13Zm-1.18-8a3,3,0,0,0-2.09-.83,2.87,2.87,0,0,0-2.06.83c-.83.83-.92,2.24-.92,3.51s.09,2.69.92,3.52A2.87,2.87,0,0,0,446,448a3,3,0,0,0,2.09-.83c.83-.83.9-2.24.9-3.52S448.88,440.92,448.05,440.09Z"/><path class="cls-3" d="M461.47,449.29v-7c0-2-1.09-3-2.8-3s-2.83,1-2.83,3v7h-1.67V437.92h1.67v1.25a4.09,4.09,0,0,1,3.2-1.39,4,4,0,0,1,2.92,1.06,4.25,4.25,0,0,1,1.18,3.17v7.28Z"/></g></svg>