<svg xmlns="http://www.w3.org/2000/svg" xmlns:xlink="http://www.w3.org/1999/xlink" viewBox="0 0 763.77 374.91"><defs><style>.cls-1,.cls-5{fill:none;}.cls-2{fill:#194896;}.cls-3{fill:#ffcb27;}.cls-4{clip-path:url(#clip-path);}.cls-5{stroke:#f26522;stroke-width:1.35px;}.cls-6{clip-path:url(#clip-path-2);}.cls-7{fill:url(#linear-gradient);}.cls-8{fill:#f26522;}.cls-9{fill:#231f20;}</style><clipPath id="clip-path"><rect id="SVGID" class="cls-1" x="36.72" y="48.36" width="697.64" height="289.31"/></clipPath><clipPath id="clip-path-2"><path id="SVGID-2" data-name="SVGID" class="cls-1" d="M643.61,241.86a1.86,1.86,0,1,0,1-.3,1.89,1.89,0,0,0-1,.3m15.94-13a1.86,1.86,0,1,0,2.63,0,1.87,1.87,0,0,0-2.63,0m-14.23-1a2.32,2.32,0,1,0,1.26-.38,2.26,2.26,0,0,0-1.26.38m-14.22-3.5a3.64,3.64,0,1,0,1.95-.57,3.64,3.64,0,0,0-1.95.57m39.77-8.82a1.86,1.86,0,1,0,2.6-.41,1.84,1.84,0,0,0-1.09-.35,1.86,1.86,0,0,0-1.51.76m-12.28-.84a2.33,2.33,0,1,0,3.28,0,2.3,2.3,0,0,0-1.65-.69,2.34,2.34,0,0,0-1.63.66M644,214.12a3.65,3.65,0,1,0,2.53-1,3.65,3.65,0,0,0-2.53,1m-13.16-4.33a3.84,3.84,0,1,0,2.07-.61,3.84,3.84,0,0,0-2.07.61m-12.14-5.26a4.48,4.48,0,1,0,2.41-.71,4.47,4.47,0,0,0-2.41.71m36.15-3.47a3.63,3.63,0,1,0,3-1.6,3.63,3.63,0,0,0-3,1.6m-14.42-.8a3.82,3.82,0,1,0,2.65-1.07,3.8,3.8,0,0,0-2.65,1.07m28.18-.38a2.32,2.32,0,1,0,3.23-.6,2.28,2.28,0,0,0-1.31-.41,2.34,2.34,0,0,0-1.92,1m12.76-2.75a1.86,1.86,0,1,0,2.45-.95,1.81,1.81,0,0,0-.75-.16,1.87,1.87,0,0,0-1.7,1.11m-53.68.05a4.48,4.48,0,1,0,3.15-1.3,4.48,4.48,0,0,0-3.15,1.3m-13.07-6.59a5.15,5.15,0,1,0,3.19-1.11,5.1,5.1,0,0,0-3.19,1.11m20.21-1.92a4.48,4.48,0,1,0,6.23-1.17,4.49,4.49,0,0,0-6.23,1.17m13.62-.44a3.82,3.82,0,1,0,5.31-1,3.87,3.87,0,0,0-2.14-.66,3.82,3.82,0,0,0-3.17,1.68m13.76-.81a3.6,3.6,0,1,0,3.33-2.21,3.63,3.63,0,0,0-3.33,2.21m-61.69-6.55a6,6,0,1,0,1.84-.29,5.89,5.89,0,0,0-1.84.29M676,181.93a2.34,2.34,0,1,0,2.15-1.44,2.33,2.33,0,0,0-2.15,1.44m-51.74-2a5.16,5.16,0,1,0,4.31-2.32,5.16,5.16,0,0,0-4.31,2.32m16.37-2a4.49,4.49,0,1,0,4.15-2.77,4.48,4.48,0,0,0-4.15,2.77m12.78-1.82a3.82,3.82,0,1,0,5-2,4,4,0,0,0-1.53-.31,3.8,3.8,0,0,0-3.5,2.29m34.8-1.07a1.87,1.87,0,1,0,2.19-1.47l-.36,0a1.87,1.87,0,0,0-1.83,1.5M609.79,173a6,6,0,1,0,4-1.54,6,6,0,0,0-4,1.54m57.19-.91a3.63,3.63,0,1,0,4.3-2.8,3.91,3.91,0,0,0-.75-.08,3.62,3.62,0,0,0-3.55,2.88m-37.6-2.85a5.15,5.15,0,1,0,6.49-3.3,5,5,0,0,0-1.6-.26,5.13,5.13,0,0,0-4.89,3.56m14.51-1.68a4.49,4.49,0,1,0,5.3-3.48,4,4,0,0,0-.91-.1,4.49,4.49,0,0,0-4.39,3.58m35.62-4a2.33,2.33,0,1,0,2.72-1.85,2.28,2.28,0,0,0-.45,0,2.31,2.31,0,0,0-2.27,1.89m-23.42-.07a3.82,3.82,0,1,0,4.58-2.87,3.67,3.67,0,0,0-.86-.1,3.83,3.83,0,0,0-3.72,3m-41.23-.76a6,6,0,1,0,5.43-3.44,6,6,0,0,0-5.43,3.44M692,152.23a1.86,1.86,0,1,0,1.88,1.84,1.87,1.87,0,0,0-1.88-1.84h0m-42.33-.56a4.49,4.49,0,1,0,4.49,4.52,4.49,4.49,0,0,0-4.49-4.52h0m-18.1,4.67a5.15,5.15,0,1,0,5.26-5h-.11a5.15,5.15,0,0,0-5.15,5M672.27,151a3.63,3.63,0,1,0,3.66,3.61,3.62,3.62,0,0,0-3.66-3.61h0M660,144.42a3.82,3.82,0,1,0,3.81,3.85,3.82,3.82,0,0,0-3.81-3.85h0m-38.6,0a6,6,0,1,0,.07,0h-.07m60-2.81a2.36,2.36,0,1,0,.05,0h-.05M647,138.4a4.45,4.45,0,1,0,1-.12,4.47,4.47,0,0,0-1,.12m-14.74-3a5.15,5.15,0,1,0,1.59-.25,5.22,5.22,0,0,0-1.59.25m37.38-1.31a3.62,3.62,0,1,0,.75-.08,3.82,3.82,0,0,0-.75.08m19.58-2.48a1.82,1.82,0,1,0,.39,0,1.74,1.74,0,0,0-.39,0m-75.73-1a6,6,0,1,0,2.49-.55,6,6,0,0,0-2.49.55m42.7-1a3.84,3.84,0,1,0,.75-.07,3.88,3.88,0,0,0-.75.07m-13.44-3.07a4.51,4.51,0,1,0,1.78-.36,4.64,4.64,0,0,0-1.78.36m34.67-1.57a2.3,2.3,0,1,0,.47,0,2.59,2.59,0,0,0-.47,0m-54.83-4a5.15,5.15,0,1,0,3.15-1.08,5.13,5.13,0,0,0-3.15,1.08m-22.09.6a6,6,0,1,0,4.58-2.12,6,6,0,0,0-4.58,2.12m63.7-2.63a3.62,3.62,0,1,0,1.39-.28,3.56,3.56,0,0,0-1.39.28m-14.13-2a3.79,3.79,0,1,0,1.44-.29,3.89,3.89,0,0,0-1.44.29m-13.32-.07a4.5,4.5,0,1,0,2.44-.72,4.49,4.49,0,0,0-2.44.72m46.38-3.65a1.86,1.86,0,1,0,2.42,1,1.84,1.84,0,0,0-1.71-1.15,1.76,1.76,0,0,0-.71.14m-12.61-3.94a2.31,2.31,0,1,0,.86-.17,2.44,2.44,0,0,0-.86.17m-60.82,2a5.14,5.14,0,1,0,7.14-1.43,5.13,5.13,0,0,0-7.14,1.43m18.3-3.48a4.47,4.47,0,1,0,3.18-1.33,4.48,4.48,0,0,0-3.18,1.33M656.64,106a3.64,3.64,0,1,0,2-.57,3.59,3.59,0,0,0-2,.57m-15.26-.69a3.8,3.8,0,1,0,2.09-.64,3.75,3.75,0,0,0-2.09.64m-23.1-4.42a4.48,4.48,0,1,0,6.21-1.21,4.46,4.46,0,0,0-6.21,1.21m55-5.38a1.86,1.86,0,1,0,1-.31,1.88,1.88,0,0,0-1,.31m-42.76,0a3.81,3.81,0,1,0,2.68-1.1,3.8,3.8,0,0,0-2.68,1.1m28.83-2.38a2.32,2.32,0,1,0,1.28-.39,2.33,2.33,0,0,0-1.28.39m-14.58-.66a3.65,3.65,0,1,0,2.56-1,3.63,3.63,0,0,0-2.56,1m-13.6-10.22a3.62,3.62,0,1,0,3-1.61,3.63,3.63,0,0,0-3,1.61m29.43-1.78a1.87,1.87,0,1,0,1.31-.53,1.91,1.91,0,0,0-1.31.53m-14.29.11a2.33,2.33,0,1,0,1.63-.66,2.32,2.32,0,0,0-1.63.66m-1.32-12.78a1.86,1.86,0,1,0,1.53-.8,1.85,1.85,0,0,0-1.53.8"/></clipPath><linearGradient id="linear-gradient" x1="-6660.09" y1="5568.63" x2="-6659.09" y2="5568.63" gradientTransform="matrix(97.18, 0, 0, -97.18, 647794.36, 541291.02)" gradientUnits="userSpaceOnUse"><stop offset="0" stop-color="#f26522"/><stop offset="1" stop-color="#fff"/></linearGradient></defs><title>READCHINA logos</title><g id="Layer_15" data-name="Layer 15"><rect class="cls-2" x="36.72" y="77.46" width="340.62" height="227.59"/><polygon class="cls-3" points="273.16 216.54 276 225.28 285.19 225.28 277.76 230.68 280.6 239.42 273.16 234.02 265.73 239.42 268.57 230.68 261.14 225.28 270.33 225.28 273.16 216.54"/><polygon class="cls-3" points="141.67 216.54 144.51 225.28 153.69 225.28 146.26 230.68 149.1 239.42 141.67 234.02 134.23 239.42 137.07 230.68 129.64 225.28 138.83 225.28 141.67 216.54"/><polygon class="cls-3" points="141.67 140.68 144.51 149.42 153.69 149.42 146.26 154.82 149.1 163.55 141.67 158.15 134.23 163.55 137.07 154.82 129.64 149.42 138.83 149.42 141.67 140.68"/><polygon class="cls-3" points="273.16 140.68 276 149.42 285.19 149.42 277.76 154.82 280.6 163.55 273.16 158.15 265.73 163.55 268.57 154.82 261.14 149.42 270.33 149.42 273.16 140.68"/><polygon class="cls-3" points="169.49 244.36 172.32 253.1 181.51 253.1 174.08 258.5 176.92 267.23 169.49 261.84 162.05 267.23 164.89 258.5 157.46 253.1 166.65 253.1 169.49 244.36"/><polygon class="cls-3" points="245.35 244.36 248.19 253.1 257.38 253.1 249.94 258.5 252.78 267.23 245.35 261.84 237.92 267.23 240.75 258.5 233.32 253.1 242.51 253.1 245.35 244.36"/><polygon class="cls-3" points="169.49 112.86 172.32 121.6 181.51 121.6 174.08 127 176.92 135.74 169.49 130.34 162.05 135.74 164.89 127 157.46 121.6 166.65 121.6 169.49 112.86"/><polygon class="cls-3" points="245.35 112.86 248.19 121.6 257.38 121.6 249.94 127 252.78 135.74 245.35 130.34 237.92 135.74 240.75 127 233.32 121.6 242.51 121.6 245.35 112.86"/><polygon class="cls-3" points="283.28 178.61 286.12 187.35 295.31 187.35 287.88 192.75 290.71 201.48 283.28 196.09 275.85 201.48 278.69 192.75 271.26 187.35 280.44 187.35 283.28 178.61"/><polygon class="cls-3" points="131.56 178.61 134.39 187.35 143.58 187.35 136.15 192.75 138.98 201.48 131.56 196.09 124.12 201.48 126.96 192.75 119.53 187.35 128.71 187.35 131.56 178.61"/><polygon class="cls-3" points="207.42 254.47 210.25 263.21 219.44 263.21 212.01 268.61 214.85 277.35 207.42 271.95 199.99 277.35 202.82 268.61 195.39 263.21 204.58 263.21 207.42 254.47"/><polygon class="cls-3" points="207.42 102.75 210.25 111.48 219.44 111.48 212.01 116.88 214.85 125.62 207.42 120.22 199.99 125.62 202.82 116.88 195.39 111.48 204.58 111.48 207.42 102.75"/><g class="cls-4"><line class="cls-5" x1="398.54" y1="48.36" x2="398.54" y2="337.68"/></g><g class="cls-6"><rect class="cls-7" x="595.63" y="66.98" width="98.21" height="178.56"/></g><g class="cls-4"><path class="cls-8" d="M596.82,122.19a6,6,0,1,1-4.16-7.39,6,6,0,0,1,4.16,7.39"/><path class="cls-8" d="M582.9,189.64a6,6,0,1,1,5.43,6.52,6,6,0,0,1-5.43-6.52"/><path class="cls-8" d="M570,185.5a6,6,0,1,1,2.5,8.1,6,6,0,0,1-2.5-8.1"/><path class="cls-8" d="M559.25,176.22a6,6,0,1,1-1,8.43,6,6,0,0,1,1-8.43"/><path class="cls-8" d="M553.18,163.5a6,6,0,1,1-4.24,7.35,6,6,0,0,1,4.24-7.35"/><path class="cls-8" d="M552.59,150a6,6,0,1,1-6.73,5.16,6,6,0,0,1,6.73-5.16"/><path class="cls-8" d="M557.51,136.85a6,6,0,1,1-8.23,2.05,6,6,0,0,1,8.23-2.05"/><path class="cls-8" d="M567.25,126.74a6,6,0,1,1-8.37-1.38,6,6,0,0,1,8.37,1.38"/><path class="cls-8" d="M581.77,121.06a6,6,0,1,1-6.9-4.92,6,6,0,0,1,6.9,4.92"/><path class="cls-8" d="M592,205.49a5.15,5.15,0,1,1-5.15-5.14,5.14,5.14,0,0,1,5.15,5.14"/><path class="cls-8" d="M607.54,201.25A5.14,5.14,0,1,1,601,198a5.14,5.14,0,0,1,6.51,3.26"/><path class="cls-8" d="M581.4,105.71a5.15,5.15,0,1,1,5,5.3,5.14,5.14,0,0,1-5-5.3"/><path class="cls-8" d="M596.63,106.14a5.14,5.14,0,1,1,3.24,6.52,5.15,5.15,0,0,1-3.24-6.52"/><path class="cls-8" d="M566.21,110a5.15,5.15,0,1,1,6.44,3.4,5.15,5.15,0,0,1-6.44-3.4"/><path class="cls-8" d="M552.32,119.49a5.15,5.15,0,1,1,7.2,1,5.14,5.14,0,0,1-7.2-1"/><path class="cls-8" d="M537.75,145.69a5.15,5.15,0,1,1,6.55-3.16,5.15,5.15,0,0,1-6.55,3.16"/><path class="cls-8" d="M542.73,131.22a5.15,5.15,0,1,1,7.16-1.33,5.14,5.14,0,0,1-7.16,1.33"/><path class="cls-8" d="M536.87,161.15a5.15,5.15,0,1,1,5.34-5,5.14,5.14,0,0,1-5.34,5"/><path class="cls-8" d="M541,176.44a5.15,5.15,0,1,1,3.48-6.39,5.14,5.14,0,0,1-3.48,6.39"/><path class="cls-8" d="M549.85,189.7a5.15,5.15,0,1,1,1.11-7.2,5.17,5.17,0,0,1-1.11,7.2"/><path class="cls-8" d="M574.84,204.62a5.15,5.15,0,1,1-3.07-6.6,5.15,5.15,0,0,1,3.07,6.6"/><path class="cls-8" d="M561.83,199.34a5.15,5.15,0,1,1-1.22-7.18,5.14,5.14,0,0,1,1.22,7.18"/><path class="cls-8" d="M591.34,92.57a4.49,4.49,0,1,1-4.49-4.49,4.47,4.47,0,0,1,4.49,4.49"/><path class="cls-8" d="M603.57,94.7a4.48,4.48,0,1,1-3.51-5.28,4.49,4.49,0,0,1,3.51,5.28"/><path class="cls-8" d="M614.58,98.89a4.49,4.49,0,1,1-2.49-5.84,4.49,4.49,0,0,1,2.49,5.84"/><path class="cls-8" d="M523.72,151.33a4.49,4.49,0,1,1-4.45,4.52,4.49,4.49,0,0,1,4.45-4.52"/><path class="cls-8" d="M525.75,139.08a4.48,4.48,0,1,1-5.24,3.56,4.49,4.49,0,0,1,5.24-3.56"/><path class="cls-8" d="M529.87,128.05a4.48,4.48,0,1,1-5.82,2.52,4.49,4.49,0,0,1,5.82-2.52"/><path class="cls-8" d="M536.8,116.86a4.48,4.48,0,1,1-6.22,1.26,4.5,4.5,0,0,1,6.22-1.26"/><path class="cls-8" d="M545,108.12a4.48,4.48,0,1,1-6.34.06,4.48,4.48,0,0,1,6.34-.06"/><path class="cls-8" d="M555.21,100.77A4.48,4.48,0,1,1,549,99.5a4.48,4.48,0,0,1,6.21,1.27"/><path class="cls-8" d="M565.61,96a4.48,4.48,0,1,1-5.92-2.3,4.48,4.48,0,0,1,5.92,2.3"/><path class="cls-8" d="M577.85,93.21a4.48,4.48,0,1,1-5.41-3.31,4.5,4.5,0,0,1,5.41,3.31"/><path class="cls-8" d="M582.48,218.48a4.49,4.49,0,1,1,4.52,4.45,4.47,4.47,0,0,1-4.52-4.45"/><path class="cls-8" d="M570.23,216.44a4.49,4.49,0,1,1,3.56,5.25,4.51,4.51,0,0,1-3.56-5.25"/><path class="cls-8" d="M559.2,212.32a4.48,4.48,0,1,1,2.52,5.82,4.49,4.49,0,0,1-2.52-5.82"/><path class="cls-8" d="M548,205.39a4.48,4.48,0,1,1,1.26,6.21,4.48,4.48,0,0,1-1.26-6.21"/><path class="cls-8" d="M539.28,197.17a4.48,4.48,0,1,1,.06,6.34,4.48,4.48,0,0,1-.06-6.34"/><path class="cls-8" d="M531.94,187a4.48,4.48,0,1,1-1.28,6.21,4.48,4.48,0,0,1,1.28-6.21"/><path class="cls-8" d="M527.19,176.57a4.48,4.48,0,1,1-2.29,5.9,4.48,4.48,0,0,1,2.29-5.9"/><path class="cls-8" d="M524.39,164.32a4.48,4.48,0,1,1-3.31,5.41,4.47,4.47,0,0,1,3.31-5.41"/><path class="cls-8" d="M606.87,215.3a4.48,4.48,0,1,1,5.88,2.39,4.48,4.48,0,0,1-5.88-2.39"/><path class="cls-8" d="M594.6,217.93a4.48,4.48,0,1,1,5.35,3.4,4.46,4.46,0,0,1-5.35-3.4"/><path class="cls-8" d="M582.37,81.94a3.82,3.82,0,1,1-3.82-3.82,3.81,3.81,0,0,1,3.82,3.82"/><path class="cls-8" d="M599.46,83a3.82,3.82,0,1,1-2.83-4.6,3.81,3.81,0,0,1,2.83,4.6"/><path class="cls-8" d="M612.72,86.71a3.82,3.82,0,1,1-1.92-5,3.81,3.81,0,0,1,1.92,5"/><path class="cls-8" d="M624.5,92.48a3.82,3.82,0,1,1-1-5.31,3.82,3.82,0,0,1,1,5.31"/><path class="cls-8" d="M617.79,222.15a3.82,3.82,0,1,1,5,2.1,3.83,3.83,0,0,1-5-2.1"/><path class="cls-8" d="M604.47,226.93a3.82,3.82,0,1,1,4.48,3,3.81,3.81,0,0,1-4.48-3"/><path class="cls-8" d="M590.77,229.05a3.82,3.82,0,1,1,3.84,3.8,3.83,3.83,0,0,1-3.84-3.8"/><path class="cls-8" d="M574.39,228.21a3.82,3.82,0,1,1,2.9,4.55,3.83,3.83,0,0,1-2.9-4.55"/><path class="cls-8" d="M562.38,225.18a3.82,3.82,0,1,1,2.1,5,3.82,3.82,0,0,1-2.1-5"/><path class="cls-8" d="M546.65,217.57a3.82,3.82,0,1,1,.87,5.33,3.82,3.82,0,0,1-.87-5.33"/><path class="cls-8" d="M536.54,209.79a3.82,3.82,0,1,1,0,5.41,3.82,3.82,0,0,1,0-5.41"/><path class="cls-8" d="M527,199.14a3.82,3.82,0,1,1-1.1,5.29,3.82,3.82,0,0,1,1.1-5.29"/><path class="cls-8" d="M520.2,187.94a3.82,3.82,0,1,1-2,5,3.82,3.82,0,0,1,2-5"/><path class="cls-8" d="M515.65,176.21a3.82,3.82,0,1,1-2.85,4.59,3.81,3.81,0,0,1,2.85-4.59"/><path class="cls-8" d="M512.84,160.44a3.82,3.82,0,1,1-3.77,3.87,3.82,3.82,0,0,1,3.77-3.87"/><path class="cls-8" d="M513.43,145.05a3.82,3.82,0,1,1-4.49,3,3.81,3.81,0,0,1,4.49-3"/><path class="cls-8" d="M517,130.76a3.82,3.82,0,1,1-5,2.05,3.82,3.82,0,0,1,5-2.05"/><path class="cls-8" d="M523.37,117.3a3.82,3.82,0,1,1-5.32,1,3.82,3.82,0,0,1,5.32-1"/><path class="cls-8" d="M532.64,105.08a3.82,3.82,0,1,1-5.4-.12,3.81,3.81,0,0,1,5.4.12"/><path class="cls-8" d="M542.77,96.11A3.82,3.82,0,1,1,537.48,95a3.82,3.82,0,0,1,5.29,1.11"/><path class="cls-8" d="M554.3,89.17a3.82,3.82,0,1,1-5-2,3.81,3.81,0,0,1,5,2"/><path class="cls-8" d="M568,84.17a3.82,3.82,0,1,1-4.5-3,3.81,3.81,0,0,1,4.5,3"/><path class="cls-8" d="M573.08,70.92a3.63,3.63,0,1,1-4.27-2.84,3.64,3.64,0,0,1,4.27,2.84"/><path class="cls-8" d="M590.57,69.92A3.63,3.63,0,1,1,587,66.27a3.63,3.63,0,0,1,3.61,3.65"/><path class="cls-8" d="M610.43,73.19a3.63,3.63,0,1,1-2.65-4.39,3.62,3.62,0,0,1,2.65,4.39"/><path class="cls-8" d="M624,78.38a3.63,3.63,0,1,1-1.88-4.78A3.63,3.63,0,0,1,624,78.38"/><path class="cls-8" d="M615.44,236.21a3.63,3.63,0,1,1,4.72,2,3.64,3.64,0,0,1-4.72-2"/><path class="cls-8" d="M599.85,240.17a3.63,3.63,0,1,1,4.26,2.86,3.64,3.64,0,0,1-4.26-2.86"/><path class="cls-8" d="M581.58,241a3.63,3.63,0,1,1,3.55,3.71,3.62,3.62,0,0,1-3.55-3.71"/><path class="cls-8" d="M565.23,238.45a3.63,3.63,0,1,1,2.78,4.32,3.63,3.63,0,0,1-2.78-4.32"/><path class="cls-8" d="M549.11,232.51a3.63,3.63,0,1,1,1.86,4.78,3.64,3.64,0,0,1-1.86-4.78"/><path class="cls-8" d="M532.77,222.09a3.62,3.62,0,1,1,.73,5.07,3.63,3.63,0,0,1-.73-5.07"/><path class="cls-8" d="M523,212.77A3.63,3.63,0,1,1,528,218a3.63,3.63,0,0,1-5.07-5.2"/><path class="cls-8" d="M513.24,199.61a3.63,3.63,0,1,1-1,5,3.62,3.62,0,0,1,1-5"/><path class="cls-8" d="M507,187a3.63,3.63,0,1,1-1.86,4.78A3.63,3.63,0,0,1,507,187"/><path class="cls-8" d="M502.35,170.59a3.63,3.63,0,1,1-2.77,4.32,3.64,3.64,0,0,1,2.77-4.32"/><path class="cls-8" d="M501.05,152.81a3.63,3.63,0,1,1-3.59,3.66,3.64,3.64,0,0,1,3.59-3.66"/><path class="cls-8" d="M503.39,135.48a3.63,3.63,0,1,1-4.27,2.84,3.63,3.63,0,0,1,4.27-2.84"/><path class="cls-8" d="M508.78,119.86a3.63,3.63,0,1,1-4.74,2,3.63,3.63,0,0,1,4.74-2"/><path class="cls-8" d="M517.19,105.41a3.62,3.62,0,1,1-5,1,3.64,3.64,0,0,1,5-1"/><path class="cls-8" d="M529.92,91.34a3.63,3.63,0,1,1-5.12-.12,3.62,3.62,0,0,1,5.12.12"/><path class="cls-8" d="M542.14,82.32a3.63,3.63,0,1,1-5-1,3.64,3.64,0,0,1,5,1"/><path class="cls-8" d="M557,75.15a3.63,3.63,0,1,1-4.73-2,3.64,3.64,0,0,1,4.73,2"/><path class="cls-8" d="M579.39,60.52a2.33,2.33,0,1,1-2.33-2.33,2.32,2.32,0,0,1,2.33,2.33"/><path class="cls-8" d="M588.22,50.22a1.87,1.87,0,1,1-1.86-1.86,1.86,1.86,0,0,1,1.86,1.86"/><path class="cls-8" d="M613.07,53.57a1.86,1.86,0,1,1-1.36-2.25,1.86,1.86,0,0,1,1.36,2.25"/><path class="cls-8" d="M632.18,60.54a1.86,1.86,0,1,1-.92-2.47,1.87,1.87,0,0,1,.92,2.47"/><path class="cls-8" d="M623.52,254.15a1.88,1.88,0,0,1,1.06-2.41,1.86,1.86,0,1,1-1.06,2.41"/><path class="cls-8" d="M604.29,259.32a1.86,1.86,0,1,1,2.17,1.5,1.88,1.88,0,0,1-2.17-1.5"/><path class="cls-8" d="M582.42,260.72a1.86,1.86,0,1,1,3.71.1,1.84,1.84,0,0,1-1.9,1.81,1.87,1.87,0,0,1-1.81-1.91"/><path class="cls-8" d="M560.42,257.48a1.86,1.86,0,1,1,1.37,2.25,1.88,1.88,0,0,1-1.37-2.25"/><path class="cls-8" d="M541,250.36a1.86,1.86,0,1,1,.91,2.47,1.87,1.87,0,0,1-.91-2.47"/><path class="cls-8" d="M522.2,238.74a1.85,1.85,0,1,1,.36,2.6,1.85,1.85,0,0,1-.36-2.6"/><path class="cls-8" d="M508.51,226a1.86,1.86,0,1,1,2.53,2.73,1.86,1.86,0,0,1-2.53-2.73"/><path class="cls-8" d="M497.54,211.53a1.86,1.86,0,1,1-.55,2.58,1.86,1.86,0,0,1,.55-2.58"/><path class="cls-8" d="M489.93,197.06a1.84,1.84,0,0,1,2.46.93,1.86,1.86,0,1,1-2.46-.93"/><path class="cls-8" d="M483.87,178.23a1.86,1.86,0,1,1-1.38,2.24,1.86,1.86,0,0,1,1.38-2.24"/><path class="cls-8" d="M481.39,155a1.84,1.84,0,0,1,1.88,1.83,1.86,1.86,0,1,1-1.88-1.83"/><path class="cls-8" d="M483.33,135.41a1.86,1.86,0,1,1-2.16,1.5,1.86,1.86,0,0,1,2.16-1.5"/><path class="cls-8" d="M489.75,114.4a1.85,1.85,0,1,1-2.42,1,1.85,1.85,0,0,1,2.42-1"/><path class="cls-8" d="M500.2,95.45a1.86,1.86,0,1,1-2.58.51,1.86,1.86,0,0,1,2.58-.51"/><path class="cls-8" d="M514.31,79a1.86,1.86,0,1,1-2.62,0,1.85,1.85,0,0,1,2.62,0"/><path class="cls-8" d="M530.55,66.43a1.85,1.85,0,1,1-2.57-.55,1.86,1.86,0,0,1,2.57.55"/><path class="cls-8" d="M549.64,56.94a1.85,1.85,0,1,1-2.4-1,1.85,1.85,0,0,1,2.4,1"/><path class="cls-8" d="M567.25,52a1.86,1.86,0,1,1-2.18-1.45A1.84,1.84,0,0,1,567.25,52"/><path class="cls-8" d="M600.8,61.29a2.32,2.32,0,1,1-1.75-2.79,2.33,2.33,0,0,1,1.75,2.79"/><path class="cls-8" d="M620,66.24a2.32,2.32,0,1,1-1.13-3.09A2.32,2.32,0,0,1,620,66.24"/><path class="cls-8" d="M634.84,73.3a2.33,2.33,0,1,1-.59-3.23,2.31,2.31,0,0,1,.59,3.23"/><path class="cls-8" d="M629.54,240.6a2.32,2.32,0,1,1,3,1.27,2.31,2.31,0,0,1-3-1.27"/><path class="cls-8" d="M612.32,247.27a2.32,2.32,0,1,1,2.74,1.83,2.33,2.33,0,0,1-2.74-1.83"/><path class="cls-8" d="M592.59,250.6a2.32,2.32,0,1,1,2.28,2.35,2.32,2.32,0,0,1-2.28-2.35"/><path class="cls-8" d="M571.78,249.61a2.32,2.32,0,1,1,1.72,2.8,2.34,2.34,0,0,1-1.72-2.8"/><path class="cls-8" d="M555.1,245.39a2.33,2.33,0,1,1,4.26,1.87,2.33,2.33,0,0,1-4.26-1.87"/><path class="cls-8" d="M536.31,236.37a2.32,2.32,0,1,1,.5,3.25,2.33,2.33,0,0,1-.5-3.25"/><path class="cls-8" d="M521.82,225.28a2.32,2.32,0,1,1-.13,3.29,2.33,2.33,0,0,1,.13-3.29"/><path class="cls-8" d="M510.74,213a2.32,2.32,0,1,1,2.51,3.91,2.32,2.32,0,1,1-2.51-3.91"/><path class="cls-8" d="M502.14,199.42a2.33,2.33,0,1,1-1.23,3.05,2.33,2.33,0,0,1,1.23-3.05"/><path class="cls-8" d="M495.56,183.29a2.33,2.33,0,1,1-1.76,2.77,2.33,2.33,0,0,1,1.76-2.77"/><path class="cls-8" d="M491.7,162.86a2.33,2.33,0,1,1-2.32,2.33,2.33,2.33,0,0,1,2.32-2.33"/><path class="cls-8" d="M492,144.83a2.32,2.32,0,1,1-2.72,1.85,2.33,2.33,0,0,1,2.72-1.85"/><path class="cls-8" d="M496,126.19a2.32,2.32,0,1,1-3,1.27,2.32,2.32,0,0,1,3-1.27"/><path class="cls-8" d="M503.67,108.78a2.32,2.32,0,1,1-3.23.64,2.33,2.33,0,0,1,3.23-.64"/><path class="cls-8" d="M515.53,92.17a2.32,2.32,0,1,1-3.29-.07,2.31,2.31,0,0,1,3.29.07"/><path class="cls-8" d="M529.4,79.39a2.32,2.32,0,1,1-3.21-.71,2.32,2.32,0,0,1,3.21.71"/><path class="cls-8" d="M544.55,70.07a2.32,2.32,0,1,1-3-1.3,2.32,2.32,0,0,1,3,1.3"/><path class="cls-8" d="M562,63.48a2.32,2.32,0,1,1-2.71-1.85A2.32,2.32,0,0,1,562,63.48"/><path class="cls-9" d="M598,148.81c-1.05-7.39-5.59-9.95-10.61-9.95-6.06,0-10.23,3.51-11.56,9.95Zm12.88,19.13c-5.88,7.86-13.45,12-23.11,12-12.41,0-24.35-7.86-24.35-25.29,0-15.92,10.23-24.91,23.59-24.91,12.5,0,17.71,7.48,18.66,8.9,3.88,5.49,4.74,13.73,4.83,18.47H575.4c1.33,7.49,6,11.75,13.45,11.75a13.83,13.83,0,0,0,12.32-6.54Z"/><path class="cls-9" d="M630.44,131.19v6.72c1.42-2.46,4.55-8,15.16-7.77V141.8c-2.47.09-6.73.19-10.23,2.84-4.83,3.69-4.93,8.52-4.93,16.39v17.52h-11V131.19Z"/><path class="cls-9" d="M681.59,148a11,11,0,0,0-10.7-8c-6.54,0-11.75,5.21-11.75,14.69,0,8.52,4.45,14.77,11.94,14.77,7.2,0,9.94-5.49,11.36-9.28l9.76,5.11A22.38,22.38,0,0,1,670.89,180c-13.17,0-23.49-10.13-23.49-25.1,0-14.5,10.41-25.1,23.87-25.1,11.93,0,18,7.95,20.46,13.45Z"/></g><polygon class="cls-9" points="437.86 286.11 437.86 290.1 446.05 290.1 446.05 292.85 437.86 292.85 437.86 297.4 447.43 297.4 447.43 300.27 434.73 300.27 434.73 283.26 446.83 283.26 446.83 286.11 437.86 286.11"/><g class="cls-4"><path class="cls-9" d="M460.37,288.22v12h-2.89V299a5.37,5.37,0,0,1-3.91,1.52,3.92,3.92,0,0,1-3.34-1.4c-.82-1-.82-2.17-.82-4v-7h2.91v6.92a4.23,4.23,0,0,0,.1,1.2,2.12,2.12,0,0,0,2.24,1.52,2.67,2.67,0,0,0,2.34-1.28c.43-.79.45-1.56.48-3.25v-5.11Z"/><path class="cls-9" d="M466.3,288.22v1.71c.36-.62,1.16-2,3.85-2v3a4.44,4.44,0,0,0-2.6.73c-1.23.94-1.25,2.16-1.25,4.16v4.46h-2.8v-12Z"/><path class="cls-9" d="M477,290.46c-1.81,0-3.11,1.45-3.11,3.67,0,2.48,1.52,3.85,3.26,3.85,2.09,0,3.15-1.83,3.08-3.83s-1.21-3.69-3.23-3.69m.15,10.17a6.09,6.09,0,0,1-6.27-6.43,6.2,6.2,0,1,1,12.39,0c0,3.76-2.49,6.43-6.12,6.43"/><path class="cls-9" d="M491.42,297.91c1.4,0,2.91-1,2.91-3.69,0-3-2.09-3.59-3-3.59-1.33,0-2.84,1-2.89,3.55s1.32,3.73,2.94,3.73m-5.79-9.69h2.87v1.11a4.27,4.27,0,0,1,3.3-1.47c3.55,0,5.47,3.19,5.47,6.51,0,3.59-2.23,6.26-5.47,6.26a4.71,4.71,0,0,1-3.3-1.35v4.91h-2.87Z"/><path class="cls-9" d="M507.74,292.71a2.59,2.59,0,0,0-2.71-2.53,2.84,2.84,0,0,0-2.93,2.53Zm3.27,4.86a7,7,0,0,1-5.88,3.06c-3.15,0-6.19-2-6.19-6.43,0-4.05,2.6-6.34,6-6.34a5.45,5.45,0,0,1,4.75,2.27,9.06,9.06,0,0,1,1.23,4.7H502a3.25,3.25,0,0,0,3.42,3,3.51,3.51,0,0,0,3.14-1.66Z"/><path class="cls-9" d="M520.29,294.27a8.3,8.3,0,0,1-2.53.73c-1,.14-2.41.38-2.41,1.66,0,.94.79,1.42,1.95,1.42a3,3,0,0,0,2.82-1.4,2.4,2.4,0,0,0,.17-1.08Zm-7.44-2.5a3.84,3.84,0,0,1,.47-1.81c1.16-2.1,4-2.1,4.8-2.1a7.29,7.29,0,0,1,3.62.77c1.42.87,1.44,2,1.44,3.31v6.38a2.5,2.5,0,0,0,.54,1.95h-3.43c0-.29-.07-.77-.07-.94a5.7,5.7,0,0,1-3.57,1.23c-2.72,0-4.36-1.69-4.36-3.76a3.67,3.67,0,0,1,.38-1.64c.87-1.73,2.73-2.12,3.89-2.33a29.31,29.31,0,0,0,3.73-.89c0-.61,0-1.84-2-1.84a2.55,2.55,0,0,0-2.14.78,1.44,1.44,0,0,0-.29,1.06Z"/><path class="cls-9" d="M526.24,288.22h2.92v1.42a3.24,3.24,0,0,1,.94-.93,5,5,0,0,1,2.77-.85,4,4,0,0,1,3.16,1.45c.75,1,.75,2.31.75,3.88v7.08h-2.87v-6.14a8.17,8.17,0,0,0-.1-1.83,2,2,0,0,0-2-1.62,2.55,2.55,0,0,0-2.22,1.35,6.88,6.88,0,0,0-.46,3v5.23h-2.92Z"/><path class="cls-9" d="M549.91,286v5.32H551c1.09,0,1.49,0,2.09-.05s3-.14,3-2.62a2.42,2.42,0,0,0-1.34-2.29c-.68-.34-1.5-.36-3.38-.36Zm-3.16-2.75h5.43c2.26,0,3.78,0,5.27,1.23a5.16,5.16,0,0,1,1.88,4.19,4.66,4.66,0,0,1-3.35,4.68l3.79,6.91h-3.64L552.75,294h-2.84v6.31h-3.16Z"/><path class="cls-9" d="M570,292.71a2.58,2.58,0,0,0-2.7-2.53,2.85,2.85,0,0,0-2.94,2.53Zm3.28,4.86a7,7,0,0,1-5.89,3.06c-3.15,0-6.19-2-6.19-6.43,0-4.05,2.61-6.34,6-6.34a5.45,5.45,0,0,1,4.75,2.27,9,9,0,0,1,1.23,4.7h-8.92a3.25,3.25,0,0,0,3.42,3,3.51,3.51,0,0,0,3.14-1.66Z"/><path class="cls-9" d="M576.59,296.71a4.21,4.21,0,0,0,3.47,1.54c1.67,0,2.39-.82,2.39-1.42,0-.77-.87-1-1.26-1s-2.38-.46-2.82-.58c-2.86-.67-3.39-2.33-3.39-3.42,0-2.05,1.85-3.93,5.15-3.93a6.82,6.82,0,0,1,4,1.16,5.4,5.4,0,0,1,1.23,1.08L583.29,292a3.35,3.35,0,0,0-3.28-1.83c-1.37,0-2,.6-2,1.23,0,.86.9,1.1,2.44,1.37,2.51.46,3.2.58,4,1.18a3.27,3.27,0,0,1,1.24,2.55c0,1.88-1.69,4.12-5.43,4.12a8.21,8.21,0,0,1-5.78-2.14Z"/><path class="cls-9" d="M596.09,292.71a2.57,2.57,0,0,0-2.7-2.53,2.85,2.85,0,0,0-2.94,2.53Zm3.28,4.86a7,7,0,0,1-5.89,3.06c-3.15,0-6.18-2-6.18-6.43,0-4.05,2.6-6.34,6-6.34a5.43,5.43,0,0,1,4.75,2.27,9,9,0,0,1,1.23,4.7h-8.92a3.25,3.25,0,0,0,3.43,3,3.51,3.51,0,0,0,3.13-1.66Z"/><path class="cls-9" d="M608.65,294.27a8.49,8.49,0,0,1-2.53.73c-1,.14-2.41.38-2.41,1.66,0,.94.79,1.42,1.95,1.42a3,3,0,0,0,2.82-1.4,2.4,2.4,0,0,0,.17-1.08Zm-7.45-2.5a4,4,0,0,1,.48-1.81c1.16-2.1,4-2.1,4.8-2.1a7.27,7.27,0,0,1,3.61.77c1.43.87,1.45,2,1.45,3.31v6.38a2.53,2.53,0,0,0,.53,1.95h-3.42c0-.29-.08-.77-.08-.94a5.65,5.65,0,0,1-3.56,1.23c-2.73,0-4.37-1.69-4.37-3.76a3.67,3.67,0,0,1,.39-1.64c.87-1.73,2.72-2.12,3.88-2.33a29.63,29.63,0,0,0,3.74-.89c0-.61,0-1.84-2-1.84a2.56,2.56,0,0,0-2.15.78,1.44,1.44,0,0,0-.29,1.06Z"/><path class="cls-9" d="M617.42,288.22v1.71c.36-.62,1.15-2,3.85-2v3a4.44,4.44,0,0,0-2.6.73c-1.23.94-1.25,2.16-1.25,4.16v4.46h-2.8v-12Z"/><path class="cls-9" d="M630.41,292.49a2.8,2.8,0,0,0-2.72-2.05c-1.66,0-3,1.33-3,3.74,0,2.16,1.14,3.75,3,3.75a3.05,3.05,0,0,0,2.89-2.36l2.48,1.3a5.69,5.69,0,0,1-5.42,3.76c-3.35,0-6-2.58-6-6.38a6.1,6.1,0,0,1,6.08-6.39,5.56,5.56,0,0,1,5.2,3.42Z"/><path class="cls-9" d="M637.1,283.26v6.19a5.26,5.26,0,0,1,3.83-1.59,4.42,4.42,0,0,1,3.3,1.3c1,1.06,1,2.29,1,3.67v7.44H642.4v-6.62a5.28,5.28,0,0,0-.19-1.71,2,2,0,0,0-2.1-1.33,3.05,3.05,0,0,0-2.92,2.19,8,8,0,0,0-.09,1.93v5.54h-2.9v-17Z"/><path class="cls-9" d="M669.49,295.52a9,9,0,0,1-1.47,2.56,7.54,7.54,0,0,1-5.88,2.62c-4.51,0-8-3.3-8-9s3.74-8.89,8.07-8.89a6.82,6.82,0,0,1,7,5.25l-3.19.84a4.28,4.28,0,0,0-.62-1.69,3.59,3.59,0,0,0-3.06-1.49c-2.77,0-4.7,2.29-4.7,5.93,0,3.88,2,6,4.72,6A3.88,3.88,0,0,0,665.6,296a5.44,5.44,0,0,0,.9-1.76Z"/><path class="cls-9" d="M676.84,290.46c-1.81,0-3.11,1.45-3.11,3.67,0,2.48,1.52,3.85,3.25,3.85,2.1,0,3.16-1.83,3.09-3.83s-1.21-3.69-3.23-3.69m.14,10.17a6.09,6.09,0,0,1-6.27-6.43,6.2,6.2,0,1,1,12.39,0c0,3.76-2.48,6.43-6.12,6.43"/><path class="cls-9" d="M696.38,288.22v12h-2.89V299a5.34,5.34,0,0,1-3.9,1.52,3.93,3.93,0,0,1-3.35-1.4c-.82-1-.82-2.17-.82-4v-7h2.92v6.92a4.68,4.68,0,0,0,.09,1.2,2.13,2.13,0,0,0,2.25,1.52,2.65,2.65,0,0,0,2.33-1.28,6.57,6.57,0,0,0,.48-3.25v-5.11Z"/><path class="cls-9" d="M699.49,288.22h2.92v1.42a3.24,3.24,0,0,1,.94-.93,5,5,0,0,1,2.77-.85,4,4,0,0,1,3.16,1.45c.74,1,.74,2.31.74,3.88v7.08h-2.86v-6.14a8.17,8.17,0,0,0-.1-1.83,2,2,0,0,0-2-1.62,2.53,2.53,0,0,0-2.21,1.35,6.88,6.88,0,0,0-.46,3v5.23h-2.92Z"/><path class="cls-9" d="M720.8,292.49a2.81,2.81,0,0,0-2.73-2.05c-1.66,0-3,1.33-3,3.74,0,2.16,1.14,3.75,3,3.75a3,3,0,0,0,2.89-2.36l2.49,1.3a5.71,5.71,0,0,1-5.43,3.76c-3.35,0-6-2.58-6-6.38a6.1,6.1,0,0,1,6.07-6.39,5.55,5.55,0,0,1,5.2,3.42Z"/></g><path class="cls-9" d="M725.13,288.22H728v12h-2.87Zm2.87-1.87h-2.87v-2.92H728Z"/><rect class="cls-9" x="731.16" y="283.26" width="2.92" height="17.01"/><polygon class="cls-9" points="434.85 334.04 434.85 322.27 442.16 322.27 442.16 323.39 436.11 323.39 436.11 327.54 441.26 327.54 441.26 328.67 436.11 328.67 436.11 332.92 442.16 332.92 442.16 334.04 434.85 334.04"/><g class="cls-4"><path class="cls-9" d="M447.11,334.14a4.49,4.49,0,0,1-3.34-1.18l.79-.79a3.32,3.32,0,0,0,2.53.94c1.34,0,2.17-.48,2.17-1.43,0-.72-.41-1.11-1.36-1.2l-1.34-.11c-1.58-.13-2.43-.85-2.43-2.18,0-1.49,1.26-2.38,3-2.38a4.63,4.63,0,0,1,2.92.87l-.77.78a3.47,3.47,0,0,0-2.17-.65c-1.19,0-1.82.52-1.82,1.34s.4,1.11,1.42,1.19l1.31.12c1.42.13,2.39.68,2.39,2.2s-1.33,2.48-3.3,2.48"/><path class="cls-9" d="M454.86,334a2,2,0,0,1-2.08-2.18v-5h-1V326h1v-2.54H454V326h1.73v.91H454v5c0,.75.34,1.19,1.1,1.19h.63v1Z"/><path class="cls-9" d="M462.54,330.29h-2.28c-1.22,0-1.82.49-1.82,1.43s.58,1.39,1.87,1.39a2.4,2.4,0,0,0,1.82-.54,1.9,1.9,0,0,0,.41-1.41Zm0,3.75v-.78a3.71,3.71,0,0,1-4.64.13,2.31,2.31,0,0,1-.62-1.65c0-1.42,1-2.35,2.81-2.35h2.45v-.77c0-1.19-.59-1.79-2.08-1.79a2.14,2.14,0,0,0-2,.93l-.81-.75a3.14,3.14,0,0,1,2.87-1.2c2.19,0,3.26.94,3.26,2.71V334Z"/><path class="cls-9" d="M469.86,326.86c-1.77,0-2.05,1.53-2.05,3.11s.28,3.11,2.05,3.11,2-1.52,2-3.11-.26-3.11-2-3.11m2.23,6.57a2.83,2.83,0,0,1-2,.71,2.61,2.61,0,0,1-2.3-1.08v1h-1.19V322.27h1.19v4.58a2.59,2.59,0,0,1,2.3-1,2.83,2.83,0,0,1,2,.71,6.52,6.52,0,0,1,0,6.91"/><path class="cls-9" d="M477.66,334a1.94,1.94,0,0,1-2.07-2.17v-9.6h1.19v9.55c0,.8.26,1.19,1.09,1.19h.65v1Z"/></g><path class="cls-9" d="M480.53,325.91h1.19V334h-1.19Zm-.07-3.66h1.34v1.34h-1.34Z"/><g class="cls-4"><path class="cls-9" d="M487.27,334.14a4.5,4.5,0,0,1-3.34-1.18l.8-.79a3.31,3.31,0,0,0,2.53.94c1.33,0,2.16-.48,2.16-1.43,0-.72-.41-1.11-1.35-1.2l-1.34-.11c-1.59-.13-2.43-.85-2.43-2.18,0-1.49,1.25-2.38,3-2.38a4.59,4.59,0,0,1,2.92.87l-.77.78a3.47,3.47,0,0,0-2.17-.65c-1.19,0-1.82.52-1.82,1.34s.4,1.11,1.43,1.19l1.3.12c1.42.13,2.4.68,2.4,2.2s-1.34,2.48-3.31,2.48"/><path class="cls-9" d="M498.11,334v-5a1.88,1.88,0,0,0-2-2.15,1.92,1.92,0,0,0-2,2.15v5h-1.19V322.27h1.19v4.53a2.88,2.88,0,0,1,2.28-1,2.74,2.74,0,0,1,2.92,3V334Z"/><path class="cls-9" d="M507,328a2.08,2.08,0,0,0-3.8,0,3.53,3.53,0,0,0-.25,1.35h4.3A3.19,3.19,0,0,0,507,328m-4.05,2.25c0,1.78.85,2.81,2.4,2.81a2.65,2.65,0,0,0,2.13-.93l.81.71a3.69,3.69,0,0,1-3,1.26c-2.15,0-3.56-1.29-3.56-4.17,0-2.63,1.28-4.16,3.34-4.16s3.34,1.52,3.34,3.93v.55Z"/><path class="cls-9" d="M513.76,326.86c-1.77,0-2.05,1.53-2.05,3.11s.28,3.11,2.05,3.11,2-1.52,2-3.11-.26-3.11-2-3.11m2,7.18v-1a2.65,2.65,0,0,1-2.32,1.08,2.83,2.83,0,0,1-2-.71,6.52,6.52,0,0,1,0-6.91,2.83,2.83,0,0,1,2-.71,2.59,2.59,0,0,1,2.3,1v-4.58H517V334Z"/><path class="cls-9" d="M527.31,326.86c-1.77,0-2.06,1.53-2.06,3.11s.29,3.11,2.06,3.11,2-1.52,2-3.11-.27-3.11-2-3.11m2.23,6.57a2.84,2.84,0,0,1-2,.71,2.63,2.63,0,0,1-2.3-1.08v1h-1.18V322.27h1.18v4.58a2.61,2.61,0,0,1,2.3-1,2.84,2.84,0,0,1,2,.71,6.52,6.52,0,0,1,0,6.91"/><path class="cls-9" d="M535.09,336a2.39,2.39,0,0,1-.58,1,2.22,2.22,0,0,1-1.59.57h-.51v-1.06h.36c.83,0,1.08-.27,1.34-1l.58-1.59-2.93-8h1.29l2.23,6.52,2.22-6.52h1.29Z"/><path class="cls-9" d="M546.85,334a2,2,0,0,1-2.08-2.18v-5h-1V326h1v-2.54H546V326h1.73v.91H546v5c0,.75.34,1.19,1.1,1.19h.63v1Z"/><path class="cls-9" d="M555.26,334v-5a1.88,1.88,0,0,0-2-2.15,1.92,1.92,0,0,0-2,2.15v5h-1.19V322.27h1.19v4.53a2.9,2.9,0,0,1,2.28-1,2.75,2.75,0,0,1,2.93,3V334Z"/><path class="cls-9" d="M564.13,328a2.08,2.08,0,0,0-3.8,0,3.53,3.53,0,0,0-.25,1.35h4.3a3.35,3.35,0,0,0-.25-1.35m-4,2.25c0,1.78.84,2.81,2.4,2.81a2.65,2.65,0,0,0,2.13-.93l.81.71a3.72,3.72,0,0,1-3,1.26c-2.15,0-3.56-1.29-3.56-4.17,0-2.63,1.27-4.16,3.34-4.16s3.34,1.52,3.34,3.93v.55Z"/></g><polygon class="cls-9" points="572.42 334.04 572.42 322.27 579.73 322.27 579.73 323.39 573.68 323.39 573.68 327.54 578.84 327.54 578.84 328.67 573.68 328.67 573.68 332.92 579.73 332.92 579.73 334.04 572.42 334.04"/><g class="cls-4"><path class="cls-9" d="M587.26,334v-.91a3,3,0,0,1-2.3,1,2.89,2.89,0,0,1-2.09-.76,3,3,0,0,1-.83-2.28v-5.19h1.19v5c0,1.44.76,2.17,2,2.17a1.93,1.93,0,0,0,2-2.17v-5h1.19V334Z"/><path class="cls-9" d="M596,327.46a1.67,1.67,0,0,0-1.4-.6,2,2,0,0,0-1.95,2.19v5h-1.19v-8.13h1.19v1a2.72,2.72,0,0,1,2.28-1.09,2.51,2.51,0,0,1,2,.76Z"/><path class="cls-9" d="M602.18,327.46a2.09,2.09,0,0,0-1.49-.6,2,2,0,0,0-1.47.6,5.1,5.1,0,0,0,0,5,2,2,0,0,0,1.47.6,2.09,2.09,0,0,0,1.49-.6,5.24,5.24,0,0,0,0-5m.84,5.75a3.38,3.38,0,0,1-4.66,0,5.8,5.8,0,0,1,0-6.48,3.41,3.41,0,0,1,4.66,0,5.8,5.8,0,0,1,0,6.48"/><path class="cls-9" d="M609.8,326.86c-1.77,0-2.06,1.53-2.06,3.11s.29,3.11,2.06,3.11,2-1.52,2-3.11-.27-3.11-2-3.11m2.23,6.57a2.84,2.84,0,0,1-2,.71,2.66,2.66,0,0,1-2.3-1.06v4.6h-1.19V325.91h1.19v.95a2.6,2.6,0,0,1,2.3-1.05,2.84,2.84,0,0,1,2,.71,6.52,6.52,0,0,1,0,6.91"/><path class="cls-9" d="M620.35,328a2.08,2.08,0,0,0-3.8,0,3.53,3.53,0,0,0-.25,1.35h4.3a3.35,3.35,0,0,0-.25-1.35m-4.05,2.25c0,1.78.85,2.81,2.4,2.81a2.65,2.65,0,0,0,2.13-.93l.81.71a3.69,3.69,0,0,1-3,1.26c-2.15,0-3.56-1.29-3.56-4.17,0-2.63,1.27-4.16,3.34-4.16s3.34,1.52,3.34,3.93v.55Z"/><path class="cls-9" d="M628.93,330.29h-2.29c-1.22,0-1.81.49-1.81,1.43s.58,1.39,1.87,1.39a2.38,2.38,0,0,0,1.81-.54,1.9,1.9,0,0,0,.42-1.41Zm0,3.75v-.78a2.87,2.87,0,0,1-2.35.88,2.9,2.9,0,0,1-2.3-.75,2.34,2.34,0,0,1-.61-1.65c0-1.42,1-2.35,2.81-2.35h2.45v-.77c0-1.19-.6-1.79-2.09-1.79a2.14,2.14,0,0,0-2.05.93L624,327a3.14,3.14,0,0,1,2.87-1.2c2.18,0,3.26.94,3.26,2.71V334Z"/><path class="cls-9" d="M638.21,334v-5a1.89,1.89,0,0,0-2-2.17,1.91,1.91,0,0,0-2,2.17v5H633v-8.13h1.2v.89a2.92,2.92,0,0,1,2.28-1,2.84,2.84,0,0,1,2.08.76,3,3,0,0,1,.84,2.26V334Z"/><path class="cls-9" d="M650.29,334.14a4.2,4.2,0,0,1-3-1.22c-1.11-1.11-1.11-2.27-1.11-4.77s0-3.65,1.11-4.76a4.2,4.2,0,0,1,3-1.22,4,4,0,0,1,4.08,3.5h-1.29a2.78,2.78,0,0,0-2.79-2.38,2.82,2.82,0,0,0-2,.83c-.75.76-.83,1.57-.83,4s.08,3.28.83,4a2.85,2.85,0,0,0,2,.82,2.82,2.82,0,0,0,2.83-2.38h1.25a4,4,0,0,1-4.08,3.51"/><path class="cls-9" d="M661.31,327.46a2.09,2.09,0,0,0-1.49-.6,2,2,0,0,0-1.47.6,5.1,5.1,0,0,0,0,5,2,2,0,0,0,1.47.6,2.09,2.09,0,0,0,1.49-.6,5.24,5.24,0,0,0,0-5m.84,5.75a3.38,3.38,0,0,1-4.66,0,5.8,5.8,0,0,1,0-6.48,3.41,3.41,0,0,1,4.66,0,5.8,5.8,0,0,1,0,6.48"/><path class="cls-9" d="M676.13,334v-5a2,2,0,1,0-4-.13V334h-1.19v-5a1.9,1.9,0,0,0-2-2.17,1.93,1.93,0,0,0-2,2.17v5h-1.18v-8.13h1.18v.89a3,3,0,0,1,2.3-1,2.69,2.69,0,0,1,2.5,1.35,3.12,3.12,0,0,1,2.68-1.35,2.94,2.94,0,0,1,2.09.76,3,3,0,0,1,.88,2.26V334Z"/><path class="cls-9" d="M690.65,334v-5a2,2,0,1,0-4-.13V334h-1.19v-5a1.9,1.9,0,0,0-2-2.17,1.93,1.93,0,0,0-2,2.17v5h-1.19v-8.13h1.19v.89a3,3,0,0,1,2.3-1,2.68,2.68,0,0,1,2.49,1.35,3.12,3.12,0,0,1,2.68-1.35,2.8,2.8,0,0,1,3,3V334Z"/></g><path class="cls-9" d="M694.73,325.91h1.19V334h-1.19Zm-.07-3.66H696v1.34h-1.34Z"/><g class="cls-4"><path class="cls-9" d="M701.47,334.14a4.49,4.49,0,0,1-3.34-1.18l.8-.79a3.31,3.31,0,0,0,2.53.94c1.33,0,2.16-.48,2.16-1.43,0-.72-.41-1.11-1.36-1.2l-1.33-.11c-1.59-.13-2.43-.85-2.43-2.18,0-1.49,1.25-2.38,3-2.38a4.64,4.64,0,0,1,2.93.87l-.78.78a3.45,3.45,0,0,0-2.17-.65c-1.19,0-1.82.52-1.82,1.34s.4,1.11,1.43,1.19l1.3.12c1.42.13,2.4.68,2.4,2.2s-1.34,2.48-3.31,2.48"/><path class="cls-9" d="M709.4,334.14a4.49,4.49,0,0,1-3.34-1.18l.8-.79a3.3,3.3,0,0,0,2.52.94c1.34,0,2.17-.48,2.17-1.43,0-.72-.41-1.11-1.36-1.2l-1.33-.11c-1.59-.13-2.44-.85-2.44-2.18,0-1.49,1.26-2.38,3-2.38a4.61,4.61,0,0,1,2.92.87l-.77.78a3.47,3.47,0,0,0-2.17-.65c-1.19,0-1.82.52-1.82,1.34s.4,1.11,1.42,1.19l1.31.12c1.42.13,2.4.68,2.4,2.2s-1.34,2.48-3.31,2.48"/></g><path class="cls-9" d="M715,325.91h1.19V334H715Zm-.06-3.66h1.34v1.34H715Z"/><g class="cls-4"><path class="cls-9" d="M723.59,327.46a2.09,2.09,0,0,0-1.48-.6,2,2,0,0,0-1.47.6,5,5,0,0,0,0,5,2,2,0,0,0,1.47.6,2.09,2.09,0,0,0,1.48-.6,5.17,5.17,0,0,0,0-5m.85,5.75a3.22,3.22,0,0,1-2.33.93,3.19,3.19,0,0,1-2.33-.93,5.75,5.75,0,0,1,0-6.48,3.18,3.18,0,0,1,2.33-.92,3.22,3.22,0,0,1,2.33.92,5.8,5.8,0,0,1,0,6.48"/><path class="cls-9" d="M733.18,334v-5a2,2,0,1,0-4,0v5H728v-8.13h1.19v.89a2.93,2.93,0,0,1,2.28-1,2.81,2.81,0,0,1,2.08.76,3,3,0,0,1,.85,2.26V334Z"/></g></g></svg>