<svg xmlns="http://www.w3.org/2000/svg" xmlns:xlink="http://www.w3.org/1999/xlink" viewBox="0 0 517.75 503.14"><defs><style>.cls-1{fill:url(#linear-gradient);}.cls-2{fill:#f26522;}.cls-3{fill:#fff;}</style><linearGradient id="linear-gradient" x1="281.59" y1="251.6" x2="501.08" y2="251.6" gradientUnits="userSpaceOnUse"><stop offset="0" stop-color="#f26522"/><stop offset="1" stop-color="#fff"/></linearGradient></defs><title>READCHINA logos</title><g id="Layer_15" data-name="Layer 15"><path id="SVGID" class="cls-1" d="M311,191.28A13.54,13.54,0,1,0,292,192.87,13.5,13.5,0,0,0,311,191.28M331,218.76a13.53,13.53,0,1,0-18-6.67A13.5,13.5,0,0,0,331,218.76Zm6.64,6.38A13.53,13.53,0,1,0,351,238.8,13.53,13.53,0,0,0,337.62,225.14Zm-8.42,59.27a13.53,13.53,0,1,0-6.48-18A13.57,13.57,0,0,0,329.2,284.41Zm.22,25.31a13.54,13.54,0,1,0-19.13-1A13.51,13.51,0,0,0,329.42,309.72Zm-39.09-2.34a13.53,13.53,0,1,0,17.06,8.74A13.53,13.53,0,0,0,290.33,307.38Zm46.26,40.13a11.61,11.61,0,1,0-16.33-1.91A11.6,11.6,0,0,0,336.59,347.51Zm47-94.92a11.62,11.62,0,1,0-11.87,11.34A11.62,11.62,0,0,0,383.59,252.59ZM363,295.77a11.61,11.61,0,1,0-7.46-14.63A11.63,11.63,0,0,0,363,295.77Zm.5,22.22a11.62,11.62,0,1,0-16.1,3.36A11.58,11.58,0,0,0,363.47,318Zm5.76-91a11.61,11.61,0,1,0-14.61-7.48A11.62,11.62,0,0,0,369.23,227Zm-12.68-52.49a11.62,11.62,0,1,0-2.06,16.28A11.63,11.63,0,0,0,356.55,174.51Zm-42.23-7.82a11.62,11.62,0,1,0-3.2-16.09A11.66,11.66,0,0,0,314.32,166.69Zm18.84-25.61a10.12,10.12,0,1,0-2.73-14A10.14,10.14,0,0,0,333.16,141.08ZM366.82,157a10.12,10.12,0,1,0-14.31,0A10.09,10.09,0,0,0,366.82,157Zm2.43,20.17a10.13,10.13,0,1,0,3-14A10.14,10.14,0,0,0,369.25,177.19Zm16.53,7.9a10.12,10.12,0,1,0,13.31,5.28A10.1,10.1,0,0,0,385.78,185.09Zm2,38.66a10.12,10.12,0,1,0,7.58-12.14A10.13,10.13,0,0,0,387.79,223.75Zm23.59,28a10.14,10.14,0,1,0-10.23,10A10.11,10.11,0,0,0,411.38,251.73Zm-3.25,29.73a10.13,10.13,0,1,0-12,7.85A10.11,10.11,0,0,0,408.13,281.46ZM386.5,314a10.11,10.11,0,1,0-5.51-13.2A10.13,10.13,0,0,0,386.5,314Zm-2,22.36A10.12,10.12,0,1,0,370.45,339,10.1,10.1,0,0,0,384.54,336.4Zm-18.61,22.14a10.12,10.12,0,1,0-14.32-.07A10.09,10.09,0,0,0,365.93,358.54Zm-34.54,2.19a10.12,10.12,0,1,0,14,3.07A10.08,10.08,0,0,0,331.39,360.73ZM370.1,127.1a8.62,8.62,0,1,0-12.2-.06A8.6,8.6,0,0,0,370.1,127.1Zm22,24.28a8.62,8.62,0,1,0-12-2.45A8.61,8.61,0,0,0,392.11,151.38Zm5.48,23.19a8.62,8.62,0,1,0,4.73-11.23A8.62,8.62,0,0,0,397.59,174.57Zm21.93,34.32a8.61,8.61,0,1,0-10.15-6.76A8.62,8.62,0,0,0,419.52,208.89Zm5.17,16.3a8.62,8.62,0,1,0,8.57,8.68A8.64,8.64,0,0,0,424.69,225.19Zm8,46.75a8.62,8.62,0,1,0-10.32,6.48A8.6,8.6,0,0,0,432.66,271.94Zm-18.32,36.13a8.61,8.61,0,1,0-4.48-11.34A8.64,8.64,0,0,0,414.34,308.07Zm-1.48,25.58a8.62,8.62,0,1,0-12,2.29A8.61,8.61,0,0,0,412.86,333.65Zm-20.42,29.86a8.62,8.62,0,1,0-12.2-.21A8.6,8.6,0,0,0,392.44,363.51Zm-33.62,9.1a8.62,8.62,0,1,0,11.93,2.54A8.6,8.6,0,0,0,358.82,372.61ZM361.69,96.3A8.18,8.18,0,1,0,359.44,85,8.19,8.19,0,0,0,361.69,96.3Zm40,23.32a8.19,8.19,0,1,0-11.62-.05A8.19,8.19,0,0,0,401.72,119.62Zm24.22,32.71a8.18,8.18,0,1,0-11.33-2.47A8.19,8.19,0,0,0,425.94,152.33Zm3.85,26.23a8.2,8.2,0,1,0,4.43-10.69A8.2,8.2,0,0,0,429.79,178.56ZM449.9,218a8.19,8.19,0,1,0-9.72-6.34A8.2,8.2,0,0,0,449.9,218Zm2.49,22a8.18,8.18,0,1,0,8.26,8.12A8.17,8.17,0,0,0,452.39,240Zm-5.61,57.26a8.18,8.18,0,1,0-6.34-9.68A8.21,8.21,0,0,0,446.78,297.26Zm-6.37,20.59a8.18,8.18,0,1,0,4.33,10.74A8.17,8.17,0,0,0,440.41,317.85Zm-13.76,44.21a8.19,8.19,0,1,0-11.38,2.22A8.19,8.19,0,0,0,426.65,362.06Zm-38.11,20.31a8.2,8.2,0,1,0,11.6.18A8.2,8.2,0,0,0,388.54,382.37ZM359.4,405.58a8.19,8.19,0,1,0,11.32,2.49A8.19,8.19,0,0,0,359.4,405.58ZM397.56,57.15a4.2,4.2,0,1,0-5.85,1.06A4.2,4.2,0,0,0,397.56,57.15ZM431.79,87a4.19,4.19,0,0,0,.09-5.93,4.2,4.2,0,1,0-.09,5.93Zm27.42,34.94a4.2,4.2,0,1,0-5.82-1.18A4.2,4.2,0,0,0,459.21,121.89ZM477,155a4.2,4.2,0,1,0,5.48,2.28A4.21,4.21,0,0,0,477,155Zm15.5,49.59a4.19,4.19,0,1,0-5-3.23A4.19,4.19,0,0,0,492.48,204.54Zm4.36,38.27a4.2,4.2,0,1,0,4.24,4.15A4.21,4.21,0,0,0,496.84,242.81ZM493.41,291a4.19,4.19,0,1,0,3.32,4.92A4.24,4.24,0,0,0,493.41,291Zm-14.92,50.92a4.19,4.19,0,1,0,2.13,5.54A4.21,4.21,0,0,0,478.49,341.92Zm-29.27,43.77a4.21,4.21,0,1,0,5.87-.94A4.21,4.21,0,0,0,449.22,385.69Zm-25.57,30a4.2,4.2,0,1,0,6,0A4.23,4.23,0,0,0,423.65,415.72Zm-36,29.2a4.2,4.2,0,1,0,5.82,1.22A4.18,4.18,0,0,0,387.64,444.92Zm6-363.72a5.25,5.25,0,1,0,7.42.08A5.23,5.23,0,0,0,393.64,81.2Zm35.25,37a5.25,5.25,0,1,0-7.28-1.49A5.24,5.24,0,0,0,428.89,118.24Zm23.51,37.57a5.25,5.25,0,1,0-6.84-2.93A5.24,5.24,0,0,0,452.4,155.81Zm7.6,31.9a5.25,5.25,0,1,0,4.1-6.17A5.23,5.23,0,0,0,460,187.71Zm13,31.08a5.24,5.24,0,1,0,5.37,5.14A5.23,5.23,0,0,0,473,218.79Zm-4.29,49.47a5.25,5.25,0,1,0,6.14-4.16A5.22,5.22,0,0,0,468.74,268.26Zm-1,38.67a5.24,5.24,0,1,0,2.85,6.83A5.24,5.24,0,0,0,467.74,306.93Zm-15,49.26a5.25,5.25,0,1,0-7.31,1.37A5.22,5.22,0,0,0,452.78,356.19Zm-23.92,35.08a5.25,5.25,0,1,0-7.43-.06A5.22,5.22,0,0,0,428.86,391.27Zm-37.34,22.18a5.25,5.25,0,1,0,7.27,1.55A5.26,5.26,0,0,0,391.52,413.45Z"/><path class="cls-2" d="M282,175.08a13.55,13.55,0,1,1-9.41-16.67A13.55,13.55,0,0,1,282,175.08"/><path class="cls-2" d="M250.52,327.18a13.56,13.56,0,1,1,12.28,14.68,13.57,13.57,0,0,1-12.28-14.68"/><path class="cls-2" d="M221.29,317.83a13.54,13.54,0,1,1,5.65,18.28,13.58,13.58,0,0,1-5.65-18.28"/><path class="cls-2" d="M197.11,296.9a13.53,13.53,0,1,1-2.17,19,13.54,13.54,0,0,1,2.17-19"/><path class="cls-2" d="M183.4,268.23a13.52,13.52,0,1,1-9.59,16.56,13.55,13.55,0,0,1,9.59-16.56"/><path class="cls-2" d="M182.07,237.77a13.52,13.52,0,1,1-15.2,11.63,13.52,13.52,0,0,1,15.2-11.63"/><path class="cls-2" d="M193.18,208.12a13.53,13.53,0,1,1-18.59,4.64,13.5,13.5,0,0,1,18.59-4.64"/><path class="cls-2" d="M215.17,185.32a13.54,13.54,0,1,1-18.91-3.11,13.51,13.51,0,0,1,18.91,3.11"/><path class="cls-2" d="M248,172.51a13.54,13.54,0,1,1-15.6-11.07A13.53,13.53,0,0,1,248,172.51"/><path class="cls-2" d="M271.09,362.91a11.62,11.62,0,1,1-11.64-11.6,11.63,11.63,0,0,1,11.64,11.6"/><path class="cls-2" d="M306.19,353.34a11.62,11.62,0,1,1-14.7-7.34,11.59,11.59,0,0,1,14.7,7.34"/><path class="cls-2" d="M247.14,137.91a11.63,11.63,0,1,1,11.24,12,11.59,11.59,0,0,1-11.24-12"/><path class="cls-2" d="M281.53,138.88a11.62,11.62,0,1,1,7.32,14.7,11.64,11.64,0,0,1-7.32-14.7"/><path class="cls-2" d="M212.84,147.55a11.62,11.62,0,1,1,14.54,7.67,11.59,11.59,0,0,1-14.54-7.67"/><path class="cls-2" d="M181.45,169a11.62,11.62,0,1,1,16.28,2.27A11.59,11.59,0,0,1,181.45,169"/><path class="cls-2" d="M148.54,228.05a11.61,11.61,0,1,1,14.81-7.12,11.6,11.6,0,0,1-14.81,7.12"/><path class="cls-2" d="M159.79,195.43a11.61,11.61,0,1,1,16.17-3,11.59,11.59,0,0,1-16.17,3"/><path class="cls-2" d="M146.57,262.92a11.61,11.61,0,1,1,12.05-11.19,11.62,11.62,0,0,1-12.05,11.19"/><path class="cls-2" d="M155.76,297.4a11.61,11.61,0,1,1,7.87-14.4,11.6,11.6,0,0,1-7.87,14.4"/><path class="cls-2" d="M175.89,327.29a11.62,11.62,0,1,1,2.5-16.23,11.66,11.66,0,0,1-2.5,16.23"/><path class="cls-2" d="M232.31,360.94a11.62,11.62,0,1,1-6.92-14.88,11.64,11.64,0,0,1,6.92,14.88"/><path class="cls-2" d="M202.94,349a11.62,11.62,0,1,1-2.77-16.18A11.65,11.65,0,0,1,202.94,349"/><path class="cls-2" d="M269.59,108.27a10.13,10.13,0,1,1-10.14-10.11,10.12,10.12,0,0,1,10.14,10.11"/><path class="cls-2" d="M297.21,113.08a10.12,10.12,0,1,1-7.93-11.9,10.13,10.13,0,0,1,7.93,11.9"/><path class="cls-2" d="M322.07,122.53a10.12,10.12,0,1,1-5.61-13.16,10.13,10.13,0,0,1,5.61,13.16"/><path class="cls-2" d="M116.85,240.78a10.11,10.11,0,1,1-10,10.19,10.12,10.12,0,0,1,10-10.19"/><path class="cls-2" d="M121.45,213.16a10.11,10.11,0,1,1-11.85,8,10.13,10.13,0,0,1,11.85-8"/><path class="cls-2" d="M130.74,188.28A10.11,10.11,0,1,1,117.6,194a10.11,10.11,0,0,1,13.14-5.69"/><path class="cls-2" d="M146.39,163.06a10.11,10.11,0,1,1-14,2.84,10.12,10.12,0,0,1,14-2.84"/><path class="cls-2" d="M165,143.34a10.12,10.12,0,1,1-14.33.14,10.12,10.12,0,0,1,14.33-.14"/><path class="cls-2" d="M188,126.76a10.12,10.12,0,1,1-14-2.86,10.11,10.11,0,0,1,14,2.86"/><path class="cls-2" d="M211.47,116.06a10.13,10.13,0,1,1-13.36-5.18,10.12,10.12,0,0,1,13.36,5.18"/><path class="cls-2" d="M239.11,109.73a10.12,10.12,0,1,1-12.22-7.47,10.11,10.11,0,0,1,12.22,7.47"/><path class="cls-2" d="M249.58,392.2a10.13,10.13,0,1,1,10.2,10,10.1,10.1,0,0,1-10.2-10"/><path class="cls-2" d="M221.91,387.59a10.13,10.13,0,1,1,8,11.84,10.14,10.14,0,0,1-8-11.84"/><path class="cls-2" d="M197,378.31a10.13,10.13,0,1,1,5.7,13.12,10.13,10.13,0,0,1-5.7-13.12"/><path class="cls-2" d="M171.73,362.68a10.12,10.12,0,1,1,2.86,14,10.14,10.14,0,0,1-2.86-14"/><path class="cls-2" d="M152,344.14a10.12,10.12,0,1,1,.13,14.3,10.13,10.13,0,0,1-.13-14.3"/><path class="cls-2" d="M135.41,321.12a10.12,10.12,0,1,1-2.87,14,10.12,10.12,0,0,1,2.87-14"/><path class="cls-2" d="M124.7,297.68A10.11,10.11,0,1,1,119.52,311a10.14,10.14,0,0,1,5.18-13.33"/><path class="cls-2" d="M118.37,270.08a10.11,10.11,0,1,1-7.48,12.18,10.12,10.12,0,0,1,7.48-12.18"/><path class="cls-2" d="M304.68,385A10.12,10.12,0,1,1,318,390.43,10.1,10.1,0,0,1,304.68,385"/><path class="cls-2" d="M277,391A10.12,10.12,0,1,1,289,398.61,10.08,10.08,0,0,1,277,391"/><path class="cls-2" d="M249.34,84.31a8.63,8.63,0,1,1-8.63-8.62,8.62,8.62,0,0,1,8.63,8.62"/><path class="cls-2" d="M287.92,86.71a8.63,8.63,0,1,1-6.39-10.37,8.59,8.59,0,0,1,6.39,10.37"/><path class="cls-2" d="M317.88,95.07a8.62,8.62,0,1,1-4.34-11.37,8.61,8.61,0,0,1,4.34,11.37"/><path class="cls-2" d="M344.49,108.06a8.62,8.62,0,1,1-2.27-12,8.64,8.64,0,0,1,2.27,12"/><path class="cls-2" d="M329.33,400.47a8.63,8.63,0,1,1,11.25,4.73,8.62,8.62,0,0,1-11.25-4.73"/><path class="cls-2" d="M299.24,411.24A8.63,8.63,0,1,1,309.37,418a8.62,8.62,0,0,1-10.13-6.79"/><path class="cls-2" d="M268.3,416A8.63,8.63,0,1,1,277,424.6,8.66,8.66,0,0,1,268.3,416"/><path class="cls-2" d="M231.3,414.13a8.63,8.63,0,1,1,6.56,10.27,8.64,8.64,0,0,1-6.56-10.27"/><path class="cls-2" d="M204.17,407.3a8.63,8.63,0,1,1,4.75,11.21,8.63,8.63,0,0,1-4.75-11.21"/><path class="cls-2" d="M168.64,390.14a8.63,8.63,0,1,1,2,12,8.65,8.65,0,0,1-2-12"/><path class="cls-2" d="M145.82,372.61a8.62,8.62,0,1,1-.13,12.18,8.66,8.66,0,0,1,.13-12.18"/><path class="cls-2" d="M124.25,348.59a8.62,8.62,0,1,1-2.48,11.93,8.64,8.64,0,0,1,2.48-11.93"/><path class="cls-2" d="M108.9,323.32a8.62,8.62,0,1,1-4.56,11.29,8.62,8.62,0,0,1,4.56-11.29"/><path class="cls-2" d="M98.63,296.88a8.61,8.61,0,1,1-6.43,10.36,8.62,8.62,0,0,1,6.43-10.36"/><path class="cls-2" d="M92.28,261.33a8.61,8.61,0,1,1-8.52,8.72,8.61,8.61,0,0,1,8.52-8.72"/><path class="cls-2" d="M93.61,226.61a8.62,8.62,0,1,1-10.15,6.77,8.62,8.62,0,0,1,10.15-6.77"/><path class="cls-2" d="M101.6,194.4A8.62,8.62,0,1,1,90.3,199a8.62,8.62,0,0,1,11.3-4.61"/><path class="cls-2" d="M116.05,164a8.62,8.62,0,1,1-12,2.24,8.6,8.6,0,0,1,12-2.24"/><path class="cls-2" d="M137,136.49a8.61,8.61,0,1,1-12.18-.28,8.58,8.58,0,0,1,12.18.28"/><path class="cls-2" d="M159.88,116.26a8.63,8.63,0,1,1-11.94-2.51,8.61,8.61,0,0,1,11.94,2.51"/><path class="cls-2" d="M185.93,100.61A8.63,8.63,0,1,1,174.64,96a8.61,8.61,0,0,1,11.29,4.62"/><path class="cls-2" d="M216.75,89.33a8.63,8.63,0,1,1-10.15-6.74,8.6,8.6,0,0,1,10.15,6.74"/><path class="cls-2" d="M228.34,59.46a8.2,8.2,0,1,1-9.65-6.41,8.18,8.18,0,0,1,9.65,6.41"/><path class="cls-2" d="M267.86,57.21A8.21,8.21,0,1,1,259.71,49a8.18,8.18,0,0,1,8.15,8.24"/><path class="cls-2" d="M312.71,64.57a8.2,8.2,0,1,1-6-9.9,8.21,8.21,0,0,1,6,9.9"/><path class="cls-2" d="M343.33,76.27a8.2,8.2,0,1,1-4.25-10.77,8.21,8.21,0,0,1,4.25,10.77"/><path class="cls-2" d="M324,432.19a8.19,8.19,0,1,1,10.65,4.55A8.18,8.18,0,0,1,324,432.19"/><path class="cls-2" d="M288.82,441.1a8.2,8.2,0,1,1,9.62,6.46,8.18,8.18,0,0,1-9.62-6.46"/><path class="cls-2" d="M247.55,443.05a8.19,8.19,0,1,1,8,8.35,8.19,8.19,0,0,1-8-8.35"/><path class="cls-2" d="M210.62,437.24A8.2,8.2,0,1,1,216.9,447a8.21,8.21,0,0,1-6.28-9.73"/><path class="cls-2" d="M174.2,423.82a8.2,8.2,0,1,1,4.21,10.79,8.22,8.22,0,0,1-4.21-10.79"/><path class="cls-2" d="M137.3,400.33a8.18,8.18,0,1,1,1.64,11.45,8.2,8.2,0,0,1-1.64-11.45"/><path class="cls-2" d="M115.12,379.33a8.2,8.2,0,1,1-.15,11.55,8.24,8.24,0,0,1,.15-11.55"/><path class="cls-2" d="M93.18,349.65A8.19,8.19,0,1,1,90.81,361a8.23,8.23,0,0,1,2.37-11.32"/><path class="cls-2" d="M79.08,321.14a8.18,8.18,0,1,1-4.2,10.78,8.21,8.21,0,0,1,4.2-10.78"/><path class="cls-2" d="M68.58,284.2a8.19,8.19,0,1,1-6.25,9.74,8.23,8.23,0,0,1,6.25-9.74"/><path class="cls-2" d="M65.66,244.12a8.18,8.18,0,1,1-8.12,8.24,8.21,8.21,0,0,1,8.12-8.24"/><path class="cls-2" d="M70.93,205a8.18,8.18,0,1,1-9.64,6.41A8.19,8.19,0,0,1,70.93,205"/><path class="cls-2" d="M83.11,169.82a8.18,8.18,0,1,1-10.7,4.44,8.17,8.17,0,0,1,10.7-4.44"/><path class="cls-2" d="M102.1,137.22a8.18,8.18,0,1,1-11.35,2.29,8.2,8.2,0,0,1,11.35-2.29"/><path class="cls-2" d="M130.86,105.5a8.19,8.19,0,1,1-11.57-.26,8.18,8.18,0,0,1,11.57.26"/><path class="cls-2" d="M158.47,85.17a8.19,8.19,0,1,1-11.36-2.29,8.2,8.2,0,0,1,11.36,2.29"/><path class="cls-2" d="M192,69a8.19,8.19,0,1,1-10.7-4.43A8.17,8.17,0,0,1,192,69"/><path class="cls-2" d="M242.59,36a5.26,5.26,0,1,1-5.25-5.24A5.25,5.25,0,0,1,242.59,36"/><path class="cls-2" d="M262.53,12.79a4.2,4.2,0,1,1-4.19-4.2,4.19,4.19,0,0,1,4.19,4.2"/><path class="cls-2" d="M318.67,20.33a4.2,4.2,0,1,1-3.08-5.07,4.2,4.2,0,0,1,3.08,5.07"/><path class="cls-2" d="M361.83,36.06a4.2,4.2,0,1,1-2.06-5.57,4.2,4.2,0,0,1,2.06,5.57"/><path class="cls-2" d="M342.28,472.64a4.19,4.19,0,1,1,5.43,2.38,4.21,4.21,0,0,1-5.43-2.38"/><path class="cls-2" d="M298.85,484.3a4.2,4.2,0,1,1,4.88,3.37,4.17,4.17,0,0,1-4.88-3.37"/><path class="cls-2" d="M249.45,487.45a4.19,4.19,0,1,1,4.09,4.3,4.2,4.2,0,0,1-4.09-4.3"/><path class="cls-2" d="M199.75,480.13a4.2,4.2,0,1,1,3.1,5.08,4.21,4.21,0,0,1-3.1-5.08"/><path class="cls-2" d="M155.81,464.08a4.19,4.19,0,1,1,2,5.57,4.19,4.19,0,0,1-2-5.57"/><path class="cls-2" d="M113.41,437.88a4.19,4.19,0,1,1,.83,5.88,4.19,4.19,0,0,1-.83-5.88"/><path class="cls-2" d="M82.5,409.25a4.2,4.2,0,1,1-.21,5.93,4.2,4.2,0,0,1,.21-5.93"/><path class="cls-2" d="M57.72,376.54a4.19,4.19,0,1,1-1.24,5.8,4.19,4.19,0,0,1,1.24-5.8"/><path class="cls-2" d="M40.54,343.89a4.19,4.19,0,1,1-2.13,5.53,4.19,4.19,0,0,1,2.13-5.53"/><path class="cls-2" d="M26.86,301.44a4.19,4.19,0,1,1-3.12,5,4.2,4.2,0,0,1,3.12-5"/><path class="cls-2" d="M21.25,249.09a4.19,4.19,0,1,1-4.16,4.23,4.18,4.18,0,0,1,4.16-4.23"/><path class="cls-2" d="M25.62,204.88a4.19,4.19,0,1,1-4.87,3.38,4.18,4.18,0,0,1,4.87-3.38"/><path class="cls-2" d="M40.13,157.49a4.19,4.19,0,1,1-5.48,2.3,4.18,4.18,0,0,1,5.48-2.3"/><path class="cls-2" d="M63.73,114.78a4.19,4.19,0,1,1-5.84,1.14,4.18,4.18,0,0,1,5.84-1.14"/><path class="cls-2" d="M95.61,77.73a4.19,4.19,0,1,1-5.93-.08,4.17,4.17,0,0,1,5.93.08"/><path class="cls-2" d="M132.28,49.32a4.19,4.19,0,1,1-5.8-1.23,4.2,4.2,0,0,1,5.8,1.23"/><path class="cls-2" d="M175.41,27.94A4.18,4.18,0,1,1,170,25.56a4.17,4.17,0,0,1,5.43,2.38"/><path class="cls-2" d="M215.18,16.84a4.2,4.2,0,1,1-4.94-3.28,4.19,4.19,0,0,1,4.94,3.28"/><path class="cls-2" d="M291,37.74A5.25,5.25,0,1,1,287,31.45,5.25,5.25,0,0,1,291,37.74"/><path class="cls-2" d="M334.22,48.89a5.25,5.25,0,1,1-2.55-7,5.25,5.25,0,0,1,2.55,7"/><path class="cls-2" d="M367.84,64.82a5.26,5.26,0,1,1-1.33-7.29,5.21,5.21,0,0,1,1.33,7.29"/><path class="cls-2" d="M355.87,442.08a5.25,5.25,0,1,1,6.85,2.86,5.21,5.21,0,0,1-6.85-2.86"/><path class="cls-2" d="M317,457.11a5.25,5.25,0,1,1,6.18,4.12,5.22,5.22,0,0,1-6.18-4.12"/><path class="cls-2" d="M272.41,464.62a5.24,5.24,0,1,1,5.16,5.31,5.23,5.23,0,0,1-5.16-5.31"/><path class="cls-2" d="M225.42,462.39a5.24,5.24,0,1,1,3.87,6.31,5.25,5.25,0,0,1-3.87-6.31"/><path class="cls-2" d="M187.73,452.88a5.25,5.25,0,1,1,2.71,6.91,5.29,5.29,0,0,1-2.71-6.91"/><path class="cls-2" d="M145.29,432.54a5.28,5.28,0,0,1,7.35-1.12,5.25,5.25,0,1,1-7.35,1.12"/><path class="cls-2" d="M112.57,407.54a5.25,5.25,0,1,1-.29,7.41,5.27,5.27,0,0,1,.29-7.41"/><path class="cls-2" d="M87.54,379.89a5.27,5.27,0,0,1,7.26,1.58,5.25,5.25,0,1,1-7.26-1.58"/><path class="cls-2" d="M68.11,349.22a5.24,5.24,0,1,1-2.77,6.88,5.24,5.24,0,0,1,2.77-6.88"/><path class="cls-2" d="M53.24,312.85a5.24,5.24,0,1,1-4,6.25,5.26,5.26,0,0,1,4-6.25"/><path class="cls-2" d="M44.54,266.79A5.24,5.24,0,1,1,39.29,272a5.24,5.24,0,0,1,5.25-5.24"/><path class="cls-2" d="M45.26,226.13a5.23,5.23,0,1,1-6.15,4.16,5.24,5.24,0,0,1,6.15-4.16"/><path class="cls-2" d="M54.34,184.09A5.24,5.24,0,1,1,47.48,187a5.28,5.28,0,0,1,6.86-2.86"/><path class="cls-2" d="M71.57,144.82a5.24,5.24,0,1,1-7.29,1.44,5.26,5.26,0,0,1,7.29-1.44"/><path class="cls-2" d="M98.35,107.37a5.24,5.24,0,1,1-7.42-.14,5.22,5.22,0,0,1,7.42.14"/><path class="cls-2" d="M129.69,78.56a5.24,5.24,0,1,1-7.25-1.6,5.22,5.22,0,0,1,7.25,1.6"/><path class="cls-2" d="M163.9,57.53a5.24,5.24,0,1,1-6.81-2.92,5.23,5.23,0,0,1,6.81,2.92"/><path class="cls-2" d="M203.42,42.69a5.24,5.24,0,1,1-6.13-4.19,5.25,5.25,0,0,1,6.13,4.19"/><path class="cls-3" d="M313.61,278.23c-13.27,17.74-30.38,27.13-52.2,27.13-28,0-55-17.73-55-57,0-35.89,23.11-56.18,53.28-56.18,28.24,0,40,16.88,42.15,20.08,8.77,12.39,10.7,31,10.91,41.66H233.6c3,16.87,13.47,26.48,30.38,26.48,17.54,0,24.6-10.25,27.81-14.74Zm-29.09-43.14c-2.36-16.67-12.63-22.43-24-22.43-13.69,0-23.11,7.9-26.1,22.43Z"/><path class="cls-3" d="M357.9,195.36v15.16c3.21-5.56,10.27-18.16,34.24-17.52v26.28c-5.56.21-15.19.43-23.11,6.41-10.9,8.33-11.13,19.22-11.13,36.95v39.52H333.08V195.36Z"/><path class="cls-3" d="M473.44,233.16c-1.92-7-9.41-18.15-24.17-18.15s-26.54,11.75-26.54,33.11c0,19.22,10.06,33.32,27,33.32,16.27,0,22.47-12.39,25.68-20.94l22,11.54c-8.34,23.07-29.52,33.32-48.13,33.32-29.75,0-53.06-22.85-53.06-56.6,0-32.69,23.52-56.61,53.91-56.61,27,0,40.65,17.94,46.21,30.34Z"/></g></svg>