<svg xmlns="http://www.w3.org/2000/svg" xmlns:xlink="http://www.w3.org/1999/xlink" viewBox="0 0 511.01 510.16"><defs><style>.cls-1{fill:url(#linear-gradient);}.cls-2{fill:#f26522;}.cls-3{fill:#231f20;}</style><linearGradient id="linear-gradient" x1="275.54" y1="194.47" x2="428.51" y2="194.47" gradientUnits="userSpaceOnUse"><stop offset="0" stop-color="#f26522"/><stop offset="1" stop-color="#fff"/></linearGradient></defs><title>READCHINA logos</title><g id="Layer_15" data-name="Layer 15"><path id="SVGID" class="cls-1" d="M296.06,152.36a9.44,9.44,0,1,0-13.3,1.11,9.44,9.44,0,0,0,13.3-1.11M310,171.55a9.45,9.45,0,1,0-12.53-4.66A9.44,9.44,0,0,0,310,171.55Zm4.63,4.45a9.44,9.44,0,1,0,9.34,9.54A9.43,9.43,0,0,0,314.59,176Zm-5.87,41.37a9.44,9.44,0,1,0-4.52-12.56A9.44,9.44,0,0,0,308.72,217.37Zm.15,17.67a9.45,9.45,0,1,0-13.33-.68A9.42,9.42,0,0,0,308.87,235Zm-27.24-1.63a9.45,9.45,0,1,0,11.89,6.1A9.45,9.45,0,0,0,281.63,233.41Zm32.24,28a8.11,8.11,0,1,0-11.38-1.33A8.1,8.1,0,0,0,313.87,261.43Zm32.75-66.27a8.1,8.1,0,1,0-8.27,7.92A8.09,8.09,0,0,0,346.62,195.16Zm-14.36,30.15a8.1,8.1,0,1,0-5.21-10.22A8.1,8.1,0,0,0,332.26,225.31Zm.34,15.51a8.1,8.1,0,1,0-11.22,2.35A8.09,8.09,0,0,0,332.6,240.82Zm4-63.52a8.1,8.1,0,1,0-10.19-5.22A8.11,8.11,0,0,0,336.62,177.3Zm-8.84-36.65A8.1,8.1,0,1,0,326.35,152,8.09,8.09,0,0,0,327.78,140.65Zm-29.43-5.46A8.1,8.1,0,1,0,296.12,124,8.12,8.12,0,0,0,298.35,135.19Zm13.13-17.87a7.06,7.06,0,1,0-1.9-9.8A7.06,7.06,0,0,0,311.48,117.32Zm23.46,11.12a7.06,7.06,0,1,0-10,0A7,7,0,0,0,334.94,128.44Zm1.69,14.08a7.06,7.06,0,1,0,2.08-9.77A7,7,0,0,0,336.63,142.52ZM348.15,148a7.06,7.06,0,1,0,9.28,3.69A7.05,7.05,0,0,0,348.15,148Zm1.4,27a7.05,7.05,0,1,0,5.29-8.47A7.06,7.06,0,0,0,349.55,175ZM366,194.56a7.07,7.07,0,1,0-7.13,7A7.07,7.07,0,0,0,366,194.56Zm-2.27,20.76a7.06,7.06,0,1,0-8.35,5.48A7.06,7.06,0,0,0,363.73,215.32Zm-15.08,22.74a7.06,7.06,0,1,0-3.83-9.21A7.05,7.05,0,0,0,348.65,238.06Zm-1.36,15.61a7.06,7.06,0,1,0-9.82,1.84A7.06,7.06,0,0,0,347.29,253.67Zm-13,15.46a7.05,7.05,0,1,0-10-.05A7,7,0,0,0,334.32,269.13Zm-24.07,1.53A7.06,7.06,0,1,0,320,272.8,7,7,0,0,0,310.25,270.66Zm27-163.1a6,6,0,1,0-8.5,0A6,6,0,0,0,337.22,107.56Zm15.34,17a6,6,0,1,0-8.33-1.72A6,6,0,0,0,352.56,124.51Zm3.82,16.18a6,6,0,1,0,3.3-7.83A6,6,0,0,0,356.38,140.69Zm15.29,24a6,6,0,1,0-7.07-4.72A6,6,0,0,0,371.67,164.66Zm3.6,11.38a6,6,0,1,0,6,6.06A6,6,0,0,0,375.27,176Zm5.56,32.63a6,6,0,1,0-7.19,4.52A6,6,0,0,0,380.83,208.67Zm-12.77,25.22a6,6,0,1,0-3.13-7.91A6,6,0,0,0,368.06,233.89Zm-1,17.86a6,6,0,1,0-8.35,1.6A6,6,0,0,0,367,251.75ZM352.79,272.6a6,6,0,1,0-8.5-.15A6,6,0,0,0,352.79,272.6ZM329.36,279a6,6,0,1,0,8.32,1.78A6,6,0,0,0,329.36,279Zm2-192.89a5.71,5.71,0,1,0-1.56-7.92A5.72,5.72,0,0,0,331.36,86.06Zm27.9,16.28a5.71,5.71,0,1,0-8.09,0A5.72,5.72,0,0,0,359.26,102.34Zm16.88,22.83a5.71,5.71,0,1,0-7.89-1.72A5.73,5.73,0,0,0,376.14,125.17Zm2.69,18.31a5.71,5.71,0,1,0,3.08-7.46A5.71,5.71,0,0,0,378.83,143.48Zm14,27.52a5.72,5.72,0,1,0-6.77-4.43A5.74,5.74,0,0,0,392.84,171Zm1.74,15.37a5.71,5.71,0,1,0,5.76,5.67A5.7,5.7,0,0,0,394.58,186.37Zm-3.91,40a5.71,5.71,0,1,0-4.42-6.76A5.71,5.71,0,0,0,390.67,226.35Zm-4.44,14.37a5.71,5.71,0,1,0,3,7.5A5.71,5.71,0,0,0,386.23,240.72Zm-9.59,30.87a5.72,5.72,0,1,0-7.93,1.54A5.71,5.71,0,0,0,376.64,271.59Zm-26.56,14.17a5.72,5.72,0,1,0,8.08.13A5.74,5.74,0,0,0,350.08,285.76ZM329.77,302a5.72,5.72,0,1,0,7.89,1.74A5.73,5.73,0,0,0,329.77,302ZM356.36,58.72a2.93,2.93,0,1,0-4.07.74A2.92,2.92,0,0,0,356.36,58.72Zm23.86,20.81a2.93,2.93,0,1,0-4.14,0A2.92,2.92,0,0,0,380.22,79.53Zm19.11,24.39a2.93,2.93,0,1,0-4.06-.82A2.95,2.95,0,0,0,399.33,103.92ZM411.71,127a2.93,2.93,0,1,0,3.83,1.59A2.94,2.94,0,0,0,411.71,127Zm10.81,34.62a2.92,2.92,0,1,0-3.46-2.25A2.93,2.93,0,0,0,422.52,161.62Zm3,26.72a2.93,2.93,0,1,0,3,2.9A2.93,2.93,0,0,0,425.55,188.34ZM423.17,222a2.93,2.93,0,1,0,2.31,3.44A2.94,2.94,0,0,0,423.17,222Zm-10.41,35.55a2.92,2.92,0,1,0,1.49,3.86A2.92,2.92,0,0,0,412.76,257.53Zm-20.39,30.55a2.93,2.93,0,1,0,4.09-.66A3,3,0,0,0,392.37,288.08Zm-17.82,21a2.93,2.93,0,1,0,4.15,0A2.92,2.92,0,0,0,374.55,309.05Zm-25.1,20.38a2.93,2.93,0,1,0,4.05.85A2.93,2.93,0,0,0,349.45,329.43Zm4.18-253.91a3.66,3.66,0,1,0,5.17,0A3.65,3.65,0,0,0,353.63,75.52Zm24.57,25.85a3.67,3.67,0,1,0-5.07-1A3.67,3.67,0,0,0,378.2,101.37Zm16.38,26.23a3.66,3.66,0,1,0-4.76-2A3.66,3.66,0,0,0,394.58,127.6Zm5.3,22.27a3.66,3.66,0,1,0,2.86-4.31A3.65,3.65,0,0,0,399.88,149.87Zm9.08,21.7a3.66,3.66,0,0,0,.16,7.32,3.66,3.66,0,1,0-.16-7.32Zm-3,34.53a3.66,3.66,0,1,0,4.28-2.9A3.64,3.64,0,0,0,406,206.1Zm-.7,27a3.65,3.65,0,1,0,2,4.77A3.64,3.64,0,0,0,405.27,233.1Zm-10.42,34.39a3.66,3.66,0,1,0-5.1.95A3.65,3.65,0,0,0,394.85,267.49ZM378.18,292a3.66,3.66,0,1,0-5.18,0A3.66,3.66,0,0,0,378.18,292Zm-26,15.48a3.66,3.66,0,1,0,5.06,1.08A3.66,3.66,0,0,0,352.16,307.46Z"/><path class="cls-2" d="M275.8,141.05a9.44,9.44,0,1,1-6.55-11.63,9.44,9.44,0,0,1,6.55,11.63"/><path class="cls-2" d="M253.89,247.23a9.44,9.44,0,1,1,8.55,10.26,9.45,9.45,0,0,1-8.55-10.26"/><path class="cls-2" d="M233.51,240.71a9.45,9.45,0,1,1,3.94,12.76,9.45,9.45,0,0,1-3.94-12.76"/><path class="cls-2" d="M216.66,226.1a9.44,9.44,0,1,1-1.51,13.26,9.42,9.42,0,0,1,1.51-13.26"/><path class="cls-2" d="M207.11,206.08a9.44,9.44,0,1,1-6.69,11.56,9.44,9.44,0,0,1,6.69-11.56"/><path class="cls-2" d="M206.18,184.82a9.44,9.44,0,1,1-10.6,8.11,9.43,9.43,0,0,1,10.6-8.11"/><path class="cls-2" d="M213.92,164.12a9.44,9.44,0,1,1-13,3.24,9.44,9.44,0,0,1,13-3.24"/><path class="cls-2" d="M229.25,148.2A9.44,9.44,0,1,1,216.07,146a9.44,9.44,0,0,1,13.18,2.17"/><path class="cls-2" d="M252.12,139.26a9.44,9.44,0,1,1-10.88-7.73,9.44,9.44,0,0,1,10.88,7.73"/><path class="cls-2" d="M268.22,272.18a8.1,8.1,0,1,1-8.11-8.1,8.11,8.11,0,0,1,8.11,8.1"/><path class="cls-2" d="M292.68,265.5a8.1,8.1,0,1,1-10.24-5.13,8.1,8.1,0,0,1,10.24,5.13"/><path class="cls-2" d="M251.53,115.1a8.1,8.1,0,1,1,7.83,8.35,8.09,8.09,0,0,1-7.83-8.35"/><path class="cls-2" d="M275.5,115.78a8.1,8.1,0,1,1,5.1,10.27,8.11,8.11,0,0,1-5.1-10.27"/><path class="cls-2" d="M227.62,121.84a8.11,8.11,0,1,1,10.14,5.34,8.1,8.1,0,0,1-10.14-5.34"/><path class="cls-2" d="M205.75,136.79a8.1,8.1,0,1,1,11.34,1.58,8.09,8.09,0,0,1-11.34-1.58"/><path class="cls-2" d="M182.81,178a8.1,8.1,0,1,1,10.32-5,8.11,8.11,0,0,1-10.32,5"/><path class="cls-2" d="M190.65,155.26a8.1,8.1,0,1,1,11.27-2.09,8.1,8.1,0,0,1-11.27,2.09"/><path class="cls-2" d="M181.43,202.37a8.11,8.11,0,1,1,8.4-7.81,8.1,8.1,0,0,1-8.4,7.81"/><path class="cls-2" d="M187.84,226.45a8.1,8.1,0,1,1,5.49-10.06,8.09,8.09,0,0,1-5.49,10.06"/><path class="cls-2" d="M201.87,247.31A8.11,8.11,0,1,1,203.61,236a8.12,8.12,0,0,1-1.74,11.33"/><path class="cls-2" d="M241.2,270.81a8.11,8.11,0,1,1-4.83-10.4,8.12,8.12,0,0,1,4.83,10.4"/><path class="cls-2" d="M220.72,262.49a8.1,8.1,0,1,1-1.92-11.29,8.11,8.11,0,0,1,1.92,11.29"/><path class="cls-2" d="M267.17,94.41a7.06,7.06,0,1,1-7.06-7.06,7.05,7.05,0,0,1,7.06,7.06"/><path class="cls-2" d="M286.43,97.77a7.06,7.06,0,1,1-5.53-8.31,7.05,7.05,0,0,1,5.53,8.31"/><path class="cls-2" d="M303.75,104.37a7.06,7.06,0,1,1-3.91-9.19,7.06,7.06,0,0,1,3.91,9.19"/><path class="cls-2" d="M160.73,186.92a7.06,7.06,0,1,1-7,7.11,7.05,7.05,0,0,1,7-7.11"/><path class="cls-2" d="M163.93,167.64a7.06,7.06,0,1,1-8.26,5.6,7.05,7.05,0,0,1,8.26-5.6"/><path class="cls-2" d="M170.41,150.27a7.06,7.06,0,1,1-9.17,4,7.05,7.05,0,0,1,9.17-4"/><path class="cls-2" d="M181.31,132.66a7.06,7.06,0,1,1-9.78,2,7.07,7.07,0,0,1,9.78-2"/><path class="cls-2" d="M194.25,118.9a7.06,7.06,0,1,1-10,.09,7.07,7.07,0,0,1,10-.09"/><path class="cls-2" d="M210.31,107.32a7.06,7.06,0,1,1-9.78-2,7.07,7.07,0,0,1,9.78,2"/><path class="cls-2" d="M226.67,99.85a7.06,7.06,0,1,1-9.31-3.62,7.05,7.05,0,0,1,9.31,3.62"/><path class="cls-2" d="M245.93,95.43a7.05,7.05,0,1,1-8.51-5.21,7.05,7.05,0,0,1,8.51,5.21"/><path class="cls-2" d="M253.23,292.63a7.06,7.06,0,1,1,7.1,7,7.05,7.05,0,0,1-7.1-7"/><path class="cls-2" d="M233.94,289.41a7.06,7.06,0,1,1,5.6,8.26,7.08,7.08,0,0,1-5.6-8.26"/><path class="cls-2" d="M216.58,282.93a7.06,7.06,0,1,1,4,9.16,7.07,7.07,0,0,1-4-9.16"/><path class="cls-2" d="M199,272a7.06,7.06,0,1,1,2,9.77,7.05,7.05,0,0,1-2-9.77"/><path class="cls-2" d="M185.23,259.08a7.05,7.05,0,1,1,.09,10,7,7,0,0,1-.09-10"/><path class="cls-2" d="M173.66,243a7.06,7.06,0,1,1-2,9.77,7,7,0,0,1,2-9.77"/><path class="cls-2" d="M166.19,226.64a7.06,7.06,0,1,1-3.61,9.3,7.06,7.06,0,0,1,3.61-9.3"/><path class="cls-2" d="M161.78,207.37a7.06,7.06,0,1,1-5.21,8.51,7.06,7.06,0,0,1,5.21-8.51"/><path class="cls-2" d="M291.63,287.63a7.06,7.06,0,1,1,9.25,3.76,7.05,7.05,0,0,1-9.25-3.76"/><path class="cls-2" d="M272.3,291.76a7.06,7.06,0,1,1,8.43,5.34,7,7,0,0,1-8.43-5.34"/><path class="cls-2" d="M253.06,77.68a6,6,0,1,1-6-6,6,6,0,0,1,6,6"/><path class="cls-2" d="M280,79.36a6,6,0,1,1-4.45-7.24A6,6,0,0,1,280,79.36"/><path class="cls-2" d="M300.83,85.2a6,6,0,1,1-3-7.94,6,6,0,0,1,3,7.94"/><path class="cls-2" d="M319.37,94.27a6,6,0,1,1-1.57-8.35,6,6,0,0,1,1.57,8.35"/><path class="cls-2" d="M308.81,298.4a6,6,0,1,1,7.84,3.3,6,6,0,0,1-7.84-3.3"/><path class="cls-2" d="M287.84,305.92a6,6,0,1,1,7.06,4.74,6,6,0,0,1-7.06-4.74"/><path class="cls-2" d="M266.28,309.27a6,6,0,1,1,6.05,6,6,6,0,0,1-6.05-6"/><path class="cls-2" d="M240.49,307.94a6,6,0,1,1,4.57,7.16,6,6,0,0,1-4.57-7.16"/><path class="cls-2" d="M221.58,303.17a6,6,0,1,1,3.31,7.83,6,6,0,0,1-3.31-7.83"/><path class="cls-2" d="M196.82,291.19a6,6,0,1,1,1.37,8.39,6,6,0,0,1-1.37-8.39"/><path class="cls-2" d="M180.92,279a6,6,0,1,1-.1,8.51,6,6,0,0,1,.1-8.51"/><path class="cls-2" d="M165.88,262.18a6,6,0,1,1-1.73,8.33,6,6,0,0,1,1.73-8.33"/><path class="cls-2" d="M155.18,244.54a6,6,0,1,1-3.18,7.89,6,6,0,0,1,3.18-7.89"/><path class="cls-2" d="M148,226.08a6,6,0,1,1-4.49,7.23,6,6,0,0,1,4.49-7.23"/><path class="cls-2" d="M143.6,201.26a6,6,0,1,1-5.94,6.09,6,6,0,0,1,5.94-6.09"/><path class="cls-2" d="M144.53,177a6,6,0,1,1-7.08,4.72,6,6,0,0,1,7.08-4.72"/><path class="cls-2" d="M150.09,154.54a6,6,0,1,1-7.87,3.22,6,6,0,0,1,7.87-3.22"/><path class="cls-2" d="M160.17,133.34a6,6,0,1,1-8.36,1.57,6,6,0,0,1,8.36-1.57"/><path class="cls-2" d="M174.76,114.11a6,6,0,1,1-8.49-.19,6,6,0,0,1,8.49.19"/><path class="cls-2" d="M190.71,100a6,6,0,1,1-8.32-1.75,6,6,0,0,1,8.32,1.75"/><path class="cls-2" d="M208.87,89.07A6,6,0,1,1,201,85.84a6,6,0,0,1,7.87,3.23"/><path class="cls-2" d="M230.35,81.19a6,6,0,1,1-7.08-4.71,6,6,0,0,1,7.08,4.71"/><path class="cls-2" d="M238.43,60.34a5.72,5.72,0,1,1-6.73-4.48,5.73,5.73,0,0,1,6.73,4.48"/><path class="cls-2" d="M266,58.76A5.72,5.72,0,1,1,260.29,53,5.71,5.71,0,0,1,266,58.76"/><path class="cls-2" d="M297.22,63.91A5.71,5.71,0,1,1,293.05,57a5.72,5.72,0,0,1,4.17,6.92"/><path class="cls-2" d="M318.57,72.07a5.72,5.72,0,1,1-3-7.52,5.72,5.72,0,0,1,3,7.52"/><path class="cls-2" d="M305.12,320.54a5.71,5.71,0,1,1,7.43,3.18,5.72,5.72,0,0,1-7.43-3.18"/><path class="cls-2" d="M280.58,326.77a5.72,5.72,0,1,1,6.7,4.5,5.73,5.73,0,0,1-6.7-4.5"/><path class="cls-2" d="M251.81,328.13a5.71,5.71,0,1,1,5.6,5.83,5.71,5.71,0,0,1-5.6-5.83"/><path class="cls-2" d="M226.07,324.07a5.71,5.71,0,1,1,4.38,6.79,5.72,5.72,0,0,1-4.38-6.79"/><path class="cls-2" d="M200.69,314.7a5.72,5.72,0,1,1,2.93,7.53,5.72,5.72,0,0,1-2.93-7.53"/><path class="cls-2" d="M175,298.3a5.71,5.71,0,1,1,1.15,8,5.71,5.71,0,0,1-1.15-8"/><path class="cls-2" d="M159.52,283.64a5.72,5.72,0,1,1-.11,8.06,5.73,5.73,0,0,1,.11-8.06"/><path class="cls-2" d="M144.23,262.92a5.71,5.71,0,1,1-1.66,7.9,5.73,5.73,0,0,1,1.66-7.9"/><path class="cls-2" d="M134.4,243a5.71,5.71,0,1,1-2.93,7.52A5.72,5.72,0,0,1,134.4,243"/><path class="cls-2" d="M127.08,217.23a5.71,5.71,0,1,1-4.35,6.8,5.73,5.73,0,0,1,4.35-6.8"/><path class="cls-2" d="M125,189.25a5.71,5.71,0,1,1-5.65,5.75,5.73,5.73,0,0,1,5.65-5.75"/><path class="cls-2" d="M128.72,162a5.71,5.71,0,1,1-6.72,4.47,5.71,5.71,0,0,1,6.72-4.47"/><path class="cls-2" d="M137.21,137.38a5.71,5.71,0,1,1-7.46,3.1,5.71,5.71,0,0,1,7.46-3.1"/><path class="cls-2" d="M150.45,114.62a5.71,5.71,0,1,1-7.92,1.6,5.74,5.74,0,0,1,7.92-1.6"/><path class="cls-2" d="M170.49,92.48a5.71,5.71,0,1,1-8.07-.18,5.73,5.73,0,0,1,8.07.18"/><path class="cls-2" d="M189.73,78.29a5.71,5.71,0,1,1-7.92-1.6,5.72,5.72,0,0,1,7.92,1.6"/><path class="cls-2" d="M213.07,67a5.71,5.71,0,1,1-7.45-3.09A5.72,5.72,0,0,1,213.07,67"/><path class="cls-2" d="M248.36,44a3.67,3.67,0,1,1-3.66-3.66A3.66,3.66,0,0,1,248.36,44"/><path class="cls-2" d="M262.26,27.75a2.93,2.93,0,1,1-2.93-2.93,2.93,2.93,0,0,1,2.93,2.93"/><path class="cls-2" d="M301.38,33a2.92,2.92,0,1,1-2.15-3.54A2.93,2.93,0,0,1,301.38,33"/><path class="cls-2" d="M331.47,44A2.93,2.93,0,1,1,330,40.11,2.93,2.93,0,0,1,331.47,44"/><path class="cls-2" d="M317.84,348.78a2.92,2.92,0,1,1,5.44-2.12,2.92,2.92,0,1,1-5.44,2.12"/><path class="cls-2" d="M287.57,356.92a2.92,2.92,0,1,1,3.4,2.35,2.91,2.91,0,0,1-3.4-2.35"/><path class="cls-2" d="M253.14,359.12a2.92,2.92,0,1,1,2.85,3,2.92,2.92,0,0,1-2.85-3"/><path class="cls-2" d="M218.5,354a2.93,2.93,0,1,1,2.16,3.54A2.93,2.93,0,0,1,218.5,354"/><path class="cls-2" d="M187.87,342.81a2.93,2.93,0,1,1,1.42,3.89,2.92,2.92,0,0,1-1.42-3.89"/><path class="cls-2" d="M158.33,324.52a2.91,2.91,0,0,1,4.09-.59,2.93,2.93,0,1,1-4.09.59"/><path class="cls-2" d="M136.79,304.53a2.93,2.93,0,1,1-.16,4.14,2.91,2.91,0,0,1,.16-4.14"/><path class="cls-2" d="M119.51,281.69a2.93,2.93,0,1,1-.86,4.06,2.93,2.93,0,0,1,.86-4.06"/><path class="cls-2" d="M107.54,258.9a2.93,2.93,0,1,1-1.48,3.86,2.92,2.92,0,0,1,1.48-3.86"/><path class="cls-2" d="M98,229.26a2.93,2.93,0,1,1-2.17,3.52A2.93,2.93,0,0,1,98,229.26"/><path class="cls-2" d="M94.1,192.72a2.9,2.9,0,0,1,3,2.89,2.93,2.93,0,1,1-3-2.89"/><path class="cls-2" d="M97.14,161.86a2.92,2.92,0,1,1-3.39,2.36,2.91,2.91,0,0,1,3.39-2.36"/><path class="cls-2" d="M107.25,128.78a2.92,2.92,0,1,1-3.81,1.6,2.92,2.92,0,0,1,3.81-1.6"/><path class="cls-2" d="M123.7,99a2.92,2.92,0,1,1-4.07.79A2.92,2.92,0,0,1,123.7,99"/><path class="cls-2" d="M145.92,73.09a2.92,2.92,0,1,1-4.13-.06,2.91,2.91,0,0,1,4.13.06"/><path class="cls-2" d="M171.48,53.26a2.92,2.92,0,1,1-4-.86,2.93,2.93,0,0,1,4,.86"/><path class="cls-2" d="M201.54,38.33a2.92,2.92,0,1,1-3.79-1.66,2.93,2.93,0,0,1,3.79,1.66"/><path class="cls-2" d="M229.25,30.58a2.92,2.92,0,1,1-3.44-2.28,2.92,2.92,0,0,1,3.44,2.28"/><path class="cls-2" d="M282.07,45.18a3.66,3.66,0,1,1-2.75-4.39,3.67,3.67,0,0,1,2.75,4.39"/><path class="cls-2" d="M312.22,53a3.66,3.66,0,1,1-1.78-4.86A3.67,3.67,0,0,1,312.22,53"/><path class="cls-2" d="M335.65,64.08a3.67,3.67,0,1,1-.92-5.09,3.67,3.67,0,0,1,.92,5.09"/><path class="cls-2" d="M327.3,327.45a3.66,3.66,0,1,1,4.78,2,3.66,3.66,0,0,1-4.78-2"/><path class="cls-2" d="M300.2,337.94a3.66,3.66,0,1,1,4.31,2.88,3.65,3.65,0,0,1-4.31-2.88"/><path class="cls-2" d="M269.14,343.18a3.66,3.66,0,1,1,3.6,3.71,3.65,3.65,0,0,1-3.6-3.71"/><path class="cls-2" d="M236.39,341.62a3.66,3.66,0,1,1,2.7,4.41,3.66,3.66,0,0,1-2.7-4.41"/><path class="cls-2" d="M210.12,335a3.66,3.66,0,1,1,6.7,2.95,3.63,3.63,0,0,1-4.81,1.87,3.67,3.67,0,0,1-1.89-4.82"/><path class="cls-2" d="M180.55,320.79a3.66,3.66,0,1,1,.78,5.12,3.65,3.65,0,0,1-.78-5.12"/><path class="cls-2" d="M157.74,303.34a3.66,3.66,0,1,1-.2,5.17,3.65,3.65,0,0,1,.2-5.17"/><path class="cls-2" d="M140.3,284a3.65,3.65,0,1,1-1.11,5.06A3.66,3.66,0,0,1,140.3,284"/><path class="cls-2" d="M126.75,262.62a3.66,3.66,0,1,1-1.93,4.81,3.66,3.66,0,0,1,1.93-4.81"/><path class="cls-2" d="M116.39,237.23a3.66,3.66,0,1,1-2.77,4.36,3.67,3.67,0,0,1,2.77-4.36"/><path class="cls-2" d="M110.33,205.07a3.66,3.66,0,1,1-3.66,3.67,3.66,3.66,0,0,1,3.66-3.67"/><path class="cls-2" d="M110.83,176.69a3.66,3.66,0,1,1-4.29,2.91,3.67,3.67,0,0,1,4.29-2.91"/><path class="cls-2" d="M117.15,147.34a3.66,3.66,0,1,1-4.77,2,3.65,3.65,0,0,1,4.77-2"/><path class="cls-2" d="M129.16,119.93a3.66,3.66,0,1,1-5.07,1,3.68,3.68,0,0,1,5.07-1"/><path class="cls-2" d="M147.83,93.78a3.65,3.65,0,1,1-5.17-.1,3.66,3.66,0,0,1,5.17.1"/><path class="cls-2" d="M169.67,73.67a3.65,3.65,0,1,1-5-1.12,3.66,3.66,0,0,1,5,1.12"/><path class="cls-2" d="M193.51,59a3.65,3.65,0,1,1-4.74-2,3.65,3.65,0,0,1,4.74,2"/><path class="cls-2" d="M221.06,48.63a3.66,3.66,0,1,1-4.28-2.92,3.67,3.67,0,0,1,4.28,2.92"/><path class="cls-3" d="M297.86,213.07C288.61,225.44,276.68,232,261.47,232c-19.53,0-38.32-12.38-38.32-39.82,0-25.05,16.1-39.22,37.13-39.22,19.68,0,27.88,11.78,29.38,14,6.11,8.65,7.46,21.62,7.6,29.08H242.09c2.09,11.78,9.39,18.48,21.17,18.48,12.23,0,17.15-7.15,19.39-10.28Zm-20.28-30.13c-1.65-11.63-8.8-15.65-16.71-15.65-9.54,0-16.1,5.52-18.18,15.65Z"/><path class="cls-3" d="M328.72,155.21v10.58c2.24-3.87,7.16-12.67,23.87-12.22v18.34c-3.88.15-10.59.3-16.11,4.48-7.6,5.81-7.76,13.41-7.76,25.79v27.59H311.43V155.21Z"/><path class="cls-3" d="M409.25,181.6a17.37,17.37,0,0,0-16.85-12.67c-10.29,0-18.5,8.2-18.5,23.11,0,13.42,7,23.26,18.8,23.26,11.33,0,15.65-8.64,17.89-14.61L426,208.74C420.14,224.85,405.37,232,392.4,232c-20.73,0-37-16-37-39.52,0-22.82,16.4-39.52,37.58-39.52,18.78,0,28.33,12.53,32.2,21.18Z"/><polyline class="cls-3" points="25.56 399.08 25.56 405.37 38.46 405.37 38.46 409.7 25.56 409.7 25.56 416.87 40.62 416.87 40.62 421.38 20.63 421.38 20.63 394.6 39.68 394.6 39.68 399.08 25.56 399.08"/><path class="cls-3" d="M61,402.41v19H56.45v-1.94a8.4,8.4,0,0,1-6.15,2.39c-3.11,0-4.58-1.32-5.27-2.2-1.29-1.63-1.29-3.41-1.29-6.25v-11h4.6V413.3a7.58,7.58,0,0,0,.14,1.9A3.35,3.35,0,0,0,52,417.59a4.19,4.19,0,0,0,3.68-2c.68-1.25.72-2.46.76-5.12v-8H61"/><path class="cls-3" d="M70.33,402.41v2.7c.58-1,1.83-3.23,6.07-3.11v4.66a6.92,6.92,0,0,0-4.09,1.15c-1.94,1.48-2,3.41-2,6.55v7H65.94v-19h4.39"/><path class="cls-3" d="M87.38,421.94c-5.92,0-9.86-4.31-9.86-10.11s4-10,9.67-10c5.27,0,9.79,3.68,9.83,10,0,5.91-3.91,10.11-9.64,10.11m-.23-16c-2.85,0-4.89,2.27-4.89,5.76,0,3.91,2.39,6.07,5.12,6.07,3.3,0,5-2.88,4.86-6S90.34,406,87.15,406Z"/><path class="cls-3" d="M100.77,402.41h4.51v1.75a6.73,6.73,0,0,1,5.2-2.31c5.58,0,8.61,5,8.61,10.24,0,5.65-3.52,9.85-8.61,9.85a7.41,7.41,0,0,1-5.2-2.12v7.74h-4.51V402.41m9.11,15.26c2.2,0,4.59-1.52,4.59-5.81,0-4.73-3.31-5.65-4.67-5.65-2.09,0-4.48,1.52-4.55,5.58C105.17,415.69,107.33,417.67,109.88,417.67Z"/><path class="cls-3" d="M140.72,417.14a11.05,11.05,0,0,1-9.26,4.8c-5,0-9.74-3.14-9.74-10.11,0-6.38,4.09-10,9.44-10,5,0,7.1,3,7.47,3.56,1.56,2.2,1.9,5.5,1.94,7.4h-14c.53,3,2.4,4.7,5.39,4.7a5.53,5.53,0,0,0,4.93-2.61l3.87,2.24m-5.16-7.67c-.41-3-2.24-4-4.25-4a4.47,4.47,0,0,0-4.62,4Z"/><path class="cls-3" d="M143.61,408a6.19,6.19,0,0,1,.75-2.85c1.83-3.29,6.34-3.29,7.55-3.29a11.49,11.49,0,0,1,5.7,1.21c2.23,1.37,2.27,3.15,2.27,5.2v10.05a4,4,0,0,0,.84,3.07h-5.39c0-.45-.12-1.21-.12-1.48a8.87,8.87,0,0,1-5.61,1.93c-4.29,0-6.87-2.65-6.87-5.91a5.74,5.74,0,0,1,.61-2.58c1.37-2.73,4.29-3.33,6.11-3.68a42.32,42.32,0,0,0,5.88-1.4c0-.95-.07-2.89-3.23-2.89-1.89,0-2.92.61-3.37,1.22a2.28,2.28,0,0,0-.46,1.67l-4.66-.27m11.72,3.95a13.19,13.19,0,0,1-4,1.14c-1.63.22-3.8.6-3.8,2.61,0,1.48,1.25,2.24,3.08,2.24,2.31,0,3.94-1.06,4.43-2.2a3.75,3.75,0,0,0,.27-1.7Z"/><path class="cls-3" d="M164.7,402.41h4.59v2.24a5.16,5.16,0,0,1,1.48-1.47,7.84,7.84,0,0,1,4.36-1.33,6.24,6.24,0,0,1,5,2.27c1.17,1.6,1.17,3.65,1.17,6.11v11.15h-4.51v-9.67a13.54,13.54,0,0,0-.15-2.88,3.11,3.11,0,0,0-3.11-2.54,4,4,0,0,0-3.5,2.12,10.92,10.92,0,0,0-.72,4.74v8.23H164.7v-19"/><path class="cls-3" d="M197,394.6h8.53c3.57,0,6,0,8.31,1.93a8.18,8.18,0,0,1,3,6.61,7.35,7.35,0,0,1-5.27,7.36l5.95,10.88h-5.72l-5.32-9.93H202v9.93h-5V394.6m5,4.33v8.38h1.74c1.71,0,2.36,0,3.3-.08,1.1,0,4.71-.22,4.71-4.13a3.85,3.85,0,0,0-2.13-3.61c-1.06-.53-2.35-.56-5.31-.56Z"/><path class="cls-3" d="M238.72,417.14a11.05,11.05,0,0,1-9.26,4.8c-5,0-9.75-3.14-9.75-10.11,0-6.38,4.1-10,9.45-10,5,0,7.1,3,7.47,3.56,1.56,2.2,1.9,5.5,1.94,7.4h-14c.53,3,2.39,4.7,5.38,4.7a5.59,5.59,0,0,0,5-2.61l3.86,2.24m-5.16-7.67c-.42-3-2.24-4-4.25-4-2.43,0-4.09,1.4-4.63,4Z"/><path class="cls-3" d="M244,415.77a6.61,6.61,0,0,0,5.46,2.42c2.62,0,3.76-1.28,3.76-2.23,0-1.21-1.37-1.52-2-1.63s-3.75-.73-4.44-.91c-4.51-1.07-5.34-3.68-5.34-5.39,0-3.22,2.92-6.18,8.11-6.18a10.73,10.73,0,0,1,6.26,1.82,8.76,8.76,0,0,1,1.94,1.7l-3.22,3a5.32,5.32,0,0,0-5.17-2.88c-2.16,0-3.15.95-3.15,1.94,0,1.36,1.41,1.74,3.84,2.16,3.95.72,5,.91,6.26,1.86a5.14,5.14,0,0,1,1.94,4c0,2.95-2.66,6.47-8.55,6.47a13,13,0,0,1-9.1-3.37l3.38-2.8"/><path class="cls-3" d="M279.81,417.14a11.06,11.06,0,0,1-9.26,4.8c-5,0-9.74-3.14-9.74-10.11,0-6.38,4.09-10,9.44-10,5,0,7.09,3,7.47,3.56,1.56,2.2,1.9,5.5,1.94,7.4h-14c.53,3,2.39,4.7,5.39,4.7a5.56,5.56,0,0,0,4.93-2.61l3.87,2.24m-5.16-7.67c-.41-3-2.24-4-4.25-4a4.49,4.49,0,0,0-4.63,4Z"/><path class="cls-3" d="M282.7,408a6.19,6.19,0,0,1,.75-2.85c1.83-3.29,6.34-3.29,7.56-3.29a11.43,11.43,0,0,1,5.68,1.21c2.25,1.37,2.28,3.15,2.28,5.2v10.05a4,4,0,0,0,.84,3.07h-5.39c0-.45-.12-1.21-.12-1.48a8.87,8.87,0,0,1-5.61,1.93c-4.29,0-6.87-2.65-6.87-5.91a5.74,5.74,0,0,1,.61-2.58c1.36-2.73,4.29-3.33,6.11-3.68a42.32,42.32,0,0,0,5.88-1.4c0-.95-.08-2.89-3.22-2.89-1.9,0-2.93.61-3.38,1.22a2.24,2.24,0,0,0-.46,1.67L282.7,408m11.72,3.95a13.28,13.28,0,0,1-4,1.14c-1.63.22-3.79.6-3.79,2.61,0,1.48,1.25,2.24,3.07,2.24,2.32,0,4-1.06,4.44-2.2a3.75,3.75,0,0,0,.27-1.7Z"/><path class="cls-3" d="M308.23,402.41v2.7c.56-1,1.82-3.23,6.07-3.11v4.66a7,7,0,0,0-4.1,1.15c-1.93,1.48-2,3.41-2,6.55v7h-4.4v-19h4.4"/><path class="cls-3" d="M328.69,409.13a4.43,4.43,0,0,0-4.29-3.22c-2.62,0-4.71,2.08-4.71,5.88,0,3.41,1.79,5.91,4.79,5.91s4-2.2,4.54-3.72l3.91,2a8.94,8.94,0,0,1-8.53,5.91c-5.27,0-9.41-4.05-9.41-10,0-5.8,4.17-10,9.56-10a8.75,8.75,0,0,1,8.19,5.38l-4.05,1.9"/><path class="cls-3" d="M339.21,394.6v9.75a8.28,8.28,0,0,1,6-2.5,7,7,0,0,1,5.19,2c1.56,1.67,1.59,3.61,1.59,5.77v11.72h-4.47V411a7.8,7.8,0,0,0-.3-2.69,3.22,3.22,0,0,0-3.3-2.09,4.82,4.82,0,0,0-4.6,3.46,12.61,12.61,0,0,0-.14,3v8.72h-4.56V394.6h4.56"/><path class="cls-3" d="M390.19,413.91a14,14,0,0,1-2.31,4,11.83,11.83,0,0,1-9.26,4.13c-7.09,0-12.52-5.19-12.52-14.14,0-9.11,5.88-14,12.71-14,8.35,0,10.32,6.41,10.93,8.27l-5,1.33a6.67,6.67,0,0,0-1-2.66,5.69,5.69,0,0,0-4.82-2.35c-4.36,0-7.4,3.61-7.4,9.33,0,6.11,3.22,9.48,7.43,9.48a6.12,6.12,0,0,0,5.12-2.62,8.63,8.63,0,0,0,1.41-2.76l4.7,2"/><path class="cls-3" d="M402,421.94c-5.91,0-9.87-4.31-9.87-10.11s4-10,9.68-10c5.28,0,9.79,3.68,9.83,10,0,5.91-3.9,10.11-9.64,10.11m-.22-16c-2.85,0-4.9,2.27-4.9,5.76,0,3.91,2.39,6.07,5.12,6.07,3.31,0,5-2.88,4.86-6S405,406,401.77,406Z"/><path class="cls-3" d="M432.53,402.41v19H428v-1.94a8.45,8.45,0,0,1-6.15,2.39c-3.11,0-4.59-1.32-5.28-2.2-1.29-1.63-1.29-3.41-1.29-6.25v-11h4.6V413.3a7.58,7.58,0,0,0,.14,1.9,3.36,3.36,0,0,0,3.54,2.39,4.17,4.17,0,0,0,3.67-2c.68-1.25.72-2.46.77-5.12v-8h4.54"/><path class="cls-3" d="M437.43,402.41H442v2.24a5.16,5.16,0,0,1,1.48-1.47,7.84,7.84,0,0,1,4.36-1.33,6.2,6.2,0,0,1,5,2.27c1.18,1.6,1.18,3.65,1.18,6.11v11.15h-4.52v-9.67a13.54,13.54,0,0,0-.15-2.88,3.1,3.1,0,0,0-3.11-2.54,4,4,0,0,0-3.49,2.12,10.92,10.92,0,0,0-.72,4.74v8.23h-4.59v-19"/><path class="cls-3" d="M471,409.13a4.42,4.42,0,0,0-4.29-3.22c-2.61,0-4.71,2.08-4.71,5.88,0,3.41,1.79,5.91,4.79,5.91s4-2.2,4.55-3.72l3.91,2a9,9,0,0,1-8.54,5.91c-5.27,0-9.41-4.05-9.41-10,0-5.8,4.18-10,9.56-10a8.75,8.75,0,0,1,8.19,5.38l-4,1.9"/><path class="cls-3" d="M482.31,394.87v4.59H477.8v-4.59h4.51m-4.51,7.54h4.51v19H477.8Z"/><rect class="cls-3" x="487.28" y="394.6" width="4.59" height="26.78"/><path class="cls-3" d="M20.83,474.54V456h11.5v1.77H22.8v6.53h8.12v1.77H22.8v6.69h9.53v1.77Z"/><path class="cls-3" d="M40.13,474.7a7.07,7.07,0,0,1-5.26-1.85l1.25-1.25a5.25,5.25,0,0,0,4,1.48c2.11,0,3.41-.75,3.41-2.26,0-1.12-.65-1.75-2.14-1.88l-2.1-.18c-2.5-.21-3.83-1.33-3.83-3.43,0-2.35,2-3.75,4.71-3.75A7.25,7.25,0,0,1,44.76,463l-1.22,1.22a5.51,5.51,0,0,0-3.41-1c-1.88,0-2.87.8-2.87,2.11,0,1.09.63,1.74,2.24,1.87l2.06.18c2.23.21,3.77,1.07,3.77,3.46S43.22,474.7,40.13,474.7Z"/><path class="cls-3" d="M52.32,474.54A3.15,3.15,0,0,1,49,471.1v-7.86H47.43v-1.43H49v-4h1.88v4h2.73v1.43H50.92v7.81c0,1.17.55,1.87,1.74,1.87h1v1.62Z"/><path class="cls-3" d="M64.42,474.54v-1.22a4.51,4.51,0,0,1-3.7,1.38c-1.77,0-2.81-.34-3.61-1.18a3.65,3.65,0,0,1-1-2.6c0-2.24,1.56-3.69,4.43-3.69h3.85V466c0-1.87-.94-2.81-3.28-2.81a3.37,3.37,0,0,0-3.23,1.46l-1.27-1.17c1.14-1.48,2.44-1.9,4.53-1.9,3.43,0,5.12,1.48,5.12,4.27v8.69Zm0-5.91H60.83c-1.93,0-2.87.78-2.87,2.27s.91,2.18,2.95,2.18a3.75,3.75,0,0,0,2.86-.86,3,3,0,0,0,.65-2.21Z"/><path class="cls-3" d="M79.45,473.58a4.49,4.49,0,0,1-3.12,1.12,4.09,4.09,0,0,1-3.62-1.7v1.54H70.84V456h1.87v7.21a4.11,4.11,0,0,1,3.62-1.64,4.45,4.45,0,0,1,3.12,1.12c1.3,1.3,1.56,3.43,1.56,5.44S80.75,472.28,79.45,473.58Zm-3.51-10.34c-2.79,0-3.23,2.4-3.23,4.9s.44,4.89,3.23,4.89,3.2-2.39,3.2-4.89S78.72,463.24,75.94,463.24Z"/><path class="cls-3" d="M88.21,474.54c-2.23,0-3.25-1.46-3.25-3.41V456h1.87v15c0,1.25.42,1.87,1.72,1.87h1v1.62Z"/><path class="cls-3" d="M92.63,458.09V456h2.11v2.11Zm.11,16.45v-12.8h1.87v12.8Z"/><path class="cls-3" d="M103.35,474.7a7.09,7.09,0,0,1-5.26-1.85l1.25-1.25a5.28,5.28,0,0,0,4,1.48c2.11,0,3.41-.75,3.41-2.26,0-1.12-.65-1.75-2.13-1.88l-2.11-.18c-2.5-.21-3.82-1.33-3.82-3.43,0-2.35,2-3.75,4.71-3.75A7.2,7.2,0,0,1,108,463l-1.22,1.22a5.47,5.47,0,0,0-3.41-1c-1.87,0-2.86.8-2.86,2.11,0,1.09.62,1.74,2.24,1.87l2,.18c2.24.21,3.77,1.07,3.77,3.46S106.45,474.7,103.35,474.7Z"/><path class="cls-3" d="M120.41,474.54v-7.91c0-2.24-1.19-3.39-3.12-3.39s-3.2,1.18-3.2,3.39v7.91h-1.87V456h1.87v7.13a4.56,4.56,0,0,1,3.59-1.56c2.89,0,4.61,1.85,4.61,4.73v8.23Z"/><path class="cls-3" d="M128,468.63c0,2.81,1.32,4.43,3.77,4.43a4.24,4.24,0,0,0,3.36-1.46l1.27,1.12a5.87,5.87,0,0,1-4.68,2c-3.39,0-5.6-2-5.6-6.56,0-4.14,2-6.56,5.26-6.56s5.26,2.39,5.26,6.19v.86Zm6.37-3.54a3.29,3.29,0,0,0-6,0,5.31,5.31,0,0,0-.39,2.14h6.76A5.31,5.31,0,0,0,134.38,465.09Z"/><path class="cls-3" d="M148.27,474.54V473a4.14,4.14,0,0,1-3.64,1.7,4.52,4.52,0,0,1-3.13-1.12c-1.3-1.3-1.56-3.44-1.56-5.44s.26-4.14,1.56-5.44a4.47,4.47,0,0,1,3.13-1.12,4.1,4.1,0,0,1,3.61,1.64V456h1.88v18.53ZM145,463.24c-2.78,0-3.22,2.4-3.22,4.9S142.26,473,145,473s3.2-2.39,3.2-4.89S147.83,463.24,145,463.24Z"/><path class="cls-3" d="M169.88,473.58a4.47,4.47,0,0,1-3.12,1.12,4.1,4.1,0,0,1-3.62-1.7v1.54h-1.87V456h1.87v7.21a4.12,4.12,0,0,1,3.62-1.64,4.43,4.43,0,0,1,3.12,1.12c1.3,1.3,1.56,3.43,1.56,5.44S171.18,472.28,169.88,473.58Zm-3.51-10.34c-2.78,0-3.23,2.4-3.23,4.9s.45,4.89,3.23,4.89,3.2-2.39,3.2-4.89S169.15,463.24,166.37,463.24Z"/><path class="cls-3" d="M178.62,477.63a3.8,3.8,0,0,1-.91,1.52,3.53,3.53,0,0,1-2.5.88h-.81v-1.67H175c1.3,0,1.69-.41,2.11-1.58l.9-2.5-4.6-12.54h2L178.93,472l3.49-10.27h2Z"/><path class="cls-3" d="M197.14,474.54a3.14,3.14,0,0,1-3.28-3.44v-7.86h-1.61v-1.43h1.61v-4h1.87v4h2.73v1.43h-2.73v7.81c0,1.17.55,1.87,1.75,1.87h1v1.62Z"/><path class="cls-3" d="M210.38,474.54v-7.91c0-2.24-1.2-3.39-3.13-3.39s-3.2,1.18-3.2,3.39v7.91h-1.87V456h1.87v7.13a4.56,4.56,0,0,1,3.59-1.56c2.89,0,4.61,1.85,4.61,4.73v8.23Z"/><path class="cls-3" d="M218,468.63c0,2.81,1.33,4.43,3.77,4.43a4.24,4.24,0,0,0,3.36-1.46l1.27,1.12a5.85,5.85,0,0,1-4.68,2c-3.38,0-5.59-2-5.59-6.56,0-4.14,2-6.56,5.25-6.56s5.26,2.39,5.26,6.19v.86Zm6.37-3.54a3.29,3.29,0,0,0-6,0,5.31,5.31,0,0,0-.39,2.14h6.76A5.31,5.31,0,0,0,224.34,465.09Z"/><path class="cls-3" d="M237.4,474.54V456h11.5v1.77h-9.52v6.53h8.11v1.77h-8.11v6.69h9.52v1.77Z"/><path class="cls-3" d="M260.76,474.54v-1.43a4.7,4.7,0,0,1-3.62,1.59,4.58,4.58,0,0,1-3.31-1.2,4.79,4.79,0,0,1-1.3-3.59v-8.17h1.88v7.88c0,2.26,1.19,3.41,3.12,3.41s3.2-1.17,3.2-3.41v-7.88h1.87v12.8Z"/><path class="cls-3" d="M274.44,464.18a2.7,2.7,0,0,0-2.22-.94,3.13,3.13,0,0,0-3.07,3.44v7.86h-1.87v-12.8h1.87v1.56a4.31,4.31,0,0,1,3.59-1.72,3.92,3.92,0,0,1,3.08,1.2Z"/><path class="cls-3" d="M285.56,473.24a5.34,5.34,0,0,1-7.34,0c-1.3-1.33-1.56-3.13-1.56-5.1s.26-3.78,1.56-5.1a5.34,5.34,0,0,1,7.34,0c1.31,1.32,1.56,3.12,1.56,5.1S286.87,471.91,285.56,473.24Zm-1.32-9.06a3.28,3.28,0,0,0-2.34-.94,3.21,3.21,0,0,0-2.32.94c-.94.94-1,2.53-1,4s.1,3,1,3.95a3.21,3.21,0,0,0,2.32.94,3.28,3.28,0,0,0,2.34-.94c.93-.93,1-2.52,1-3.95S285.17,465.12,284.24,464.18Z"/><path class="cls-3" d="M299.74,473.58a4.5,4.5,0,0,1-3.13,1.12A4.13,4.13,0,0,1,293,473v7.23h-1.87V461.74H293v1.5a4.07,4.07,0,0,1,3.61-1.66,4.45,4.45,0,0,1,3.13,1.12c1.3,1.3,1.56,3.43,1.56,5.44S301,472.28,299.74,473.58Zm-3.51-10.34c-2.79,0-3.23,2.4-3.23,4.9s.44,4.89,3.23,4.89,3.2-2.39,3.2-4.89S299,463.24,296.23,463.24Z"/><path class="cls-3" d="M306.47,468.63c0,2.81,1.33,4.43,3.78,4.43a4.21,4.21,0,0,0,3.35-1.46l1.28,1.12a5.87,5.87,0,0,1-4.69,2c-3.38,0-5.59-2-5.59-6.56,0-4.14,2-6.56,5.25-6.56s5.26,2.39,5.26,6.19v.86Zm6.38-3.54a3.3,3.3,0,0,0-6,0,5.31,5.31,0,0,0-.39,2.14h6.77A5.68,5.68,0,0,0,312.85,465.09Z"/><path class="cls-3" d="M326.35,474.54v-1.22a4.52,4.52,0,0,1-3.7,1.38c-1.77,0-2.81-.34-3.62-1.18a3.68,3.68,0,0,1-1-2.6c0-2.24,1.56-3.69,4.43-3.69h3.85V466c0-1.87-.94-2.81-3.28-2.81a3.37,3.37,0,0,0-3.23,1.46l-1.27-1.17c1.14-1.48,2.44-1.9,4.52-1.9,3.44,0,5.13,1.48,5.13,4.27v8.69Zm0-5.91h-3.6c-1.92,0-2.86.78-2.86,2.27s.91,2.18,2.94,2.18a3.72,3.72,0,0,0,2.86-.86,2.91,2.91,0,0,0,.66-2.21Z"/><path class="cls-3" d="M341,474.54v-7.88c0-2.27-1.22-3.42-3.15-3.42s-3.17,1.18-3.17,3.42v7.88h-1.88v-12.8h1.88v1.4a4.62,4.62,0,0,1,3.59-1.56,4.49,4.49,0,0,1,3.28,1.2,4.71,4.71,0,0,1,1.32,3.56v8.2Z"/><path class="cls-3" d="M360,474.7a6.58,6.58,0,0,1-4.73-1.93c-1.75-1.75-1.75-3.57-1.75-7.49s0-5.76,1.75-7.5a6.57,6.57,0,0,1,4.73-1.92,6.24,6.24,0,0,1,6.43,5.51h-2a4.38,4.38,0,0,0-4.4-3.75,4.45,4.45,0,0,0-3.2,1.31c-1.17,1.19-1.3,2.47-1.3,6.35s.13,5.15,1.3,6.35a4.47,4.47,0,0,0,3.2,1.29,4.42,4.42,0,0,0,4.45-3.74h2A6.26,6.26,0,0,1,360,474.7Z"/><path class="cls-3" d="M378.65,473.24a5.34,5.34,0,0,1-7.34,0c-1.3-1.33-1.56-3.13-1.56-5.1s.26-3.78,1.56-5.1a5.34,5.34,0,0,1,7.34,0c1.3,1.32,1.56,3.12,1.56,5.1S380,471.91,378.65,473.24Zm-1.33-9.06a3.28,3.28,0,0,0-2.34-.94,3.23,3.23,0,0,0-2.32.94c-.94.94-1,2.53-1,4s.1,3,1,3.95A3.23,3.23,0,0,0,375,473a3.28,3.28,0,0,0,2.34-.94c.94-.93,1-2.52,1-3.95S378.26,465.12,377.32,464.18Z"/><path class="cls-3" d="M400.65,474.54v-7.88c0-2.27-1.22-3.42-3.14-3.42a3,3,0,0,0-3.2,3.21v8.09h-1.88v-7.88c0-2.27-1.22-3.42-3.14-3.42s-3.21,1.18-3.21,3.42v7.88h-1.87v-12.8h1.87v1.4a4.69,4.69,0,0,1,3.62-1.56,4.23,4.23,0,0,1,3.93,2.13,4.91,4.91,0,0,1,4.21-2.13,4.63,4.63,0,0,1,3.31,1.2,4.75,4.75,0,0,1,1.38,3.56v8.2Z"/><path class="cls-3" d="M423.52,474.54v-7.88c0-2.27-1.23-3.42-3.15-3.42a3,3,0,0,0-3.2,3.21v8.09H415.3v-7.88c0-2.27-1.23-3.42-3.16-3.42s-3.2,1.18-3.2,3.42v7.88h-1.87v-12.8h1.87v1.4a4.69,4.69,0,0,1,3.62-1.56,4.23,4.23,0,0,1,3.93,2.13,4.91,4.91,0,0,1,4.22-2.13,4.63,4.63,0,0,1,3.3,1.2,4.75,4.75,0,0,1,1.38,3.56v8.2Z"/><path class="cls-3" d="M429.83,458.09V456h2.11v2.11Zm.1,16.45v-12.8h1.87v12.8Z"/><path class="cls-3" d="M440.55,474.7a7.07,7.07,0,0,1-5.26-1.85l1.25-1.25a5.25,5.25,0,0,0,4,1.48c2.11,0,3.41-.75,3.41-2.26,0-1.12-.65-1.75-2.14-1.88l-2.1-.18c-2.5-.21-3.83-1.33-3.83-3.43,0-2.35,2-3.75,4.71-3.75a7.23,7.23,0,0,1,4.61,1.38L444,464.18a5.46,5.46,0,0,0-3.4-1c-1.88,0-2.87.8-2.87,2.11,0,1.09.63,1.74,2.24,1.87l2.06.18c2.23.21,3.77,1.07,3.77,3.46S443.64,474.7,440.55,474.7Z"/><path class="cls-3" d="M453,474.7a7.09,7.09,0,0,1-5.26-1.85L449,471.6a5.25,5.25,0,0,0,4,1.48c2.11,0,3.41-.75,3.41-2.26,0-1.12-.65-1.75-2.14-1.88l-2.1-.18c-2.5-.21-3.83-1.33-3.83-3.43,0-2.35,2-3.75,4.71-3.75a7.21,7.21,0,0,1,4.61,1.38l-1.22,1.22a5.47,5.47,0,0,0-3.41-1c-1.88,0-2.86.8-2.86,2.11,0,1.09.62,1.74,2.23,1.87l2.06.18c2.24.21,3.77,1.07,3.77,3.46S456.12,474.7,453,474.7Z"/><path class="cls-3" d="M461.79,458.09V456h2.11v2.11Zm.1,16.45v-12.8h1.88v12.8Z"/><path class="cls-3" d="M476.7,473.24a5.34,5.34,0,0,1-7.34,0c-1.3-1.33-1.56-3.13-1.56-5.1s.26-3.78,1.56-5.1a5.34,5.34,0,0,1,7.34,0c1.3,1.32,1.56,3.12,1.56,5.1S478,471.91,476.7,473.24Zm-1.33-9.06a3.28,3.28,0,0,0-2.34-.94,3.23,3.23,0,0,0-2.32.94c-.94.94-1,2.53-1,4s.1,3,1,3.95A3.23,3.23,0,0,0,473,473a3.28,3.28,0,0,0,2.34-.94c.94-.93,1-2.52,1-3.95S476.31,465.12,475.37,464.18Z"/><path class="cls-3" d="M490.45,474.54v-7.88c0-2.27-1.22-3.42-3.14-3.42s-3.18,1.18-3.18,3.42v7.88h-1.87v-12.8h1.87v1.4a4.62,4.62,0,0,1,3.59-1.56,4.49,4.49,0,0,1,3.28,1.2,4.72,4.72,0,0,1,1.33,3.56v8.2Z"/></g></svg>