<svg xmlns="http://www.w3.org/2000/svg" viewBox="0 0 3096.75 701"><defs><style>.cls-1{font-size:139.56px;fill:#fff;font-family:Lato-Bold, Lato;font-weight:700;}.cls-2{letter-spacing:-0.01em;}.cls-3{letter-spacing:-0.02em;}.cls-4{letter-spacing:-0.05em;}.cls-5{fill:none;stroke:#fff;stroke-miterlimit:10;stroke-width:7.64px;}</style></defs><title>READCHINA logos</title><g id="Layer_12" data-name="Layer 12"><text class="cls-1" transform="translate(1161.22 219.41)">READCHINA: <tspan x="0" y="167.47">The </tspan><tspan class="cls-2" x="263.9" y="167.47">P</tspan><tspan x="349.04" y="167.47">olitics of Reading in </tspan><tspan x="0" y="334.95">the </tspan><tspan class="cls-3" x="234.88" y="334.95">P</tspan><tspan x="320.01" y="334.95">eopl</tspan><tspan class="cls-4" x="590.68" y="334.95">e</tspan><tspan x="658.58" y="334.95">’s Republic of China</tspan></text><path class="cls-5" d="M266.93,351.05c69.7-4,124.34-61.87,124.34-132.59A132.46,132.46,0,0,0,258.82,85.65,132.46,132.46,0,0,1,391.27,218.46c0,70.72-54.64,128.58-124.34,132.59C408.37,356.18,521.76,473,522.34,615.14l47.73-.84c0-142.67-113.62-260-255.42-265.16,69.7-4,124.34-61.87,124.34-132.59A132.46,132.46,0,0,0,306.54,83.74L290.81,84A132.41,132.41,0,0,1,415.13,216.55c0,70.72-54.64,128.58-124.34,132.59,141.8,5.15,255.41,122.49,255.42,265.16,0-142.67-113.62-260-255.42-265.16,69.7-4,124.34-61.87,124.34-132.59A132.41,132.41,0,0,0,290.81,84L88.93,87.56A132.45,132.45,0,0,1,221.38,220.37C221.38,291.09,166.74,349,97.05,353c141.79,5.14,255.4,122.49,255.42,265.16l24.78-.43C376,476.08,262.88,360,121.86,354.86c69.7-4,124.34-61.86,124.34-132.58A132.45,132.45,0,0,0,113.75,89.47,132.45,132.45,0,0,1,246.2,222.28c0,70.72-54.64,128.57-124.34,132.58C262.88,360,376,476.08,377.25,617.69l23.86-.42C399.64,475.85,286.6,360,145.72,354.86c69.7-4,124.34-61.86,124.34-132.58A132.45,132.45,0,0,0,137.61,89.47,132.45,132.45,0,0,1,270.06,222.28c0,70.72-54.64,128.57-124.34,132.58,140.88,5.12,253.92,121,255.39,262.41l23.88-.42C424.3,474.75,311,358.09,169.58,353c69.7-4,124.34-61.87,124.34-132.59A132.45,132.45,0,0,0,161.47,87.56,132.45,132.45,0,0,1,293.92,220.37c0,70.72-54.64,128.58-124.34,132.59C311,358.09,424.3,474.75,425,616.85l24.79-.44C448.37,475,335.31,359,194.4,353.91c69.69-4,124.33-61.87,124.33-132.58A132.46,132.46,0,0,0,186.28,88.51,132.46,132.46,0,0,1,318.73,221.33c0,70.71-54.64,128.57-124.33,132.58,140.91,5.12,254,121,255.38,262.5l24.85-.43c-.14-142.57-113.7-259.79-255.42-264.93,69.7-4,124.34-61.87,124.34-132.59A132.46,132.46,0,0,0,211.1,85.65,132.46,132.46,0,0,1,343.55,218.46c0,70.72-54.64,128.58-124.34,132.59C360.93,356.19,474.49,473.41,474.63,616l23.85-.42c-.36-142.38-113.83-259.37-255.41-264.51,69.7-4,124.34-61.87,124.34-132.59A132.46,132.46,0,0,0,235,85.65,132.46,132.46,0,0,1,367.41,218.46c0,70.72-54.64,128.58-124.34,132.59,141.58,5.14,255.05,122.13,255.41,264.51l23.86-.42C521.76,473,408.37,356.18,266.93,351.05Z"/><path class="cls-5" d="M666.23,348.34c0-139.63,107.49-254.08,244.1-264.7l-22.45-.1C750.6,93.48,642.37,208.23,642.37,348.34c0,146.64,118.51,265.51,264.84,265.51l3.27,0-3.27,0c-146.33,0-264.84-118.87-264.84-265.51,0-140.11,108.23-254.86,245.51-264.8l-22.3-.09c-138,9.17-247.07,124.25-247.07,264.89C618.51,495,737,613.85,883.35,613.85l3.27,0-3.27,0C737,613.85,618.51,495,618.51,348.34c0-140.64,109-255.72,247.07-264.89l-22.3-.1c-138.75,8.41-248.63,123.82-248.63,265,0,146.64,118.51,265.51,264.84,265.51l3.27,0-3.27,0c-146.33,0-264.84-118.87-264.84-265.51,0-141.17,109.88-256.58,248.63-265l-7.62,0c-146.32,0-264.87,118.87-264.87,265.51S689.3,614.33,835.63,614.33c1.12,0,2.2,0,3.27,0l92.64.42c-3.37-.3-6.73-.64-10.07-1.06C779.6,608.59,666.23,491.76,666.23,348.34Z"/><path class="cls-5" d="M785.53,349.77c0-146.63,118.55-265.5,264.87-265.5l-140.07-.63c-136.61,10.62-244.1,125.07-244.1,264.7,0,143.42,113.37,260.25,255.24,265.32C791,597.17,690.09,485.53,690.09,350.25,690.09,203.62,808.64,84.74,955,84.74c-146.32,0-264.87,118.88-264.87,265.51,0,135.28,100.87,246.92,231.38,263.41,3.19.11,6.38.19,9.6.19l3.27,0-3.27,0c-3.22,0-6.41-.08-9.6-.19,3.34.42,6.7.76,10.07,1.06l32.44.14c-139.43-7.7-250-123.43-250-265.09,0-146.63,118.55-265.5,264.87-265.5C832.5,84.27,714,203.14,714,349.77c0,141.66,110.6,257.39,250,265.09l26.13.12c-140.5-6.56-252.3-122.78-252.3-265.21,0-146.63,118.55-265.5,264.87-265.5-146.32,0-264.87,118.87-264.87,265.5,0,142.43,111.8,258.65,252.3,265.21l27,.12c-142-5-255.45-121.84-255.45-265.33,0-146.63,118.55-265.5,264.87-265.5-146.32,0-264.87,118.87-264.87,265.5,0,143.49,113.48,260.37,255.45,265.33l28.89.13C901.7,612.89,785.53,495,785.53,349.77Z"/><path class="cls-5" d="M1053.64,615.26l-7.63,0c1.45,0,2.9,0,4.36,0Z"/></g></svg>