<svg xmlns="http://www.w3.org/2000/svg" viewBox="0 0 1000 1000"><defs><style>.cls-1,.cls-2{fill:none;}.cls-2{stroke:#fff;stroke-miterlimit:10;stroke-width:5.94px;}</style></defs><title>READCHINA logos</title><g id="Layer_7" data-name="Layer 7"><rect class="cls-1" x="-1.34" width="1000" height="1000"/></g><g id="Layer_15" data-name="Layer 15"><path class="cls-2" d="M263.91,500.09C318.09,497,360.57,452,360.57,397a103,103,0,0,0-103-103.25A103,103,0,0,1,360.57,397c0,55-42.48,100-96.66,103.08,110,4,198.11,94.78,198.56,205.32l37.11-.65c0-110.92-88.34-202.15-198.57-206.15,54.18-3.12,96.66-48.1,96.66-103.08a103,103,0,0,0-103-103.25l-12.23.21a103,103,0,0,1,96.65,103c0,55-42.48,100-96.66,103.08C392.69,502.61,481,593.84,481,704.76c0-110.92-88.34-202.15-198.57-206.15,54.18-3.12,96.66-48.1,96.66-103.08a103,103,0,0,0-96.65-103l-157,2.75a103,103,0,0,1,103,103.26c0,55-42.49,100-96.67,103.07,110.24,4,198.56,95.23,198.58,206.15l19.26-.33c-1-110.1-88.91-200.35-198.55-204.33,54.19-3.12,96.67-48.1,96.67-103.08a103,103,0,0,0-103-103.25A103,103,0,0,1,247.79,400c0,55-42.48,100-96.67,103.08,109.64,4,197.58,94.23,198.55,204.33l18.55-.33c-1.14-109.95-89-200-198.55-204,54.19-3.12,96.67-48.1,96.67-103.08a103,103,0,0,0-103-103.25A103,103,0,0,1,266.34,400c0,55-42.48,100-96.67,103.08,109.53,4,197.41,94.05,198.55,204l18.56-.33c-.53-110.47-88.65-201.17-198.56-205.16,54.19-3.11,96.67-48.09,96.67-103.07a103,103,0,0,0-103-103.26,103,103,0,0,1,103,103.26c0,55-42.48,100-96.67,103.07,109.91,4,198,94.69,198.56,205.16l19.28-.33c-1.1-110-89-200.11-198.55-204.08,54.19-3.12,96.67-48.1,96.67-103.08A103,103,0,0,0,201.21,296a103,103,0,0,1,103,103.25c0,55-42.48,100-96.67,103.08,109.56,4,197.45,94.1,198.55,204.08l19.32-.34c-.11-110.84-88.4-202-198.57-206C281,497,323.47,452,323.47,397a103,103,0,0,0-103-103.25A103,103,0,0,1,323.47,397c0,55-42.48,100-96.66,103.08,110.17,4,198.46,95.13,198.57,206l18.54-.33C443.64,595,355.43,504.09,245.36,500.09,299.54,497,342,452,342,397a103,103,0,0,0-103-103.25A103,103,0,0,1,342,397c0,55-42.48,100-96.66,103.08,110.07,4,198.28,94.95,198.56,205.64l18.55-.32C462,594.87,373.87,504.08,263.91,500.09Z"/><path class="cls-2" d="M574.33,498c0-108.55,83.57-197.53,189.78-205.79l-17.46-.08C639.93,299.85,555.78,389.06,555.78,498c0,114,92.14,206.41,205.9,206.41h0C647.92,704.4,555.78,612,555.78,498c0-108.93,84.15-198.14,190.87-205.87l-17.33-.07C622,299.18,537.23,388.65,537.23,498c0,114,92.14,206.41,205.9,206.41h0C629.37,704.4,537.23,612,537.23,498c0-109.34,84.79-198.81,192.09-205.94L712,292c-107.87,6.54-193.3,96.27-193.3,206,0,114,92.14,206.41,205.9,206.41h0C610.82,704.4,518.68,612,518.68,498c0-109.75,85.43-199.48,193.3-206l-5.92,0c-113.76,0-205.93,92.42-205.93,206.42S592.27,704.77,706,704.77h2.54l72,.32c-2.62-.23-5.24-.5-7.83-.83C662.47,700.32,574.33,609.48,574.33,498Z"/><path class="cls-2" d="M667.08,499.1c0-114,92.17-206.42,205.93-206.42l-108.9-.48C657.9,300.46,574.33,389.44,574.33,498c0,111.49,88.14,202.33,198.44,206.26C671.3,691.44,592.88,604.64,592.88,499.47c0-114,92.17-206.41,205.93-206.41-113.76,0-205.93,92.41-205.93,206.41,0,105.17,78.42,192,179.89,204.78,2.48.09,5,.15,7.46.15h0c-2.5,0-5-.06-7.46-.15,2.59.33,5.21.6,7.83.83l25.22.11c-108.4-6-194.39-96-194.39-206.09,0-114,92.17-206.42,205.93-206.42-113.76,0-205.93,92.42-205.93,206.42,0,110.13,86,200.1,194.39,206.09l20.31.09C716.91,700.18,630,609.83,630,499.1c0-114,92.17-206.42,205.93-206.42C722.15,292.68,630,385.1,630,499.1c0,110.73,86.93,201.08,196.15,206.18l21,.09c-110.37-3.85-198.6-94.72-198.6-206.27,0-114,92.17-206.42,205.93-206.42-113.76,0-205.93,92.42-205.93,206.42,0,111.55,88.23,202.42,198.6,206.27l22.46.1C757.4,703.66,667.08,612,667.08,499.1Z"/><path class="cls-2" d="M875.52,705.5l-5.93,0c1.13,0,2.26,0,3.39,0Z"/></g></svg>