<svg xmlns="http://www.w3.org/2000/svg" xmlns:xlink="http://www.w3.org/1999/xlink" viewBox="0 0 4069.16 778.4"><defs><style>.cls-1{font-size:139.56px;font-family:Lato-Bold, Lato;font-weight:700;}.cls-1,.cls-10{fill:#fff;}.cls-2{letter-spacing:-0.01em;}.cls-3{letter-spacing:-0.02em;}.cls-4{letter-spacing:-0.05em;}.cls-5,.cls-6,.cls-7{fill:none;}.cls-5,.cls-7{stroke:#fff;stroke-miterlimit:10;}.cls-5{stroke-width:7.64px;}.cls-7{stroke-width:10px;}.cls-8{fill:url(#linear-gradient);}.cls-9{fill:#f26522;}</style><linearGradient id="linear-gradient" x1="417.49" y1="304.08" x2="599.37" y2="304.08" gradientUnits="userSpaceOnUse"><stop offset="0" stop-color="#f26522"/><stop offset="1" stop-color="#fff"/></linearGradient></defs><title>READCHINA-logo-color-white</title><g id="Layer_9" data-name="Layer 9"><text class="cls-1" transform="translate(2102.67 238.77)">READCHINA: <tspan x="0" y="167.47">The </tspan><tspan class="cls-2" x="263.9" y="167.47">P</tspan><tspan x="349.04" y="167.47">olitics of Reading in </tspan><tspan x="0" y="334.95">the </tspan><tspan class="cls-3" x="234.88" y="334.95">P</tspan><tspan x="320.01" y="334.95">eopl</tspan><tspan class="cls-4" x="590.68" y="334.95">e</tspan><tspan x="658.58" y="334.95">’s Republic of China</tspan></text><path class="cls-5" d="M1208.38,370.4c69.69-4,124.34-61.86,124.34-132.58A132.45,132.45,0,0,0,1200.27,105a132.45,132.45,0,0,1,132.45,132.81c0,70.72-54.65,128.57-124.34,132.58,141.44,5.14,254.83,121.91,255.41,264.09l47.73-.83c0-142.67-113.62-260-255.42-265.17,69.69-4,124.34-61.86,124.34-132.58A132.45,132.45,0,0,0,1248,103.1l-15.73.27a132.43,132.43,0,0,1,124.32,132.54c0,70.72-54.65,128.57-124.34,132.58,141.8,5.15,255.41,122.5,255.42,265.17,0-142.67-113.62-260-255.42-265.17,69.69-4,124.34-61.86,124.34-132.58a132.43,132.43,0,0,0-124.32-132.54l-201.88,3.54a132.46,132.46,0,0,1,132.45,132.82c0,70.71-54.64,128.57-124.34,132.58,141.8,5.15,255.41,122.49,255.43,265.17l24.78-.44c-1.25-141.61-114.37-257.7-255.39-262.82,69.69-4,124.34-61.87,124.34-132.59A132.46,132.46,0,0,0,1055.2,108.82a132.46,132.46,0,0,1,132.45,132.81c0,70.72-54.65,128.58-124.34,132.59,141,5.12,254.14,121.21,255.39,262.82l23.86-.42c-1.47-141.42-114.51-257.29-255.39-262.4,69.69-4,124.34-61.87,124.34-132.59a132.46,132.46,0,0,0-132.45-132.81,132.46,132.46,0,0,1,132.45,132.81c0,70.72-54.65,128.58-124.34,132.59,140.88,5.11,253.92,121,255.39,262.4l23.88-.42c-.69-142.09-114-258.76-255.41-263.89,69.69-4,124.34-61.87,124.34-132.58a132.46,132.46,0,0,0-132.45-132.82,132.46,132.46,0,0,1,132.45,132.82c0,70.71-54.65,128.57-124.34,132.58,141.37,5.13,254.72,121.8,255.41,263.89l24.79-.43c-1.42-141.47-114.47-257.39-255.39-262.51,69.7-4,124.34-61.86,124.34-132.58a132.45,132.45,0,0,0-132.45-132.81,132.45,132.45,0,0,1,132.45,132.81c0,70.72-54.64,128.58-124.34,132.58,140.92,5.12,254,121,255.39,262.51l24.85-.44c-.14-142.56-113.7-259.78-255.42-264.93,69.69-4,124.34-61.86,124.34-132.58A132.45,132.45,0,0,0,1152.54,105,132.45,132.45,0,0,1,1285,237.82c0,70.72-54.65,128.57-124.34,132.58,141.72,5.15,255.28,122.37,255.42,264.93l23.85-.42c-.36-142.37-113.83-259.37-255.41-264.51,69.69-4,124.34-61.86,124.34-132.58A132.45,132.45,0,0,0,1176.4,105a132.45,132.45,0,0,1,132.46,132.81c0,70.72-54.65,128.57-124.34,132.58,141.58,5.14,255,122.14,255.41,264.51l23.86-.42C1463.21,492.31,1349.82,375.54,1208.38,370.4Z"/><path class="cls-5" d="M1607.68,367.7c0-139.63,107.49-254.08,244.09-264.7l-22.44-.1c-137.28,9.94-245.51,124.69-245.51,264.8,0,146.63,118.51,265.5,264.84,265.5,1.12,0,2.2,0,3.26,0-1.06,0-2.14,0-3.26,0-146.33,0-264.84-118.87-264.84-265.5,0-140.11,108.23-254.86,245.51-264.8l-22.3-.1C1669,112,1560,227.06,1560,367.7c0,146.63,118.52,265.5,264.84,265.5,1.13,0,2.21,0,3.27,0-1.06,0-2.14,0-3.27,0C1678.47,633.2,1560,514.33,1560,367.7,1560,227.06,1669,112,1807,102.8l-22.3-.1c-138.76,8.41-248.64,123.83-248.64,265,0,146.63,118.52,265.5,264.84,265.5,1.13,0,2.21,0,3.27,0-1.06,0-2.14,0-3.27,0-146.32,0-264.84-118.87-264.84-265.5,0-141.17,109.88-256.59,248.64-265l-7.62,0c-146.33,0-264.88,118.87-264.88,265.5s118.52,265.51,264.84,265.51l3.27,0,92.65.41c-3.37-.29-6.74-.64-10.07-1.06C1721.05,628,1607.68,511.11,1607.68,367.7Z"/><path class="cls-5" d="M1727,369.13c0-146.64,118.55-265.51,264.87-265.51L1851.77,103c-136.6,10.62-244.09,125.07-244.09,264.7,0,143.41,113.37,260.25,255.24,265.31-130.52-16.48-231.38-128.13-231.38-263.4,0-146.64,118.55-265.51,264.87-265.51-146.32,0-264.87,118.87-264.87,265.51,0,135.27,100.86,246.92,231.38,263.4,3.18.12,6.38.19,9.6.19,1.12,0,2.2,0,3.27,0-1.07,0-2.15,0-3.27,0-3.22,0-6.42-.07-9.6-.19,3.33.42,6.7.77,10.07,1.06l32.44.15c-139.43-7.7-250-123.44-250-265.09,0-146.64,118.55-265.51,264.87-265.51-146.32,0-264.87,118.87-264.87,265.51,0,141.65,110.6,257.39,250,265.09l26.13.11c-140.5-6.56-252.3-122.78-252.3-265.2,0-146.64,118.55-265.51,264.87-265.51-146.32,0-264.87,118.87-264.87,265.51,0,142.42,111.8,258.64,252.3,265.2l27,.12c-142-5-255.45-121.84-255.45-265.32,0-146.64,118.55-265.51,264.87-265.51-146.32,0-264.87,118.87-264.87,265.51,0,143.48,113.48,260.37,255.45,265.32l28.89.13C1843.15,632.24,1727,514.3,1727,369.13Z"/><path class="cls-5" d="M1995.09,634.61l-7.63,0c1.45,0,2.9.06,4.36.06C1992.94,634.64,1994,634.63,1995.09,634.61Z"/><path class="cls-6" d="M-26.73-130.09v33.9C26.89-91,80.21-82.49,133.56-75.2c6.36.86,3.64,10.5-2.65,9.64-20.51-2.8-41-5.77-61.49-8.66-31.93-4.5-64-8.83-96.15-12V869.91h3500v-1000Z"/><line class="cls-7" x1="838.66" y1="78.3" x2="838.66" y2="658.58"/><path id="SVGID" class="cls-8" d="M441.89,254a11.23,11.23,0,1,0-15.82,1.32A11.23,11.23,0,0,0,441.89,254m16.52,22.81a11.23,11.23,0,1,0-14.89-5.54A11.22,11.22,0,0,0,458.41,276.83Zm5.5,5.29A11.23,11.23,0,1,0,475,293.46,11.21,11.21,0,0,0,463.91,282.12Zm-7,49.19a11.23,11.23,0,1,0-5.37-14.94A11.22,11.22,0,0,0,456.94,331.31Zm.18,21a11.23,11.23,0,1,0-15.85-.81A11.21,11.21,0,0,0,457.12,352.32Zm-32.39-1.93a11.23,11.23,0,1,0,14.13,7.25A11.22,11.22,0,0,0,424.73,350.39Zm38.33,33.31a9.64,9.64,0,1,0-13.53-1.59A9.64,9.64,0,0,0,463.06,383.7ZM502,304.91a9.63,9.63,0,1,0-9.84,9.41A9.63,9.63,0,0,0,502,304.91Zm-17.09,35.84a9.64,9.64,0,1,0-6.18-12.15A9.64,9.64,0,0,0,484.92,340.75Zm.41,18.44A9.63,9.63,0,1,0,472,362,9.62,9.62,0,0,0,485.33,359.19Zm4.78-75.52A9.63,9.63,0,1,0,478,277.46,9.65,9.65,0,0,0,490.11,283.67ZM479.6,240.1a9.63,9.63,0,1,0-1.7,13.51A9.62,9.62,0,0,0,479.6,240.1Zm-35-6.49A9.64,9.64,0,1,0,442,220.25,9.65,9.65,0,0,0,444.61,233.61Zm15.61-21.26A8.39,8.39,0,1,0,458,200.7,8.4,8.4,0,0,0,460.22,212.35Zm27.89,13.23a8.39,8.39,0,1,0-11.86,0A8.38,8.38,0,0,0,488.11,225.58Zm2,16.74a8.4,8.4,0,1,0,2.47-11.62A8.38,8.38,0,0,0,490.13,242.32Zm13.69,6.56a8.4,8.4,0,1,0,11,4.39A8.39,8.39,0,0,0,503.82,248.88ZM505.49,281a8.39,8.39,0,1,0,6.28-10.07A8.41,8.41,0,0,0,505.49,281ZM525,304.19a8.4,8.4,0,1,0-8.48,8.33A8.4,8.4,0,0,0,525,304.19Zm-2.69,24.68a8.39,8.39,0,1,0-9.93,6.51A8.39,8.39,0,0,0,522.35,328.87Zm-17.93,27a8.39,8.39,0,1,0-4.56-11A8.38,8.38,0,0,0,504.42,355.91Zm-1.63,18.56a8.39,8.39,0,1,0-11.67,2.18A8.38,8.38,0,0,0,502.79,374.47Zm-15.42,18.38a8.39,8.39,0,1,0-11.86-.06A8.37,8.37,0,0,0,487.37,392.85Zm-28.62,1.82a8.39,8.39,0,1,0,11.6,2.54A8.37,8.37,0,0,0,458.75,394.67Zm32.08-193.92a7.15,7.15,0,1,0-10.11-.05A7.15,7.15,0,0,0,490.83,200.75Zm18.24,20.15a7.15,7.15,0,1,0-9.91-2A7.15,7.15,0,0,0,509.07,220.9Zm4.54,19.25a7.14,7.14,0,1,0,3.92-9.32A7.13,7.13,0,0,0,513.61,240.15Zm18.17,28.49a7.15,7.15,0,1,0-8.41-5.61A7.15,7.15,0,0,0,531.78,268.64Zm4.28,13.53a7.15,7.15,0,1,0,7.11,7.2A7.15,7.15,0,0,0,536.06,282.17Zm6.61,38.8a7.15,7.15,0,1,0-8.55,5.38A7.14,7.14,0,0,0,542.67,321Zm-15.18,30a7.15,7.15,0,1,0-3.72-9.41A7.16,7.16,0,0,0,527.49,351Zm-1.22,21.23a7.15,7.15,0,1,0-9.93,1.9A7.16,7.16,0,0,0,526.27,372.19ZM509.34,397a7.15,7.15,0,1,0-10.11-.17A7.15,7.15,0,0,0,509.34,397Zm-27.86,7.56a7.15,7.15,0,1,0,9.89,2.11A7.15,7.15,0,0,0,481.48,404.53Zm2.38-229.34a6.79,6.79,0,1,0-1.86-9.42A6.79,6.79,0,0,0,483.86,175.19ZM517,194.54a6.79,6.79,0,1,0-9.62,0A6.81,6.81,0,0,0,517,194.54Zm20.07,27.15a6.79,6.79,0,1,0-9.39-2.05A6.8,6.8,0,0,0,537.1,221.69Zm3.19,21.77a6.8,6.8,0,1,0,3.67-8.88A6.8,6.8,0,0,0,540.29,243.46ZM557,276.17a6.79,6.79,0,1,0-8.05-5.26A6.8,6.8,0,0,0,557,276.17ZM559,294.46a6.79,6.79,0,1,0,6.85,6.74A6.76,6.76,0,0,0,559,294.46ZM554.37,342a6.79,6.79,0,1,0-5.26-8A6.79,6.79,0,0,0,554.37,342Zm-5.28,17.08a6.79,6.79,0,1,0,3.59,8.92A6.78,6.78,0,0,0,549.09,359.07Zm-11.4,36.7a6.79,6.79,0,1,0-9.43,1.84A6.8,6.8,0,0,0,537.69,395.77Zm-31.58,16.86a6.8,6.8,0,1,0,9.61.14A6.81,6.81,0,0,0,506.11,412.63ZM482,431.89a6.8,6.8,0,1,0,9.39,2.07A6.83,6.83,0,0,0,482,431.89Zm31.62-289.2a3.48,3.48,0,1,0-4.84.88A3.48,3.48,0,0,0,513.58,142.69ZM542,167.43a3.49,3.49,0,1,0-4.93-.07A3.49,3.49,0,0,0,542,167.43Zm22.72,29a3.48,3.48,0,1,0-4.82-1A3.49,3.49,0,0,0,564.67,196.42Zm14.72,27.45a3.48,3.48,0,1,0,4.55,1.89A3.49,3.49,0,0,0,579.39,223.87ZM592.24,265a3.48,3.48,0,1,0-4.12-2.68A3.49,3.49,0,0,0,592.24,265Zm3.61,31.76a3.48,3.48,0,1,0,3.52,3.45A3.51,3.51,0,0,0,595.85,296.79Zm-2.84,40a3.48,3.48,0,1,0,2.75,4.09A3.5,3.5,0,0,0,593,336.79Zm-12.37,42.27a3.48,3.48,0,1,0,1.77,4.59A3.48,3.48,0,0,0,580.64,379.06ZM556.4,415.38a3.48,3.48,0,1,0,4.86-.78A3.5,3.5,0,0,0,556.4,415.38Zm-21.19,24.93a3.48,3.48,0,1,0,4.93,0A3.47,3.47,0,0,0,535.21,440.31Zm-29.84,24.24a3.48,3.48,0,1,0,4.82,1A3.47,3.47,0,0,0,505.37,464.55Zm5-301.9a4.35,4.35,0,1,0,6.14.06A4.35,4.35,0,0,0,510.34,162.65Zm29.21,30.74a4.35,4.35,0,1,0-6-1.23A4.35,4.35,0,0,0,539.55,193.39ZM559,224.58a4.35,4.35,0,1,0-5.67-2.43A4.36,4.36,0,0,0,559,224.58Zm6.3,26.47a4.34,4.34,0,1,0,3.39-5.12A4.34,4.34,0,0,0,565.33,251.05Zm10.79,25.8a4.36,4.36,0,1,0,4.45,4.26A4.35,4.35,0,0,0,576.12,276.85Zm-3.55,41.06a4.35,4.35,0,1,0,5.09-3.45A4.33,4.33,0,0,0,572.57,317.91Zm-.83,32.1a4.35,4.35,0,1,0,2.36,5.67A4.34,4.34,0,0,0,571.74,350Zm-12.4,40.89a4.35,4.35,0,1,0-6.06,1.13A4.33,4.33,0,0,0,559.34,390.9ZM539.52,420a4.35,4.35,0,1,0-6.16,0A4.33,4.33,0,0,0,539.52,420Zm-30.94,18.42a4.35,4.35,0,1,0,6,1.28A4.37,4.37,0,0,0,508.58,438.43Z"/><path class="cls-9" d="M417.8,240.57A11.22,11.22,0,1,1,410,226.74a11.21,11.21,0,0,1,7.79,13.83"/><path class="cls-9" d="M391.74,366.82A11.23,11.23,0,1,1,401.92,379a11.25,11.25,0,0,1-10.18-12.19"/><path class="cls-9" d="M367.52,359.06a11.23,11.23,0,1,1,4.69,15.17,11.25,11.25,0,0,1-4.69-15.17"/><path class="cls-9" d="M347.48,341.69a11.23,11.23,0,1,1-1.8,15.77,11.2,11.2,0,0,1,1.8-15.77"/><path class="cls-9" d="M336.12,317.89a11.22,11.22,0,1,1-7.94,13.74,11.23,11.23,0,0,1,7.94-13.74"/><path class="cls-9" d="M335,292.6a11.22,11.22,0,1,1-12.6,9.66A11.22,11.22,0,0,1,335,292.6"/><path class="cls-9" d="M344.22,268a11.22,11.22,0,1,1-15.4,3.86,11.23,11.23,0,0,1,15.4-3.86"/><path class="cls-9" d="M362.45,249.07a11.22,11.22,0,1,1-15.67-2.58,11.23,11.23,0,0,1,15.67,2.58"/><path class="cls-9" d="M389.64,238.44a11.23,11.23,0,1,1-12.93-9.19,11.22,11.22,0,0,1,12.93,9.19"/><path class="cls-9" d="M408.78,396.48a9.63,9.63,0,1,1-9.64-9.63,9.64,9.64,0,0,1,9.64,9.63"/><path class="cls-9" d="M437.87,388.53a9.63,9.63,0,1,1-12.18-6.09,9.63,9.63,0,0,1,12.18,6.09"/><path class="cls-9" d="M388.94,209.72a9.63,9.63,0,1,1,9.32,9.93,9.62,9.62,0,0,1-9.32-9.93"/><path class="cls-9" d="M417.44,210.53a9.63,9.63,0,1,1,6.06,12.2,9.63,9.63,0,0,1-6.06-12.2"/><path class="cls-9" d="M360.52,217.73a9.64,9.64,0,1,1,12.05,6.35,9.63,9.63,0,0,1-12.05-6.35"/><path class="cls-9" d="M334.51,235.5A9.64,9.64,0,1,1,348,237.38a9.62,9.62,0,0,1-13.49-1.88"/><path class="cls-9" d="M307.24,284.54a9.63,9.63,0,1,1,12.27-5.91,9.64,9.64,0,0,1-12.27,5.91"/><path class="cls-9" d="M316.56,257.46A9.63,9.63,0,1,1,330,255a9.63,9.63,0,0,1-13.39,2.48"/><path class="cls-9" d="M305.6,313.48a9.64,9.64,0,1,1,10-9.29,9.64,9.64,0,0,1-10,9.29"/><path class="cls-9" d="M313.22,342.1a9.64,9.64,0,1,1,6.52-12,9.62,9.62,0,0,1-6.52,12"/><path class="cls-9" d="M329.9,366.91A9.64,9.64,0,1,1,332,353.44a9.66,9.66,0,0,1-2.07,13.47"/><path class="cls-9" d="M376.66,394.84a9.64,9.64,0,1,1-5.74-12.35,9.65,9.65,0,0,1,5.74,12.35"/><path class="cls-9" d="M352.32,385a9.63,9.63,0,1,1-2.3-13.42,9.65,9.65,0,0,1,2.3,13.42"/><path class="cls-9" d="M407.54,185.12a8.39,8.39,0,1,1-8.4-8.39,8.38,8.38,0,0,1,8.4,8.39"/><path class="cls-9" d="M430.43,189.11a8.39,8.39,0,1,1-6.57-9.88,8.38,8.38,0,0,1,6.57,9.88"/><path class="cls-9" d="M451,197A8.39,8.39,0,1,1,446.39,186,8.39,8.39,0,0,1,451,197"/><path class="cls-9" d="M281,295.1a8.4,8.4,0,1,1-8.33,8.46A8.4,8.4,0,0,1,281,295.1"/><path class="cls-9" d="M284.79,272.18a8.39,8.39,0,1,1-9.82,6.66,8.4,8.4,0,0,1,9.82-6.66"/><path class="cls-9" d="M292.49,251.53a8.39,8.39,0,1,1-10.89,4.72,8.4,8.4,0,0,1,10.89-4.72"/><path class="cls-9" d="M305.46,230.59A8.39,8.39,0,1,1,293.82,233a8.4,8.4,0,0,1,11.64-2.36"/><path class="cls-9" d="M320.83,214.23a8.39,8.39,0,1,1-11.87.11,8.39,8.39,0,0,1,11.87-.11"/><path class="cls-9" d="M339.93,200.46a8.39,8.39,0,1,1-11.63-2.37,8.39,8.39,0,0,1,11.63,2.37"/><path class="cls-9" d="M359.38,191.59a8.39,8.39,0,1,1-11.07-4.3,8.4,8.4,0,0,1,11.07,4.3"/><path class="cls-9" d="M382.29,186.33a8.39,8.39,0,1,1-10.13-6.2,8.39,8.39,0,0,1,10.13,6.2"/><path class="cls-9" d="M391,420.79a8.4,8.4,0,1,1,8.45,8.33,8.38,8.38,0,0,1-8.45-8.33"/><path class="cls-9" d="M368,417a8.4,8.4,0,1,1,6.66,9.83A8.41,8.41,0,0,1,368,417"/><path class="cls-9" d="M347.39,409.26a8.39,8.39,0,1,1,4.72,10.88,8.4,8.4,0,0,1-4.72-10.88"/><path class="cls-9" d="M326.46,396.28a8.39,8.39,0,1,1,2.36,11.63,8.4,8.4,0,0,1-2.36-11.63"/><path class="cls-9" d="M310.11,380.9a8.39,8.39,0,1,1,.11,11.87,8.39,8.39,0,0,1-.11-11.87"/><path class="cls-9" d="M296.36,361.79A8.39,8.39,0,1,1,294,373.41a8.39,8.39,0,0,1,2.38-11.62"/><path class="cls-9" d="M287.48,342.34a8.39,8.39,0,1,1-4.29,11.05,8.37,8.37,0,0,1,4.29-11.05"/><path class="cls-9" d="M282.24,319.42a8.39,8.39,0,1,1-6.2,10.12,8.39,8.39,0,0,1,6.2-10.12"/><path class="cls-9" d="M436.62,414.84a8.39,8.39,0,1,1,11,4.47,8.4,8.4,0,0,1-11-4.47"/><path class="cls-9" d="M413.64,419.76a8.39,8.39,0,1,1,10,6.35,8.38,8.38,0,0,1-10-6.35"/><path class="cls-9" d="M390.76,165.23a7.15,7.15,0,1,1-7.15-7.15,7.14,7.14,0,0,1,7.15,7.15"/><path class="cls-9" d="M422.73,167.23a7.15,7.15,0,1,1-5.29-8.61,7.12,7.12,0,0,1,5.29,8.61"/><path class="cls-9" d="M447.56,174.16a7.15,7.15,0,1,1-3.6-9.44,7.12,7.12,0,0,1,3.6,9.44"/><path class="cls-9" d="M469.61,185a7.15,7.15,0,1,1-1.88-9.93,7.16,7.16,0,0,1,1.88,9.93"/><path class="cls-9" d="M457.05,427.65a7.15,7.15,0,1,1,9.32,3.93,7.16,7.16,0,0,1-9.32-3.93"/><path class="cls-9" d="M432.11,436.59a7.15,7.15,0,1,1,8.4,5.63,7.16,7.16,0,0,1-8.4-5.63"/><path class="cls-9" d="M406.48,440.57a7.15,7.15,0,1,1,7.19,7.11,7.17,7.17,0,0,1-7.19-7.11"/><path class="cls-9" d="M375.82,439a7.15,7.15,0,1,1,5.43,8.52,7.16,7.16,0,0,1-5.43-8.52"/><path class="cls-9" d="M353.34,433.32a7.15,7.15,0,1,1,3.93,9.31,7.14,7.14,0,0,1-3.93-9.31"/><path class="cls-9" d="M323.9,419.08a7.15,7.15,0,1,1,1.62,10,7.14,7.14,0,0,1-1.62-10"/><path class="cls-9" d="M305,404.53a7.15,7.15,0,1,1-.12,10.11,7.16,7.16,0,0,1,.12-10.11"/><path class="cls-9" d="M287.11,384.59a7.15,7.15,0,1,1-2.06,9.9,7.15,7.15,0,0,1,2.06-9.9"/><path class="cls-9" d="M274.39,363.62a7.15,7.15,0,1,1-3.78,9.37,7.12,7.12,0,0,1,3.78-9.37"/><path class="cls-9" d="M265.88,341.67a7.15,7.15,0,1,1-5.33,8.6,7.14,7.14,0,0,1,5.33-8.6"/><path class="cls-9" d="M260.62,312.16a7.15,7.15,0,1,1-7.06,7.24,7.15,7.15,0,0,1,7.06-7.24"/><path class="cls-9" d="M261.72,283.34a7.15,7.15,0,1,1-8.41,5.62,7.16,7.16,0,0,1,8.41-5.62"/><path class="cls-9" d="M268.34,256.61a7.15,7.15,0,1,1-9.36,3.82,7.17,7.17,0,0,1,9.36-3.82"/><path class="cls-9" d="M280.32,231.41a7.15,7.15,0,1,1-9.94,1.86,7.16,7.16,0,0,1,9.94-1.86"/><path class="cls-9" d="M297.67,208.54a7.15,7.15,0,1,1-10.09-.23,7.14,7.14,0,0,1,10.09.23"/><path class="cls-9" d="M316.63,191.75a7.15,7.15,0,1,1-9.89-2.08,7.15,7.15,0,0,1,9.89,2.08"/><path class="cls-9" d="M338.22,178.76a7.15,7.15,0,1,1-9.36-3.83,7.14,7.14,0,0,1,9.36,3.83"/><path class="cls-9" d="M363.76,169.4a7.15,7.15,0,1,1-8.41-5.6,7.13,7.13,0,0,1,8.41,5.6"/><path class="cls-9" d="M373.36,144.6a6.79,6.79,0,1,1-8-5.31,6.8,6.8,0,0,1,8,5.31"/><path class="cls-9" d="M406.11,142.73a6.8,6.8,0,1,1-6.76-6.83,6.79,6.79,0,0,1,6.76,6.83"/><path class="cls-9" d="M443.27,148.85a6.79,6.79,0,1,1-5-8.22,6.79,6.79,0,0,1,5,8.22"/><path class="cls-9" d="M468.65,158.56a6.8,6.8,0,1,1-3.52-8.94,6.8,6.8,0,0,1,3.52,8.94"/><path class="cls-9" d="M452.66,454a6.79,6.79,0,1,1,8.83,3.78,6.8,6.8,0,0,1-8.83-3.78"/><path class="cls-9" d="M423.48,461.38a6.8,6.8,0,1,1,8,5.35,6.8,6.8,0,0,1-8-5.35"/><path class="cls-9" d="M389.28,463a6.79,6.79,0,1,1,6.65,6.94,6.79,6.79,0,0,1-6.65-6.94"/><path class="cls-9" d="M358.68,458.17a6.79,6.79,0,1,1,5.2,8.08,6.8,6.8,0,0,1-5.2-8.08"/><path class="cls-9" d="M328.5,447A6.79,6.79,0,1,1,332,456,6.82,6.82,0,0,1,328.5,447"/><path class="cls-9" d="M297.92,427.54a6.78,6.78,0,1,1,1.37,9.5,6.79,6.79,0,0,1-1.37-9.5"/><path class="cls-9" d="M279.54,410.1a6.8,6.8,0,1,1-.12,9.59,6.84,6.84,0,0,1,.12-9.59"/><path class="cls-9" d="M261.36,385.47a6.79,6.79,0,1,1-2,9.39,6.82,6.82,0,0,1,2-9.39"/><path class="cls-9" d="M249.68,361.81a6.79,6.79,0,1,1-3.48,8.94,6.79,6.79,0,0,1,3.48-8.94"/><path class="cls-9" d="M241,331.15a6.79,6.79,0,1,1-5.18,8.08,6.81,6.81,0,0,1,5.18-8.08"/><path class="cls-9" d="M238.56,297.87a6.8,6.8,0,1,1-6.73,6.84,6.81,6.81,0,0,1,6.73-6.84"/><path class="cls-9" d="M242.93,265.44a6.79,6.79,0,1,1-8,5.32,6.8,6.8,0,0,1,8-5.32"/><path class="cls-9" d="M253,236.21a6.78,6.78,0,1,1-8.87,3.68,6.77,6.77,0,0,1,8.87-3.68"/><path class="cls-9" d="M268.76,209.15a6.79,6.79,0,1,1-9.41,1.9,6.81,6.81,0,0,1,9.41-1.9"/><path class="cls-9" d="M292.59,182.82a6.79,6.79,0,1,1-9.59-.22,6.81,6.81,0,0,1,9.59.22"/><path class="cls-9" d="M315.47,166a6.8,6.8,0,1,1-9.42-1.91,6.81,6.81,0,0,1,9.42,1.91"/><path class="cls-9" d="M343.22,152.52a6.79,6.79,0,1,1-8.87-3.67,6.8,6.8,0,0,1,8.87,3.67"/><path class="cls-9" d="M385.17,125.13a4.36,4.36,0,1,1-4.35-4.35,4.36,4.36,0,0,1,4.35,4.35"/><path class="cls-9" d="M401.7,105.87a3.49,3.49,0,1,1-3.48-3.49,3.47,3.47,0,0,1,3.48,3.49"/><path class="cls-9" d="M448.22,112.13a3.48,3.48,0,1,1-2.56-4.21,3.49,3.49,0,0,1,2.56,4.21"/><path class="cls-9" d="M484,125.18a3.48,3.48,0,1,1-1.71-4.62,3.47,3.47,0,0,1,1.71,4.62"/><path class="cls-9" d="M467.78,487.55a3.47,3.47,0,1,1,4.5,2,3.47,3.47,0,0,1-4.5-2"/><path class="cls-9" d="M431.79,497.23a3.48,3.48,0,1,1,4,2.8,3.47,3.47,0,0,1-4-2.8"/><path class="cls-9" d="M390.85,499.84a3.48,3.48,0,1,1,3.39,3.57,3.48,3.48,0,0,1-3.39-3.57"/><path class="cls-9" d="M349.67,493.77a3.48,3.48,0,1,1,2.57,4.21,3.49,3.49,0,0,1-2.57-4.21"/><path class="cls-9" d="M313.26,480.45a3.48,3.48,0,1,1,1.69,4.62,3.47,3.47,0,0,1-1.69-4.62"/><path class="cls-9" d="M278.13,458.71A3.46,3.46,0,0,1,283,458a3.49,3.49,0,1,1-4.87.7"/><path class="cls-9" d="M252.52,434.94a3.48,3.48,0,1,1-.18,4.92,3.48,3.48,0,0,1,.18-4.92"/><path class="cls-9" d="M232,407.79a3.48,3.48,0,1,1-1,4.82,3.46,3.46,0,0,1,1-4.82"/><path class="cls-9" d="M217.75,380.69a3.48,3.48,0,1,1-1.77,4.59,3.46,3.46,0,0,1,1.77-4.59"/><path class="cls-9" d="M206.41,345.45a3.48,3.48,0,1,1-2.59,4.19,3.49,3.49,0,0,1,2.59-4.19"/><path class="cls-9" d="M201.76,302a3.48,3.48,0,1,1-3.45,3.51,3.46,3.46,0,0,1,3.45-3.51"/><path class="cls-9" d="M205.38,265.31a3.47,3.47,0,1,1-4,2.8,3.45,3.45,0,0,1,4-2.8"/><path class="cls-9" d="M217.4,226a3.47,3.47,0,1,1-4.53,1.9,3.47,3.47,0,0,1,4.53-1.9"/><path class="cls-9" d="M237,190.52a3.48,3.48,0,1,1-4.84.95,3.47,3.47,0,0,1,4.84-.95"/><path class="cls-9" d="M263.38,159.77a3.47,3.47,0,1,1-4.92-.07,3.47,3.47,0,0,1,4.92.07"/><path class="cls-9" d="M293.77,136.19a3.48,3.48,0,1,1-4.82-1,3.49,3.49,0,0,1,4.82,1"/><path class="cls-9" d="M329.5,118.44a3.47,3.47,0,1,1-4.5-2,3.46,3.46,0,0,1,4.5,2"/><path class="cls-9" d="M362.46,109.23a3.48,3.48,0,1,1-4.09-2.72,3.49,3.49,0,0,1,4.09,2.72"/><path class="cls-9" d="M425.25,126.58a4.35,4.35,0,1,1-3.27-5.22,4.35,4.35,0,0,1,3.27,5.22"/><path class="cls-9" d="M461.1,135.83a4.35,4.35,0,1,1-2.12-5.77,4.36,4.36,0,0,1,2.12,5.77"/><path class="cls-9" d="M489,149.06a4.36,4.36,0,1,1-1.09-6.06,4.36,4.36,0,0,1,1.09,6.06"/><path class="cls-9" d="M479,462.18a4.34,4.34,0,1,1,5.68,2.39,4.32,4.32,0,0,1-5.68-2.39"/><path class="cls-9" d="M446.81,474.67a4.35,4.35,0,1,1,5.12,3.42,4.35,4.35,0,0,1-5.12-3.42"/><path class="cls-9" d="M409.88,480.9a4.35,4.35,0,1,1,4.28,4.41,4.33,4.33,0,0,1-4.28-4.41"/><path class="cls-9" d="M370.94,479a4.35,4.35,0,1,1,3.21,5.24,4.35,4.35,0,0,1-3.21-5.24"/><path class="cls-9" d="M339.71,471.15a4.35,4.35,0,1,1,8,3.51,4.35,4.35,0,0,1-8-3.51"/><path class="cls-9" d="M304.55,454.27a4.35,4.35,0,1,1,.93,6.08,4.35,4.35,0,0,1-.93-6.08"/><path class="cls-9" d="M277.43,433.52a4.35,4.35,0,1,1-.24,6.15,4.36,4.36,0,0,1,.24-6.15"/><path class="cls-9" d="M256.69,410.57a4.37,4.37,0,0,1,6,1.31,4.36,4.36,0,1,1-6-1.31"/><path class="cls-9" d="M240.59,385.11a4.35,4.35,0,1,1-2.3,5.71,4.36,4.36,0,0,1,2.3-5.71"/><path class="cls-9" d="M228.27,354.92a4.35,4.35,0,1,1-3.29,5.19,4.36,4.36,0,0,1,3.29-5.19"/><path class="cls-9" d="M221.06,316.69a4.35,4.35,0,1,1-4.35,4.35,4.36,4.36,0,0,1,4.35-4.35"/><path class="cls-9" d="M221.65,283a4.34,4.34,0,1,1-5.09,3.45,4.33,4.33,0,0,1,5.09-3.45"/><path class="cls-9" d="M229.18,248.05a4.35,4.35,0,1,1-5.68,2.37,4.34,4.34,0,0,1,5.68-2.37"/><path class="cls-9" d="M243.45,215.45a4.35,4.35,0,1,1-6,1.2,4.36,4.36,0,0,1,6-1.2"/><path class="cls-9" d="M265.65,184.37a4.35,4.35,0,1,1-6.15-.12,4.34,4.34,0,0,1,6.15.12"/><path class="cls-9" d="M291.62,160.46a4.34,4.34,0,1,1-6-1.33,4.34,4.34,0,0,1,6,1.33"/><path class="cls-9" d="M320,143a4.34,4.34,0,1,1-5.64-2.43A4.32,4.32,0,0,1,320,143"/><path class="cls-9" d="M352.71,130.68a4.34,4.34,0,1,1-5.08-3.47,4.35,4.35,0,0,1,5.08,3.47"/><path class="cls-10" d="M444,326.19c-11,14.72-25.17,22.52-43.26,22.52-23.22,0-45.56-14.72-45.56-47.34,0-29.78,19.15-46.63,44.15-46.63,23.4,0,33.15,14,34.93,16.67,7.26,10.28,8.86,25.7,9,34.57H377.72c2.48,14,11.16,22,25.17,22,14.54,0,20.39-8.5,23.05-12.23Zm-24.1-35.81c-2-13.83-10.47-18.62-19.87-18.62-11.34,0-19.15,6.56-21.62,18.62Z"/><path class="cls-10" d="M480.72,257.4V270c2.66-4.61,8.51-15.07,28.37-14.54v21.81c-4.6.18-12.58.35-19.14,5.32-9,6.91-9.23,15.95-9.23,30.67v32.8H460.16V257.4Z"/><path class="cls-10" d="M576.47,288.78a20.68,20.68,0,0,0-20-15.07c-12.24,0-22,9.75-22,27.49,0,15.95,8.34,27.65,22.34,27.65,13.48,0,18.62-10.28,21.28-17.37l18.26,9.57c-6.91,19.15-24.47,27.66-39.89,27.66-24.65,0-44-19-44-47,0-27.13,19.5-47,44.68-47,22.34,0,33.69,14.89,38.29,25.18Z"/><polyline class="cls-10" points="120.28 547.36 120.28 554.84 135.61 554.84 135.61 559.98 120.28 559.98 120.28 568.5 138.19 568.5 138.19 573.86 114.42 573.86 114.42 542.03 137.06 542.03 137.06 547.36 120.28 547.36"/><path class="cls-10" d="M162.42,551.32v22.54H157v-2.29a10,10,0,0,1-7.31,2.84c-3.69,0-5.45-1.58-6.26-2.62-1.54-1.94-1.54-4.06-1.54-7.43v-13h5.46v12.94a8.32,8.32,0,0,0,.18,2.26,4,4,0,0,0,4.19,2.84A5,5,0,0,0,156.1,567c.81-1.49.85-2.93.9-6.08v-9.57h5.42"/><path class="cls-10" d="M173.5,551.32v3.2c.69-1.17,2.18-3.83,7.22-3.69v5.54a8.26,8.26,0,0,0-4.86,1.36c-2.31,1.76-2.36,4.06-2.36,7.8v8.33h-5.22V551.32h5.22"/><path class="cls-10" d="M193.77,574.54c-7,0-11.72-5.13-11.72-12s4.78-11.86,11.5-11.86c6.27,0,11.64,4.37,11.69,11.86,0,7-4.65,12-11.47,12m-.27-19c-3.38,0-5.82,2.71-5.82,6.85,0,4.65,2.85,7.22,6.09,7.22,3.93,0,5.91-3.43,5.78-7.17S197.29,555.52,193.5,555.52Z"/><path class="cls-10" d="M209.7,551.32h5.36v2.08a8,8,0,0,1,6.18-2.75c6.64,0,10.24,6,10.24,12.17,0,6.72-4.19,11.72-10.24,11.72a8.83,8.83,0,0,1-6.18-2.52v9.19H209.7V551.32m10.82,18.13c2.62,0,5.46-1.8,5.46-6.9,0-5.63-3.93-6.72-5.55-6.72-2.48,0-5.32,1.81-5.41,6.63C214.93,567.11,217.5,569.45,220.52,569.45Z"/><path class="cls-10" d="M257.2,568.82a13.15,13.15,0,0,1-11,5.72c-5.91,0-11.59-3.74-11.59-12,0-7.59,4.86-11.86,11.23-11.86,5.95,0,8.43,3.56,8.88,4.24,1.86,2.61,2.26,6.53,2.31,8.79h-16.7c.64,3.56,2.85,5.59,6.41,5.59a6.59,6.59,0,0,0,5.87-3.11l4.6,2.66m-6.14-9.11c-.49-3.52-2.66-4.73-5.05-4.73-2.89,0-4.87,1.66-5.5,4.73Z"/><path class="cls-10" d="M260.63,558a7.49,7.49,0,0,1,.89-3.39c2.18-3.91,7.54-3.91,9-3.91a13.6,13.6,0,0,1,6.77,1.44c2.66,1.63,2.71,3.74,2.71,6.18v11.94c0,1.72,0,2.31,1,3.65h-6.4c-.05-.53-.14-1.44-.14-1.75a10.64,10.64,0,0,1-6.67,2.3c-5.1,0-8.17-3.16-8.17-7a6.83,6.83,0,0,1,.72-3.06c1.63-3.25,5.1-4,7.26-4.37a52.14,52.14,0,0,0,7-1.67c0-1.13-.09-3.43-3.84-3.43-2.25,0-3.47.72-4,1.44a2.69,2.69,0,0,0-.55,2l-5.54-.32m13.94,4.7a16.17,16.17,0,0,1-4.74,1.35c-1.94.26-4.52.72-4.52,3.11,0,1.75,1.49,2.66,3.67,2.66,2.74,0,4.68-1.27,5.27-2.62a4.51,4.51,0,0,0,.32-2Z"/><path class="cls-10" d="M285.7,551.32h5.47V554a6.11,6.11,0,0,1,1.75-1.75,9.34,9.34,0,0,1,5.19-1.58,7.41,7.41,0,0,1,5.92,2.7c1.39,1.9,1.39,4.33,1.39,7.26v13.25h-5.37V562.37a15.88,15.88,0,0,0-.18-3.42,3.69,3.69,0,0,0-3.69-3,4.74,4.74,0,0,0-4.16,2.53c-.85,1.67-.85,4-.85,5.63v9.78H285.7V551.32"/><path class="cls-10" d="M324.09,542h10.15c4.24,0,7.09,0,9.88,2.3a9.71,9.71,0,0,1,3.52,7.85,8.72,8.72,0,0,1-6.27,8.75l7.08,12.93h-6.81l-6.31-11.8H330v11.8h-5.91V542m5.91,5.14v10h2.08c2,0,2.8,0,3.92-.09,1.31,0,5.59-.27,5.59-4.92a4.56,4.56,0,0,0-2.52-4.29c-1.26-.62-2.8-.67-6.32-.67Z"/><path class="cls-10" d="M373.72,568.82a13.15,13.15,0,0,1-11,5.72c-5.91,0-11.6-3.74-11.6-12,0-7.59,4.88-11.86,11.23-11.86,6,0,8.44,3.56,8.89,4.24,1.85,2.61,2.26,6.53,2.3,8.79H356.84c.63,3.56,2.84,5.59,6.4,5.59a6.6,6.6,0,0,0,5.88-3.11l4.6,2.66m-6.14-9.11c-.5-3.52-2.66-4.73-5.06-4.73-2.88,0-4.86,1.66-5.5,4.73Z"/><path class="cls-10" d="M379.94,567.2a7.88,7.88,0,0,0,6.49,2.88c3.12,0,4.47-1.53,4.47-2.66,0-1.44-1.62-1.8-2.35-1.94s-4.46-.86-5.27-1.08c-5.37-1.27-6.36-4.37-6.36-6.41,0-3.83,3.47-7.34,9.65-7.34a12.8,12.8,0,0,1,7.44,2.16,9.78,9.78,0,0,1,2.3,2l-3.83,3.56c-.63-1.21-2.16-3.42-6.14-3.42-2.57,0-3.74,1.12-3.74,2.3,0,1.62,1.68,2.07,4.56,2.57,4.69.85,6,1.08,7.44,2.21a6.09,6.09,0,0,1,2.3,4.78c0,3.51-3.16,7.7-10.15,7.7a15.45,15.45,0,0,1-10.83-4l4-3.33"/><path class="cls-10" d="M422.56,568.82a13.13,13.13,0,0,1-11,5.72c-5.91,0-11.59-3.74-11.59-12,0-7.59,4.87-11.86,11.23-11.86,6,0,8.43,3.56,8.88,4.24,1.85,2.61,2.26,6.53,2.31,8.79H405.7c.63,3.56,2.84,5.59,6.41,5.59a6.6,6.6,0,0,0,5.86-3.11l4.59,2.66m-6.13-9.11c-.49-3.52-2.66-4.73-5.05-4.73-2.89,0-4.87,1.66-5.51,4.73Z"/><path class="cls-10" d="M426,558a7.26,7.26,0,0,1,.9-3.39c2.17-3.91,7.53-3.91,9-3.91a13.59,13.59,0,0,1,6.76,1.44c2.67,1.63,2.71,3.74,2.71,6.18v11.94c0,1.72,0,2.31,1,3.65h-6.41c-.05-.53-.13-1.44-.13-1.75a10.62,10.62,0,0,1-6.67,2.3c-5.1,0-8.17-3.16-8.17-7a6.83,6.83,0,0,1,.72-3.06c1.62-3.25,5.1-4,7.26-4.37a51.42,51.42,0,0,0,7-1.67c0-1.13-.08-3.43-3.83-3.43-2.26,0-3.48.72-4,1.44a2.69,2.69,0,0,0-.55,2L426,558m13.93,4.7A16.08,16.08,0,0,1,435.2,564c-1.94.26-4.51.72-4.51,3.11,0,1.75,1.49,2.66,3.65,2.66,2.75,0,4.69-1.27,5.28-2.62a4.64,4.64,0,0,0,.31-2Z"/><path class="cls-10" d="M456.35,551.32v3.2c.67-1.17,2.17-3.83,7.22-3.69v5.54a8.29,8.29,0,0,0-4.87,1.36c-2.3,1.76-2.35,4.06-2.35,7.8v8.33h-5.23V551.32h5.23"/><path class="cls-10" d="M480.68,559.3a5.26,5.26,0,0,0-5.1-3.83c-3.11,0-5.59,2.48-5.59,7,0,4.06,2.12,7,5.68,7s4.74-2.61,5.41-4.42l4.64,2.44a10.63,10.63,0,0,1-10.14,7c-6.27,0-11.19-4.82-11.19-11.94,0-6.9,5-12,11.37-12a10.4,10.4,0,0,1,9.74,6.4l-4.82,2.25"/><path class="cls-10" d="M493.19,542v11.59a9.84,9.84,0,0,1,7.17-3,8.24,8.24,0,0,1,6.17,2.43c1.86,2,1.89,4.28,1.89,6.86v13.92H503.1V561.47a9.39,9.39,0,0,0-.35-3.2,3.83,3.83,0,0,0-3.93-2.48,5.73,5.73,0,0,0-5.46,4.1,14.81,14.81,0,0,0-.17,3.61v10.36h-5.42V542h5.42"/><path class="cls-10" d="M553.81,565a16.76,16.76,0,0,1-2.75,4.79,14.09,14.09,0,0,1-11,4.91c-8.44,0-14.89-6.18-14.89-16.82,0-10.82,7-16.64,15.11-16.64,9.93,0,12.27,7.62,13,9.83l-6,1.58a8.09,8.09,0,0,0-1.17-3.16,6.74,6.74,0,0,0-5.73-2.79c-5.18,0-8.8,4.28-8.8,11.09,0,7.27,3.84,11.28,8.85,11.28a7.29,7.29,0,0,0,6.08-3.12,10.36,10.36,0,0,0,1.67-3.28l5.6,2.33"/><path class="cls-10" d="M567.83,574.54c-7,0-11.73-5.13-11.73-12s4.79-11.86,11.51-11.86c6.27,0,11.64,4.37,11.68,11.86,0,7-4.64,12-11.46,12m-.26-19c-3.38,0-5.83,2.71-5.83,6.85,0,4.65,2.85,7.22,6.09,7.22,3.93,0,5.91-3.43,5.78-7.17S571.35,555.52,567.57,555.52Z"/><path class="cls-10" d="M604.15,551.32v22.54h-5.41v-2.29a10,10,0,0,1-7.31,2.84c-3.7,0-5.45-1.58-6.27-2.62-1.54-1.94-1.54-4.06-1.54-7.43v-13h5.47v12.94a8.79,8.79,0,0,0,.17,2.26,4,4,0,0,0,4.21,2.84,5,5,0,0,0,4.36-2.39c.81-1.49.86-2.93.91-6.08v-9.57h5.41"/><path class="cls-10" d="M610,551.32h5.45V554a6.46,6.46,0,0,1,1.76-1.75,9.34,9.34,0,0,1,5.19-1.58,7.36,7.36,0,0,1,5.91,2.7c1.4,1.9,1.4,4.33,1.4,7.26v13.25h-5.37V562.37a15.88,15.88,0,0,0-.18-3.42,3.69,3.69,0,0,0-3.7-3,4.75,4.75,0,0,0-4.15,2.53c-.86,1.67-.86,4-.86,5.63v9.78H610V551.32"/><path class="cls-10" d="M649.85,559.3a5.26,5.26,0,0,0-5.1-3.83c-3.11,0-5.6,2.48-5.6,7,0,4.06,2.12,7,5.69,7s4.74-2.61,5.41-4.42l4.65,2.44a10.66,10.66,0,0,1-10.15,7c-6.28,0-11.19-4.82-11.19-11.94,0-6.9,5-12,11.37-12a10.4,10.4,0,0,1,9.74,6.4l-4.82,2.25"/><path class="cls-10" d="M663.33,542.35v5.46H658v-5.46h5.37m-5.37,9h5.37v22.54H658Z"/><rect class="cls-10" x="669.24" y="542.03" width="5.46" height="31.84"/><path class="cls-10" d="M114.65,637.07V615h13.67v2.11H117v7.76h9.65V627H117v8h11.32v2.1Z"/><path class="cls-10" d="M137.59,637.26a8.38,8.38,0,0,1-6.25-2.2l1.49-1.49a6.2,6.2,0,0,0,4.73,1.77c2.51,0,4.05-.9,4.05-2.69,0-1.33-.77-2.08-2.53-2.23l-2.51-.22c-3-.25-4.55-1.58-4.55-4.08,0-2.79,2.35-4.46,5.6-4.46a8.63,8.63,0,0,1,5.48,1.64l-1.45,1.46a6.5,6.5,0,0,0-4.06-1.21c-2.23,0-3.4,1-3.4,2.51,0,1.3.74,2.07,2.66,2.22l2.44.22c2.66.25,4.49,1.27,4.49,4.11S141.27,637.26,137.59,637.26Z"/><path class="cls-10" d="M152.1,637.07c-2.6,0-3.9-1.83-3.9-4.08v-9.35h-1.92v-1.7h1.92v-4.76h2.23v4.76h3.24v1.7h-3.24v9.28c0,1.4.65,2.23,2.07,2.23h1.17v1.92Z"/><path class="cls-10" d="M166.47,637.07v-1.45a5.36,5.36,0,0,1-4.39,1.64c-2.1,0-3.34-.41-4.3-1.4a4.37,4.37,0,0,1-1.14-3.09c0-2.66,1.85-4.39,5.26-4.39h4.57v-1.46c0-2.23-1.11-3.34-3.89-3.34-2,0-2.94.47-3.84,1.73l-1.52-1.39c1.36-1.76,2.91-2.26,5.39-2.26,4.08,0,6.09,1.77,6.09,5.08v10.33Zm0-7h-4.26c-2.29,0-3.41.93-3.41,2.69s1.08,2.6,3.5,2.6a4.47,4.47,0,0,0,3.4-1,3.51,3.51,0,0,0,.77-2.63Z"/><path class="cls-10" d="M184.35,635.93a5.34,5.34,0,0,1-3.71,1.33,4.88,4.88,0,0,1-4.3-2v1.83h-2.23V615h2.23v8.57a4.88,4.88,0,0,1,4.3-2,5.34,5.34,0,0,1,3.71,1.33c1.55,1.55,1.86,4.09,1.86,6.47S185.9,634.38,184.35,635.93Zm-4.18-12.29c-3.31,0-3.83,2.85-3.83,5.82s.52,5.82,3.83,5.82,3.81-2.85,3.81-5.82S183.48,623.64,180.17,623.64Z"/><path class="cls-10" d="M194.77,637.07c-2.66,0-3.87-1.73-3.87-4.05V615h2.23v17.88c0,1.49.49,2.23,2,2.23h1.21v1.92Z"/><path class="cls-10" d="M200,617.52V615h2.51v2.51Zm.13,19.55V621.85h2.22v15.22Z"/><path class="cls-10" d="M212.76,637.26a8.4,8.4,0,0,1-6.25-2.2l1.49-1.49a6.23,6.23,0,0,0,4.73,1.77c2.51,0,4.06-.9,4.06-2.69,0-1.33-.78-2.08-2.54-2.23l-2.51-.22c-3-.25-4.55-1.58-4.55-4.08,0-2.79,2.36-4.46,5.6-4.46a8.63,8.63,0,0,1,5.48,1.64l-1.45,1.46a6.5,6.5,0,0,0-4.06-1.21c-2.22,0-3.4,1-3.4,2.51,0,1.3.74,2.07,2.66,2.22l2.45.22c2.66.25,4.48,1.27,4.48,4.11S216.45,637.26,212.76,637.26Z"/><path class="cls-10" d="M233.05,637.07v-9.4c0-2.67-1.42-4-3.71-4s-3.81,1.4-3.81,4v9.4h-2.22V615h2.22v8.48a5.44,5.44,0,0,1,4.27-1.86c3.44,0,5.48,2.2,5.48,5.63v9.78Z"/><path class="cls-10" d="M242.08,630.05c0,3.34,1.58,5.26,4.49,5.26a5,5,0,0,0,4-1.74l1.51,1.33a7,7,0,0,1-5.57,2.36c-4,0-6.65-2.42-6.65-7.8,0-4.92,2.38-7.8,6.25-7.8s6.25,2.85,6.25,7.37v1Zm7.58-4.21a3.91,3.91,0,0,0-7.12,0,6.37,6.37,0,0,0-.46,2.54h8A6.37,6.37,0,0,0,249.66,625.84Z"/><path class="cls-10" d="M266.17,637.07v-1.83a4.94,4.94,0,0,1-4.33,2,5.3,5.3,0,0,1-3.71-1.33c-1.55-1.55-1.86-4.09-1.86-6.47s.31-4.92,1.86-6.47a5.3,5.3,0,0,1,3.71-1.33,4.89,4.89,0,0,1,4.3,2V615h2.23v22Zm-3.83-13.43c-3.31,0-3.84,2.85-3.84,5.82s.53,5.82,3.84,5.82,3.8-2.85,3.8-5.82S265.65,623.64,262.34,623.64Z"/><path class="cls-10" d="M291.87,635.93a5.35,5.35,0,0,1-3.72,1.33,4.89,4.89,0,0,1-4.3-2v1.83h-2.22V615h2.22v8.57a4.89,4.89,0,0,1,4.3-2,5.35,5.35,0,0,1,3.72,1.33c1.55,1.55,1.85,4.09,1.85,6.47S293.42,634.38,291.87,635.93Zm-4.18-12.29c-3.31,0-3.84,2.85-3.84,5.82s.53,5.82,3.84,5.82,3.81-2.85,3.81-5.82S291,623.64,287.69,623.64Z"/><path class="cls-10" d="M302.26,640.75a4.43,4.43,0,0,1-1.09,1.8,4.18,4.18,0,0,1-3,1.05h-1v-2h.69c1.54,0,2-.5,2.5-1.89l1.08-3L296,621.85h2.41l4.18,12.22,4.14-12.22h2.42Z"/><path class="cls-10" d="M324.27,637.07c-2.6,0-3.9-1.83-3.9-4.08v-9.35h-1.91v-1.7h1.91v-4.76h2.23v4.76h3.25v1.7H322.6v9.28c0,1.4.65,2.23,2.07,2.23h1.18v1.92Z"/><path class="cls-10" d="M340,637.07v-9.4c0-2.67-1.42-4-3.71-4s-3.81,1.4-3.81,4v9.4h-2.22V615h2.22v8.48a5.44,5.44,0,0,1,4.27-1.86c3.44,0,5.48,2.2,5.48,5.63v9.78Z"/><path class="cls-10" d="M349,630.05c0,3.34,1.58,5.26,4.48,5.26a5,5,0,0,0,4-1.74L359,634.9a7,7,0,0,1-5.57,2.36c-4,0-6.65-2.42-6.65-7.8,0-4.92,2.38-7.8,6.25-7.8s6.25,2.85,6.25,7.37v1Zm7.58-4.21a3.91,3.91,0,0,0-7.12,0,6.37,6.37,0,0,0-.46,2.54h8A6.37,6.37,0,0,0,356.62,625.84Z"/><path class="cls-10" d="M372.14,637.07V615h13.67v2.11H374.49v7.76h9.65V627h-9.65v8h11.32v2.1Z"/><path class="cls-10" d="M399.91,637.07v-1.7a5.57,5.57,0,0,1-4.3,1.89,5.41,5.41,0,0,1-3.93-1.43,5.67,5.67,0,0,1-1.54-4.27v-9.71h2.22v9.37c0,2.69,1.43,4.06,3.72,4.06s3.8-1.4,3.8-4.06v-9.37h2.23v15.22Z"/><path class="cls-10" d="M416.18,624.76a3.19,3.19,0,0,0-2.63-1.12c-2.23,0-3.65,1.77-3.65,4.09v9.34h-2.23V621.85h2.23v1.86a5.1,5.1,0,0,1,4.27-2.05,4.68,4.68,0,0,1,3.65,1.43Z"/><path class="cls-10" d="M429.41,635.52a6.35,6.35,0,0,1-8.73,0c-1.54-1.57-1.85-3.71-1.85-6.06s.31-4.49,1.85-6.06a6.35,6.35,0,0,1,8.73,0c1.55,1.57,1.85,3.71,1.85,6.06S431,634,429.41,635.52Zm-1.58-10.76a3.91,3.91,0,0,0-2.78-1.12,3.84,3.84,0,0,0-2.76,1.12c-1.11,1.11-1.24,3-1.24,4.7s.13,3.59,1.24,4.7a3.84,3.84,0,0,0,2.76,1.12,3.91,3.91,0,0,0,2.78-1.12c1.11-1.11,1.21-3,1.21-4.7S428.94,625.87,427.83,624.76Z"/><path class="cls-10" d="M446.26,635.93a5.3,5.3,0,0,1-3.71,1.33,5,5,0,0,1-4.3-2v8.6H436v-22h2.23v1.79a4.85,4.85,0,0,1,4.3-2,5.3,5.3,0,0,1,3.71,1.33c1.54,1.55,1.86,4.09,1.86,6.47S447.8,634.38,446.26,635.93Zm-4.17-12.29c-3.31,0-3.84,2.85-3.84,5.82s.53,5.82,3.84,5.82,3.8-2.85,3.8-5.82S445.4,623.64,442.09,623.64Z"/><path class="cls-10" d="M454.26,630.05c0,3.34,1.58,5.26,4.49,5.26a5,5,0,0,0,4-1.74l1.52,1.33a7,7,0,0,1-5.57,2.36c-4,0-6.65-2.42-6.65-7.8,0-4.92,2.38-7.8,6.25-7.8s6.25,2.85,6.25,7.37v1Zm7.59-4.21a3.91,3.91,0,0,0-7.12,0,6.54,6.54,0,0,0-.47,2.54h8.05A6.37,6.37,0,0,0,461.85,625.84Z"/><path class="cls-10" d="M477.9,637.07v-1.45a5.39,5.39,0,0,1-4.4,1.64c-2.1,0-3.34-.41-4.3-1.4a4.37,4.37,0,0,1-1.14-3.09c0-2.66,1.85-4.39,5.26-4.39h4.58v-1.46c0-2.23-1.12-3.34-3.9-3.34-1.95,0-2.94.47-3.84,1.73l-1.51-1.39c1.36-1.76,2.9-2.26,5.38-2.26,4.08,0,6.09,1.77,6.09,5.08v10.33Zm0-7h-4.28c-2.28,0-3.4.93-3.4,2.69s1.09,2.6,3.5,2.6a4.47,4.47,0,0,0,3.4-1,3.5,3.5,0,0,0,.78-2.63Z"/><path class="cls-10" d="M495.27,637.07V627.7c0-2.7-1.45-4.06-3.74-4.06s-3.78,1.4-3.78,4.06v9.37h-2.22V621.85h2.22v1.67a5.5,5.5,0,0,1,4.27-1.86,5.34,5.34,0,0,1,3.9,1.43,5.58,5.58,0,0,1,1.58,4.23v9.75Z"/><path class="cls-10" d="M517.88,637.26a7.86,7.86,0,0,1-5.63-2.29c-2.08-2.08-2.08-4.24-2.08-8.91s0-6.84,2.08-8.91a7.81,7.81,0,0,1,5.63-2.29,7.42,7.42,0,0,1,7.64,6.56h-2.41a5.2,5.2,0,0,0-5.23-4.46,5.31,5.31,0,0,0-3.81,1.55c-1.39,1.42-1.55,2.94-1.55,7.55s.16,6.12,1.55,7.55a5.34,5.34,0,0,0,3.81,1.54,5.26,5.26,0,0,0,5.29-4.45h2.35A7.43,7.43,0,0,1,517.88,637.26Z"/><path class="cls-10" d="M540.08,635.52a6.35,6.35,0,0,1-8.73,0c-1.54-1.57-1.85-3.71-1.85-6.06s.31-4.49,1.85-6.06a6.35,6.35,0,0,1,8.73,0c1.55,1.57,1.86,3.71,1.86,6.06S541.63,634,540.08,635.52Zm-1.58-10.76a3.91,3.91,0,0,0-2.78-1.12,3.86,3.86,0,0,0-2.76,1.12c-1.11,1.11-1.23,3-1.23,4.7s.12,3.59,1.23,4.7a3.86,3.86,0,0,0,2.76,1.12,3.91,3.91,0,0,0,2.78-1.12c1.12-1.11,1.21-3,1.21-4.7S539.62,625.87,538.5,624.76Z"/><path class="cls-10" d="M566.24,637.07V627.7c0-2.7-1.45-4.06-3.73-4.06a3.56,3.56,0,0,0-3.81,3.81v9.62h-2.23V627.7c0-2.7-1.46-4.06-3.74-4.06s-3.81,1.4-3.81,4.06v9.37h-2.23V621.85h2.23v1.67a5.56,5.56,0,0,1,4.3-1.86,5,5,0,0,1,4.67,2.54,5.84,5.84,0,0,1,5-2.54,5.51,5.51,0,0,1,3.93,1.43,5.63,5.63,0,0,1,1.65,4.23v9.75Z"/><path class="cls-10" d="M593.43,637.07V627.7c0-2.7-1.46-4.06-3.75-4.06a3.56,3.56,0,0,0-3.8,3.81v9.62h-2.23V627.7c0-2.7-1.46-4.06-3.74-4.06s-3.81,1.4-3.81,4.06v9.37h-2.23V621.85h2.23v1.67a5.54,5.54,0,0,1,4.3-1.86,5,5,0,0,1,4.67,2.54,5.84,5.84,0,0,1,5-2.54,5.51,5.51,0,0,1,3.92,1.43,5.62,5.62,0,0,1,1.64,4.23v9.75Z"/><path class="cls-10" d="M600.93,617.52V615h2.51v2.51Zm.12,19.55V621.85h2.23v15.22Z"/><path class="cls-10" d="M613.67,637.26a8.4,8.4,0,0,1-6.25-2.2l1.49-1.49a6.23,6.23,0,0,0,4.73,1.77c2.51,0,4.06-.9,4.06-2.69,0-1.33-.78-2.08-2.54-2.23l-2.51-.22c-3-.25-4.55-1.58-4.55-4.08,0-2.79,2.36-4.46,5.6-4.46a8.63,8.63,0,0,1,5.48,1.64l-1.45,1.46a6.5,6.5,0,0,0-4.06-1.21c-2.22,0-3.4,1-3.4,2.51,0,1.3.74,2.07,2.66,2.22l2.45.22c2.66.25,4.48,1.27,4.48,4.11S617.36,637.26,613.67,637.26Z"/><path class="cls-10" d="M628.51,637.26a8.38,8.38,0,0,1-6.25-2.2l1.49-1.49a6.2,6.2,0,0,0,4.73,1.77c2.51,0,4-.9,4-2.69,0-1.33-.77-2.08-2.53-2.23l-2.51-.22c-3-.25-4.55-1.58-4.55-4.08,0-2.79,2.35-4.46,5.6-4.46A8.63,8.63,0,0,1,634,623.3l-1.45,1.46a6.5,6.5,0,0,0-4.06-1.21c-2.23,0-3.4,1-3.4,2.51,0,1.3.74,2.07,2.66,2.22l2.44.22c2.66.25,4.49,1.27,4.49,4.11S632.19,637.26,628.51,637.26Z"/><path class="cls-10" d="M638.93,617.52V615h2.51v2.51Zm.12,19.55V621.85h2.23v15.22Z"/><path class="cls-10" d="M656.66,635.52a6.35,6.35,0,0,1-8.73,0c-1.55-1.57-1.86-3.71-1.86-6.06s.31-4.49,1.86-6.06a6.35,6.35,0,0,1,8.73,0c1.54,1.57,1.85,3.71,1.85,6.06S658.2,634,656.66,635.52Zm-1.58-10.76a3.91,3.91,0,0,0-2.79-1.12,3.84,3.84,0,0,0-2.75,1.12c-1.11,1.11-1.24,3-1.24,4.7s.13,3.59,1.24,4.7a3.84,3.84,0,0,0,2.75,1.12,3.91,3.91,0,0,0,2.79-1.12c1.11-1.11,1.2-3,1.2-4.7S656.19,625.87,655.08,624.76Z"/><path class="cls-10" d="M673,637.07V627.7c0-2.7-1.45-4.06-3.74-4.06s-3.78,1.4-3.78,4.06v9.37h-2.23V621.85h2.23v1.67a5.48,5.48,0,0,1,4.27-1.86,5.34,5.34,0,0,1,3.9,1.43,5.62,5.62,0,0,1,1.58,4.23v9.75Z"/></g></svg>