<svg xmlns="http://www.w3.org/2000/svg" viewBox="0 0 1000 1000"><defs><style>.cls-1,.cls-2{fill:none;}.cls-1{stroke:#010101;stroke-miterlimit:10;stroke-width:5.94px;}</style></defs><title>READCHINA-logo-color-white</title><g id="Layer_7" data-name="Layer 7"><path class="cls-1" d="M263,499.3c54.18-3.12,96.66-48.1,96.66-103.08A103,103,0,0,0,256.68,293a103,103,0,0,1,103,103.25c0,55-42.48,100-96.66,103.08,110,4,198.11,94.77,198.56,205.32l37.11-.65c0-110.92-88.33-202.15-198.57-206.15,54.18-3.12,96.66-48.1,96.66-103.08a103,103,0,0,0-103-103.25l-12.23.21a103,103,0,0,1,96.65,103c0,55-42.48,100-96.66,103.08,110.24,4,198.56,95.23,198.57,206.15,0-110.92-88.33-202.15-198.57-206.15,54.18-3.12,96.66-48.1,96.66-103.08a103,103,0,0,0-96.65-103l-156.94,2.75a103,103,0,0,1,103,103.26c0,55-42.48,100-96.67,103.07,110.24,4,198.57,95.23,198.58,206.15l19.27-.33c-1-110.1-88.92-200.35-198.55-204.33,54.18-3.12,96.66-48.1,96.66-103.08a103,103,0,0,0-103-103.25,103,103,0,0,1,103,103.25c0,55-42.48,100-96.66,103.08,109.63,4,197.57,94.23,198.55,204.33l18.54-.33c-1.14-109.95-89-200-198.54-204,54.18-3.12,96.66-48.1,96.66-103.08a103,103,0,0,0-103-103.25,103,103,0,0,1,103,103.25c0,55-42.48,100-96.66,103.08,109.52,4,197.4,94.05,198.54,204l18.57-.33c-.54-110.47-88.65-201.17-198.56-205.16C241.49,497.67,284,452.69,284,397.71A103,103,0,0,0,181,294.45,103,103,0,0,1,284,397.71c0,55-42.48,100-96.66,103.07,109.91,4,198,94.69,198.56,205.16l19.28-.33c-1.11-110-89-200.11-198.55-204.08,54.18-3.12,96.66-48.1,96.66-103.08a103,103,0,0,0-103-103.25,103,103,0,0,1,103,103.25c0,55-42.48,100-96.66,103.08,109.55,4,197.44,94.1,198.55,204.08l19.31-.34c-.11-110.84-88.39-202-198.57-206,54.18-3.12,96.66-48.1,96.66-103.08A103,103,0,0,0,219.58,293a103,103,0,0,1,103,103.25c0,55-42.48,100-96.66,103.08,110.18,4,198.46,95.13,198.57,206l18.55-.33c-.28-110.69-88.5-201.64-198.57-205.64,54.18-3.12,96.66-48.1,96.66-103.08A103,103,0,0,0,238.13,293a103,103,0,0,1,103,103.25c0,55-42.48,100-96.66,103.08,110.07,4,198.29,94.95,198.57,205.64l18.54-.32C461.1,594.07,373,503.29,263,499.3Z"/><path class="cls-1" d="M573.42,497.2c0-108.56,83.57-197.53,189.77-205.79l-17.45-.08C639,299.06,554.87,388.27,554.87,497.2c0,114,92.14,206.41,205.89,206.41h0C647,703.61,554.87,611.2,554.87,497.2c0-108.93,84.14-198.14,190.87-205.87l-17.34-.07c-107.3,7.13-192.08,96.6-192.08,205.94,0,114,92.14,206.41,205.89,206.41h0c-113.75,0-205.89-92.41-205.89-206.41,0-109.34,84.78-198.81,192.08-205.94l-17.33-.08c-107.88,6.54-193.3,96.27-193.3,206,0,114,92.14,206.41,205.9,206.41h0c-113.76,0-205.9-92.41-205.9-206.41,0-109.75,85.42-199.48,193.3-206l-5.93,0c-113.76,0-205.92,92.42-205.92,206.42S591.36,704,705.12,704h2.54l72,.32c-2.62-.23-5.23-.5-7.83-.83C661.56,699.53,573.42,608.69,573.42,497.2Z"/><path class="cls-1" d="M666.17,498.31c0-114,92.16-206.42,205.92-206.42l-108.9-.48C657,299.67,573.42,388.64,573.42,497.2c0,111.49,88.14,202.33,198.43,206.26C670.39,690.65,592,603.85,592,498.68c0-114,92.16-206.41,205.92-206.41C684.13,292.27,592,384.68,592,498.68c0,105.17,78.42,192,179.88,204.78,2.48.09,5,.15,7.46.15h0c-2.49,0-5-.06-7.46-.15,2.6.33,5.21.6,7.83.83l25.22.11c-108.39-6-194.38-96-194.38-206.09,0-114,92.16-206.42,205.92-206.42-113.76,0-205.92,92.42-205.92,206.42,0,110.13,86,200.1,194.38,206.09l20.32.09C716,699.39,629.07,609,629.07,498.31c0-114,92.16-206.42,205.92-206.42-113.76,0-205.92,92.42-205.92,206.42C629.07,609,716,699.39,825.22,704.49l21,.09c-110.38-3.85-198.6-94.72-198.6-206.27,0-114,92.16-206.42,205.92-206.42-113.76,0-205.92,92.42-205.92,206.42,0,111.55,88.22,202.42,198.6,206.27l22.45.1C756.48,702.87,666.17,611.17,666.17,498.31Z"/><path class="cls-1" d="M874.61,704.71l-5.94,0c1.13,0,2.26.05,3.39.05Z"/><rect class="cls-2" width="1000" height="1000"/></g></svg>