<svg xmlns="http://www.w3.org/2000/svg" viewBox="0 0 3096.75 722.3"><defs><style>.cls-1{fill:none;stroke:#fff;stroke-miterlimit:10;stroke-width:7.64px;}.cls-2{font-size:60.2px;font-family:Lato-Regular, Lato;}.cls-2,.cls-7{fill:#fff;}.cls-3{letter-spacing:-0.01em;}.cls-4{letter-spacing:-0.03em;}.cls-5{letter-spacing:0em;}.cls-6{letter-spacing:-0.02em;}.cls-7{font-size:123.56px;font-family:Lato-Bold, Lato;font-weight:700;}.cls-8{letter-spacing:-0.01em;}.cls-9{letter-spacing:-0.02em;}.cls-10{letter-spacing:0em;}.cls-11{letter-spacing:-0.05em;}</style></defs><title>READCHINA logos</title><g id="Layer_12" data-name="Layer 12"><path class="cls-1" d="M446.81,361.48c69.69-4,124.34-61.87,124.34-132.59A132.46,132.46,0,0,0,438.7,96.08,132.46,132.46,0,0,1,571.15,228.89c0,70.72-54.65,128.58-124.34,132.59,141.44,5.13,254.83,121.91,255.41,264.09l47.73-.83c0-142.68-113.62-260-255.42-265.17,69.7-4,124.34-61.87,124.34-132.58A132.46,132.46,0,0,0,486.42,94.17l-15.73.28A132.43,132.43,0,0,1,595,227c0,70.71-54.64,128.57-124.34,132.58,141.8,5.15,255.41,122.49,255.42,265.17,0-142.68-113.62-260-255.42-265.17C540.37,355.56,595,297.7,595,227A132.43,132.43,0,0,0,470.69,94.45L268.81,98A132.46,132.46,0,0,1,401.26,230.8c0,70.72-54.64,128.58-124.33,132.59,141.79,5.15,255.4,122.49,255.42,265.16l24.78-.43c-1.25-141.61-114.37-257.7-255.39-262.82,69.7-4,124.34-61.87,124.34-132.59A132.46,132.46,0,0,0,293.63,99.9,132.46,132.46,0,0,1,426.08,232.71c0,70.72-54.64,128.58-124.34,132.59,141,5.12,254.14,121.21,255.39,262.82L581,627.7C579.52,486.28,466.48,370.41,325.6,365.3c69.7-4,124.34-61.87,124.34-132.59A132.46,132.46,0,0,0,317.49,99.9,132.46,132.46,0,0,1,449.94,232.71c0,70.72-54.64,128.58-124.34,132.59,140.88,5.11,253.92,121,255.39,262.4l23.88-.42c-.69-142.09-114-258.76-255.41-263.89,69.7-4,124.34-61.87,124.34-132.59A132.46,132.46,0,0,0,341.35,98,132.46,132.46,0,0,1,473.8,230.8c0,70.72-54.64,128.58-124.34,132.59,141.38,5.13,254.72,121.8,255.41,263.89l24.79-.43c-1.41-141.47-114.47-257.39-255.38-262.51,69.69-4,124.33-61.86,124.33-132.58A132.45,132.45,0,0,0,366.16,99,132.45,132.45,0,0,1,498.61,231.76c0,70.72-54.64,128.57-124.33,132.58,140.91,5.12,254,121,255.38,262.51l24.85-.44c-.14-142.57-113.7-259.79-255.42-264.93,69.69-4,124.34-61.87,124.34-132.59A132.46,132.46,0,0,0,391,96.08,132.46,132.46,0,0,1,523.43,228.89c0,70.72-54.65,128.58-124.34,132.59,141.72,5.14,255.28,122.36,255.42,264.93l23.85-.42C678,483.61,564.53,366.62,423,361.48c69.69-4,124.34-61.87,124.34-132.59A132.46,132.46,0,0,0,414.84,96.08,132.46,132.46,0,0,1,547.29,228.89c0,70.72-54.65,128.58-124.34,132.59C564.53,366.62,678,483.61,678.36,626l23.86-.42C701.64,483.39,588.25,366.61,446.81,361.48Z"/><path class="cls-1" d="M846.11,358.77c0-139.62,107.49-254.07,244.09-264.69l-22.44-.1c-137.28,9.94-245.51,124.69-245.51,264.79,0,146.64,118.51,265.51,264.84,265.51l3.27,0-3.27,0c-146.33,0-264.84-118.87-264.84-265.51,0-140.1,108.23-254.85,245.51-264.79l-22.3-.1c-138,9.18-247.07,124.26-247.07,264.89,0,146.64,118.51,265.51,264.84,265.51l3.27,0-3.27,0c-146.33,0-264.84-118.87-264.84-265.51,0-140.63,109.05-255.71,247.07-264.89l-22.3-.1c-138.75,8.41-248.63,123.83-248.63,265,0,146.64,118.51,265.51,264.84,265.51l3.27,0-3.27,0c-146.33,0-264.84-118.87-264.84-265.51,0-141.16,109.88-256.58,248.63-265l-7.62,0c-146.32,0-264.87,118.87-264.87,265.5s118.51,265.51,264.84,265.51l3.27,0,92.64.41c-3.37-.3-6.73-.64-10.07-1.06C959.48,619,846.11,502.19,846.11,358.77Z"/><path class="cls-1" d="M965.41,360.21C965.41,213.57,1084,94.7,1230.28,94.7l-140.08-.62C953.6,104.7,846.11,219.15,846.11,358.77c0,143.42,113.37,260.25,255.24,265.32C970.83,607.61,870,496,870,360.68c0-146.63,118.55-265.5,264.87-265.5C988.52,95.18,870,214.05,870,360.68,870,496,970.83,607.61,1101.35,624.09c3.19.11,6.38.19,9.6.19l3.27,0-3.27,0c-3.22,0-6.41-.08-9.6-.19,3.34.42,6.7.76,10.07,1.06l32.44.14c-139.43-7.69-250-123.43-250-265.08,0-146.64,118.55-265.51,264.87-265.51-146.32,0-264.87,118.87-264.87,265.51,0,141.65,110.6,257.39,250,265.08l26.13.12c-140.5-6.56-252.3-122.78-252.3-265.2,0-146.64,118.55-265.51,264.87-265.51-146.32,0-264.87,118.87-264.87,265.51,0,142.42,111.8,258.64,252.3,265.2l27,.12c-142-5-255.45-121.84-255.45-265.32,0-146.64,118.55-265.51,264.87-265.51-146.32,0-264.87,118.87-264.87,265.51,0,143.48,113.48,260.36,255.45,265.32l28.89.13C1081.58,623.32,965.41,505.38,965.41,360.21Z"/><path class="cls-1" d="M1233.52,625.69l-7.63,0c1.45,0,2.9.05,4.36.05C1231.37,625.71,1232.45,625.71,1233.52,625.69Z"/></g><g id="Layer_14" data-name="Layer 14"><text class="cls-2" transform="translate(1288.16 614.06)">Uni<tspan class="cls-3" x="92.83" y="0">v</tspan><tspan x="122.87" y="0">ersity of </tspan><tspan class="cls-4" x="350.49" y="0">F</tspan><tspan class="cls-5" x="382.76" y="0">reiburg / E</tspan><tspan class="cls-6" x="656.79" y="0">R</tspan><tspan x="694.17" y="0">C Project (757365/SH5: 2018-2023)</tspan></text><text class="cls-7" transform="translate(1288.17 200.11)">READCHINA: <tspan x="0" y="148.27">The </tspan><tspan class="cls-8" x="233.64" y="148.27">P</tspan><tspan x="309.01" y="148.27">olitics of Reading in </tspan><tspan x="0" y="296.53">the </tspan><tspan class="cls-9" x="207.94" y="296.53">P</tspan><tspan class="cls-10" x="283.31" y="296.53">eopl</tspan><tspan class="cls-11" x="522.94" y="296.53">e</tspan><tspan x="583.05" y="296.53">’s Republic of China</tspan></text></g></svg>