<svg xmlns="http://www.w3.org/2000/svg" xmlns:xlink="http://www.w3.org/1999/xlink" viewBox="0 0 4069.16 778.4"><defs><style>.cls-1{font-size:139.56px;fill:#231f20;font-family:Lato-Bold, Lato;font-weight:700;}.cls-2{letter-spacing:-0.01em;}.cls-3{letter-spacing:-0.02em;}.cls-4{letter-spacing:-0.05em;}.cls-5,.cls-6{fill:none;stroke-miterlimit:10;}.cls-5{stroke:#231f20;stroke-width:7.64px;}.cls-6{stroke:#000;stroke-width:10px;}</style></defs><title>READCHINA logos</title><g id="Layer_10" data-name="Layer 10"><text class="cls-1" transform="translate(2108.76 258.16)">READCHINA: <tspan x="0" y="167.47">The </tspan><tspan class="cls-2" x="263.9" y="167.47">P</tspan><tspan x="349.04" y="167.47">olitics of Reading in </tspan><tspan x="0" y="334.95">the </tspan><tspan class="cls-3" x="234.88" y="334.95">P</tspan><tspan x="320.01" y="334.95">eopl</tspan><tspan class="cls-4" x="590.68" y="334.95">e</tspan><tspan x="658.58" y="334.95">’s Republic of China</tspan></text><path class="cls-5" d="M1214.47,389.79c69.69-4,124.34-61.86,124.34-132.58A132.46,132.46,0,0,0,1206.35,124.4a132.46,132.46,0,0,1,132.46,132.81c0,70.72-54.65,128.57-124.34,132.58,141.44,5.14,254.82,121.91,255.41,264.1l47.73-.84c0-142.67-113.62-260-255.42-265.17,69.69-4,124.34-61.86,124.34-132.58a132.46,132.46,0,0,0-132.46-132.81l-15.72.27A132.43,132.43,0,0,1,1362.67,255.3c0,70.72-54.65,128.57-124.34,132.58,141.8,5.15,255.41,122.5,255.42,265.17,0-142.67-113.62-260-255.42-265.17,69.69-4,124.34-61.86,124.34-132.58a132.43,132.43,0,0,0-124.32-132.54l-201.88,3.54a132.46,132.46,0,0,1,132.45,132.82c0,70.71-54.64,128.57-124.34,132.58C1186.38,396.85,1300,514.19,1300,656.87l24.79-.44c-1.25-141.61-114.37-257.7-255.39-262.82,69.69-4,124.34-61.87,124.34-132.58a132.47,132.47,0,0,0-132.46-132.82A132.47,132.47,0,0,1,1193.74,261c0,70.71-54.65,128.57-124.34,132.58,141,5.12,254.14,121.21,255.39,262.82l23.85-.42c-1.47-141.42-114.5-257.29-255.38-262.4,69.69-4,124.34-61.87,124.34-132.58a132.47,132.47,0,0,0-132.46-132.82A132.47,132.47,0,0,1,1217.6,261c0,70.71-54.65,128.57-124.34,132.58,140.88,5.11,253.91,121,255.38,262.4l23.88-.42c-.68-142.09-114-258.76-255.4-263.89,69.69-4,124.34-61.87,124.34-132.58A132.47,132.47,0,0,0,1109,126.3a132.47,132.47,0,0,1,132.46,132.82c0,70.71-54.65,128.57-124.34,132.58,141.37,5.13,254.72,121.8,255.4,263.89l24.8-.43c-1.42-141.47-114.47-257.39-255.39-262.5,69.7-4,124.34-61.87,124.34-132.59a132.45,132.45,0,0,0-132.45-132.81,132.45,132.45,0,0,1,132.45,132.81c0,70.72-54.64,128.58-124.34,132.59,140.92,5.11,254,121,255.39,262.5l24.85-.44c-.14-142.56-113.7-259.78-255.42-264.93,69.69-4,124.33-61.86,124.33-132.58A132.45,132.45,0,0,0,1158.63,124.4a132.45,132.45,0,0,1,132.45,132.81c0,70.72-54.64,128.57-124.33,132.58,141.72,5.15,255.28,122.37,255.42,264.93l23.85-.42c-.36-142.37-113.83-259.37-255.41-264.51,69.69-4,124.34-61.86,124.34-132.58A132.46,132.46,0,0,0,1182.49,124.4,132.46,132.46,0,0,1,1315,257.21c0,70.72-54.65,128.57-124.34,132.58,141.58,5.14,255.05,122.14,255.41,264.51l23.86-.41C1469.29,511.7,1355.91,394.93,1214.47,389.79Z"/><path class="cls-5" d="M1613.76,387.09c0-139.63,107.5-254.08,244.1-264.7l-22.44-.1C1698.14,132.23,1589.9,247,1589.9,387.09c0,146.63,118.52,265.5,264.84,265.5,1.13,0,2.21,0,3.27,0-1.06,0-2.14,0-3.27,0-146.32,0-264.84-118.87-264.84-265.5,0-140.11,108.24-254.86,245.52-264.8l-22.3-.1c-138,9.18-247.08,124.26-247.08,264.9,0,146.63,118.52,265.5,264.84,265.5,1.13,0,2.21,0,3.27,0-1.06,0-2.14,0-3.27,0-146.32,0-264.84-118.87-264.84-265.5,0-140.64,109.06-255.72,247.08-264.9l-22.3-.1c-138.76,8.41-248.64,123.83-248.64,265,0,146.63,118.52,265.5,264.84,265.5,1.13,0,2.21,0,3.27,0-1.06,0-2.14,0-3.27,0-146.32,0-264.84-118.87-264.84-265.5,0-141.17,109.88-256.59,248.64-265l-7.62,0c-146.33,0-264.88,118.87-264.88,265.5s118.52,265.51,264.84,265.51l3.27,0,92.65.41Q1874,653,1869,652.4C1727.13,647.34,1613.76,530.5,1613.76,387.09Z"/><path class="cls-5" d="M1733.06,388.52c0-146.64,118.56-265.51,264.88-265.51l-140.08-.62c-136.6,10.62-244.1,125.07-244.1,264.7,0,143.41,113.37,260.25,255.25,265.31-130.52-16.48-231.39-128.13-231.39-263.4,0-146.64,118.55-265.51,264.88-265.51-146.33,0-264.88,118.87-264.88,265.51,0,135.27,100.87,246.92,231.39,263.4,3.18.12,6.38.19,9.59.19,1.13,0,2.21,0,3.27,0-1.06,0-2.14,0-3.27,0-3.21,0-6.41-.07-9.59-.19q5,.63,10.07,1.06l32.44.15c-139.43-7.7-250-123.44-250-265.09C1661.48,241.88,1780,123,1926.36,123c-146.33,0-264.88,118.87-264.88,265.51,0,141.65,110.61,257.39,250,265.09l26.13.11c-140.5-6.56-252.31-122.78-252.31-265.2,0-146.64,118.55-265.51,264.88-265.51-146.33,0-264.88,118.87-264.88,265.51,0,142.42,111.81,258.64,252.31,265.2l27,.12c-142-5-255.46-121.84-255.46-265.32,0-146.64,118.55-265.51,264.88-265.51-146.33,0-264.88,118.87-264.88,265.51,0,143.48,113.49,260.37,255.46,265.32l28.88.13C1849.23,651.63,1733.06,533.69,1733.06,388.52Z"/><path class="cls-5" d="M2001.17,654l-7.63,0c1.46,0,2.91.06,4.36.06C1999,654,2000.11,654,2001.17,654Z"/><line class="cls-6" x1="844.75" y1="97.69" x2="844.75" y2="677.97"/><image width="1081" height="1044" transform="translate(122.71 118.86) scale(0.52)" xlink:href="../../../../PhD%20DOCUMENTATION/READCHINA/Corporate%20Identity/ERC%20Logos/LOGO_ERC-color.gif"/></g></svg>