<svg xmlns="http://www.w3.org/2000/svg" viewBox="0 0 3500 1000"><defs><style>.cls-1,.cls-2,.cls-3{fill:none;}.cls-1,.cls-3{stroke:#010101;stroke-miterlimit:10;}.cls-1{stroke-width:10px;}.cls-3{stroke-width:8.78px;}.cls-4{font-size:120px;font-family:Lato-Bold, Lato;font-weight:700;}.cls-15,.cls-4{fill:#010101;}.cls-5{letter-spacing:-0.01em;}.cls-6{letter-spacing:0em;}.cls-7{letter-spacing:-0.02em;}.cls-8{letter-spacing:0em;}.cls-9{letter-spacing:-0.01em;}.cls-10{letter-spacing:-0.02em;}.cls-11{letter-spacing:-0.03em;}.cls-12{letter-spacing:-0.02em;}.cls-13{letter-spacing:-0.02em;}.cls-14{letter-spacing:-0.02em;}.cls-15{font-size:68px;font-family:Lato-Regular, Lato;}.cls-16{letter-spacing:-0.02em;}.cls-17{letter-spacing:-0.01em;}.cls-18{letter-spacing:0em;}.cls-19{letter-spacing:-0.02em;}.cls-20{letter-spacing:-0.01em;}.cls-21{letter-spacing:-0.02em;}.cls-22{letter-spacing:-0.04em;}.cls-23{letter-spacing:-0.02em;}.cls-24{letter-spacing:-0.01em;}.cls-25{letter-spacing:-0.01em;}.cls-26{letter-spacing:-0.01em;}.cls-27{letter-spacing:0em;}</style></defs><title>Asset 5</title><g id="Layer_2" data-name="Layer 2"><g id="Layer_3" data-name="Layer 3"><line class="cls-1" x1="1350.75" y1="167.22" x2="1350.75" y2="835.78"/><line class="cls-2" y1="833" x2="3500" y2="833"/><line class="cls-2" y1="667" x2="3500" y2="667"/><line class="cls-2" y1="500" x2="3500" y2="500"/><line class="cls-2" y1="333" x2="3500" y2="333"/><line class="cls-2" y1="167" x2="3500" y2="167"/><line class="cls-2" x1="2917" x2="2917" y2="1000"/><line class="cls-2" x1="2333" x2="2333" y2="1000"/><line class="cls-2" x1="1750" x2="1750" y2="1000"/><line class="cls-2" x1="1167" x2="1167" y2="1000"/><line class="cls-2" x1="583" x2="583" y2="1000"/><path class="cls-3" d="M314.14,507.59c80.16-4.62,143-71.16,143-152.5A152.33,152.33,0,0,0,304.8,202.34,152.33,152.33,0,0,1,457.14,355.09c0,81.34-62.84,147.88-143,152.5,162.68,5.9,293.09,140.21,293.76,303.75l54.9-1c0-164.09-130.69-299.06-293.78-305,80.16-4.61,143-71.16,143-152.49A152.35,152.35,0,0,0,359.69,200.14l-18.09.32a152.31,152.31,0,0,1,143,152.44c0,81.33-62.85,147.88-143,152.49,163.09,5.92,293.76,140.89,293.78,305,0-164.09-130.69-299.06-293.78-305,80.16-4.61,143-71.16,143-152.49a152.31,152.31,0,0,0-143-152.44l-232.19,4.07A152.35,152.35,0,0,1,261.75,357.29c0,81.33-62.85,147.88-143,152.49,163.09,5.92,293.76,140.89,293.78,305l28.5-.51C439.58,651.39,309.48,517.87,147.28,512c80.16-4.61,143-71.16,143-152.5A152.35,152.35,0,0,0,138,206.73,152.35,152.35,0,0,1,290.29,359.48c0,81.34-62.85,147.89-143,152.5,162.2,5.89,292.3,139.41,293.74,302.28l27.44-.48C466.77,651.13,336.76,517.86,174.72,512c80.16-4.61,143-71.16,143-152.5A152.34,152.34,0,0,0,165.39,206.73,152.34,152.34,0,0,1,317.73,359.48c0,81.34-62.85,147.89-143,152.5,162,5.88,292,139.15,293.74,301.8l27.47-.48c-.8-163.43-131.16-297.62-293.76-303.52,80.16-4.61,143-71.16,143-152.49A152.35,152.35,0,0,0,192.83,204.53,152.35,152.35,0,0,1,345.18,357.29c0,81.33-62.85,147.88-143,152.49,162.6,5.9,293,140.09,293.76,303.52l28.52-.5c-1.63-162.71-131.67-296-293.74-301.92,80.16-4.61,143-71.16,143-152.5A152.35,152.35,0,0,0,221.38,205.63,152.35,152.35,0,0,1,373.72,358.38c0,81.34-62.85,147.89-143,152.5,162.07,5.88,292.11,139.21,293.74,301.92l28.57-.5c-.16-164-130.77-298.8-293.77-304.71,80.16-4.62,143-71.16,143-152.5A152.34,152.34,0,0,0,249.92,202.34,152.34,152.34,0,0,1,402.26,355.09c0,81.34-62.85,147.88-143,152.5C422.25,513.5,552.86,648.33,553,812.3l27.44-.48c-.41-163.76-130.93-298.32-293.77-304.23,80.16-4.62,143-71.16,143-152.5A152.33,152.33,0,0,0,277.36,202.34,152.33,152.33,0,0,1,429.7,355.09c0,81.34-62.85,147.88-143,152.5,162.84,5.91,293.36,140.47,293.77,304.23l27.44-.48C607.23,647.8,476.82,513.49,314.14,507.59Z"/><path class="cls-3" d="M773.39,504.48c0-160.6,123.64-292.24,280.76-304.45l-25.82-.12C870.44,211.34,746,343.33,746,504.48c0,168.65,136.31,305.37,304.61,305.37l3.76,0-3.76,0C882.26,809.85,746,673.13,746,504.48c0-161.15,124.49-293.14,282.38-304.57l-25.65-.11C843.94,210.36,718.51,342.72,718.51,504.48c0,168.65,136.31,305.37,304.61,305.37l3.76,0-3.76,0c-168.3,0-304.61-136.72-304.61-305.37,0-161.76,125.43-294.12,284.17-304.68L977,199.69c-159.59,9.67-286,142.42-286,304.79,0,168.65,136.31,305.37,304.61,305.37l3.76,0-3.76,0c-168.3,0-304.61-136.72-304.61-305.37,0-162.37,126.38-295.12,286-304.79l-8.76,0C800,199.65,663.62,336.37,663.62,505S799.93,810.4,968.23,810.4l3.76,0,106.56.47c-3.88-.34-7.75-.73-11.59-1.22C903.79,803.81,773.39,669.42,773.39,504.48Z"/><path class="cls-3" d="M910.61,506.12c0-168.65,136.35-305.38,304.65-305.38L1054.15,200C897,212.24,773.39,343.88,773.39,504.48c0,164.94,130.4,299.33,293.57,305.15-150.11-19-266.12-147.37-266.12-303,0-168.65,136.35-305.38,304.65-305.38-168.3,0-304.65,136.73-304.65,305.38,0,155.59,116,284,266.12,303,3.67.13,7.34.22,11,.22l3.76,0-3.76,0c-3.7,0-7.37-.09-11-.22,3.84.49,7.71.88,11.59,1.22l37.31.17c-160.37-8.86-287.58-142-287.58-304.9,0-168.65,136.35-305.38,304.65-305.38-168.3,0-304.65,136.73-304.65,305.38,0,162.93,127.21,296,287.58,304.9l30.05.13c-161.59-7.55-290.19-141.22-290.19-305,0-168.65,136.35-305.38,304.65-305.38-168.3,0-304.65,136.73-304.65,305.38,0,163.81,128.6,297.48,290.19,305l31.07.14c-163.29-5.7-293.82-140.14-293.82-305.17,0-168.65,136.36-305.38,304.65-305.38-168.29,0-304.65,136.73-304.65,305.38,0,165,130.53,299.47,293.82,305.17l33.22.15C1044.22,808.75,910.61,673.1,910.61,506.12Z"/><path class="cls-3" d="M1219,811.47l-8.78,0c1.67,0,3.34.06,5,.06C1216.51,811.5,1217.75,811.49,1219,811.47Z"/><text class="cls-4" transform="translate(1487.67 314.71)">READCHINA: <tspan class="cls-5" x="0" y="144">T</tspan><tspan class="cls-6" x="70.92" y="144">he </tspan><tspan class="cls-7" x="231.84" y="144">P</tspan><tspan class="cls-8" x="303.3" y="144">olitics </tspan><tspan class="cls-9" x="649.49" y="144">o</tspan><tspan class="cls-10" x="716.93" y="144">f</tspan><tspan class="cls-8" x="757.67" y="144"> </tspan><tspan class="cls-11" x="786.83" y="144">R</tspan><tspan x="859.97" y="144">eading in </tspan><tspan x="0" y="288">the </tspan><tspan class="cls-12" x="205.56" y="288">P</tspan><tspan x="277.02" y="288">eopl</tspan><tspan class="cls-13" x="508.01" y="288">e</tspan><tspan class="cls-14" x="570.11" y="288">’</tspan><tspan x="593.81" y="288">s </tspan><tspan class="cls-11" x="675.71" y="288">R</tspan><tspan x="748.85" y="288">epublic </tspan><tspan class="cls-9" x="1164.17" y="288">o</tspan><tspan class="cls-10" x="1231.61" y="288">f</tspan><tspan class="cls-8" x="1272.35" y="288" xml:space="preserve"> China</tspan></text><text class="cls-15" transform="translate(1487.67 766.27)"><tspan class="cls-16">U</tspan><tspan x="48.99" y="0">ni</tspan><tspan class="cls-17" x="103.26" y="0">v</tspan><tspan x="137.39" y="0">e</tspan><tspan class="cls-18" x="173.3" y="0">r</tspan><tspan x="197.85" y="0">sit</tspan><tspan class="cls-19" x="267.99" y="0">y</tspan><tspan x="301.37" y="0"> </tspan><tspan class="cls-20" x="318.78" y="0">o</tspan><tspan class="cls-21" x="356.59" y="0">f</tspan><tspan x="379.17" y="0"> </tspan><tspan class="cls-22" x="396.57" y="0">F</tspan><tspan class="cls-23" x="432.1" y="0">r</tspan><tspan x="455.46" y="0">eibu</tspan><tspan class="cls-24" x="583.67" y="0">r</tspan><tspan x="607.64" y="0">g / E</tspan><tspan class="cls-25" x="747.82" y="0">R</tspan><tspan x="789.95" y="0">C </tspan><tspan class="cls-26" x="852.78" y="0">P</tspan><tspan class="cls-23" x="892.97" y="0">r</tspan><tspan class="cls-27" x="916.33" y="0">oject (757365/SH5: 2018-2023)</tspan></text></g></g></svg>