<svg xmlns="http://www.w3.org/2000/svg" viewBox="0 0 3500 1000"><defs><style>.cls-1{font-size:140px;fill:#010101;font-family:Lato-Bold, Lato;font-weight:700;}.cls-2{letter-spacing:-0.01em;}.cls-3{letter-spacing:0em;}.cls-4{letter-spacing:-0.02em;}.cls-5{letter-spacing:-0.01em;}.cls-6{letter-spacing:-0.02em;}.cls-7{letter-spacing:-0.03em;}.cls-8{letter-spacing:-0.02em;}.cls-9{letter-spacing:-0.02em;}.cls-10{letter-spacing:-0.02em;}.cls-11{letter-spacing:-0.01em;}.cls-12,.cls-13,.cls-14{fill:none;}.cls-12,.cls-14{stroke:#010101;stroke-miterlimit:10;}.cls-12{stroke-width:8.28px;}.cls-14{stroke-width:10px;}</style></defs><title>Asset 6</title><g id="Layer_2" data-name="Layer 2"><g id="Layer_6" data-name="Layer 6"><text class="cls-1" transform="translate(1467.53 366.98)">READCHINA: <tspan class="cls-2" x="0" y="168">T</tspan><tspan class="cls-3" x="82.74" y="168">he </tspan><tspan class="cls-4" x="270.48" y="168">P</tspan><tspan x="353.85" y="168">olitics </tspan><tspan class="cls-5" x="757.74" y="168">o</tspan><tspan class="cls-6" x="836.42" y="168">f</tspan><tspan x="883.95" y="168"> </tspan><tspan class="cls-7" x="917.97" y="168">R</tspan><tspan x="1003.3" y="168">eading in </tspan><tspan x="0" y="336">the </tspan><tspan class="cls-8" x="239.82" y="336">P</tspan><tspan x="323.19" y="336">eopl</tspan><tspan class="cls-9" x="592.68" y="336">e</tspan><tspan class="cls-10" x="665.13" y="336">’</tspan><tspan x="692.78" y="336">s </tspan><tspan class="cls-7" x="788.33" y="336">R</tspan><tspan x="873.66" y="336">epublic </tspan><tspan class="cls-11" x="1358.19" y="336">o</tspan><tspan class="cls-6" x="1436.87" y="336">f</tspan><tspan x="1484.4" y="336" xml:space="preserve"> China</tspan></text><path class="cls-12" d="M345.25,501c75.62-4.36,134.91-67.13,134.91-143.86A143.73,143.73,0,0,0,336.44,213,143.73,143.73,0,0,1,480.16,357.13c0,76.73-59.29,139.5-134.91,143.86,153.46,5.57,276.49,132.27,277.12,286.54l51.79-.91c0-154.8-123.28-282.12-277.13-287.71,75.62-4.35,134.9-67.12,134.9-143.85A143.72,143.72,0,0,0,388.22,211l-17.06.3A143.69,143.69,0,0,1,506.05,355.06c0,76.73-59.29,139.5-134.91,143.85C525,504.5,648.26,631.82,648.27,786.62c0-154.8-123.28-282.12-277.13-287.71,75.62-4.35,134.91-67.12,134.91-143.85A143.69,143.69,0,0,0,371.16,211.25l-219,3.85A143.71,143.71,0,0,1,295.83,359.2c0,76.73-59.29,139.51-134.91,143.86C314.77,508.64,438,636,438.06,790.77l26.89-.48c-1.36-153.65-124.1-279.61-277.11-285.16,75.62-4.35,134.91-67.13,134.91-143.86A143.71,143.71,0,0,0,179,217.17a143.71,143.71,0,0,1,143.71,144.1c0,76.73-59.29,139.51-134.91,143.86,153,5.55,275.75,131.51,277.11,285.16l25.88-.45c-1.59-153.44-124.24-279.16-277.1-284.71,75.62-4.35,134.91-67.13,134.91-143.86a143.71,143.71,0,0,0-143.71-144.1,143.71,143.71,0,0,1,143.71,144.1c0,76.73-59.29,139.51-134.91,143.86,152.86,5.55,275.51,131.27,277.1,284.71l25.91-.46C516,635.21,393,508.63,239.62,503.06c75.62-4.35,134.91-67.13,134.91-143.86A143.71,143.71,0,0,0,230.82,215.1,143.71,143.71,0,0,1,374.53,359.2c0,76.73-59.29,139.51-134.91,143.86C393,508.63,516,635.21,516.74,789.38l26.91-.47c-1.54-153.49-124.21-279.27-277.1-284.82,75.62-4.35,134.91-67.12,134.91-143.86a143.72,143.72,0,0,0-143.72-144.1,143.72,143.72,0,0,1,143.72,144.1c0,76.74-59.29,139.51-134.91,143.86,152.89,5.55,275.56,131.33,277.1,284.82l27-.47C570.45,633.75,447.24,506.57,293.47,501c75.62-4.36,134.91-67.13,134.91-143.86A143.73,143.73,0,0,0,284.67,213,143.73,143.73,0,0,1,428.38,357.13c0,76.73-59.29,139.5-134.91,143.86,153.77,5.58,277,132.76,277.13,287.45l25.89-.45C596.1,633.5,473,506.56,319.36,501c75.62-4.36,134.91-67.13,134.91-143.86A143.73,143.73,0,0,0,310.56,213,143.73,143.73,0,0,1,454.27,357.13c0,76.73-59.29,139.5-134.91,143.86C473,506.56,596.1,633.5,596.49,788l25.88-.46C621.74,633.26,498.71,506.56,345.25,501Z"/><path class="cls-12" d="M778.49,498.05c0-151.5,116.63-275.68,264.85-287.2l-24.35-.11C870,221.52,752.6,346,752.6,498.05c0,159.1,128.6,288.08,287.36,288.08l3.55,0-3.55,0c-158.76,0-287.36-129-287.36-288.08C752.6,346,870,221.52,1019,210.74l-24.2-.11C845,220.59,726.71,345.46,726.71,498.05c0,159.1,128.6,288.08,287.36,288.08l3.55,0-3.55,0c-158.76,0-287.36-129-287.36-288.08,0-152.59,118.33-277.46,268.08-287.42l-24.19-.11c-150.55,9.13-269.77,134.36-269.77,287.53,0,159.1,128.59,288.08,287.35,288.08l3.55,0-3.55,0c-158.76,0-287.35-129-287.35-288.08,0-153.17,119.22-278.4,269.77-287.53l-8.27,0c-158.76,0-287.39,129-287.39,288.08S803.53,786.65,962.29,786.65l3.55,0,100.52.44c-3.66-.32-7.3-.69-10.93-1.15C901.5,780.43,778.49,653.66,778.49,498.05Z"/><path class="cls-12" d="M907.94,499.6c0-159.1,128.63-288.08,287.39-288.08l-152-.67c-148.22,11.52-264.85,135.7-264.85,287.2,0,155.61,123,282.38,276.94,287.87C913.82,768,804.38,646.9,804.38,500.12,804.38,341,933,212,1091.78,212,933,212,804.38,341,804.38,500.12c0,146.78,109.44,267.92,251.05,285.8,3.46.13,6.93.21,10.42.21l3.55,0-3.55,0c-3.49,0-7-.08-10.42-.21,3.63.46,7.27.83,10.93,1.15l35.2.16C950.28,778.88,830.27,653.3,830.27,499.6c0-159.1,128.63-288.08,287.39-288.08-158.76,0-287.39,129-287.39,288.08,0,153.7,120,279.28,271.29,287.63l28.35.12C977.47,780.24,856.16,654.13,856.16,499.6c0-159.1,128.63-288.08,287.39-288.08-158.76,0-287.39,129-287.39,288.08,0,154.53,121.31,280.64,273.75,287.75l29.31.13c-154-5.37-277.17-132.19-277.17-287.88,0-159.1,128.63-288.08,287.39-288.08-158.76,0-287.39,129-287.39,288.08,0,155.69,123.13,282.51,277.17,287.88l31.34.14C1034,785.09,907.94,657.12,907.94,499.6Z"/><path class="cls-12" d="M1198.84,787.66l-8.28,0c1.58,0,3.15.06,4.73.06C1196.51,787.68,1197.69,787.68,1198.84,787.66Z"/><line class="cls-13" y1="833" x2="3500" y2="833"/><line class="cls-13" y1="667" x2="3500" y2="667"/><line class="cls-13" y1="500" x2="3500" y2="500"/><line class="cls-13" y1="333" x2="3500" y2="333"/><line class="cls-13" y1="167" x2="3500" y2="167"/><line class="cls-13" x1="2917" x2="2917" y2="1000"/><line class="cls-13" x1="2333" x2="2333" y2="1000"/><line class="cls-13" x1="1750" x2="1750" y2="1000"/><line class="cls-13" x1="1167" x2="1167" y2="1000"/><line class="cls-13" x1="583" x2="583" y2="1000"/><line class="cls-14" x1="1330.61" y1="210.49" x2="1330.61" y2="790.77"/></g></g></svg>