<svg xmlns="http://www.w3.org/2000/svg" viewBox="0 0 3096.75 722.3"><defs><style>.cls-1{font-size:60.2px;fill:#010101;font-family:Lato-Regular, Lato;}.cls-2{letter-spacing:-0.01em;}.cls-3{letter-spacing:-0.03em;}.cls-4{letter-spacing:0em;}.cls-5{letter-spacing:-0.02em;}.cls-6{font-size:123.56px;fill:#231f20;font-family:Lato-Bold, Lato;font-weight:700;}.cls-7{letter-spacing:-0.01em;}.cls-8{letter-spacing:-0.02em;}.cls-9{letter-spacing:0em;}.cls-10{letter-spacing:-0.05em;}.cls-11{fill:none;stroke:#231f20;stroke-miterlimit:10;stroke-width:7.64px;}</style></defs><title>READCHINA logos</title><g id="Layer_11" data-name="Layer 11"><text class="cls-1" transform="translate(1288.16 614.13)">Uni<tspan class="cls-2" x="92.83" y="0">v</tspan><tspan x="122.87" y="0">ersity of </tspan><tspan class="cls-3" x="350.49" y="0">F</tspan><tspan class="cls-4" x="382.76" y="0">reiburg / E</tspan><tspan class="cls-5" x="656.79" y="0">R</tspan><tspan x="694.17" y="0">C Project (757365/SH5: 2018-2023)</tspan></text><text class="cls-6" transform="translate(1288.16 200.19)">READCHINA: <tspan x="0" y="148.27">The </tspan><tspan class="cls-7" x="233.64" y="148.27">P</tspan><tspan x="309.01" y="148.27">olitics of Reading in </tspan><tspan x="0" y="296.53">the </tspan><tspan class="cls-8" x="207.94" y="296.53">P</tspan><tspan class="cls-9" x="283.31" y="296.53">eopl</tspan><tspan class="cls-10" x="522.94" y="296.53">e</tspan><tspan x="583.05" y="296.53">’s Republic of China</tspan></text><path class="cls-11" d="M392.16,361.48c69.7-4,124.34-61.87,124.34-132.59A132.46,132.46,0,0,0,384.05,96.08,132.46,132.46,0,0,1,516.5,228.89c0,70.72-54.64,128.58-124.34,132.59C533.6,366.61,647,483.39,647.57,625.57l47.73-.83c0-142.68-113.62-260-255.42-265.17,69.7-4,124.34-61.87,124.34-132.58A132.46,132.46,0,0,0,431.77,94.17L416,94.45A132.43,132.43,0,0,1,540.36,227c0,70.71-54.64,128.57-124.34,132.58,141.8,5.15,255.41,122.49,255.42,265.17,0-142.68-113.62-260-255.42-265.17,69.7-4,124.34-61.87,124.34-132.58A132.43,132.43,0,0,0,416,94.45L214.16,98A132.47,132.47,0,0,1,346.62,230.8c0,70.72-54.65,128.58-124.34,132.59,141.8,5.15,255.41,122.49,255.42,265.16l24.78-.43c-1.25-141.61-114.37-257.7-255.39-262.82,69.7-4,124.34-61.87,124.34-132.59A132.46,132.46,0,0,0,239,99.9,132.46,132.46,0,0,1,371.43,232.71c0,70.72-54.64,128.58-124.34,132.59,141,5.12,254.14,121.21,255.39,262.82l23.86-.42C524.87,486.28,411.83,370.41,271,365.3c69.7-4,124.34-61.87,124.34-132.59A132.46,132.46,0,0,0,262.84,99.9,132.46,132.46,0,0,1,395.29,232.71c0,70.72-54.64,128.58-124.34,132.59,140.88,5.11,253.92,121,255.39,262.4l23.88-.42c-.69-142.09-114-258.76-255.41-263.89,69.7-4,124.34-61.87,124.34-132.59A132.46,132.46,0,0,0,286.7,98,132.46,132.46,0,0,1,419.15,230.8c0,70.72-54.64,128.58-124.34,132.59,141.38,5.13,254.72,121.8,255.41,263.89l24.8-.43C573.6,485.38,460.54,369.46,319.63,364.34c69.69-4,124.34-61.86,124.34-132.58A132.46,132.46,0,0,0,311.51,99,132.46,132.46,0,0,1,444,231.76c0,70.72-54.65,128.57-124.34,132.58,140.91,5.12,254,121,255.39,262.51l24.84-.44c-.14-142.57-113.7-259.79-255.42-264.93,69.7-4,124.34-61.87,124.34-132.59A132.46,132.46,0,0,0,336.33,96.08,132.46,132.46,0,0,1,468.78,228.89c0,70.72-54.64,128.58-124.34,132.59,141.72,5.14,255.28,122.36,255.42,264.93l23.86-.42c-.36-142.38-113.84-259.37-255.42-264.51,69.7-4,124.34-61.87,124.34-132.59A132.46,132.46,0,0,0,360.19,96.08,132.46,132.46,0,0,1,492.64,228.89c0,70.72-54.64,128.58-124.34,132.59C509.88,366.62,623.36,483.61,623.72,626l23.85-.42C647,483.39,533.6,366.61,392.16,361.48Z"/><path class="cls-11" d="M791.46,358.77c0-139.62,107.49-254.07,244.1-264.69l-22.45-.1C875.83,103.92,767.6,218.67,767.6,358.77c0,146.64,118.51,265.51,264.84,265.51l3.27,0-3.27,0c-146.33,0-264.84-118.87-264.84-265.51,0-140.1,108.23-254.85,245.51-264.79l-22.3-.1c-138,9.18-247.07,124.26-247.07,264.89,0,146.64,118.51,265.51,264.84,265.51l3.27,0-3.27,0c-146.33,0-264.84-118.87-264.84-265.51,0-140.63,109.06-255.71,247.07-264.89l-22.3-.1c-138.75,8.41-248.63,123.83-248.63,265,0,146.64,118.51,265.51,264.84,265.51l3.27,0-3.27,0c-146.33,0-264.84-118.87-264.84-265.51,0-141.16,109.88-256.58,248.63-265l-7.62,0C814.57,93.75,696,212.62,696,359.25S814.53,624.76,960.86,624.76l3.27,0,92.64.41c-3.37-.3-6.73-.64-10.07-1.06C904.83,619,791.46,502.19,791.46,358.77Z"/><path class="cls-11" d="M910.76,360.21c0-146.64,118.55-265.51,264.87-265.51l-140.07-.62C899,104.7,791.46,219.15,791.46,358.77c0,143.42,113.37,260.25,255.24,265.32C916.19,607.61,815.32,496,815.32,360.68c0-146.63,118.55-265.5,264.87-265.5-146.32,0-264.87,118.87-264.87,265.5,0,135.28,100.87,246.93,231.38,263.41,3.19.11,6.38.19,9.6.19l3.27,0-3.27,0c-3.22,0-6.41-.08-9.6-.19,3.34.42,6.7.76,10.07,1.06l32.44.14c-139.43-7.69-250-123.43-250-265.08,0-146.64,118.55-265.51,264.87-265.51-146.32,0-264.87,118.87-264.87,265.51,0,141.65,110.6,257.39,250,265.08l26.13.12C974.85,618.85,863,502.63,863,360.21,863,213.57,981.59,94.7,1127.91,94.7,981.59,94.7,863,213.57,863,360.21c0,142.42,111.81,258.64,252.3,265.2l27,.12c-142-5-255.45-121.84-255.45-265.32,0-146.64,118.55-265.51,264.87-265.51-146.32,0-264.87,118.87-264.87,265.51,0,143.48,113.48,260.36,255.45,265.32l28.89.13C1026.93,623.32,910.76,505.38,910.76,360.21Z"/><path class="cls-11" d="M1178.87,625.69l-7.63,0c1.45,0,2.9.05,4.36.05C1176.73,625.71,1177.8,625.71,1178.87,625.69Z"/></g></svg>