<svg xmlns="http://www.w3.org/2000/svg" viewBox="0 0 3096.75 722.3"><defs><style>.cls-1{font-size:139.56px;fill:#231f20;font-family:Lato-Bold, Lato;font-weight:700;}.cls-2{letter-spacing:-0.01em;}.cls-3{letter-spacing:-0.02em;}.cls-4{letter-spacing:-0.05em;}.cls-5{fill:none;stroke:#231f20;stroke-miterlimit:10;stroke-width:7.64px;}</style></defs><title>READCHINA logos</title><g id="Layer_11" data-name="Layer 11"><text class="cls-1" transform="translate(1161.22 249.34)">READCHINA: <tspan x="0" y="167.47">The </tspan><tspan class="cls-2" x="263.9" y="167.47">P</tspan><tspan x="349.04" y="167.47">olitics of Reading in </tspan><tspan x="0" y="334.95">the </tspan><tspan class="cls-3" x="234.88" y="334.95">P</tspan><tspan x="320.01" y="334.95">eopl</tspan><tspan class="cls-4" x="590.68" y="334.95">e</tspan><tspan x="658.58" y="334.95">’s Republic of China</tspan></text><path class="cls-5" d="M266.93,381c69.7-4,124.34-61.87,124.34-132.58A132.46,132.46,0,0,0,258.82,115.58,132.46,132.46,0,0,1,391.27,248.4c0,70.71-54.64,128.57-124.34,132.58,141.44,5.14,254.83,121.91,255.41,264.09l47.73-.83c0-142.68-113.62-260-255.42-265.17,69.7-4,124.34-61.86,124.34-132.58A132.45,132.45,0,0,0,306.54,113.68l-15.73.27A132.43,132.43,0,0,1,415.13,246.49c0,70.72-54.64,128.57-124.34,132.58,141.8,5.15,255.41,122.49,255.42,265.17,0-142.68-113.62-260-255.42-265.17,69.7-4,124.34-61.86,124.34-132.58A132.43,132.43,0,0,0,290.81,114L88.93,117.49A132.46,132.46,0,0,1,221.38,250.31c0,70.71-54.64,128.57-124.33,132.58C238.84,388,352.45,505.38,352.47,648.05l24.78-.43C376,506,262.88,389.92,121.86,384.8c69.7-4,124.34-61.87,124.34-132.59A132.46,132.46,0,0,0,113.75,119.4,132.46,132.46,0,0,1,246.2,252.21c0,70.72-54.64,128.58-124.34,132.59C262.88,389.92,376,506,377.25,647.62l23.86-.42C399.64,505.78,286.6,389.91,145.72,384.8c69.7-4,124.34-61.87,124.34-132.59A132.46,132.46,0,0,0,137.61,119.4,132.46,132.46,0,0,1,270.06,252.21c0,70.72-54.64,128.58-124.34,132.59,140.88,5.11,253.92,121,255.39,262.4l23.88-.42C424.3,504.69,311,388,169.58,382.89c69.7-4,124.34-61.87,124.34-132.58A132.46,132.46,0,0,0,161.47,117.49,132.46,132.46,0,0,1,293.92,250.31c0,70.71-54.64,128.57-124.34,132.58C311,388,424.3,504.69,425,646.78l24.79-.43C448.37,504.88,335.31,389,194.4,383.84c69.69-4,124.33-61.86,124.33-132.58A132.45,132.45,0,0,0,186.28,118.45,132.45,132.45,0,0,1,318.73,251.26c0,70.72-54.64,128.57-124.33,132.58,140.91,5.12,254,121,255.38,262.51l24.85-.44C474.49,503.35,360.93,386.13,219.21,381c69.7-4,124.34-61.87,124.34-132.58A132.46,132.46,0,0,0,211.1,115.58,132.46,132.46,0,0,1,343.55,248.4c0,70.71-54.64,128.57-124.34,132.58,141.72,5.15,255.28,122.37,255.42,264.93l23.85-.42C498.12,503.12,384.65,386.12,243.07,381c69.7-4,124.34-61.87,124.34-132.58A132.46,132.46,0,0,0,235,115.58,132.46,132.46,0,0,1,367.41,248.4c0,70.71-54.64,128.57-124.34,132.58,141.58,5.14,255.05,122.14,255.41,264.51l23.86-.42C521.76,502.89,408.37,386.12,266.93,381Z"/><path class="cls-5" d="M666.23,378.28c0-139.63,107.49-254.08,244.1-264.7l-22.45-.1c-137.28,9.94-245.51,124.69-245.51,264.8,0,146.63,118.51,265.5,264.84,265.5,1.12,0,2.2,0,3.27,0-1.07,0-2.15,0-3.27,0-146.33,0-264.84-118.87-264.84-265.5,0-140.11,108.23-254.86,245.51-264.8l-22.3-.1c-138,9.18-247.07,124.26-247.07,264.9,0,146.63,118.51,265.5,264.84,265.5,1.12,0,2.2,0,3.27,0-1.07,0-2.15,0-3.27,0-146.33,0-264.84-118.87-264.84-265.5,0-140.64,109-255.72,247.07-264.9l-22.3-.1c-138.75,8.41-248.63,123.83-248.63,265,0,146.63,118.51,265.5,264.84,265.5,1.12,0,2.2,0,3.27,0-1.07,0-2.15,0-3.27,0-146.33,0-264.84-118.87-264.84-265.5,0-141.17,109.88-256.59,248.63-265l-7.62,0c-146.32,0-264.87,118.87-264.87,265.5S689.3,644.26,835.63,644.26l3.27,0,92.64.41c-3.37-.3-6.73-.64-10.07-1.06C779.6,638.53,666.23,521.69,666.23,378.28Z"/><path class="cls-5" d="M785.53,379.71c0-146.64,118.55-265.51,264.87-265.51l-140.07-.62c-136.61,10.62-244.1,125.07-244.1,264.7,0,143.41,113.37,260.25,255.24,265.31C791,627.11,690.09,515.46,690.09,380.19c0-146.64,118.55-265.51,264.87-265.51-146.32,0-264.87,118.87-264.87,265.51,0,135.27,100.87,246.92,231.38,263.4,3.19.12,6.38.19,9.6.19,1.12,0,2.2,0,3.27,0-1.07,0-2.15,0-3.27,0-3.22,0-6.41-.07-9.6-.19,3.34.42,6.7.76,10.07,1.06l32.44.14C824.55,637.1,714,521.36,714,379.71,714,233.07,832.5,114.2,978.82,114.2,832.5,114.2,714,233.07,714,379.71c0,141.65,110.6,257.39,250,265.08l26.13.12c-140.5-6.56-252.3-122.78-252.3-265.2,0-146.64,118.55-265.51,264.87-265.51-146.32,0-264.87,118.87-264.87,265.51,0,142.42,111.8,258.64,252.3,265.2l27,.12c-142-4.95-255.45-121.84-255.45-265.32,0-146.64,118.55-265.51,264.87-265.51-146.32,0-264.87,118.87-264.87,265.51,0,143.48,113.48,260.37,255.45,265.32l28.89.13C901.7,642.82,785.53,524.88,785.53,379.71Z"/><path class="cls-5" d="M1053.64,645.19l-7.63,0c1.45,0,2.9.05,4.36.05C1051.49,645.21,1052.57,645.21,1053.64,645.19Z"/></g></svg>