<?xml version="1.0" encoding="utf-8"?>
<!-- Generator: Adobe Illustrator 23.1.0, SVG Export Plug-In . SVG Version: 6.00 Build 0)  -->
<svg version="1.1" id="Layer_1" xmlns="http://www.w3.org/2000/svg" xmlns:xlink="http://www.w3.org/1999/xlink" x="0px" y="0px"
	 viewBox="0 0 4107 745.6" style="enable-background:new 0 0 4107 745.6;" xml:space="preserve">
<style type="text/css">
	.st0{fill:#010101;}
	.st1{font-family:'Lato-Bold';}
	.st2{font-size:139.56px;}
	.st3{letter-spacing:-1;}
	.st4{letter-spacing:-2;}
	.st5{letter-spacing:-6;}
	.st6{fill:none;stroke:#010101;stroke-width:7.64;stroke-miterlimit:10;}
	.st7{fill:none;}
	.st8{fill:none;stroke:#FFFFFF;stroke-width:10;stroke-miterlimit:10;}
</style>
<title>READCHINA-logo-bw</title>
<g id="Layer_6">
	<text transform="matrix(1 0 0 1 2128.6699 236.52)" class="st0 st1 st2">READCHINA: </text>
	<text transform="matrix(1 0 0 1 2128.6699 403.99)" class="st0 st1 st2">The </text>
	<text transform="matrix(1 0 0 1 2392.5698 403.99)" class="st0 st1 st2 st3">P</text>
	<text transform="matrix(1 0 0 1 2477.71 403.99)" class="st0 st1 st2">olitics of Reading in </text>
	<text transform="matrix(1 0 0 1 2128.6699 571.47)" class="st0 st1 st2">the </text>
	<text transform="matrix(1 0 0 1 2363.5498 571.47)" class="st0 st1 st2 st4">P</text>
	<text transform="matrix(1 0 0 1 2448.6799 571.47)" class="st0 st1 st2">eopl</text>
	<text transform="matrix(1 0 0 1 2719.3499 571.47)" class="st0 st1 st2 st5">e</text>
	<text transform="matrix(1 0 0 1 2787.25 571.47)" class="st0 st1 st2">’s Republic of China</text>
	<path class="st6" d="M1234.4,368.2c69.7-4,124.3-61.9,124.3-132.6c0.2-73.2-59-132.6-132.1-132.8c-0.1,0-0.2,0-0.3,0
		c73.2,0,132.5,59.3,132.5,132.5c0,0.1,0,0.2,0,0.3C1358.7,306.3,1304.1,364.2,1234.4,368.2c141.4,5.1,254.8,121.9,255.4,264.1
		l47.7-0.8c0-142.7-113.6-260-255.4-265.2c69.7-4,124.3-61.9,124.3-132.6c0.2-73.2-59-132.6-132.1-132.8c-0.1,0-0.2,0-0.3,0
		l-15.7,0.3c70,4.3,124.5,62.4,124.3,132.5c0,70.7-54.7,128.6-124.3,132.6c141.8,5.1,255.4,122.5,255.4,265.2
		c0-142.7-113.6-260-255.4-265.2c69.7-4,124.3-61.9,124.3-132.6c0.2-70.1-54.3-128.2-124.3-132.5l-201.9,3.5
		c73.2,0,132.5,59.3,132.5,132.5c0,0.1,0,0.2,0,0.3c0,70.7-54.6,128.6-124.3,132.6c141.8,5.1,255.4,122.5,255.4,265.2l24.8-0.4
		c-1.2-141.6-114.4-257.7-255.4-262.8c69.7-4,124.3-61.9,124.3-132.6c0.2-73.1-58.9-132.6-132.1-132.8c-0.1,0-0.2,0-0.4,0
		c73.2,0,132.5,59.3,132.5,132.4c0,0.1,0,0.2,0,0.4c0,70.7-54.7,128.6-124.3,132.6c141,5.1,254.1,121.2,255.4,262.8l23.9-0.4
		c-1.5-141.4-114.5-257.3-255.4-262.4c69.7-4,124.3-61.9,124.3-132.6c0.2-73.1-58.9-132.6-132.1-132.8c-0.1,0-0.2,0-0.4,0
		c73.2,0,132.5,59.3,132.5,132.4c0,0.1,0,0.2,0,0.4c0,70.7-54.7,128.6-124.3,132.6c140.9,5.1,253.9,121,255.4,262.4l23.9-0.4
		c-0.7-142.1-114-258.8-255.4-263.9c69.7-4,124.3-61.9,124.3-132.6c0.2-73.2-59-132.6-132.1-132.8c-0.1,0-0.2,0-0.3,0
		c73.2,0,132.5,59.3,132.5,132.5c0,0.1,0,0.2,0,0.3c0,70.7-54.7,128.6-124.3,132.6c141.4,5.1,254.7,121.8,255.4,263.9l24.8-0.4
		c-1.4-141.5-114.5-257.4-255.4-262.5c69.7-4,124.3-61.9,124.3-132.6c0.2-73.1-58.9-132.6-132.1-132.8c-0.1,0-0.2,0-0.4,0
		c73.2,0,132.5,59.3,132.5,132.4c0,0.1,0,0.2,0,0.4c0,70.7-54.6,128.6-124.3,132.6c140.9,5.1,254,121,255.4,262.5l24.8-0.4
		c-0.1-142.6-113.7-259.8-255.4-264.9c69.7-4,124.3-61.9,124.3-132.6c0.2-73.2-59-132.6-132.1-132.8c-0.1,0-0.2,0-0.4,0
		c73.2,0,132.5,59.3,132.5,132.5c0,0.1,0,0.2,0,0.3c0,70.7-54.7,128.6-124.3,132.6c141.7,5.1,255.3,122.4,255.4,264.9l23.8-0.4
		c-0.4-142.4-113.8-259.4-255.4-264.5c69.7-4,124.3-61.9,124.3-132.6c0.2-73.2-59-132.6-132.1-132.8c-0.1,0-0.2,0-0.4,0
		c73.2,0,132.5,59.3,132.5,132.5c0,0.1,0,0.2,0,0.4c0,70.7-54.7,128.6-124.3,132.6c141.6,5.1,255,122.1,255.4,264.5l23.9-0.4
		C1489.2,490.1,1375.8,373.3,1234.4,368.2z"/>
	<path class="st6" d="M1633.7,365.5c0-139.6,107.5-254.1,244.1-264.7l-22.4-0.1c-137.3,9.9-245.5,124.7-245.5,264.8
		c0,146.6,118.5,265.5,264.8,265.5h3.3h-3.3c-146.3,0-264.8-118.9-264.8-265.5c0-140.1,108.2-254.9,245.5-264.8l-22.3-0.1
		c-138,9.2-247,124.3-247,264.9c0,146.6,118.5,265.5,264.8,265.5h3.3h-3.3c-146.3,0-264.8-118.9-264.8-265.5
		c0-140.6,109-255.7,247-264.9l-22.3-0.1c-138.8,8.4-248.6,123.8-248.6,265c0,146.6,118.5,265.5,264.8,265.5h3.3h-3.3
		c-146.3,0-264.8-118.9-264.8-265.5c0-141.2,109.9-256.6,248.6-265h-7.6c-146.3,0-264.9,118.9-264.9,265.5s118.5,265.5,264.8,265.5
		h3.3l92.7,0.4c-3.4-0.3-6.7-0.6-10.1-1.1C1747.1,625.7,1633.7,508.9,1633.7,365.5z"/>
	<path class="st6" d="M1753,366.9c0-146.6,118.6-265.5,264.9-265.5l-140.1-0.6c-136.6,10.6-244.1,125.1-244.1,264.7
		c0,143.4,113.4,260.2,255.2,265.3c-130.5-16.5-231.4-128.1-231.4-263.4c0-146.6,118.6-265.5,264.9-265.5
		c-146.3,0-264.9,118.9-264.9,265.5c0,135.3,100.9,246.9,231.4,263.4c3.2,0.1,6.4,0.2,9.6,0.2h3.3h-3.3c-3.2,0-6.4-0.1-9.6-0.2
		c3.3,0.4,6.7,0.8,10.1,1.1l32.4,0.1c-139.4-7.7-250-123.4-250-265.1c0-146.6,118.6-265.5,264.9-265.5
		c-146.3,0-264.9,118.9-264.9,265.5c0,141.7,110.6,257.4,250,265.1l26.1,0.1c-140.5-6.6-252.3-122.8-252.3-265.2
		c0-146.6,118.6-265.5,264.9-265.5c-146.3,0-264.9,118.9-264.9,265.5c0,142.4,111.8,258.6,252.3,265.2l27,0.1
		c-142-5-255.4-121.8-255.4-265.3c0-146.6,118.6-265.5,264.9-265.5c-146.3,0-264.9,118.9-264.9,265.5
		c0,143.5,113.5,260.4,255.4,265.3l28.9,0.1C1869.2,630,1753,512.1,1753,366.9z"/>
	<path class="st6" d="M2021.1,632.4h-7.6c1.4,0,2.9,0,4.4,0H2021.1z"/>
	<path class="st7" d="M-0.7-132.3v33.9c53.6,5.2,106.9,13.7,160.3,21c6.4,0.9,3.6,10.5-2.6,9.6c-20.5-2.8-41-5.8-61.5-8.7
		c-31.9-4.5-64-8.8-96.2-12v956.1h3500v-1000L-0.7-132.3z"/>
	<line class="st8" x1="864.7" y1="76" x2="864.7" y2="656.3"/>
	
		<image style="overflow:visible;enable-background:new    ;" width="1081" height="1044" xlink:href="ERC Logos/LOGO_ERC-black-and-white.gif"  transform="matrix(0.52 0 0 0.52 140.84 101.98)">
	</image>
</g>
</svg>
